<?xml version="1.0" encoding="utf-8"?>
<!-- Generator: Adobe Illustrator 28.1.0, SVG Export Plug-In . SVG Version: 6.00 Build 0)  -->
<svg version="1.1" id="Layer_1" xmlns="http://www.w3.org/2000/svg" xmlns:xlink="http://www.w3.org/1999/xlink" x="0px" y="0px"
	 viewBox="0 0 341 137.4" style="enable-background:new 0 0 341 137.4;" xml:space="preserve">
<style type="text/css">
	.st0{fill:#68CC3D;}
</style>
<g>
	<g>
		<path d="M164.2,107.3c-1.2,0-2.1-0.4-2.7-1.1c0,0-0.1-0.1-0.1-0.1c-0.5-0.8-0.5-1.7-0.4-2.4c0-0.1,0-0.1,0-0.2
			c-0.9,0.2-2.1,0.6-2.7,0.8c-0.2,0.1-0.4,0.1-0.5,0.2c0,0-0.1,0-0.1,0c-0.5,0.1-1,0.2-1.5,0.4c-2,0.5-4.3,1.2-6.5,1.2
			c-4.3,0-5.9-2.5-6.5-4.7c-0.6-2.2-0.4-4.7-0.2-6.9c0.1-0.6,0.1-1.2,0.1-1.7c0.1-2,0.1-4.1,0-6.1c-0.1-2.1-0.1-4.2,0-6.3
			c0.1-2.3,0.1-5.9,0-9.5c-0.1-3.6-0.1-7.3,0-9.7c0.1-1,0.1-1.9,0.1-3c0-1,0-2,0.1-3.1c0.1-2,0.2-3.9,0.2-5.8
			c-0.2-1.9,0.5-3,2.2-3.9c0,0,0.1,0,0.1-0.1c2-0.8,4.4-1.1,6.4-1.4c0.6-0.1,1.1-0.2,1.6-0.2c0.3,0,0.5,0,0.7,0
			c2.1,0,2.5,1.5,2.9,2.8l0.1,0.3c0.3,1.2,0.2,2.5,0.1,3.6c0,0.4-0.1,0.8-0.1,1.2c-0.1,3.4,0,8.6,0.1,13.7c0.1,3.4,0.1,6.7,0.1,9
			c0,3.1,0.1,6.3,0.3,9.5c0,0.7,0,1.6,0,2.5c0,1.2-0.1,2.6,0.1,3.7c1.2-0.1,2.7-0.6,3.1-0.8c0.2-0.4,0.1-1.7,0-2.3
			c0-0.5-0.1-0.9-0.1-1.2c0-1.8,0-3.6,0.1-5.4c0-1.8,0.1-3.6,0.1-5.4c0-5.8,0-16.7-0.6-22.3c-0.2-1.8-0.4-5.2-0.1-8.3
			c0.4-3.5,5.2-4.1,7.8-4.4l0.3,0c0.4,0,0.8-0.1,1.3-0.2c1.1-0.2,2.2-0.4,3.4-0.4c1.5,0,2.6,0.4,3.5,1.1c1.9,1.7,1.8,4.7,1.7,6.8
			c0,0.4,0,0.8,0,1.2c-0.4,5.9-0.6,17.1-0.4,22.9c0.3,5.6,0.2,11.2,0.2,16.7c0,2.2,0,4.4,0,6.6c0,0.3,0,0.8,0,1.3
			c0.1,3.5,0.1,6.6-1.4,8c-1.2,1.1-3.5,1.6-5.4,2c-0.6,0.1-1.2,0.3-1.7,0.4c-0.3,0.1-0.7,0.2-1.1,0.3
			C167.4,106.8,165.6,107.3,164.2,107.3z M75.4,105.2c-2.2,0-4.4-0.7-6.2-2.1c-1.8-1.1-4-3-4.8-4.9c-0.4-1.2-0.6-2.5-0.6-4.3
			c0-0.8,0-1.6,0.1-2.4c0-0.7,0.1-1.4,0.1-2.1c0-2.9,0.1-5.8,0.4-8.7c0.1-2.3,0.1-4.8,0.1-7.2c0-1.9,0-3.8-0.2-5.6
			c-0.1-1.4-0.2-2.8-0.3-4.1c-0.1-1.3-0.1-2.6-0.2-3.9c-0.5-3.7-0.6-7.6-0.7-11.3c0-1.5-0.1-3-0.2-4.5c-0.2-3.6-0.4-7.4-0.5-11
			l0-0.4c0-0.4-0.1-0.8-0.2-1.4c-0.3-2.1-0.7-4.8,0.7-6.7c1.6-2.2,4.1-2.9,6.4-3.5c0.8-0.2,1.6-0.4,2.3-0.7c0.7-0.2,1.3-0.5,2-0.7
			c2.5-1,5.1-2,8.1-2.2c0.4,0,0.8,0,1.1,0c2.9,0,5.2,0.9,7.6,1.8l0.6,0.2l0.6,0.2c2.8,1,5.9,2.1,6.5,5.7c1,5.4,2.3,16.8,2.3,25
			c0,3.2-0.2,5.6-0.6,7.2c-0.6,2.4-1.5,3-3.1,3.9c-0.2,0.1-0.5,0.3-0.8,0.4c-0.7,0.4-1.5,0.6-2.1,0.8c-0.9,0.3-1.5,0.5-1.8,0.9
			c0.3,0.2,1,0.6,1.4,0.7c0.2,0.1,0.5,0.2,0.7,0.3c0.3,0.2,0.7,0.3,1.1,0.5c1.5,0.6,3.2,1.3,4,3.4c1,2.2,1.1,4.8,1.1,7.2
			c0,0.6,0,1.2,0.1,1.8c0.2,3.3,0.2,4.4,0.1,6l-0.1,0.8c0,0.6,0,1.1-0.1,1.6c0,1.9-0.1,3.8-1,6c-1,2.8-4.5,4.6-7.6,6.2
			c-1,0.5-1.9,1-2.6,1.4c-4.4,2.8-8.2,4.6-11.5,5.2C76.7,105.1,76,105.2,75.4,105.2z M80.6,79.7c-0.1,1,0,2,0.1,3.1c0,0,0,0.1,0,0.1
			c1.4-0.2,2.4-0.5,2.6-0.7c0.1-0.2,0.1-0.7,0-1c0-0.3-0.1-0.6-0.1-0.8c0-0.7,0-1.3,0.1-2c0-0.6,0.1-1.2,0.1-1.9
			c0-0.3,0-0.6,0.1-0.8c-1.7,0.2-2.5,0.7-2.8,0.8c-0.1,0.4,0,0.8,0,1.2C80.7,78.3,80.8,79,80.6,79.7z M78.3,57.4
			c0.1,0,0.3,0,0.8-0.2c1.2-0.5,2.4-1.4,2.6-1.8c0.3-1.3,0.2-2.8,0.1-4.4c-0.1-1.2-0.2-2.5-0.1-3.7c0-0.1,0-0.2,0-0.4
			c0-0.6,0-2-0.3-2.4c-0.1,0-0.2-0.1-0.3-0.1c-0.1,0-0.2,0-0.3,0c-1.3,0.2-2.8,1.1-3.1,1.6c-0.2,1-0.1,2.3,0.1,3.5
			c0.1,0.6,0.2,1.2,0.2,1.8c0,0.4,0.1,0.8,0.1,1.2c0.1,1.3,0.3,2.8,0.2,4.1C78.2,57.1,78.2,57.3,78.3,57.4L78.3,57.4
			C78.3,57.4,78.3,57.4,78.3,57.4z M188,104.3c-4.1,0-5.1-2.6-5.3-6.6c-0.4-7.4-0.4-15.1-0.3-22.4c0-4.1,0.1-8.3,0-12.4
			c0-2.9-0.1-5.1-0.2-7.2c-0.1-2.8-0.3-5.5-0.1-9.4c0.2-5.9-0.6-8.8-1.4-9.7c-0.1-0.2-0.2-0.2-0.3-0.2c-0.6,0.1-1.6,0.2-3,0.4
			c-5.5,0.8-15.8,2.3-22.8,2.3c-3.7,0-7.6-0.3-8.2-2.9c-0.4-1.7-1.7-13.2,1.6-16.2c0.9-0.8,3.5-1.4,27.1-2.6
			c1.4-0.1,2.4-0.1,2.7-0.1c1.2-0.1,2.4-0.2,3.6-0.3c1.3-0.1,2.5-0.2,3.8-0.3c3.8-0.3,5.8-0.3,7.8-0.3c2,0,3.9,0,7.6-0.2
			c0.2,0,0.5-0.1,0.8-0.1c0.8-0.1,1.6-0.2,2.3-0.2c2,0,3.4,0.7,4.3,2.2c1,1.4,1.1,3.5,1.2,5.2c0,0.3,0,0.5,0.1,0.8
			c0.9,7.7-0.5,12.1-4,13.2c-2.1,0.6-2.6,0.7-3.9,0.8c-0.5,0-1.1,0.1-2,0.2c-0.2,0.7-0.2,2.3-0.3,3.2c-0.3,2.7-0.3,5.9-0.3,7.8
			c0.1,7.3,0.4,13.5,0.6,19.5c0.3,7.2,0.5,14.1,0.6,22.6c0,0.5,0.1,1.2,0.2,2c0.3,2.2,0.6,5-0.9,6.8c-2.6,2.8-6.5,3.7-8.7,4
			C189.6,104.2,188.8,104.3,188,104.3z M47.6,104.1c-2.6,0-4.4-1.8-4.5-4.4c-0.1-2-0.1-4.2-0.1-6.2c0-0.8,0-1.5,0.1-2.2
			c0.1-1.4,0.1-2.7,0-3.9c0-0.1,0-0.1,0-0.2c0-0.2,0-0.4,0-0.7c0-0.7,0.1-2.6-0.1-3.3c0,0,0,0,0,0c-0.8,0-2.2,0.5-2.9,0.8l-0.3,0.1
			c-0.8,0.3-1,0.8-1,3v0.7v7.3c0,6.8-10.4,7.3-13.6,7.3c-0.7,0-2.5-0.2-3.5-0.9c-1.4-0.9-1.4-3-1.4-4c-0.2-2.2-0.1-5.1,0-8
			c0-2.2,0.1-4.3,0-6.1c0-2.2-0.1-4.4-0.1-6.6c-0.1-2.2-0.1-4.4-0.1-6.6c0-0.4,0-0.8,0-1.2c-0.1-0.9-0.1-1.9,0.1-2.9
			c0.1-1,0.5-2,0.8-2.9c0.1-0.3,0.2-0.6,0.3-0.8c1.2-3.6,1.7-6.6,2.3-9.7c0.5-2.6,1-5.3,1.9-8.5c0.5-1.8,0.7-4.3,0.9-6.7
			c0.2-1.8,0.3-3.7,0.6-5.3c0-0.3,0.1-0.7,0.1-1.1c0.2-1.8,0.5-3.8,1.4-5.2c1.5-2.2,6.3-3.5,11.2-4.7l0.4-0.1
			c2.9-0.9,5.5-1.5,7.9-1.7l0.2,0c0.7-0.1,1.5-0.2,2.3-0.2c1.6,0,2.8,0.5,3.8,1.5c1.3,1.3,2.1,3.2,2.5,5.9
			c0.8,5.8,1.4,12.2,1.7,19.1c0.1,2.1,0.5,4.1,0.9,6.2c0.5,2.5,1,5.2,1,7.9c0,3.5,0,7.1-0.1,10.8C60,74,60,77.6,60,81.3v5.4
			c0,3,0,6.2,0.1,9.1c0,0.3,0,0.6,0.1,0.9c0.1,0.8,0.2,1.6,0,2.5c0,0,0,0.1,0,0.1c-0.6,1.6-1.8,2.1-2.7,2.4l-0.1,0.1
			c-3.2,1.7-5.9,2.1-9.4,2.2C47.9,104.1,47.7,104.1,47.6,104.1z M41.8,50.5c-0.6,0.1-1.5,0.5-1.9,0.9c-0.5,0.4-0.4,1.7-0.3,2.5
			l0,0.2c0.1,1.1,0.1,2.1,0.1,3.1c0,1,0,1.9,0.1,2.9v4.7c0.8-0.1,1.9-0.4,2.4-0.6c0.3-0.3,0.4-0.7,0.4-1.8l-0.4-7.4
			c-0.1-1.1-0.2-2.2-0.4-3.2c0-0.1,0-0.1,0-0.2c0-0.2,0-0.3,0-0.5C41.8,51,41.8,50.8,41.8,50.5z M297.2,103.9
			c-3-0.2-7.1-0.7-8.5-3.2c-0.7-1.2-0.7-2.6-0.8-3.8c0-0.3,0-0.7-0.1-1c-0.1-2.1-0.3-4.2-0.3-6.3c0-3.2-0.1-6.2-0.3-9.4
			c-0.1-2.2-0.2-4.4-0.2-6.7c-0.1-4.1-0.3-8.3-0.3-12.4c0-2.5,0-4.8,0.3-7.4c0.3-3.4,0.4-6.6,0.2-9.5c-0.2-5.7-0.6-11.2-1.2-16.8
			c0-0.5-0.1-1-0.1-1.5c-0.2-1.6-0.4-3.4,0.2-5.3c0.4-1.5,1.8-3.4,5.9-3.4c0.7-0.1,1.4-0.1,2-0.2c1.9-0.2,3.9-0.3,5.8-0.7
			c1.5-0.4,3.1-0.7,4.6-1c1.7-0.3,3.3-0.7,4.9-1.1c0.4-0.1,0.8-0.2,1.2-0.3c1.1-0.3,2.2-0.6,3.2-0.6c1.9,0,2.9,1,3.4,1.9
			c1.3,2.1,1.5,5,1.6,7.3l0,0.2c0,0.5,0,1.1,0,1.8c0,1.1,0.1,2.5,0.1,3.9c0,5.3-0.5,6.6-0.6,7c-1,2.5-3.2,3.2-5.1,3.9
			c-0.3,0.1-0.6,0.2-1,0.3c0,0-0.1,0-0.1,0c-2.3,0.7-6.2,1.2-9,1.5c0,0-0.1,0-0.1,0c-2.4,0-2.4,0.1-2.5,1.9c0,1.2,0,1.4,0.1,2.5
			c0,0.3,0.1,0.7,0.1,0.9c0,0.5,0,0.7,0.2,0.9c0,0,0.3,0.3,1.4,0.3c0.8,0,1.7-0.1,2.5-0.2c0.4,0,0.8-0.1,1-0.1
			c0.6-0.1,1.2-0.2,2-0.4c2-0.4,4.3-0.9,6-0.9c0.2,0,0.3,0,0.5,0c0,0,0.1,0,0.1,0c3.3,0.5,3.5,4.6,3.5,6.8c0,0.3,0,0.6,0,0.9
			c0.1,1.6,0.1,3.1,0.1,4.8c0,0.2,0,0.4,0.1,0.6c0.1,1.2,0.3,2.5,0,3.7c0,0,0,0.1,0,0.1c-1.4,4.7-7.8,5.6-12,6.2
			c-0.7,0.1-1.3,0.2-1.8,0.3c-1.9,0.3-1.9,0.3-2,3c-0.1,3.1-0.1,3.9,0.2,6.7c0.2,1.5,0.6,1.8,2.3,1.8c0.2,0,0.4,0,0.5,0
			c2.4,0,5.1-0.5,7.2-1c0.4-0.1,0.9-0.3,1.3-0.6c0.9-0.4,1.8-0.8,2.8-0.8c1.4,0,2.5,0.8,3.3,2.2c0.9,1.6,1.1,3.7,1.2,5.6
			c0,0.6,0.1,1.2,0.1,1.8l0,0.4c0.3,2.2,0.6,4.9-0.9,7.2c-1.9,3.1-6,4.5-9.2,5.7c-0.4,0.1-0.7,0.2-1,0.4c0,0-0.1,0-0.1,0
			c-4.3,1.2-8.5,1.9-12.7,1.9C297.2,103.9,297.2,103.9,297.2,103.9z M117.7,103.6c-0.8,0-1.5-0.1-2.1-0.2c-3.8-0.8-5.3-2.9-6.8-4.9
			c-0.5-0.7-1-1.4-1.7-2.2c-2.4-2.8-4-6.6-4.6-11.5c-0.3-2.5-0.5-5.4-0.5-8.7c0-2.9,0.1-5.8,0.3-8.6c0,0,0-0.1,0-0.1
			c0.1-1.2,0.1-2.3,0.1-3.6c0-2.3-0.1-4.7-0.2-7c-0.2-3.2-0.3-6.5-0.2-9.8c0.1-1.5,0-3.1-0.1-4.8c-0.1-1.3-0.2-2.6-0.2-3.9
			c0-2,0.1-4.4,0.8-6.7c1-3.3,2.9-6.3,6.3-9.9c3.8-3.9,11.2-7.8,18.1-7.8c2.8,0,5.2,0.6,7.3,1.9c6,3.6,6.8,9.5,6.8,14.8
			c0,1.4-0.1,2.8-0.1,4.2c-0.1,1.4-0.1,2.7-0.1,3.9c0.1,2.7,0,5.4-0.1,8.1c-0.1,2-0.1,4-0.1,6c0,1.6,0,3.2,0.1,4.8
			c0.1,2.2,0,4.4-0.2,6.5c-0.2,2.1-0.3,4.1-0.2,6.1l0,0.2c0.3,3.6,0.5,7.1,0.2,10.7l0,0.2c-0.3,3.3-0.7,8.9-3.3,12.2
			c-1.3,1.6-2.8,2.9-4.3,4.3l-0.1,0.1c-1.2,1.1-2.4,1.6-3.6,2.1c-0.8,0.3-1.5,0.6-2.3,1.1C124.6,102.8,120.5,103.6,117.7,103.6z
			 M119.2,80.3c0.1,0,0.2,0,0.3,0c1,0,2.7-0.7,3.4-1.5c0.8-0.8,0.8-3.5,0.7-5.2c0-0.7,0-1.3,0-1.9c0.2-2.4,0.1-4.6-0.1-7
			c-0.1-2.2-0.3-4.4-0.2-6.7c0-1.1,0-2.3,0.1-3.5c0-1.2,0.1-2.4,0.1-3.7c0-3.1-0.2-5.7-0.5-8c0-0.1-0.1-0.3-0.1-0.4
			c-0.1,0-0.3,0-0.4,0c-0.7,0-2.6,0.5-3,0.8c-0.5,0.4-0.5,1.9-0.6,3c0,0.4,0,0.8-0.1,1.1c-0.4,2.7-0.4,5.1-0.4,7.6
			c0,1.6,0.1,3.2,0.2,4.8c0.1,3.2,0.2,6.6,0.2,9.9c0,1.1-0.1,2.2-0.1,3.3c-0.1,1.1-0.1,2.2-0.1,3.3
			C118.7,77.9,118.8,79.2,119.2,80.3C119.1,80.2,119.1,80.3,119.2,80.3C119.2,80.3,119.2,80.3,119.2,80.3z M253.2,103.2
			c-5,0-5.3-4.7-5.5-8.2l-0.1-0.9c-0.2-1.8-0.4-3.7-0.6-5.5c-0.3-2.4-0.6-5-0.8-7.5c0-1.1,0-2.1-0.1-3.1c0-1-0.1-1.9-0.1-2.8
			c0-0.4-0.1-1-0.1-1.7c0-1-0.1-3-0.3-3.5c-0.1-0.2-0.2-0.3-0.6-0.3c-0.3,0-0.8,0.1-1.2,0.3c-0.7,0.3-0.8,0.6-0.9,2.4
			c0,0.3,0,0.6,0,0.9c-0.1,1.7-0.1,3.4-0.1,5.1c0,1.8,0,3.6,0.1,5.3c0,1.8,0.1,3.6,0.1,5.4c0,2.4,0,5-0.3,7.6
			c-0.4,3.9-5.1,6.3-9.3,6.3c-1.1,0-2.1-0.2-3-0.5c-3.1-1.1-3.1-5.2-3.1-6.6c0-1.1,0.1-2.3,0.2-3.3c0.1-0.8,0.2-1.5,0.2-2
			c0.1-2.4,0.1-4.6,0.1-6.8c0-2.2,0-4.5-0.1-6.7c0-2.2-0.1-4.5-0.1-6.7c0-2.2,0-4.6,0.1-6.9c0.1-2.7,0-5.7-0.1-8.6
			c-0.1-2.2-0.1-4.5-0.1-6.7c0-2,0.1-3.8,0.3-5.7c0.1-0.8,0.1-1.7,0-2.7c0-0.5,0-1.1,0-1.6c0-3.3,0.1-6.8,1.8-9.2
			c1.4-2.3,6.1-3.5,12.1-4.8c1.4-0.3,2.7-0.6,3.3-0.8c1.1-0.4,2.1-0.5,2.9-0.5c4.4,0,4.8,4.8,5,6.9c0.1,0.8,0.1,1.5,0.2,2.3
			c0.3,3.2,0.7,6.5,0.7,9.9c0,0.5,0,1-0.1,1.7c0,0.8-0.1,1.8-0.1,2.8c0,4.1,0.6,5.5,1.1,6c0,0,0.1,0,0.1,0.1
			c0.1,0.1,0.3,0.2,0.6,0.2c0.4,0,0.9-0.2,1-0.3c0,0,0.1,0,0.1-0.1c0.6-0.5,0.7-1.8,0.8-3.2c0-0.3,0-0.6,0-0.9
			c0.4-9.6,1-18.8,1.6-26.6c0.3-5.9,3.1-6.9,7.5-7.7c0.4-0.1,0.8-0.1,1.3-0.2c1.5-0.3,3.4-0.7,5.3-0.7c4,0,5.6,1.8,6.4,3.3
			c0.8,1.5,0.9,3.5,0.9,5.3c0,1,0,2-0.1,3c-0.1,1.3-0.1,2.5,0,3.5c0.5,4.9,0.9,10,1.2,15c0.2,5.4,0.8,10.9,1.3,16.2
			c0.5,5.3,1.1,10.7,1.3,16.1c0.1,1.7,0.3,4.7,0.6,7.8c0.4,4,0.7,8.2,0.7,10.5c0,4.9-5.8,6.3-9.2,7.1l-0.3,0.1
			c-0.7,0.2-1.2,0.2-1.7,0.2c-2.6,0-2.8-2.2-3-4.2l0-0.2l-0.4-5.7c-0.2-1.8-0.4-5.2-0.7-8.4c-0.3-3.4-0.5-7-0.7-8.8
			c0-0.1,0-0.1,0-0.2c0-0.5,0-0.9-0.1-1.2c-0.2,0-0.4,0-0.6,0c-0.6,0-0.6,0-0.9,0.5c-0.4,0.8-0.3,2.5-0.2,4.4l0,0.2
			c0.1,2.2,0.2,4.3,0.3,6.4c0.1,2,0.2,4.1,0.2,6.1c0,0.6,0.1,1.2,0.2,1.8c0.1,1,0.3,2.1,0.3,3.2c0,2.9-1.2,4.8-3.5,5.7
			c-2.7,1-6,1.5-9,2c-0.7,0.1-1.3,0.2-1.9,0.3C253.8,103.2,253.5,103.2,253.2,103.2z"/>
		<path d="M273.1,14.7c2.1,0,4.1,0.5,5,2.5c0.6,1.2,0.8,2.8,0.8,4.6c0,2.3-0.3,4.8-0.1,6.6c0.5,5,0.9,10.1,1.2,15
			c0.4,10.8,2.2,21.5,2.6,32.2c0.1,4,1.3,14.2,1.3,18.2c0,3.9-5,4.9-8.4,5.7c-0.6,0.1-1,0.2-1.4,0.2c-1.2,0-1.3-0.9-1.5-3.1
			c-0.1-1.9-0.3-3.7-0.4-5.7c-0.4-3.7-1-13.7-1.4-17.3c0-0.9-0.1-2.4-0.8-2.6c-0.6-0.1-1-0.1-1.4-0.1c-1.3,0-1.7,0.4-2.2,1.2
			c-0.6,1.2-0.5,3.1-0.4,5.4c0.1,4.3,0.4,8.4,0.5,12.5c0.1,1.7,0.5,3.3,0.5,5c0,1.8-0.5,3.5-2.6,4.3c-3.1,1.2-7.5,1.7-10.6,2.2
			c-0.3,0-0.5,0-0.8,0c-3.9,0-3.8-3.9-4-7.7c-0.4-4.4-1.2-8.6-1.4-13c0-2.1-0.1-4-0.1-5.9c-0.1-1.3,0-4.5-0.5-5.7
			c-0.4-0.9-1.2-1.2-2-1.2c-0.6,0-1.2,0.2-1.9,0.4c-1.9,0.9-1.7,2.4-1.8,4.6c-0.1,1.7-0.1,3.5-0.1,5.2c0,3.6,0.1,7.1,0.1,10.7
			c0,2.4,0,4.9-0.3,7.5c-0.3,3.1-4.4,4.9-7.8,4.9c-0.9,0-1.7-0.1-2.4-0.4c-1.8-0.7-2.2-2.8-2.2-5.2c0-1.9,0.4-4,0.4-5.3
			c0.1-2.3,0.1-4.6,0.1-6.8c0-4.5-0.1-8.9-0.1-13.4c0-2.2,0-4.5,0.1-6.8c0.1-4.9-0.3-10.3-0.3-15.4c0-1.9,0.1-3.7,0.3-5.5
			c0.1-1.3,0-2.8,0-4.4c0-3.1,0.1-6.3,1.6-8.4c1.7-2.7,12-4.1,14.7-5c0.9-0.3,1.8-0.5,2.4-0.5c2.4,0,3.2,1.9,3.5,5.5
			c0.4,4,0.9,8,0.9,12.1c0,1-0.1,2.7-0.1,4.5c0,2.8,0.3,5.8,1.6,7.1c0.4,0.5,1.1,0.7,1.7,0.7c0.8,0,1.5-0.3,2-0.7
			c1.4-1,1.3-3.2,1.4-5.2c0.4-8.8,0.9-18.1,1.6-26.6c0.3-4.9,2.1-5.6,6.3-6.3C268.4,15.4,270.8,14.7,273.1,14.7 M313.8,15
			c0.9,0,1.6,0.3,2.1,1.2c1.2,1.8,1.3,4.6,1.4,6.8c0,1,0.1,3.2,0.1,5.6c0,2.7-0.1,5.4-0.5,6.5c-0.9,2.2-3.1,2.6-5.2,3.3
			c-2.3,0.7-6.2,1.2-8.8,1.4c-2.7,0-3.9,0.4-4,3.3c0,1.3,0,1.5,0.1,2.7c0.1,1,0,1.5,0.4,2.3c0.4,0.9,1.5,1.1,2.8,1.1
			c1.3,0,2.8-0.3,3.7-0.3c2.1-0.4,5.6-1.3,7.8-1.3c0.1,0,0.3,0,0.4,0c2.5,0.4,2.2,4.4,2.3,6.3c0.1,1.5,0.1,3.1,0.1,4.8
			c0.1,1.3,0.4,2.7,0.1,4c-1.3,4.4-9,4.8-12.6,5.4c-3,0.5-3.1,1.6-3.2,4.4c-0.1,3.1-0.1,4,0.3,7c0.4,2.4,1.5,3.1,3.8,3.1
			c0.2,0,0.4,0,0.6,0c2.5,0,5.2-0.5,7.5-1c1.4-0.4,2.6-1.3,3.7-1.3c0.7,0,1.4,0.4,2,1.5c1,1.8,0.9,4.5,1.2,6.8
			c0.3,2.2,0.6,4.6-0.6,6.6c-1.8,3-6.5,4.4-9.5,5.6c-4,1.2-8.1,1.8-12.3,1.8c-2.2-0.1-6.2-0.5-7.4-2.4c-0.6-1.2-0.5-2.8-0.6-4.1
			c-0.1-2.1-0.3-4.1-0.3-6.2c0-5.4-0.4-10.6-0.5-16.1c-0.1-4.1-0.3-8.3-0.3-12.4c0-2.5,0-4.8,0.3-7.2c0.3-3.1,0.4-6.5,0.3-9.7
			c-0.3-5.8-0.6-11.3-1.2-16.9c-0.1-2.1-0.6-4.1,0-6.2c0.5-1.9,2.7-2.3,4.5-2.3c2.6-0.3,5.3-0.4,8-0.9c3.2-0.8,6.5-1.3,9.5-2.1
			C311,15.6,312.5,15,313.8,15 M127,15.5c2.5,0,4.6,0.5,6.6,1.7c5.2,3.1,6.1,8.1,6.1,13.5c0,2.7-0.3,5.5-0.3,8.1
			c0.1,4.6-0.3,9.4-0.3,14.1c0,1.7,0,3.2,0.1,4.9c0.3,4.1-0.6,8.4-0.4,12.5c0.3,3.6,0.5,7.1,0.3,10.7c-0.3,3.2-0.6,8.6-3,11.6
			c-1.3,1.6-2.7,2.8-4.3,4.3c-1.7,1.6-3.6,1.7-5.7,3c-2,1.4-5.7,2.2-8.5,2.2c-0.7,0-1.3-0.1-1.8-0.1c-4.4-0.9-5-3.7-7.6-6.6
			c-2.6-3-3.7-7-4.3-10.7c-0.4-2.7-0.5-5.7-0.5-8.5c0-2.8,0.1-5.7,0.3-8.5c0.1-1.3,0.1-2.4,0.1-3.7c0-5.7-0.6-11.2-0.4-16.8
			c0.1-2.8-0.3-5.8-0.3-8.8c0-2.2,0.1-4.3,0.8-6.2c1-3.5,3.2-6.5,5.9-9.3C113.7,19,120.8,15.5,127,15.5 M119.5,81.8
			c1.5,0,3.5-0.9,4.5-1.9c1.7-1.7,1-6.1,1.2-8c0.4-4.6-0.5-9-0.3-13.7c0-2.3,0.1-4.8,0.1-7.2c0-2.8-0.1-5.5-0.5-8.3
			c-0.2-1.2-0.4-1.7-1.5-1.7c-0.1,0-0.3,0-0.4,0c-0.9,0-3.1,0.5-3.9,1c-1.4,1-1.2,3.6-1.3,5.2c-0.4,2.7-0.4,5.2-0.4,7.7
			c0.1,4.9,0.4,9.8,0.4,14.7c0,2.1-0.3,4.4-0.3,6.6c0,1.6,0.1,3.1,0.5,4.4C117.9,81.5,118.6,81.8,119.5,81.8 M203.9,17.5
			c1.2,0,2.3,0.3,3,1.5c0.9,1.3,0.9,3.7,1,5.3c0.4,3.4,0.9,10.5-3,11.6c-3,0.9-2.6,0.5-5.9,0.9c-1,0.1-1.2,1.5-1.3,4.6
			c-0.3,2.7-0.3,5.9-0.3,7.9c0.3,15.9,1,26.3,1.2,42.1c0,2.2,1.2,5.9-0.4,7.7c-1.9,2.1-5,3.1-7.7,3.5c-1,0.1-1.8,0.2-2.5,0.2
			c-2.6,0-3.6-1.2-3.8-5.1c-0.6-11.5-0.1-23.2-0.3-34.8c0-6.7-0.6-9.8-0.4-16.5c0.1-3.8,0-11.4-3.1-11.4c-0.1,0-0.1,0-0.2,0
			c-2.4,0.3-16.8,2.8-25.5,2.8c-3.7,0-6.4-0.5-6.7-1.7c-0.6-2.6-1.2-12.6,1.2-14.7c1.4-1.2,27.2-2.2,28.9-2.3c2.6-0.3,5-0.4,7.5-0.6
			c7.4-0.5,8,0,15.4-0.5C201.9,17.7,203,17.5,203.9,17.5 M82.6,18.9c2.8,0,5,0.9,7.6,2c2.8,1,5.7,1.8,6.2,4.8
			c0.9,5,2.3,16.4,2.3,24.8c0,2.7-0.1,5.2-0.5,6.8c-0.5,2.2-1.2,2.2-3.2,3.3c-1.7,0.9-3.7,0.9-4.6,2.5c-0.9,1.6,1.6,2.3,2.8,3
			c1.9,0.9,3.6,1.2,4.4,3.1c1.2,2.6,0.9,5.7,1,8.5c0.3,3.7,0.1,4.5,0,6.7c-0.1,2.6,0.1,4.6-0.9,7.1c-1.2,3.1-6.8,5.2-9.7,7
			c-3.2,2.1-7.2,4.3-11,5c-0.6,0.1-1.1,0.2-1.7,0.2c-2,0-3.9-0.7-5.4-1.8c-1.6-0.9-3.6-2.7-4.3-4.3c-0.4-1-0.5-2.3-0.5-3.7
			c0-1.6,0.1-3.1,0.1-4.5c0-2.8,0.1-5.7,0.4-8.5c0.1-2.4,0.1-4.9,0.1-7.3c0-1.9,0-3.9-0.3-5.8c-0.3-2.6-0.3-5.3-0.5-8
			c-0.6-5.2-0.6-10.5-0.9-15.7c-0.3-3.7-0.4-7.6-0.5-11.3c-0.1-1.9-1-5.3,0.3-7.1c1.8-2.5,5.3-2.6,8-3.6c3.2-1.2,6.2-2.6,9.7-2.8
			C81.9,19,82.3,18.9,82.6,18.9 M78.3,58.9c0.4,0,0.8-0.1,1.3-0.3c1.3-0.5,3.1-1.7,3.5-2.7c0.8-2.7-0.3-5.8,0-8.5
			c0-1.3,0.3-4.4-2.1-4.4c-0.2,0-0.4,0-0.6,0c-1.6,0.3-3.7,1.3-4.3,2.6c-0.5,1.8,0.1,4.1,0.3,5.9c0.1,1.7,0.4,3.5,0.3,5.2
			C76.7,57.7,77,58.9,78.3,58.9 M80.1,84.5c0.2,0,0.4,0,0.7-0.1c1.3-0.1,3.2-0.5,3.7-1.3c0.7-0.8,0.3-1.9,0.3-2.7
			c0-1.3,0.1-2.6,0.1-3.9c0-0.9,0.7-2.4-0.9-2.4c-0.2,0-0.5,0-0.8,0.1c-1.8,0.3-3.9,0.9-4,1.9c-0.3,1.2,0.1,2.2-0.1,3.3
			c-0.1,1.2,0,2.3,0.1,3.5C79.2,83.6,79,84.5,80.1,84.5 M50.2,20.5c1,0,2,0.2,2.8,1c1.3,1.3,1.8,3.4,2.1,5c0.9,6.2,1.4,12.6,1.7,19
			c0.3,4.8,1.9,9.3,1.9,14.1c0,7.1-0.1,14.4-0.1,21.7c0,1.8,0,3.6,0,5.4c0,3.1,0,6.2,0.1,9.2c0,0.9,0.4,2.1,0.1,3
			c-0.4,1-1.2,1.3-2.1,1.7c-3,1.6-5.5,1.9-8.8,2.1c-0.1,0-0.2,0-0.3,0c-1.7,0-2.9-1-3.1-3c-0.1-1.9-0.1-4.1-0.1-6.1
			c0-2.2,0.3-4.3,0-6.3c0-1.2,0.3-4.8-0.7-5.3c-0.2-0.2-0.6-0.3-1-0.3c-1.2,0-3,0.7-3.8,1c-2.2,0.8-1.9,2.8-1.9,5c0,2.4,0,4.9,0,7.3
			c0,5.2-8.9,5.8-12.1,5.8c-0.6,0-2.1-0.3-2.6-0.7c-0.8-0.5-0.8-2.1-0.8-2.8c-0.3-4,0.1-10.1,0-14.1c0-4.4-0.3-8.8-0.3-13.2
			c0-1.3-0.3-2.6,0-3.9c0.1-1.2,0.6-2.3,1-3.5c2.2-6.8,2.3-11.4,4.3-18.3c0.9-3.5,0.9-8.5,1.5-12.1c0.3-1.7,0.4-4.4,1.3-5.8
			c1.4-2.1,8.5-3.6,10.7-4.1c2.5-0.8,5-1.4,7.6-1.7C48.6,20.7,49.4,20.5,50.2,20.5 M39.3,66.4c1.1,0,3-0.5,3.5-0.8
			c1.2-0.8,1.2-1.9,1.2-3.1c-0.1-2.5-0.3-5-0.4-7.5c-0.1-1.2-0.3-2.3-0.4-3.3c0-0.8,0.1-1.7-0.3-2.3c-0.2-0.3-0.6-0.4-1-0.4
			c-1.1,0-2.4,0.8-3.1,1.3c-1.2,0.9-0.9,2.7-0.8,4c0.1,1.9,0,3.9,0.1,5.9c0,1.4,0,3,0,4.6c0,0.4,0.1,1.2,0.5,1.4
			C38.9,66.4,39.1,66.4,39.3,66.4 M173.4,40.7c1,0,1.8,0.2,2.4,0.7c1.7,1.5,1.2,4.8,1.2,6.8c-0.4,5.8-0.6,17-0.4,23
			c0.4,7.7,0.1,15.5,0.1,23.2c0,1.9,0.5,6.8-0.9,8.1c-1.3,1.2-4.8,1.6-6.6,2.1c-1.1,0.3-3.4,1.2-5.1,1.2c-0.7,0-1.2-0.2-1.6-0.6
			c-0.5-0.8,0.3-2.6-0.5-3.2c-0.1-0.1-0.3-0.1-0.6-0.1c-1.2,0-3.6,0.9-4.2,1.2c-2.2,0.5-5.1,1.5-7.6,1.5c-2.3,0-4.3-0.8-5-3.6
			c-0.6-2.4-0.1-5.7,0-8.1c0.3-4.1-0.3-8.3,0-12.4c0.3-4.6-0.3-14.6,0-19.2c0.1-2.1,0-4,0.1-6.1c0.1-1.9,0.3-4,0.3-5.9
			c-0.1-1.3,0.1-1.8,1.4-2.5c2.3-0.9,5.3-1.2,7.7-1.5c0.2,0,0.3,0,0.4,0c1,0,1.1,0.5,1.5,2.1c0.4,1.4,0,3.1,0,4.4
			c-0.1,5.8,0.3,16.9,0.3,22.7c0,3.1,0.1,6.3,0.3,9.6c0.1,2.1-0.4,5.6,0.4,7.5c0.2,0.1,0.5,0.1,0.8,0.1c1.5,0,4-0.7,4.6-1.4
			c0.8-0.9,0.3-3.3,0.3-4.5c0-3.6,0.1-7.2,0.1-10.8c0-5.8,0-16.8-0.6-22.5c-0.3-2.5-0.4-5.4-0.1-8c0.3-2.5,4.6-2.8,6.8-3.1
			C170.2,41.1,171.9,40.7,173.4,40.7 M273.1,11.7c-2,0-4,0.4-5.6,0.7c-0.5,0.1-0.9,0.2-1.2,0.2c-4.8,0.9-8.4,2.1-8.8,9.1
			c-0.6,7.8-1.1,17-1.6,26.6c0,0.3,0,0.6-0.1,0.9c0,0.6-0.1,1.5-0.2,1.9c-0.2-0.6-0.5-1.8-0.5-4.6c0-1,0-1.9,0.1-2.7
			c0-0.7,0.1-1.3,0.1-1.8c0-3.5-0.4-6.8-0.7-10.1c-0.1-0.8-0.2-1.6-0.2-2.3c-0.2-2-0.7-8.2-6.5-8.2c-1,0-2.1,0.2-3.4,0.6
			c-0.6,0.2-1.8,0.5-3.2,0.8c-6.5,1.4-11.3,2.7-13.1,5.5c-1.9,2.8-2,6.5-2,10c0,0.5,0,1.1,0,1.7c0,0.9,0.1,1.8,0,2.4
			c0,0,0,0.1,0,0.1c-0.1,1.8-0.3,3.7-0.3,5.8c0,2.2,0.1,4.5,0.1,6.7c0.1,2.9,0.2,5.8,0.1,8.5c-0.1,2.4-0.1,4.7-0.1,7
			c0,2.3,0,4.6,0.1,6.8c0,2.2,0.1,4.4,0.1,6.7c0,2.2,0,4.4-0.1,6.7c0,0.1,0,0.1,0,0.2c0,0.4-0.1,1.1-0.1,1.8
			c-0.1,1.1-0.2,2.3-0.2,3.5c0,4.3,1.4,7,4.1,8c1,0.4,2.2,0.6,3.5,0.6c4.9,0,10.3-2.8,10.8-7.6c0.3-2.7,0.3-5.3,0.3-7.8
			c0-1.8,0-3.7-0.1-5.4c0-1.7-0.1-3.5-0.1-5.3c0-1.7,0-3.4,0.1-4.9c0,0,0,0,0-0.1c0-0.3,0-0.7,0-1c0-0.2,0-0.4,0-0.6
			c0,0.6,0.1,1.2,0.1,1.6c0,0.6,0,1.2,0.1,1.7c0,1,0,1.9,0.1,2.8c0,1,0.1,2,0.1,3c0,0.1,0,0.1,0,0.2c0.1,2.6,0.5,5.2,0.8,7.6
			c0.2,1.8,0.5,3.7,0.6,5.5c0,0.3,0,0.5,0.1,0.8c0.2,3.4,0.6,9.6,7,9.6c0.4,0,0.7,0,1.1-0.1c0.1,0,0.1,0,0.2,0
			c0.6-0.1,1.2-0.2,1.9-0.3c2.9-0.4,6.5-1,9.3-2.1c1.3-0.5,3.4-1.7,4.2-4.5c0.2,1.9,0.9,4.9,4.4,4.9c0.6,0,1.2-0.1,2-0.3l0.3-0.1
			c3-0.7,8.2-1.9,9.9-5.8c0,0.2,0,0.3,0,0.5c0.1,1.3,0.1,2.9,1,4.4c0,0,0,0.1,0,0.1c1.8,3.1,6.2,3.7,9.8,3.9c0.1,0,0.1,0,0.2,0
			c4.3,0,8.7-0.7,13.1-1.9c0.1,0,0.1-0.1,0.2-0.1c0.3-0.1,0.7-0.2,1-0.4c3.3-1.2,7.8-2.9,10-6.4c1.8-2.7,1.4-5.9,1.1-8.2l0-0.4
			c-0.1-0.5-0.1-1.1-0.1-1.7c-0.1-2-0.3-4.3-1.4-6.3c-1.4-2.5-3.2-3-4.6-3c-1.3,0-2.5,0.5-3.4,1c-0.4,0.2-0.8,0.3-1.1,0.4
			c-2,0.4-4.5,0.9-6.7,0.9c0,0-0.1,0-0.1,0c-0.2,0-0.3,0-0.5,0c-0.4,0-0.6,0-0.7-0.1c0-0.1-0.1-0.3-0.1-0.5
			c-0.4-2.7-0.4-3.4-0.2-6.4c0-0.4,0-1,0.1-1.4c0.1,0,0.4-0.1,0.6-0.1c0.5-0.1,1.1-0.2,1.8-0.3c4.6-0.7,11.6-1.7,13.3-7.3
			c0-0.1,0-0.2,0.1-0.3c0.3-1.5,0.1-3,0-4.2c0-0.2,0-0.4-0.1-0.5c0-1.7,0-3.2-0.1-4.8c0-0.2,0-0.5,0-0.8c-0.1-2.3-0.3-7.5-4.8-8.3
			c-0.1,0-0.2,0-0.3,0c-0.2,0-0.4,0-0.6,0c-1.8,0-4.2,0.5-6.3,1c-0.7,0.2-1.3,0.3-1.9,0.4c-0.3,0-0.6,0.1-1,0.1
			c-0.7,0.1-1.6,0.2-2.3,0.2c0,0-0.1,0-0.1,0c0-0.2,0-0.5-0.1-0.8c-0.1-0.9-0.1-1.1-0.1-2.3c0-0.2,0-0.3,0-0.4c0.2,0,0.5,0,1,0
			c0.1,0,0.2,0,0.3,0c1.4-0.1,6.2-0.7,9.3-1.5c0.1,0,0.2,0,0.2-0.1c0.3-0.1,0.6-0.2,0.9-0.3c2-0.7,4.7-1.6,6-4.7c0,0,0-0.1,0-0.1
			c0.2-0.5,0.7-1.9,0.7-7.5c0-1.4,0-2.8-0.1-3.9c0-0.7,0-1.2,0-1.6c0-0.1,0-0.1,0-0.2l0-0.2c-0.1-2.5-0.3-5.6-1.8-8
			c-1-1.7-2.6-2.7-4.7-2.7l0,0c-1.3,0-2.6,0.4-3.7,0.7c-0.4,0.1-0.8,0.2-1.1,0.3c-1.6,0.4-3.2,0.7-4.9,1.1c-1.5,0.3-3.1,0.6-4.6,1
			c-1.8,0.3-3.7,0.5-5.5,0.7c-0.7,0.1-1.3,0.1-2,0.2c-5.2,0.1-6.8,2.8-7.2,4.5c-0.6,2.1-0.4,4.1-0.2,5.8c0,0.5,0.1,1,0.1,1.4
			c0,0,0,0.1,0,0.1c0.5,5.6,0.9,11.1,1.1,16.8c0.1,2.8,0,5.9-0.2,9.3c-0.3,2.6-0.3,5-0.3,7.5c0,4.2,0.1,8.4,0.3,12.5
			c0,0.3,0,0.5,0,0.8c-0.2-5.1-0.8-10.2-1.2-15.1c-0.5-5.3-1.1-10.7-1.3-16c0,0,0,0,0,0c-0.3-5-0.7-10.1-1.2-15.1
			c-0.1-0.9,0-2.1,0-3.3c0-1,0.1-2,0.1-3c0-2-0.1-4.2-1.1-6C279.9,13.9,277.9,11.7,273.1,11.7L273.1,11.7z M127,12.5
			c-7.3,0-15.2,4.2-19.2,8.3c-2.2,2.3-5.3,5.9-6.6,10.5c-0.3,0.8-0.4,1.6-0.6,2.4c-0.4-3.4-0.8-6.4-1.2-8.5
			c-0.8-4.4-4.6-5.8-7.5-6.8l-0.6-0.2l-0.6-0.2c-2.5-1-4.9-1.9-8.1-1.9c-0.4,0-0.8,0-1.3,0.1c-3.2,0.2-5.9,1.3-8.5,2.3
			c-0.6,0.2-1.3,0.5-1.9,0.7c0,0,0,0,0,0c-0.6,0.2-1.4,0.4-2.2,0.6c-2.3,0.6-5.3,1.4-7.2,4c-1.7,2.4-1.3,5.5-1,7.8
			c0.1,0.5,0.1,0.9,0.2,1.3l0,0.3c0.1,3.6,0.2,7.4,0.5,11.1c0.1,1.5,0.1,3,0.2,4.4c0.1,3.8,0.3,7.6,0.7,11.5
			c0.1,1.3,0.2,2.6,0.2,3.8c0.1,1.4,0.1,2.8,0.3,4.2c0,0,0,0.1,0,0.1c0.2,1.7,0.2,3.5,0.2,5.4c0,2.3,0,4.8-0.1,7.1
			c-0.3,2.9-0.4,5.8-0.4,8.7c0,0.6,0,1.3-0.1,2c0,0.8-0.1,1.6-0.1,2.5c0,2,0.2,3.5,0.7,4.8c0,0,0,0.1,0,0.1c1,2.5,3.8,4.7,5.4,5.6
			c2.1,1.5,4.6,2.3,7.1,2.3c0.7,0,1.5-0.1,2.2-0.2c3.5-0.7,7.4-2.5,12-5.4c0.6-0.4,1.5-0.9,2.5-1.4c3.3-1.7,7.1-3.7,8.3-7
			c0.7-1.8,0.9-3.4,1-4.9c0.9,3.9,2.4,7.2,4.5,9.6c0,0,0,0,0,0.1c0.6,0.7,1.1,1.3,1.6,2c1.6,2.2,3.3,4.6,7.6,5.5c0,0,0.1,0,0.1,0
			c0.7,0.1,1.5,0.2,2.4,0.2c3,0,7.4-0.8,10.1-2.7c0.6-0.4,1.3-0.7,2-0.9c1.3-0.5,2.7-1.1,4.1-2.3l0.1-0.1c1.6-1.4,3-2.8,4.4-4.4
			c0,0,0-0.1,0.1-0.1c1.9-2.4,2.7-5.6,3.1-8.6c0,0.3,0,0.6,0,0.9c0.1,2.1,0.1,4,0,5.9c0,0.6-0.1,1.1-0.1,1.7c-0.2,2.3-0.4,5,0.2,7.4
			c0.6,2.2,2.4,5.8,7.9,5.8c2.4,0,4.8-0.6,6.9-1.2c0.5-0.1,1-0.3,1.4-0.4c0.1,0,0.2,0,0.2-0.1c0.1,0,0.3-0.1,0.5-0.2
			c0.3-0.1,0.5-0.2,0.7-0.3c0.1,0.5,0.3,1,0.6,1.4c0.1,0.1,0.1,0.2,0.2,0.2c0.6,0.8,1.8,1.7,3.9,1.7c1.7,0,3.6-0.6,4.9-1
			c0.4-0.1,0.7-0.2,0.9-0.3c0,0,0.1,0,0.1,0c0.4-0.1,1-0.2,1.6-0.4c2.2-0.5,4.6-1,6.1-2.3c2-1.8,2.1-5.2,1.9-9.2c0-0.5,0-0.9,0-1.2
			c0-2.2,0-4.4,0-6.6c0.1-5.5,0.1-11.2-0.2-16.8c-0.2-5.7,0-16.9,0.4-22.6c0-0.1,0-0.1,0-0.2c0-0.3,0-0.7,0-1.1
			c0.1-2.3,0.2-5.7-2.2-8c-0.3-0.3-0.6-0.5-1-0.7c0.3,0,0.6-0.1,0.8-0.1c0.9-0.1,1.6-0.2,2.2-0.3c0.4,0.9,0.9,3.4,0.7,8.2
			c-0.1,3.9,0,6.6,0.1,9.5c0.1,2.1,0.2,4.3,0.2,7.1c0.1,4.1,0,8.4,0,12.4c-0.1,7.4-0.1,15.1,0.3,22.6c0.1,2.4,0.4,8,6.8,8
			c0.8,0,1.7-0.1,3-0.2c2.3-0.3,6.6-1.3,9.5-4.4c0,0,0.1-0.1,0.1-0.1c2-2.3,1.6-5.6,1.3-7.9c-0.1-0.7-0.2-1.3-0.2-1.8
			c-0.1-8.6-0.3-15.4-0.6-22.7c-0.2-6-0.4-12.2-0.6-19.5c0-1.8,0-5,0.2-7.5c0,0,0-0.1,0-0.2c0-0.5,0.1-1.3,0.1-1.9
			c0.3,0,0.5,0,0.8,0c1.3-0.1,2-0.2,4.2-0.8c4.3-1.3,6.1-6.3,5.1-14.8c0-0.2,0-0.5-0.1-0.7c-0.1-1.9-0.3-4.2-1.5-6
			c-1.2-1.9-3.1-2.8-5.5-2.8l0,0c-0.9,0-1.7,0.1-2.5,0.2c-0.3,0-0.5,0.1-0.8,0.1c-3.5,0.2-5.4,0.2-7.4,0.2c-2,0-4.1,0-7.9,0.3
			c0,0-0.1,0-0.1,0c-1.2,0.1-2.5,0.2-3.8,0.3c-1.2,0.1-2.4,0.2-3.7,0.3c-0.3,0-1.4,0.1-2.6,0.1c-25.9,1.3-26.8,1.9-27.9,2.9
			c0,0-0.1,0-0.1,0.1c-4.2,3.7-2.4,16.4-2.1,17.7c1,4,6.8,4,9.6,4c2,0,4.2-0.1,6.5-0.3c-1.1,0.8-2,2-2.2,3.7
			c-0.1,0.7-0.1,1.5-0.1,2.2l0-0.1c-0.4-1.4-1.1-3.9-4.3-3.9c-0.2,0-0.4,0-0.7,0c-0.1,0-0.1,0-0.2,0c-0.5,0.1-1,0.2-1.6,0.2
			c-2.2,0.3-4.6,0.7-6.8,1.5c-0.1,0-0.2,0.1-0.2,0.1c-1.5,0.8-2.5,1.7-2.9,3c0-0.1,0-0.1,0-0.2c0.1-2.7,0.2-5.5,0.1-8.2
			c0-1.2,0.1-2.5,0.1-3.8c0.1-1.4,0.1-2.9,0.1-4.3c0-5.4-0.9-12.1-7.5-16.1C132.8,13.2,130.1,12.5,127,12.5L127,12.5z M120.6,44.5
			c0.3-0.1,0.7-0.2,1.1-0.3c0.2,2,0.3,4.2,0.3,6.8c0,1.2,0,2.4-0.1,3.6c0,1.2-0.1,2.3-0.1,3.5c-0.1,2.3,0,4.6,0.2,6.8
			c0.2,2.3,0.3,4.5,0.1,6.8c0,0.7,0,1.3,0,2.1c0,1,0.1,3.4-0.3,4.1c-0.3,0.3-1,0.7-1.5,0.8c-0.1-0.7-0.2-1.5-0.2-2.4
			c0-1,0.1-2.1,0.1-3.2c0.1-1.1,0.1-2.3,0.1-3.4c0-3.3-0.1-6.7-0.2-9.9c-0.1-1.6-0.1-3.2-0.2-4.8c0-2.5,0-4.8,0.4-7.3
			c0-0.1,0-0.1,0-0.2c0-0.3,0-0.7,0.1-1.2C120.5,45.8,120.5,44.9,120.6,44.5L120.6,44.5z M79,46.8c0.2-0.2,0.7-0.4,1.2-0.6
			c0,0.3,0,0.5,0,0.7c0,0.1,0,0.2,0,0.4c-0.1,1.4,0,2.7,0.1,4c0.1,1.3,0.2,2.5,0.1,3.5c-0.1,0.1-0.4,0.3-0.6,0.5
			c0-1-0.1-1.9-0.2-2.8c0-0.4-0.1-0.8-0.1-1.2c0-0.6-0.1-1.2-0.2-1.9C79.1,48.5,78.9,47.5,79,46.8L79,46.8z M159.6,83.8
			c-0.1-3.1-0.2-6.4-0.2-9.4c0-2.4-0.1-5.6-0.1-9.1c-0.1-5-0.2-10.2-0.1-13.5c0,0.3,0.1,0.6,0.1,0.8c0.6,5.5,0.6,16.3,0.6,22.1
			c0,1.8,0,3.6-0.1,5.4c0,1.8-0.1,3.6-0.1,5.5c0,0.4,0,0.9,0.1,1.4c0,0.3,0.1,0.8,0.1,1.2c-0.1,0-0.2,0.1-0.3,0.1c0-0.6,0-1.3,0-1.8
			C159.7,85.5,159.7,84.7,159.6,83.8L159.6,83.8z M95.4,63.8c0.3-0.1,0.7-0.3,1-0.5c0,0,0,0,0.1,0c0.3-0.2,0.6-0.3,0.8-0.4
			c1.6-0.9,2.8-1.6,3.5-3.6c0.1,1.5,0.1,3.1,0.1,4.7c0,1.2,0,2.3-0.1,3.4c0,0.1,0,0.1,0,0.2c0,0.5,0,1-0.1,1.5
			c-0.1-0.3-0.2-0.6-0.4-0.9c-1.1-2.7-3.3-3.6-4.8-4.2C95.5,63.8,95.4,63.8,95.4,63.8L95.4,63.8z M50.2,17.5c-0.9,0-1.8,0.1-2.5,0.2
			l-0.3,0c-2.4,0.2-5.1,0.8-8,1.8l-0.3,0.1C33,21.1,28.6,22.5,27,24.9c0,0,0,0.1-0.1,0.1c-1.1,1.7-1.4,4-1.6,5.9
			c0,0.4-0.1,0.8-0.1,1.1c-0.3,1.7-0.5,3.6-0.6,5.4c-0.2,2.3-0.4,4.7-0.9,6.5c-0.9,3.3-1.4,6-1.9,8.6c-0.6,3.1-1.2,6-2.3,9.6
			c-0.1,0.2-0.2,0.5-0.3,0.8c-0.3,0.9-0.7,2-0.9,3.2c-0.2,1.2-0.2,2.3-0.1,3.2c0,0.4,0.1,0.8,0.1,1.1c0,2.2,0.1,4.5,0.1,6.7
			c0.1,2.1,0.1,4.3,0.1,6.5c0,0,0,0.1,0,0.1c0,1.7,0,3.8,0,6c-0.1,2.8-0.1,5.7,0,8.1c0,1.2,0,3.8,2,5.2c1.4,1,3.6,1.2,4.3,1.2
			c9.5,0,15.1-3.3,15.1-8.8v-7.3c0-0.2,0-0.4,0-0.7c0-0.5,0-1.2,0-1.6l0.3-0.1c0.2-0.1,0.6-0.2,1-0.4c0,0.6,0,1.2,0,1.5
			c0,0.3,0,0.6,0,0.8c0,0.1,0,0.2,0,0.4c0.1,1.1,0.1,2.3,0,3.7c0,0.7-0.1,1.5-0.1,2.3c0,2,0,4.2,0.1,6.3c0.2,3.4,2.7,5.8,6,5.8
			c0.2,0,0.3,0,0.5,0c3.5-0.1,6.5-0.6,9.9-2.3l0.1,0c1-0.4,2.7-1.1,3.5-3.3c0-0.1,0-0.2,0.1-0.2c0.3-1.2,0.2-2.3,0.1-3.1
			c0-0.2-0.1-0.5-0.1-0.7c0,0,0-0.1,0-0.1c-0.1-2.9-0.1-6-0.1-9v-5.4c0-3.6,0-7.3,0.1-10.9c0-3.6,0.1-7.2,0.1-10.8
			c0-2.9-0.5-5.6-1-8.2c-0.4-2.1-0.8-4.1-0.9-6.1C59.4,38.4,58.8,32,58,26.1c-0.5-3-1.4-5.2-2.9-6.7C53.8,18.2,52.2,17.5,50.2,17.5
			L50.2,17.5z"/>
	</g>
	<g>
		<path class="st0" d="M158.2,101.3c-1.2,0-2.1-0.4-2.7-1.1c0,0-0.1-0.1-0.1-0.1c-0.5-0.8-0.5-1.7-0.4-2.4c0-0.1,0-0.1,0-0.2
			c-0.9,0.2-2.1,0.6-2.7,0.8c-0.2,0.1-0.4,0.1-0.5,0.2c0,0-0.1,0-0.1,0c-0.5,0.1-1,0.2-1.5,0.4c-2,0.5-4.3,1.2-6.5,1.2
			c-4.3,0-5.9-2.5-6.5-4.7c-0.6-2.2-0.4-4.7-0.2-6.9c0.1-0.6,0.1-1.2,0.1-1.7c0.1-2,0.1-4.1,0-6.1c-0.1-2.1-0.1-4.2,0-6.3
			c0.1-2.3,0.1-5.9,0-9.5c-0.1-3.6-0.1-7.3,0-9.7c0.1-1,0.1-1.9,0.1-3c0-1,0-2,0.1-3.1c0.1-2,0.2-3.9,0.2-5.8
			c-0.2-1.9,0.5-3,2.2-3.9c0,0,0.1,0,0.1-0.1c2-0.8,4.4-1.1,6.4-1.4c0.6-0.1,1.1-0.2,1.6-0.2c0.3,0,0.5,0,0.7,0
			c2.1,0,2.5,1.5,2.9,2.8l0.1,0.3c0.3,1.2,0.2,2.5,0.1,3.6c0,0.4-0.1,0.8-0.1,1.2c-0.1,3.4,0,8.6,0.1,13.7c0.1,3.4,0.1,6.7,0.1,9
			c0,3.1,0.1,6.3,0.3,9.5c0,0.7,0,1.6,0,2.5c0,1.2-0.1,2.6,0.1,3.7c1.2-0.1,2.7-0.6,3.1-0.8c0.2-0.4,0.1-1.7,0-2.3
			c0-0.5-0.1-0.9-0.1-1.2c0-1.8,0-3.6,0.1-5.4c0-1.8,0.1-3.6,0.1-5.4c0-5.8,0-16.7-0.6-22.3c-0.2-1.8-0.4-5.2-0.1-8.3
			c0.4-3.5,5.2-4.1,7.8-4.4l0.3,0c0.4,0,0.8-0.1,1.3-0.2c1.1-0.2,2.2-0.4,3.4-0.4c1.5,0,2.6,0.4,3.5,1.1c1.9,1.7,1.8,4.7,1.7,6.8
			c0,0.4,0,0.8,0,1.2c-0.4,5.9-0.6,17.1-0.4,22.9c0.3,5.6,0.2,11.2,0.2,16.7c0,2.2,0,4.4,0,6.6c0,0.3,0,0.8,0,1.3
			c0.1,3.5,0.1,6.6-1.4,8c-1.2,1.1-3.5,1.6-5.4,2c-0.6,0.1-1.2,0.3-1.7,0.4c-0.3,0.1-0.7,0.2-1.1,0.3
			C161.4,100.8,159.6,101.3,158.2,101.3z M69.4,99.2c-2.2,0-4.4-0.7-6.2-2.1c-1.8-1.1-4-3-4.8-4.9c-0.4-1.2-0.6-2.5-0.6-4.3
			c0-0.8,0-1.6,0.1-2.4c0-0.7,0.1-1.4,0.1-2.1c0-2.9,0.1-5.8,0.4-8.7c0.1-2.3,0.1-4.8,0.1-7.2c0-1.9,0-3.8-0.2-5.6
			c-0.1-1.4-0.2-2.8-0.3-4.1c-0.1-1.3-0.1-2.6-0.2-3.9c-0.5-3.7-0.6-7.6-0.7-11.3c0-1.5-0.1-3-0.2-4.5c-0.2-3.6-0.4-7.4-0.5-11
			l0-0.4c0-0.4-0.1-0.8-0.2-1.4c-0.3-2.1-0.7-4.8,0.7-6.7c1.6-2.2,4.2-2.9,6.4-3.4c0.8-0.2,1.6-0.4,2.3-0.7c0.7-0.2,1.3-0.5,2-0.7
			c2.5-1,5.1-2,8.1-2.2c0.4,0,0.8,0,1.1,0c2.9,0,5.2,0.9,7.6,1.8l0.6,0.2l0.6,0.2c2.8,1,5.9,2.1,6.5,5.7c1,5.4,2.3,16.8,2.3,25
			c0,3.2-0.2,5.6-0.6,7.2c-0.6,2.4-1.5,3-3.1,3.9c-0.2,0.1-0.5,0.3-0.8,0.4c-0.7,0.4-1.5,0.6-2.1,0.8c-0.9,0.3-1.5,0.5-1.8,0.9
			c0.3,0.2,1,0.6,1.4,0.7c0.2,0.1,0.5,0.2,0.7,0.3c0.3,0.2,0.7,0.3,1.1,0.5c1.5,0.6,3.2,1.3,4,3.4c1,2.3,1.1,4.8,1.1,7.2
			c0,0.6,0,1.2,0.1,1.8c0.2,3.3,0.2,4.4,0.1,6l-0.1,0.8c0,0.6,0,1.1-0.1,1.6c0,1.9-0.1,3.8-1,6c-1,2.8-4.5,4.6-7.6,6.2
			c-1,0.5-1.9,1-2.6,1.4c-4.4,2.8-8.2,4.6-11.5,5.2C70.7,99.1,70,99.2,69.4,99.2z M74.6,73.7c-0.1,1,0,2,0.1,3.1c0,0,0,0.1,0,0.1
			c1.4-0.2,2.4-0.5,2.6-0.7c0.1-0.2,0.1-0.7,0-1c0-0.3-0.1-0.6-0.1-0.8c0-0.7,0-1.3,0.1-2c0-0.6,0.1-1.2,0.1-1.9
			c0-0.3,0-0.6,0.1-0.8c-1.7,0.2-2.5,0.7-2.8,0.8c-0.1,0.4,0,0.8,0,1.2C74.7,72.3,74.8,73,74.6,73.7z M72.3,51.4
			c0.1,0,0.3,0,0.8-0.2c1.2-0.5,2.4-1.4,2.6-1.8c0.3-1.3,0.2-2.8,0.1-4.4c-0.1-1.2-0.2-2.5-0.1-3.7c0-0.1,0-0.2,0-0.4
			c0-0.6,0-2-0.3-2.4c-0.1,0-0.2-0.1-0.3-0.1c-0.1,0-0.2,0-0.3,0c-1.3,0.2-2.8,1.1-3.1,1.6c-0.2,1-0.1,2.3,0.1,3.5
			c0.1,0.6,0.2,1.2,0.2,1.8c0,0.4,0.1,0.8,0.1,1.2c0.1,1.3,0.3,2.8,0.2,4.1C72.2,51.1,72.2,51.3,72.3,51.4L72.3,51.4
			C72.3,51.4,72.3,51.4,72.3,51.4z M182,98.3c-4.1,0-5.1-2.6-5.3-6.6c-0.4-7.4-0.4-15.1-0.3-22.4c0-4.1,0.1-8.3,0-12.4
			c0-2.9-0.1-5.1-0.2-7.2c-0.1-2.8-0.3-5.5-0.1-9.4c0.2-5.9-0.6-8.9-1.4-9.7c-0.1-0.1-0.2-0.1-0.3-0.1c-0.6,0.1-1.6,0.2-3,0.4
			c-5.5,0.8-15.8,2.3-22.8,2.3c-3.7,0-7.6-0.3-8.2-2.9c-0.4-1.7-1.7-13.2,1.6-16.2c0.9-0.8,3.5-1.4,27.1-2.6
			c1.4-0.1,2.4-0.1,2.7-0.1c1.2-0.1,2.4-0.2,3.6-0.3c1.3-0.1,2.5-0.2,3.8-0.3c3.8-0.3,5.8-0.3,7.8-0.3c2,0,3.9,0,7.6-0.2
			c0.2,0,0.5-0.1,0.8-0.1c0.8-0.1,1.6-0.2,2.3-0.2c2,0,3.4,0.7,4.3,2.2c1,1.4,1.1,3.5,1.2,5.2c0,0.3,0,0.5,0.1,0.8
			c0.9,7.7-0.5,12.1-4,13.2c-2.1,0.6-2.6,0.7-3.9,0.8c-0.5,0-1.1,0.1-2,0.2c-0.2,0.7-0.2,2.3-0.3,3.2c-0.3,2.7-0.3,5.9-0.3,7.8
			c0.1,7.3,0.4,13.5,0.6,19.5c0.3,7.2,0.5,14.1,0.6,22.6c0,0.5,0.1,1.2,0.2,2c0.3,2.2,0.6,5-0.9,6.8c-2.6,2.8-6.5,3.7-8.7,4
			C183.6,98.2,182.8,98.3,182,98.3z M41.6,98.1c-2.6,0-4.4-1.8-4.5-4.4c-0.1-2-0.1-4.2-0.1-6.2c0-0.8,0-1.5,0.1-2.2
			c0.1-1.4,0.1-2.7,0-3.9c0-0.1,0-0.1,0-0.2c0-0.2,0-0.4,0-0.7c0-0.7,0.1-2.6-0.1-3.3c0,0,0,0,0,0c-0.8,0-2.2,0.5-2.9,0.8l-0.3,0.1
			c-0.9,0.3-1,0.8-1,3v0.7v7.3c0,6.8-10.4,7.3-13.6,7.3c-0.7,0-2.5-0.2-3.5-0.9c-1.4-0.9-1.4-3-1.4-4c-0.1-2.2-0.1-5.1,0-8
			c0-2.2,0.1-4.3,0-6.1c0-2.2-0.1-4.4-0.1-6.6c-0.1-2.2-0.1-4.4-0.1-6.6c0-0.4,0-0.8-0.1-1.2c-0.1-0.9-0.1-1.9,0.1-2.9
			c0.1-1,0.5-2,0.8-2.9c0.1-0.3,0.2-0.6,0.3-0.8c1.2-3.6,1.7-6.6,2.3-9.7c0.5-2.6,1-5.3,1.9-8.5c0.5-1.8,0.7-4.3,0.9-6.7
			c0.2-1.8,0.3-3.7,0.6-5.3c0.1-0.3,0.1-0.7,0.2-1.1c0.2-1.8,0.5-3.8,1.4-5.2c1.5-2.2,6.3-3.5,11.2-4.7l0.3-0.1
			c2.9-0.9,5.5-1.5,7.9-1.7l0.2,0c0.7-0.1,1.5-0.2,2.3-0.2c1.6,0,2.8,0.5,3.8,1.5c1.3,1.3,2.1,3.2,2.5,5.9
			c0.8,5.8,1.4,12.2,1.7,19.1c0.1,2.1,0.5,4.1,0.9,6.2c0.5,2.5,1,5.2,1,7.9c0,3.5,0,7.1-0.1,10.7C54,68,54,71.7,54,75.3v5.4
			c0,3,0,6.2,0.1,9.1c0,0.3,0,0.6,0.1,0.9c0.1,0.8,0.2,1.6,0,2.5c0,0,0,0.1,0,0.1c-0.6,1.6-1.8,2.1-2.7,2.4l-0.1,0.1
			c-3.2,1.7-5.9,2.1-9.4,2.2C41.9,98.1,41.7,98.1,41.6,98.1z M35.8,44.5c-0.6,0.1-1.5,0.5-1.9,0.9c-0.5,0.4-0.4,1.7-0.3,2.5l0,0.2
			c0.1,1.1,0.1,2.1,0.1,3.1c0,1,0,1.9,0.1,2.9v4.7c0.8-0.1,1.9-0.4,2.4-0.5c0.3-0.3,0.4-0.7,0.4-1.8l-0.4-7.4
			c-0.1-1.1-0.2-2.2-0.4-3.2c0-0.1,0-0.1,0-0.2c0-0.2,0-0.3,0-0.5C35.8,45,35.8,44.8,35.8,44.5z M291.2,97.9c-3-0.2-7.1-0.7-8.5-3.2
			c-0.7-1.2-0.7-2.6-0.8-3.8c0-0.3,0-0.7-0.1-1c-0.1-2.1-0.3-4.2-0.3-6.3c0-3.2-0.1-6.2-0.3-9.4c-0.1-2.2-0.2-4.4-0.2-6.7
			c-0.1-4.1-0.3-8.3-0.3-12.4c0-2.5,0-4.8,0.3-7.4c0.3-3.4,0.4-6.6,0.2-9.5c-0.2-5.7-0.6-11.2-1.2-16.8c0-0.5-0.1-1-0.1-1.5
			c-0.2-1.6-0.4-3.4,0.2-5.3c0.4-1.5,1.8-3.4,5.9-3.4c0.7-0.1,1.4-0.1,2-0.2c1.9-0.2,3.9-0.3,5.8-0.7c1.5-0.4,3.1-0.7,4.6-1
			c1.7-0.3,3.3-0.7,4.9-1.1c0.4-0.1,0.8-0.2,1.2-0.3c1.1-0.3,2.2-0.6,3.2-0.6c1.9,0,2.9,1,3.4,1.9c1.3,2.1,1.5,5,1.6,7.3l0,0.2
			c0,0.5,0,1.1,0,1.8c0,1.1,0.1,2.5,0.1,3.9c0,5.4-0.5,6.6-0.6,7c-1,2.5-3.2,3.2-5.1,3.9c-0.3,0.1-0.6,0.2-1,0.3c0,0-0.1,0-0.1,0
			c-2.3,0.7-6.2,1.2-9,1.5c0,0-0.1,0-0.1,0c-2.4,0-2.4,0.1-2.5,1.9c0,1.2,0,1.4,0.1,2.5c0,0.3,0.1,0.7,0.1,0.9c0,0.5,0,0.7,0.2,0.9
			c0,0,0.3,0.3,1.4,0.3c0.8,0,1.7-0.1,2.5-0.2c0.4,0,0.8-0.1,1-0.1c0.6-0.1,1.2-0.2,2-0.4c2-0.4,4.3-0.9,6-0.9c0.2,0,0.3,0,0.5,0
			c0,0,0.1,0,0.1,0c3.3,0.5,3.5,4.6,3.5,6.8c0,0.3,0,0.6,0,0.9c0.1,1.6,0.1,3.1,0.1,4.8c0,0.2,0,0.4,0.1,0.6c0.1,1.2,0.3,2.5,0,3.7
			c0,0,0,0.1,0,0.1c-1.4,4.7-7.8,5.6-12,6.2c-0.7,0.1-1.3,0.2-1.8,0.3c-1.9,0.3-1.9,0.3-2,3c-0.1,3.1-0.1,3.9,0.2,6.7
			c0.2,1.5,0.6,1.8,2.3,1.8c0.2,0,0.4,0,0.5,0c2.4,0,5.1-0.5,7.2-1c0.4-0.1,0.9-0.3,1.3-0.6c0.9-0.4,1.8-0.8,2.8-0.8
			c1.4,0,2.5,0.8,3.3,2.2c0.9,1.6,1.1,3.7,1.2,5.6c0,0.6,0.1,1.2,0.1,1.8l0,0.4c0.3,2.2,0.6,4.9-0.9,7.2c-1.9,3.1-6,4.5-9.2,5.7
			c-0.4,0.1-0.7,0.2-1,0.4c0,0-0.1,0-0.1,0c-4.3,1.2-8.5,1.9-12.7,1.9C291.2,97.9,291.2,97.9,291.2,97.9z M111.7,97.6
			c-0.8,0-1.5-0.1-2.1-0.2c-3.8-0.8-5.3-2.9-6.8-4.9c-0.5-0.7-1-1.4-1.7-2.2c-2.4-2.8-4-6.6-4.6-11.5c-0.3-2.5-0.5-5.4-0.5-8.7
			c0-2.9,0.1-5.8,0.3-8.5c0,0,0-0.1,0-0.1c0.1-1.2,0.1-2.3,0.1-3.6c0-2.3-0.1-4.7-0.2-7C96,47.6,95.9,44.3,96,41
			c0.1-1.5,0-3.1-0.1-4.8c-0.1-1.3-0.2-2.6-0.2-3.9c0-2,0.1-4.4,0.8-6.7c1-3.3,2.9-6.3,6.3-9.9C106.6,11.9,114.1,8,121,8
			c2.8,0,5.2,0.6,7.3,1.9c6,3.6,6.8,9.5,6.8,14.8c0,1.4-0.1,2.8-0.1,4.2c-0.1,1.4-0.1,2.7-0.1,3.9c0.1,2.7,0,5.4-0.1,8.1
			c-0.1,2-0.1,4-0.1,6c0,1.6,0,3.2,0.1,4.8c0.1,2.2,0,4.4-0.2,6.5c-0.2,2.1-0.3,4.1-0.2,6.1l0,0.2c0.3,3.6,0.5,7.1,0.2,10.7l0,0.2
			c-0.3,3.3-0.7,8.9-3.3,12.2c-1.3,1.6-2.8,2.9-4.3,4.3l-0.1,0.1c-1.2,1.1-2.4,1.6-3.6,2.1c-0.8,0.3-1.5,0.6-2.3,1.1
			C118.6,96.8,114.5,97.6,111.7,97.6z M113.2,74.3c0.1,0,0.2,0,0.3,0c1,0,2.7-0.7,3.4-1.5c0.8-0.8,0.8-3.5,0.7-5.2
			c0-0.7,0-1.3,0-1.9c0.2-2.4,0.1-4.6-0.1-7c-0.1-2.2-0.3-4.4-0.2-6.7c0-1.1,0-2.3,0.1-3.5c0-1.2,0.1-2.4,0.1-3.7
			c0-3.1-0.2-5.7-0.5-8c0-0.1-0.1-0.3-0.1-0.4c-0.1,0-0.3,0-0.4,0c-0.7,0-2.6,0.5-3,0.8c-0.5,0.4-0.5,1.9-0.6,3c0,0.4,0,0.8-0.1,1.1
			c-0.4,2.7-0.4,5.1-0.4,7.6c0,1.6,0.1,3.2,0.2,4.8c0.1,3.2,0.2,6.6,0.2,9.9c0,1.1-0.1,2.2-0.1,3.3c-0.1,1.1-0.1,2.2-0.1,3.3
			C112.7,71.9,112.8,73.2,113.2,74.3C113.1,74.2,113.1,74.3,113.2,74.3C113.2,74.3,113.2,74.3,113.2,74.3z M247.2,97.2
			c-5,0-5.3-4.7-5.5-8.2l-0.1-0.9c-0.2-1.8-0.4-3.7-0.6-5.5c-0.3-2.4-0.6-5-0.8-7.5c0-1.1,0-2.1-0.1-3.1c0-1-0.1-1.9-0.1-2.8
			c0-0.4-0.1-1-0.1-1.7c0-1-0.1-3-0.3-3.5c-0.1-0.2-0.2-0.3-0.6-0.3c-0.3,0-0.8,0.1-1.2,0.3c-0.7,0.3-0.8,0.6-0.9,2.4
			c0,0.3,0,0.6,0,0.9c-0.1,1.7-0.1,3.4-0.1,5.1c0,1.8,0,3.6,0.1,5.3c0,1.8,0.1,3.6,0.1,5.4c0,2.4,0,5-0.3,7.6
			c-0.4,3.9-5.1,6.3-9.3,6.3c-1.1,0-2.1-0.2-3-0.5c-3.1-1.1-3.1-5.2-3.1-6.6c0-1.1,0.1-2.3,0.2-3.3c0.1-0.8,0.2-1.5,0.2-2
			c0.1-2.4,0.1-4.6,0.1-6.8c0-2.2,0-4.5-0.1-6.7c0-2.2-0.1-4.5-0.1-6.7c0-2.2,0-4.6,0.1-6.9c0.1-2.7,0-5.7-0.1-8.6
			c-0.1-2.2-0.1-4.5-0.1-6.7c0-2,0.1-3.8,0.3-5.7c0.1-0.8,0.1-1.7,0-2.7c0-0.5,0-1.1,0-1.6c0-3.3,0.1-6.8,1.8-9.2
			c1.4-2.3,6.1-3.5,12.1-4.8c1.4-0.3,2.7-0.6,3.3-0.8c1.1-0.4,2.1-0.5,2.9-0.5c4.4,0,4.8,4.8,5,6.9c0.1,0.8,0.1,1.5,0.2,2.3
			c0.3,3.2,0.7,6.5,0.7,9.9c0,0.5,0,1-0.1,1.7c0,0.8-0.1,1.8-0.1,2.8c0,4.1,0.6,5.5,1.1,6c0,0,0.1,0,0.1,0.1
			c0.1,0.1,0.3,0.2,0.6,0.2c0.4,0,0.9-0.2,1-0.3c0,0,0.1,0,0.1-0.1c0.6-0.5,0.7-1.8,0.8-3.2c0-0.3,0-0.6,0.1-0.9
			c0.4-9.6,1-18.8,1.6-26.6c0.3-5.9,3.1-6.9,7.6-7.7c0.4-0.1,0.8-0.2,1.3-0.2c1.5-0.3,3.4-0.7,5.3-0.7c4,0,5.6,1.8,6.4,3.3
			c0.8,1.5,0.9,3.5,0.9,5.3c0,1,0,2-0.1,3c-0.1,1.3-0.1,2.5,0,3.5c0.5,4.9,0.9,10,1.2,15c0.2,5.4,0.8,10.9,1.3,16.2
			c0.5,5.3,1.1,10.7,1.3,16.1c0.1,1.7,0.3,4.7,0.6,7.8c0.4,4,0.7,8.2,0.7,10.5c0,4.9-5.8,6.3-9.2,7.1l-0.3,0.1
			c-0.7,0.2-1.2,0.2-1.7,0.2c-2.6,0-2.8-2.2-3-4.2l0-0.2l-0.4-5.7c-0.2-1.8-0.4-5.2-0.7-8.4c-0.3-3.4-0.5-7-0.7-8.8
			c0-0.1,0-0.1,0-0.2c0-0.5,0-0.9-0.1-1.2c-0.2,0-0.4,0-0.6,0c-0.6,0-0.6,0-0.9,0.5c-0.4,0.8-0.3,2.5-0.2,4.4l0,0.2
			c0.1,2.2,0.2,4.3,0.3,6.4c0.1,2,0.2,4.1,0.2,6.1c0,0.6,0.1,1.2,0.2,1.8c0.1,1,0.3,2.1,0.3,3.2c0,2.9-1.2,4.8-3.6,5.7
			c-2.6,1-6,1.5-9,2c-0.7,0.1-1.3,0.2-1.9,0.3C247.8,97.2,247.5,97.2,247.2,97.2z"/>
		<path d="M267.1,8.7c2.1,0,4.1,0.5,5,2.4c0.6,1.2,0.8,2.8,0.8,4.6c0,2.3-0.3,4.8-0.1,6.6c0.5,5,0.9,10.1,1.2,15
			c0.4,10.8,2.2,21.5,2.6,32.2c0.1,4,1.3,14.2,1.3,18.2c0,3.9-5,4.9-8.4,5.7c-0.6,0.1-1,0.2-1.4,0.2c-1.2,0-1.3-0.9-1.5-3.1
			c-0.1-1.9-0.3-3.7-0.4-5.7c-0.4-3.7-1-13.7-1.4-17.3c0-0.9-0.1-2.4-0.8-2.6c-0.6-0.1-1-0.1-1.4-0.1c-1.3,0-1.7,0.4-2.2,1.2
			c-0.6,1.2-0.5,3.1-0.4,5.4c0.1,4.3,0.4,8.4,0.5,12.5c0.1,1.7,0.5,3.3,0.5,5c0,1.8-0.5,3.5-2.6,4.3c-3.1,1.2-7.5,1.7-10.6,2.2
			c-0.3,0-0.5,0-0.8,0c-3.9,0-3.8-3.9-4-7.7c-0.4-4.4-1.2-8.6-1.4-13c0-2.1-0.1-4-0.1-5.9c-0.1-1.3,0-4.5-0.5-5.7
			c-0.4-0.9-1.2-1.2-2-1.2c-0.6,0-1.2,0.2-1.9,0.5c-1.9,0.9-1.7,2.4-1.8,4.6c-0.1,1.7-0.1,3.5-0.1,5.2c0,3.6,0.1,7.1,0.1,10.7
			c0,2.4,0,4.9-0.3,7.5c-0.3,3.1-4.4,4.9-7.8,4.9c-0.9,0-1.7-0.1-2.4-0.4c-1.8-0.7-2.2-2.8-2.2-5.2c0-1.9,0.4-4,0.4-5.3
			c0.1-2.3,0.1-4.6,0.1-6.8c0-4.5-0.1-8.9-0.1-13.4c0-2.2,0-4.5,0.1-6.8c0.1-4.9-0.3-10.3-0.3-15.4c0-1.9,0.1-3.7,0.3-5.5
			c0.1-1.3,0-2.8,0-4.4c0-3.1,0.1-6.3,1.6-8.4c1.7-2.7,12-4.1,14.7-5c0.9-0.3,1.8-0.5,2.4-0.5c2.4,0,3.2,1.9,3.5,5.5
			c0.4,4,0.9,8,0.9,12.1c0,1-0.1,2.7-0.1,4.5c0,2.8,0.3,5.8,1.6,7.1c0.4,0.5,1.1,0.7,1.7,0.7c0.8,0,1.5-0.3,2-0.7
			c1.4-1,1.3-3.2,1.4-5.2c0.4-8.8,0.9-18.1,1.6-26.6c0.3-4.9,2.1-5.6,6.3-6.3C262.4,9.4,264.8,8.7,267.1,8.7 M307.8,9
			c0.9,0,1.6,0.3,2.1,1.2c1.2,1.8,1.3,4.6,1.4,6.8c0,1,0.1,3.2,0.1,5.6c0,2.7-0.1,5.4-0.5,6.5c-0.9,2.2-3.1,2.6-5.2,3.3
			c-2.3,0.7-6.2,1.2-8.8,1.4c-2.7,0-3.9,0.4-4,3.3c0,1.3,0,1.5,0.1,2.7c0.1,1,0,1.5,0.4,2.3c0.4,0.9,1.5,1.1,2.8,1.1
			c1.3,0,2.8-0.3,3.7-0.3c2.1-0.4,5.6-1.3,7.8-1.3c0.1,0,0.3,0,0.4,0c2.5,0.4,2.2,4.4,2.3,6.3c0.1,1.5,0.1,3.1,0.1,4.8
			c0.1,1.3,0.4,2.7,0.1,4c-1.3,4.4-9,4.8-12.6,5.4c-3,0.5-3.1,1.5-3.2,4.4c-0.1,3.1-0.1,4,0.3,7c0.4,2.4,1.5,3.1,3.8,3.1
			c0.2,0,0.4,0,0.6,0c2.5,0,5.2-0.5,7.5-1c1.4-0.4,2.6-1.3,3.7-1.3c0.7,0,1.4,0.4,2,1.5c1,1.8,0.9,4.5,1.2,6.8
			c0.3,2.2,0.6,4.6-0.6,6.6c-1.8,3-6.5,4.4-9.5,5.6c-4,1.2-8.1,1.8-12.3,1.8c-2.2-0.1-6.2-0.5-7.4-2.4c-0.6-1.2-0.5-2.8-0.6-4.1
			c-0.1-2.1-0.3-4.1-0.3-6.2c0-5.4-0.4-10.6-0.5-16.1c-0.1-4.1-0.3-8.3-0.3-12.4c0-2.5,0-4.8,0.3-7.2c0.3-3.1,0.4-6.5,0.3-9.7
			c-0.3-5.8-0.6-11.4-1.2-16.9c-0.1-2.1-0.6-4.1,0-6.2c0.5-1.9,2.7-2.3,4.5-2.3c2.6-0.3,5.3-0.4,8-0.9c3.2-0.8,6.5-1.3,9.5-2.1
			C305,9.6,306.5,9,307.8,9 M121,9.5c2.4,0,4.6,0.5,6.6,1.7c5.2,3.1,6.1,8.1,6.1,13.5c0,2.7-0.3,5.5-0.3,8.1
			c0.1,4.6-0.3,9.4-0.3,14.1c0,1.7,0,3.2,0.1,4.9c0.3,4.1-0.6,8.4-0.4,12.5c0.3,3.6,0.5,7.1,0.3,10.7c-0.3,3.2-0.6,8.6-3,11.6
			c-1.3,1.6-2.7,2.8-4.3,4.3c-1.7,1.6-3.6,1.7-5.7,3c-2,1.4-5.7,2.2-8.5,2.2c-0.7,0-1.3-0.1-1.8-0.1c-4.4-0.9-5-3.7-7.6-6.6
			c-2.6-3-3.7-7-4.3-10.7c-0.4-2.7-0.5-5.7-0.5-8.5c0-2.8,0.1-5.7,0.3-8.5c0.1-1.3,0.1-2.5,0.1-3.7c0-5.7-0.6-11.2-0.4-16.8
			c0.1-2.8-0.3-5.8-0.3-8.8c0-2.2,0.1-4.3,0.8-6.2c1-3.5,3.2-6.4,5.9-9.3C107.7,13,114.8,9.5,121,9.5 M113.5,75.8
			c1.5,0,3.5-0.9,4.5-1.9c1.7-1.7,1-6.1,1.2-8c0.4-4.6-0.5-9-0.3-13.7c0-2.3,0.1-4.8,0.1-7.2c0-2.8-0.1-5.5-0.5-8.3
			c-0.2-1.2-0.4-1.7-1.5-1.7c-0.1,0-0.3,0-0.4,0c-0.9,0-3.1,0.5-3.9,1c-1.4,1-1.2,3.6-1.3,5.2c-0.4,2.7-0.4,5.2-0.4,7.7
			c0.1,4.9,0.4,9.8,0.4,14.7c0,2.1-0.3,4.4-0.3,6.6c0,1.6,0.1,3.1,0.5,4.4C111.9,75.5,112.6,75.8,113.5,75.8 M197.9,11.5
			c1.2,0,2.3,0.3,3,1.5c0.9,1.3,0.9,3.7,1,5.3c0.4,3.4,0.9,10.5-3,11.6c-3,0.9-2.6,0.5-5.9,0.9c-1,0.1-1.2,1.6-1.3,4.6
			c-0.3,2.7-0.3,5.9-0.3,7.9c0.3,15.9,1,26.3,1.2,42.1c0,2.2,1.2,5.9-0.4,7.7c-1.9,2.1-5,3.1-7.7,3.5c-1,0.1-1.8,0.2-2.5,0.2
			c-2.6,0-3.6-1.2-3.8-5.1c-0.6-11.5-0.1-23.2-0.3-34.8c0-6.7-0.6-9.8-0.4-16.5c0.1-3.8,0-11.4-3.1-11.4c-0.1,0-0.1,0-0.2,0
			c-2.4,0.3-16.8,2.8-25.5,2.8c-3.7,0-6.4-0.5-6.7-1.7c-0.6-2.6-1.2-12.6,1.2-14.7c1.4-1.2,27.2-2.2,28.9-2.3c2.6-0.3,5-0.4,7.5-0.6
			c7.4-0.5,8,0,15.4-0.5C195.9,11.7,197,11.5,197.9,11.5 M76.6,12.9c2.8,0,5,0.9,7.6,2c2.8,1,5.7,1.8,6.2,4.8
			c0.9,5,2.3,16.4,2.3,24.8c0,2.7-0.1,5.2-0.5,6.8c-0.5,2.2-1.2,2.2-3.2,3.3c-1.7,0.9-3.7,0.9-4.6,2.5s1.6,2.3,2.8,3
			c1.9,0.9,3.6,1.2,4.4,3.1c1.2,2.6,0.9,5.7,1,8.5c0.3,3.7,0.1,4.5,0,6.7c-0.1,2.6,0.1,4.6-0.9,7.1c-1.2,3.1-6.8,5.2-9.7,7
			c-3.2,2.1-7.2,4.3-11,5c-0.6,0.1-1.1,0.2-1.7,0.2c-2,0-3.9-0.7-5.4-1.8c-1.5-0.9-3.6-2.7-4.3-4.3c-0.4-1-0.5-2.3-0.5-3.7
			c0-1.6,0.1-3.1,0.1-4.5c0-2.8,0.1-5.7,0.4-8.5c0.1-2.4,0.1-4.9,0.1-7.3c0-1.9,0-3.9-0.3-5.8c-0.3-2.6-0.3-5.3-0.5-8
			c-0.6-5.2-0.6-10.5-0.9-15.7c-0.3-3.7-0.4-7.6-0.5-11.4c-0.1-1.9-1-5.3,0.3-7.1c1.8-2.5,5.3-2.6,8-3.6c3.2-1.2,6.2-2.6,9.7-2.8
			C75.9,13,76.3,12.9,76.6,12.9 M72.3,52.9c0.4,0,0.8-0.1,1.3-0.3c1.3-0.5,3.1-1.7,3.5-2.7c0.8-2.7-0.3-5.8,0-8.5
			c0-1.3,0.3-4.4-2.1-4.4c-0.2,0-0.4,0-0.6,0c-1.6,0.3-3.7,1.3-4.3,2.6c-0.5,1.8,0.1,4.1,0.3,5.9c0.1,1.7,0.4,3.5,0.3,5.2
			C70.7,51.7,71,52.9,72.3,52.9 M74.1,78.5c0.2,0,0.4,0,0.7-0.1c1.3-0.1,3.2-0.5,3.7-1.3c0.7-0.8,0.3-1.9,0.3-2.7
			c0-1.3,0.1-2.6,0.1-3.9c0-0.9,0.7-2.4-0.9-2.4c-0.2,0-0.5,0-0.8,0.1c-1.8,0.3-3.9,0.9-4,1.9c-0.3,1.2,0.1,2.2-0.1,3.3
			c-0.1,1.2,0,2.3,0.1,3.5C73.2,77.6,73,78.5,74.1,78.5 M44.2,14.5c1,0,2,0.2,2.8,1c1.3,1.3,1.8,3.4,2.1,5c0.9,6.2,1.4,12.6,1.7,19
			c0.3,4.8,1.9,9.3,1.9,14.1c0,7.1-0.1,14.5-0.1,21.7c0,1.8,0,3.6,0,5.4c0,3.1,0,6.2,0.1,9.2c0,0.9,0.4,2.1,0.1,3
			c-0.4,1-1.2,1.3-2.1,1.7c-3,1.6-5.5,1.9-8.8,2.1c-0.1,0-0.2,0-0.3,0c-1.7,0-2.9-1-3.1-3c-0.1-1.9-0.1-4.1-0.1-6.1
			c0-2.2,0.3-4.3,0-6.3c0-1.2,0.3-4.8-0.7-5.3c-0.2-0.2-0.6-0.3-1-0.3c-1.2,0-3,0.7-3.8,1c-2.2,0.8-1.9,2.8-1.9,5c0,2.4,0,4.9,0,7.3
			c0,5.2-8.9,5.8-12.1,5.8c-0.6,0-2.1-0.3-2.6-0.7c-0.8-0.5-0.8-2.1-0.8-2.8c-0.3-4,0.1-10.1,0-14.1c0-4.4-0.3-8.8-0.3-13.2
			c0-1.3-0.3-2.6,0-3.9c0.1-1.2,0.6-2.3,1-3.5c2.2-6.8,2.3-11.3,4.3-18.3c0.9-3.5,0.9-8.5,1.6-12.1c0.3-1.7,0.4-4.4,1.3-5.8
			c1.4-2.1,8.5-3.6,10.7-4.1c2.5-0.8,5-1.4,7.6-1.7C42.6,14.7,43.4,14.5,44.2,14.5 M33.3,60.4c1.1,0,3-0.5,3.5-0.8
			c1.2-0.8,1.2-1.9,1.2-3.1c-0.1-2.5-0.3-5-0.4-7.5c-0.1-1.2-0.3-2.3-0.4-3.3c0-0.8,0.1-1.7-0.3-2.3c-0.2-0.3-0.6-0.4-1-0.4
			c-1.1,0-2.4,0.8-3.1,1.3c-1.2,0.9-0.9,2.7-0.8,4c0.1,1.9,0,3.9,0.1,5.9c0,1.4,0,3,0,4.6c0,0.4,0.1,1.2,0.5,1.4
			C32.9,60.4,33.1,60.4,33.3,60.4 M167.4,34.7c1,0,1.8,0.2,2.4,0.7c1.7,1.5,1.2,4.8,1.2,6.8c-0.4,5.8-0.6,17-0.4,23
			c0.4,7.7,0.1,15.5,0.1,23.2c0,1.9,0.5,6.8-0.9,8.1c-1.3,1.2-4.8,1.6-6.6,2.1c-1.1,0.3-3.4,1.2-5.1,1.2c-0.7,0-1.2-0.2-1.6-0.6
			c-0.5-0.8,0.3-2.6-0.5-3.2c-0.1-0.1-0.3-0.1-0.6-0.1c-1.2,0-3.6,0.9-4.2,1.2c-2.2,0.5-5.1,1.5-7.6,1.5c-2.3,0-4.3-0.8-5-3.6
			c-0.6-2.4-0.1-5.7,0-8.1c0.3-4.1-0.3-8.3,0-12.4c0.3-4.6-0.3-14.6,0-19.2c0.1-2.1,0-4,0.1-6.1c0.1-1.9,0.3-4,0.3-5.9
			c-0.1-1.3,0.1-1.8,1.4-2.5c2.3-0.9,5.3-1.2,7.7-1.5c0.2,0,0.3,0,0.4,0c1,0,1.1,0.5,1.5,2.1c0.4,1.4,0,3.1,0,4.4
			c-0.1,5.8,0.3,16.9,0.3,22.7c0,3.1,0.1,6.3,0.3,9.6c0.1,2.1-0.4,5.6,0.4,7.5c0.2,0.1,0.5,0.1,0.8,0.1c1.5,0,4-0.7,4.6-1.4
			c0.8-0.9,0.3-3.3,0.3-4.5c0-3.6,0.1-7.2,0.1-10.8c0-5.8,0-16.8-0.6-22.5c-0.3-2.5-0.4-5.4-0.1-8c0.3-2.5,4.6-2.8,6.8-3.1
			C164.2,35.1,165.9,34.7,167.4,34.7 M267.1,5.7c-2,0-4,0.4-5.6,0.7c-0.5,0.1-0.9,0.2-1.2,0.2c-4.8,0.9-8.4,2.1-8.8,9.1
			c-0.6,7.8-1.1,17-1.6,26.6c0,0.3,0,0.6-0.1,0.9c0,0.6-0.1,1.5-0.2,1.9c-0.2-0.6-0.5-1.8-0.5-4.6c0-1,0-1.9,0.1-2.7
			c0-0.7,0.1-1.3,0.1-1.8c0-3.5-0.4-6.8-0.7-10.1c-0.1-0.8-0.2-1.6-0.2-2.3c-0.2-2-0.7-8.2-6.5-8.2c-1,0-2.1,0.2-3.4,0.6
			c-0.6,0.2-1.8,0.5-3.2,0.8c-6.5,1.4-11.3,2.7-13.1,5.5c-1.9,2.8-2,6.5-2,10c0,0.5,0,1.1,0,1.7c0,0.9,0.1,1.8,0,2.4
			c0,0,0,0.1,0,0.1c-0.1,1.8-0.3,3.7-0.3,5.8c0,2.2,0.1,4.5,0.1,6.7c0.1,2.9,0.2,5.8,0.1,8.5c-0.1,2.4-0.1,4.7-0.1,7
			c0,2.3,0,4.6,0.1,6.8c0,2.2,0.1,4.4,0.1,6.7c0,2.2,0,4.4-0.1,6.7c0,0.1,0,0.1,0,0.2c0,0.4-0.1,1.1-0.1,1.8
			c-0.1,1.1-0.2,2.3-0.2,3.5c0,4.3,1.4,7,4.1,8c1,0.4,2.2,0.6,3.5,0.6c4.9,0,10.3-2.8,10.8-7.6c0.3-2.7,0.3-5.3,0.3-7.8
			c0-1.8,0-3.7-0.1-5.4c0-1.7-0.1-3.5-0.1-5.3c0-1.7,0-3.4,0.1-4.9c0,0,0,0,0-0.1c0-0.3,0-0.7,0-1c0-0.2,0-0.4,0-0.6
			c0,0.6,0.1,1.2,0.1,1.6c0,0.6,0,1.2,0.1,1.7c0,1,0,1.9,0.1,2.8c0,1,0.1,2,0.1,3c0,0.1,0,0.1,0,0.2c0.1,2.6,0.5,5.2,0.8,7.6
			c0.2,1.8,0.5,3.7,0.6,5.5c0,0.3,0,0.5,0.1,0.8c0.2,3.4,0.6,9.6,7,9.6c0.4,0,0.7,0,1.1-0.1c0.1,0,0.1,0,0.2,0
			c0.6-0.1,1.2-0.2,1.9-0.3c2.9-0.4,6.5-1,9.3-2.1c1.3-0.5,3.4-1.7,4.2-4.5c0.2,1.9,0.9,4.9,4.4,4.9c0.6,0,1.2-0.1,2-0.3l0.3-0.1
			c3-0.7,8.2-1.9,9.9-5.8c0,0.2,0,0.3,0,0.5c0.1,1.3,0.1,2.9,1,4.4c0,0,0,0.1,0,0.1c1.8,3.1,6.2,3.7,9.8,3.9c0.1,0,0.1,0,0.2,0
			c4.3,0,8.7-0.7,13.1-1.9c0.1,0,0.1-0.1,0.2-0.1c0.3-0.1,0.7-0.2,1-0.4c3.3-1.2,7.8-2.9,10-6.4c1.8-2.7,1.4-5.9,1.1-8.2l0-0.4
			c-0.1-0.5-0.1-1.1-0.1-1.7c-0.1-2-0.3-4.3-1.4-6.3c-1.4-2.5-3.2-3-4.6-3c-1.3,0-2.5,0.5-3.4,1c-0.4,0.2-0.8,0.3-1.1,0.4
			c-2,0.4-4.5,0.9-6.7,0.9c0,0-0.1,0-0.1,0c-0.2,0-0.3,0-0.5,0c-0.4,0-0.6,0-0.7-0.1c0-0.1-0.1-0.3-0.1-0.5
			c-0.4-2.7-0.4-3.4-0.2-6.4c0-0.4,0-1,0.1-1.4c0.1,0,0.4-0.1,0.6-0.1c0.5-0.1,1.1-0.2,1.8-0.3c4.6-0.7,11.6-1.7,13.3-7.3
			c0-0.1,0-0.2,0.1-0.3c0.3-1.5,0.1-3,0-4.2c0-0.2,0-0.4-0.1-0.5c0-1.7,0-3.2-0.1-4.8c0-0.2,0-0.5,0-0.8c-0.1-2.3-0.3-7.5-4.8-8.3
			c-0.1,0-0.2,0-0.3,0c-0.2,0-0.4,0-0.6,0c-1.8,0-4.2,0.5-6.3,1c-0.7,0.2-1.3,0.3-1.9,0.4c-0.3,0-0.6,0.1-1,0.1
			c-0.7,0.1-1.6,0.2-2.3,0.2c0,0-0.1,0-0.1,0c0-0.2,0-0.5-0.1-0.8c-0.1-0.9-0.1-1.1-0.1-2.3c0-0.2,0-0.3,0-0.4c0.2,0,0.5,0,1,0
			c0.1,0,0.2,0,0.3,0c1.4-0.1,6.2-0.7,9.3-1.5c0.1,0,0.2,0,0.2-0.1c0.3-0.1,0.6-0.2,0.9-0.3c2-0.7,4.7-1.6,6-4.7c0,0,0-0.1,0-0.1
			c0.2-0.5,0.7-1.9,0.7-7.5c0-1.4,0-2.8-0.1-3.9c0-0.7,0-1.2,0-1.6c0-0.1,0-0.1,0-0.2l0-0.2c-0.1-2.5-0.3-5.6-1.8-8
			c-1-1.7-2.6-2.7-4.7-2.7l0,0c-1.3,0-2.6,0.4-3.7,0.7c-0.4,0.1-0.8,0.2-1.1,0.3c-1.6,0.4-3.2,0.7-4.9,1.1c-1.5,0.3-3.1,0.6-4.6,1
			c-1.8,0.3-3.7,0.5-5.5,0.7c-0.7,0.1-1.3,0.1-2,0.2c-5.2,0.1-6.8,2.8-7.2,4.5c-0.6,2.1-0.4,4.1-0.2,5.8c0,0.5,0.1,1,0.1,1.4
			c0,0,0,0.1,0,0.1c0.5,5.6,0.9,11.1,1.1,16.8c0.1,2.8,0,5.9-0.2,9.3c-0.3,2.6-0.3,5-0.3,7.5c0,4.2,0.1,8.4,0.3,12.5
			c0,0.3,0,0.5,0,0.8c-0.2-5.1-0.8-10.2-1.2-15.1c-0.5-5.3-1.1-10.7-1.3-16c0,0,0,0,0,0c-0.3-5-0.7-10.1-1.2-15.1
			c-0.1-0.9,0-2.1,0-3.3c0-1,0.1-2,0.1-3c0-2-0.1-4.2-1.1-6C273.9,7.9,271.9,5.7,267.1,5.7L267.1,5.7z M121,6.5
			c-7.3,0-15.2,4.2-19.2,8.3c-2.2,2.3-5.3,5.9-6.6,10.5c-0.3,0.8-0.4,1.6-0.6,2.4c-0.4-3.4-0.8-6.4-1.2-8.5
			c-0.8-4.4-4.6-5.8-7.5-6.8l-0.6-0.2l-0.6-0.2c-2.5-1-4.9-1.9-8.1-1.9c-0.4,0-0.8,0-1.3,0.1c-3.2,0.2-5.9,1.3-8.5,2.3
			c-0.6,0.2-1.3,0.5-1.9,0.7c0,0,0,0,0,0c-0.6,0.2-1.4,0.4-2.2,0.6c-2.3,0.6-5.3,1.4-7.2,4c-1.7,2.4-1.3,5.5-1,7.8
			c0.1,0.5,0.1,0.9,0.2,1.3l0,0.3c0.1,3.6,0.2,7.4,0.5,11.1c0.1,1.5,0.1,3,0.2,4.4c0.1,3.8,0.3,7.6,0.7,11.5
			c0.1,1.3,0.2,2.6,0.2,3.8c0.1,1.4,0.1,2.8,0.3,4.2c0,0,0,0.1,0,0.1c0.2,1.7,0.2,3.5,0.2,5.4c0,2.3,0,4.8-0.1,7.1
			c-0.3,2.9-0.4,5.8-0.4,8.7c0,0.6,0,1.3-0.1,2c0,0.8-0.1,1.6-0.1,2.5c0,2,0.2,3.5,0.7,4.8c0,0,0,0.1,0,0.1c1,2.5,3.8,4.7,5.4,5.6
			c2.1,1.5,4.6,2.3,7.1,2.3c0.7,0,1.5-0.1,2.2-0.2c3.5-0.7,7.4-2.5,12-5.4c0.6-0.4,1.5-0.9,2.5-1.4c3.3-1.7,7.1-3.7,8.3-7
			c0.7-1.8,0.9-3.4,1-4.9c0.9,3.9,2.4,7.2,4.5,9.6c0,0,0,0,0,0.1c0.6,0.7,1.1,1.3,1.6,2c1.6,2.2,3.3,4.6,7.6,5.5c0,0,0.1,0,0.1,0
			c0.7,0.1,1.5,0.2,2.4,0.2c3,0,7.4-0.8,10.1-2.7c0.6-0.4,1.3-0.7,2-0.9c1.3-0.5,2.7-1.1,4.1-2.3l0.1-0.1c1.6-1.4,3-2.8,4.4-4.4
			c0,0,0-0.1,0.1-0.1c1.8-2.4,2.7-5.6,3.1-8.6c0,0.3,0,0.6,0,0.9c0.1,2.1,0.1,4,0,5.9c0,0.6-0.1,1.1-0.1,1.7c-0.2,2.3-0.4,5,0.2,7.4
			c0.6,2.2,2.4,5.8,7.9,5.8c2.4,0,4.8-0.6,6.9-1.2c0.5-0.1,1-0.3,1.4-0.4c0.1,0,0.2,0,0.2-0.1c0.1,0,0.3-0.1,0.5-0.2
			c0.3-0.1,0.5-0.2,0.7-0.3c0.1,0.5,0.3,1,0.6,1.4c0.1,0.1,0.1,0.2,0.2,0.2c0.6,0.8,1.8,1.7,3.9,1.7c1.7,0,3.6-0.6,4.9-1
			c0.4-0.1,0.7-0.2,0.9-0.3c0,0,0.1,0,0.1,0c0.4-0.1,1-0.2,1.6-0.4c2.2-0.5,4.6-1,6.1-2.3c2-1.8,2.1-5.2,1.9-9.2c0-0.5,0-0.9,0-1.2
			c0-2.2,0-4.4,0-6.6c0.1-5.5,0.1-11.2-0.2-16.8c-0.2-5.7,0-16.9,0.4-22.6c0-0.1,0-0.1,0-0.2c0-0.3,0-0.7,0-1.1
			c0.1-2.3,0.2-5.7-2.2-8c-0.3-0.3-0.6-0.5-1-0.7c0.3,0,0.6-0.1,0.8-0.1c0.9-0.1,1.6-0.2,2.2-0.3c0.4,0.9,0.9,3.4,0.7,8.2
			c-0.1,3.9,0,6.6,0.1,9.5c0.1,2.1,0.2,4.3,0.2,7.1c0.1,4.2,0,8.4,0,12.4c-0.1,7.4-0.1,15.1,0.3,22.6c0.1,2.4,0.4,8,6.8,8
			c0.8,0,1.7-0.1,3-0.2c2.3-0.3,6.6-1.3,9.5-4.4c0,0,0.1-0.1,0.1-0.1c2-2.3,1.6-5.6,1.3-7.9c-0.1-0.7-0.2-1.3-0.2-1.8
			c-0.1-8.6-0.3-15.4-0.6-22.7c-0.2-6-0.4-12.2-0.6-19.5c0-1.8,0-5,0.2-7.5c0,0,0-0.1,0-0.2c0-0.5,0.1-1.3,0.1-1.9
			c0.3,0,0.5,0,0.8,0c1.3-0.1,2-0.2,4.2-0.8c4.3-1.3,6.1-6.3,5.1-14.8c0-0.2,0-0.5-0.1-0.7c-0.1-1.9-0.3-4.2-1.5-5.9
			c-1.2-1.9-3.1-2.8-5.5-2.8l0,0c-0.9,0-1.7,0.1-2.5,0.2c-0.3,0-0.5,0.1-0.8,0.1c-3.5,0.2-5.4,0.2-7.4,0.2c-2,0-4.1,0-7.9,0.3
			c0,0-0.1,0-0.1,0c-1.2,0.1-2.5,0.2-3.8,0.3c-1.2,0.1-2.4,0.2-3.7,0.3c-0.3,0-1.4,0.1-2.6,0.1c-25.9,1.3-26.8,1.9-27.9,2.8
			c0,0-0.1,0.1-0.1,0.1c-4.2,3.7-2.4,16.4-2.1,17.7c1,4,6.8,4,9.6,4c2,0,4.2-0.1,6.5-0.3c-1.1,0.8-2,2-2.2,3.7
			c-0.1,0.7-0.1,1.5-0.1,2.2l0-0.1c-0.4-1.4-1.1-3.9-4.3-3.9c-0.2,0-0.4,0-0.7,0c-0.1,0-0.1,0-0.2,0c-0.5,0.1-1,0.2-1.6,0.2
			c-2.2,0.3-4.6,0.7-6.8,1.5c-0.1,0-0.2,0.1-0.2,0.1c-1.5,0.8-2.5,1.7-2.9,3c0-0.1,0-0.1,0-0.2c0.1-2.7,0.2-5.5,0.1-8.2
			c0-1.2,0.1-2.5,0.1-3.8c0.1-1.4,0.1-2.9,0.1-4.3c0-5.4-0.9-12.1-7.5-16.1C126.8,7.2,124.1,6.5,121,6.5L121,6.5z M114.6,38.5
			c0.3-0.1,0.7-0.2,1.1-0.3c0.2,2,0.3,4.2,0.3,6.8c0,1.2,0,2.4-0.1,3.6c0,1.2-0.1,2.3-0.1,3.5c-0.1,2.3,0,4.6,0.2,6.8
			c0.2,2.3,0.3,4.5,0.1,6.8c0,0.7,0,1.3,0,2.1c0,1,0.1,3.4-0.3,4.1c-0.3,0.3-1,0.7-1.5,0.8c-0.1-0.7-0.2-1.5-0.2-2.4
			c0-1,0.1-2.1,0.1-3.2c0.1-1.1,0.1-2.3,0.1-3.4c0-3.3-0.1-6.7-0.2-9.9c-0.1-1.6-0.1-3.2-0.2-4.8c0-2.5,0-4.8,0.4-7.3
			c0-0.1,0-0.1,0-0.2c0-0.3,0-0.7,0.1-1.2C114.5,39.8,114.5,38.9,114.6,38.5L114.6,38.5z M73,40.8c0.2-0.2,0.7-0.4,1.2-0.6
			c0,0.3,0,0.5,0,0.7c0,0.1,0,0.2,0,0.4c-0.1,1.4,0,2.7,0.1,4c0.1,1.3,0.2,2.5,0.1,3.5c-0.1,0.1-0.4,0.3-0.6,0.5
			c0-1-0.1-1.9-0.2-2.8c0-0.4-0.1-0.8-0.1-1.2c0-0.6-0.1-1.2-0.2-1.9C73.1,42.5,72.9,41.5,73,40.8L73,40.8z M153.6,77.8
			c-0.1-3.1-0.2-6.4-0.2-9.4c0-2.4-0.1-5.6-0.1-9.1c-0.1-5-0.2-10.1-0.1-13.5c0,0.3,0.1,0.6,0.1,0.8c0.6,5.5,0.6,16.3,0.6,22.1
			c0,1.8,0,3.6-0.1,5.4c0,1.8-0.1,3.6-0.1,5.5c0,0.4,0,0.9,0.1,1.4c0,0.3,0.1,0.8,0.1,1.2c-0.1,0-0.2,0.1-0.3,0.1c0-0.6,0-1.3,0-1.8
			C153.7,79.5,153.7,78.7,153.6,77.8L153.6,77.8z M89.4,57.8c0.3-0.1,0.7-0.3,1-0.5c0,0,0,0,0.1,0c0.3-0.2,0.6-0.3,0.8-0.4
			c1.6-0.9,2.8-1.6,3.5-3.6c0.1,1.5,0.1,3.1,0.1,4.7c0,1.2,0,2.3-0.1,3.4c0,0,0,0.1,0,0.2c0,0.5,0,1-0.1,1.5c-0.1-0.3-0.2-0.6-0.4-1
			c-1.1-2.7-3.3-3.5-4.8-4.2C89.5,57.8,89.4,57.8,89.4,57.8L89.4,57.8z M44.2,11.5c-0.9,0-1.8,0.1-2.5,0.2l-0.3,0
			c-2.4,0.2-5.1,0.8-8,1.8l-0.3,0.1C27,15.1,22.6,16.5,21,18.9c0,0,0,0.1-0.1,0.1c-1.1,1.7-1.3,4-1.6,5.9c-0.1,0.4-0.1,0.8-0.1,1.1
			c-0.3,1.7-0.5,3.5-0.6,5.4c-0.2,2.3-0.4,4.7-0.9,6.5c-0.9,3.3-1.4,6-1.9,8.6c-0.6,3.1-1.1,6-2.3,9.6c-0.1,0.2-0.2,0.5-0.3,0.8
			c-0.3,0.9-0.7,2-0.9,3.2c-0.2,1.2-0.1,2.3-0.1,3.2c0,0.4,0.1,0.8,0.1,1.1c0,2.2,0.1,4.5,0.1,6.7c0.1,2.1,0.1,4.3,0.1,6.5
			c0,0,0,0.1,0,0.1c0.1,1.7,0,3.8,0,6c-0.1,2.8-0.1,5.7,0,8.1c0,1.2,0.1,3.8,2.1,5.2c1.4,1,3.6,1.2,4.3,1.2c9.5,0,15.1-3.3,15.1-8.8
			v-7.3c0-0.2,0-0.4,0-0.7c0-0.5,0-1.2,0-1.6l0.3-0.1c0.2-0.1,0.6-0.2,1-0.4c0,0.6,0,1.2,0,1.5c0,0.3,0,0.6,0,0.8c0,0.1,0,0.2,0,0.4
			c0.1,1.1,0.1,2.3,0,3.7c0,0.7-0.1,1.5-0.1,2.3c0,2,0,4.2,0.1,6.3c0.2,3.4,2.7,5.8,6,5.8c0.2,0,0.3,0,0.5,0
			c3.5-0.1,6.5-0.6,9.9-2.3l0.1,0c1-0.4,2.7-1.1,3.5-3.3c0-0.1,0-0.2,0.1-0.2c0.3-1.2,0.2-2.3,0.1-3.1c0-0.2-0.1-0.5-0.1-0.7
			c0,0,0-0.1,0-0.1c-0.1-2.9-0.1-6-0.1-9v-5.4c0-3.6,0-7.3,0.1-10.9c0-3.5,0.1-7.2,0.1-10.8c0-2.9-0.5-5.6-1-8.2
			c-0.4-2.1-0.8-4.1-0.9-6.1C53.4,32.4,52.8,26,52,20.1c-0.5-3-1.4-5.2-2.9-6.7C47.8,12.2,46.2,11.5,44.2,11.5L44.2,11.5z"/>
	</g>
</g>
</svg>
