<?xml version="1.0" encoding="utf-8"?>
<!-- Generator: Adobe Illustrator 28.1.0, SVG Export Plug-In . SVG Version: 6.00 Build 0)  -->
<svg version="1.1" id="Layer_1" xmlns="http://www.w3.org/2000/svg" xmlns:xlink="http://www.w3.org/1999/xlink" x="0px" y="0px"
	 viewBox="0 0 407 137.4" style="enable-background:new 0 0 407 137.4;" xml:space="preserve">
<style type="text/css">
	.st0{fill:#68CC3D;}
</style>
<g>
	<g>
		<path d="M196,108.4c-0.6,0-1.1-0.1-1.5-0.3c-2.7-1.1-2.9-4.7-2.9-7c0-0.3,0-0.7,0-1c-0.1-2.8-0.3-5.7-0.5-8.5
			c0-0.3-0.1-0.9-0.1-1.7c0-0.9-0.1-2.9-0.3-3.7c0,0-0.1,0-0.1,0c-0.6,0-1.5,0.3-2.2,0.5c-0.2,0.1-0.5,0.1-0.6,0.2l-0.7,0.2
			c-0.5,0.2-0.5,0.2-0.9,0.4c-0.2,0.1-0.4,0.3-0.7,0.6c-0.3,0.3-0.7,1.6-0.6,5.6v0.5c0,3.1-0.2,5.1-3.6,6.4
			c-1.6,0.7-4.8,1.2-6.9,1.2c-0.5,0-1,0-1.4-0.1c-4.3-0.6-4-5.7-3.9-7.9c0.1-3.4,0.2-6.3,0.2-9c0-4.4,0-8.2,0.6-13
			c0.9-7.9,2.3-19.8,4-33.2c0.1-1,0.2-2.1,0.3-3.3c0.3-3,0.6-6.5,1.1-9.1c0.7-3.1,1.6-4.8,4.7-6.2c2.1-0.9,7.8-2.1,12.2-3.1l0.7-0.1
			c1.6-0.3,4.2-0.8,6.7-0.8c2.7,0,4.4,0.5,5.4,1.7c1.8,2,1.7,5,1.6,7.5c0,0.5-0.1,1-0.1,1.5c0.1,1.9,0.1,4,0.1,6.3
			c0,3.3,0.1,6.7,0.4,9.5c0.7,6.5,1.3,11.3,1.8,15.9c0.4,3.7,0.9,7.4,1.4,11.9c0.1,1.2,0.3,2.6,0.3,3.8v3.9c0,1.9,0,4-0.1,6.1
			c0,2.1-0.1,4.3-0.1,6.3c0,2.3,0.1,4.5,0.2,6.6l0,0.4c0.2,2.6,0.6,5.8-3.1,7.2c-0.4,0.1-0.9,0.3-1.5,0.6
			C202.4,106.8,198.4,108.4,196,108.4z M188.6,48.7c-0.2,0-0.4,0.1-0.4,0.1c0,0,0,0.1,0,0.1c-0.7,2.6-0.8,5.8-1,8.7l0,0.3
			c0,2.8-0.1,5.7-0.3,8.5v0.4c0,0.4,0,1,0.1,1.3c0.1,0,0.2,0,0.3,0c0.9-0.1,2.1-0.8,2.4-1.1c0.1-0.9,0-2-0.1-3
			c0-0.3-0.1-0.6-0.1-0.8c-0.1-1,0-2,0-2.9c0-0.6,0.1-1.1,0.1-1.7c0-0.7,0-1.3,0.1-2c0-0.6,0.1-1.2,0.1-1.9c0-2.4-0.2-4.2-0.6-5.8
			C189.2,48.9,188.9,48.7,188.6,48.7z M227.1,105.3c-1,0-1.8-0.2-3-0.4c-0.7-0.1-1.6-0.3-2.8-0.5c-0.2,0-0.3-0.1-0.5-0.2
			c-0.4-0.1-1.8-0.5-2.4-0.6c-0.6-0.1-1-0.2-1.2-0.3c-2.1-0.9-3.5-2.8-4-5.4c-0.4-2.4-0.4-4.7-0.4-7c0-0.4,0-0.9,0-1.3
			c0-5.7-0.4-11.6-0.7-17.2c-0.2-2.9-0.3-5.8-0.5-8.7c-0.1-3.2-0.1-8.1,0.3-11.5c0.3-2.4,0.9-5,3.3-7.1c4.2-3.7,12.8-5.4,15.3-5.8
			c1.7-0.3,3.2-0.4,4.5-0.4c4.5,0,7.4,1.6,8.5,4.7c0.7,2,0.7,4.3,0.7,6.3c0,0.8,0,1.5,0,2.2l0.1,1.2c0.1,2.2,0.2,4.8,0.6,6.7l0,0.2
			c0.4,1.8,1.3,5.1-1.1,6.9c-1.2,1-3.4,1.4-5.2,1.7c-0.5,0.1-1,0.2-1.4,0.3c-0.7,0.1-1.3,0.2-1.8,0.2c-1.1,0-2.1-0.2-2.8-0.7
			c-0.9-0.6-1.4-1.6-1.4-2.8c0-1.4,0-4.2-0.4-5.8c-0.7,0-1.8,0.3-2.6,0.6c-0.3,0.1-0.6,0.2-0.8,0.2c-0.6,0.2-0.6,0.2-0.6,1.5
			c0,0.4,0,0.8,0,1.3c0,0,0,0.1,0,0.1c-0.3,2.1-0.6,4.5-0.4,7c0.3,2.8,0.4,5.9,0.6,9c0.1,2.3,0.2,4.7,0.4,6.8c0,0,0,0.1,0,0.1
			c0,0.2,0,0.3,0,0.5c0,0.1,0,0.3,0,0.4c0,0,0,0,0,0c0.8,0,1.8-0.2,2.1-0.3c0.5-0.2,1.4-0.4,1.7-0.6c0-0.2,0.1-0.5,0.1-0.7
			c0.1-1.7,0.2-5.1,0.1-6.9c0,0,0-0.1,0-0.1c0-0.2,0-0.5-0.1-0.9c-0.1-0.8-0.2-1.6,0-2.5c0,0,0-0.1,0-0.1c0.7-1.8,2.2-2,3.4-2.1
			l0.2,0c0.4-0.1,0.9-0.1,1.5-0.2c1.2-0.2,2.6-0.4,4-0.4c0.6,0,1.2,0.1,1.8,0.1c3.5,0.7,3.5,3.7,3.4,5.1v0.4c0.1,2.1,0,4.2,0,6.3
			c0,2.7,0,5.6,0.1,8.3c0,0.2,0.1,0.5,0.1,0.8c0.2,1.5,0.6,3.9-1.4,5.3c-1.5,1.1-5.4,3.4-8,4c-1,0.3-1.9,0.6-2.7,0.8
			c-1.4,0.5-2.7,0.9-4.6,1.2C228.4,105.3,227.8,105.3,227.1,105.3z M38.9,104.7c-1.1,0-2-0.2-3.4-0.6c-0.8-0.2-1.8-0.4-3.1-0.7
			c-0.1,0-0.3-0.1-0.4-0.2c-0.3-0.1-1.2-0.3-1.9-0.5c-1.6-0.4-2.2-0.6-2.5-0.8c-3.1-1.5-3.9-5.3-4.1-6.6C23,92.1,23,88.9,23,85.8
			l0-1.5c0-7.5-0.4-15.2-0.7-22.6c-0.2-3.8-0.4-7.6-0.5-11.4c-0.1-1.8-0.1-4.7-0.1-7.7c0-4.7,0.1-9.1,0.4-11.5
			c0.2-2.7,0.9-6.2,3.5-9c3.9-4.1,11.7-6.6,17.2-7.5c1.7-0.3,3.5-0.5,5.2-0.5c5.1,0,8.2,2,9.3,6c0.8,2.6,0.8,5.5,0.8,8.3
			c0,1,0,1.9,0,2.8c0,0.7,0.1,1.7,0.1,2.9c0.1,3.8,0.3,9.5,0.7,11.8l0.1,0.3c0.4,2.3,1.2,6.1-1.2,8.3c-1.4,1.2-3.8,1.7-5.8,2.2
			c-0.6,0.1-1.2,0.2-1.6,0.4c-0.8,0.2-1.5,0.3-2.1,0.3c-2.8,0-4.5-1.7-4.5-4.3c0-2,0-6-0.4-8.1c0,0-0.1,0-0.1,0
			c-0.9,0-2.4,0.6-3.5,1l-0.2,0.1c-1,0.3-1.1,0.7-1,2.5c0,0.5,0,1,0,1.6c-0.3,2.9-0.6,6.2-0.4,9.5c0.3,3.6,0.4,7.8,0.5,11.8
			c0.1,3,0.2,6.2,0.4,9c0,0.3,0,0.6,0,1c0,0.2,0,0.6,0,0.8c0.1,0,0.2,0,0.5,0c0.9,0,1.9-0.2,2.2-0.3l0.2-0.1
			c0.8-0.3,1.7-0.7,1.8-0.9c0.1-0.1,0.1-0.8,0.1-1.1l0-0.5c0.1-2.4,0.3-6.5,0.2-8.8c0-0.2-0.1-0.5-0.1-0.8c-0.2-1.1-0.4-2.4-0.1-3.6
			c0-0.1,0-0.1,0-0.2c0.7-2.1,2.7-2.3,4-2.4c0.4-0.1,0.9-0.2,1.4-0.3c1.5-0.3,3.1-0.6,4.7-0.6c0.8,0,1.5,0.1,2.1,0.2
			c3.5,0.8,3.7,4,3.7,5.8c0,0.2,0,0.5,0,0.7c0,2,0,3.8-0.1,5.7c0,1.9-0.1,3.7-0.1,5.6c0,2.8,0.1,5.5,0.3,8.2c0,0.3,0.1,0.7,0.1,1.1
			c0.2,2,0.6,4.8-1.4,6.6c0,0,0,0.1-0.1,0.1c-2,1.6-6.2,4.4-8.9,5.3c0,0-0.1,0-0.1,0c-1.4,0.3-2.5,0.7-3.6,1.2
			c-1.4,0.5-2.8,1-4.7,1.4C40.4,104.6,39.7,104.7,38.9,104.7z M128.9,104.4c-3.4,0-4.8-2.6-5.6-4.8c-1.2-3.1-2.2-6.4-3.1-9.6
			c-1.2-4.2-2.5-8.4-4.2-12.2c-0.2-0.4-0.3-0.7-0.4-1c-0.3,0-0.4,0.1-0.4,0.1c-0.1,0.2,0,1.4,0,2.1c0.1,0.6,0.1,1.2,0.1,1.9
			c0.1,1.5,0.2,3.1,0.3,4.6c0.1,1.6,0.2,3.1,0.3,4.7c0,0.8,0.1,1.6,0.1,2.5c0.2,2.5,0.3,5.2,0.1,7.2c-0.6,4.2-7,4.5-9,4.5
			c-0.3,0-0.6,0-0.8,0c-0.6,0-1.1-0.4-1.3-1c-1.5-4.1-1.3-8.6-1-13c0.1-1.5,0.2-3,0.2-4.3c-0.1-3.5-0.2-6.2-0.4-8.8
			c-0.2-3.1-0.4-6-0.4-10.2c0-2.6-0.1-5.1-0.2-7.6c-0.1-2.5-0.2-5-0.2-7.5c0-5.9,4-7.6,7.7-8.7c0.6-0.1,1.2-0.2,1.7-0.4
			c1.1-0.2,2.2-0.5,3.2-0.8c0,0,0.7-0.2,0.7-0.2c0.9-0.2,1.8-0.5,2.6-0.5c1.6,0,2.7,0.8,3.3,2.3c0.8,1.9,1.2,4.1,1.6,6.3
			c0.3,1.7,0.6,3.3,1,4.8c0.8,2.5,1.4,5.3,2.1,7.9c0.3,1.2,0.5,2.3,0.8,3.5c0,0.1,0,0.1,0,0.2c0.2,1.8,0.5,2.8,0.7,3.3
			c0.1-0.5,0.2-1.1,0.3-1.5c0-0.2,0.1-0.4,0.1-0.6c0.4-2.8,0-5.6-0.3-8.6c-0.2-1.8-0.4-3.7-0.5-5.6c0-1,0-2-0.1-3
			c-0.2-4.1-0.3-7.9,2.1-9.7c0.1-0.1,0.3-0.2,0.5-0.2c0.6-0.2,1.2-0.4,1.8-0.6c1.7-0.6,3.6-1.2,5.5-1.2c0.9,0,1.7,0.1,2.4,0.4
			c0.4,0.2,0.8,0.5,0.9,1c1.1,3.5,0.9,6.5,0.6,9.8c-0.1,1.2-0.2,2.4-0.2,3.6c-0.2,4.2-0.1,8.6-0.1,12.8c0,2.1,0.1,4.3,0.1,6.4v3.4
			c0,7.2,0,11.9,0.6,19.4c0.6,5.8-4.5,7.2-8.3,8.1l-0.6,0.2C131.4,104.1,130.1,104.4,128.9,104.4z M151.2,103.4
			c-4.4,0-5.2-3.2-5.4-6.6c-0.3-7-0.2-12.6-0.2-18.4c0.1-3.8,0.1-7.7,0-12.2c0-2.8-0.1-5.6-0.2-8.3c-0.2-3.8-0.3-7.8-0.2-11.8
			c0.2-5.9-0.6-8.8-1.4-9.7c-0.1-0.2-0.2-0.2-0.3-0.2c-0.5,0-1.3,0.2-2.4,0.3c-5.4,0.7-18.1,2.4-26.5,2.4c-6.2,0-8.9-0.8-9.4-2.9
			c-0.5-2-1.5-13.8,1.8-16.5c0.8-0.8,3.7-1.5,30.7-2.5c1.8-0.1,3-0.1,3.3-0.1c1.2-0.1,2.5-0.2,3.8-0.3c1.2-0.1,2.4-0.2,3.6-0.3
			c1.9-0.1,3.6-0.2,5.2-0.2c1.2,0,2.2,0,3.3,0.1c1,0,2.1,0.1,3.2,0.1c1.6,0,3.2-0.1,5.1-0.2c0.3,0,0.6-0.1,1-0.1
			c0.8-0.1,1.6-0.2,2.4-0.2c1.9,0,3.2,0.7,4.1,2.1c0.7,1.4,0.9,3.1,1.1,4.6c0.1,0.5,0.1,1,0.2,1.4c0.9,7.8-0.4,12.4-4,13.5
			c-2.1,0.6-3.3,0.7-4.6,0.8c-0.8,0-1.6,0.1-2.7,0.3c-0.2,0.6-0.2,2.2-0.3,3.1c-0.1,2.7-0.1,6-0.1,7.8c0.1,7.9,0.3,14.4,0.6,20.7
			c0.2,6.3,0.5,12.8,0.6,20.8c0,0.5,0.1,1.2,0.2,1.9c0.3,2.2,0.6,5.1-0.9,6.9c-2.4,2.5-6.1,3.3-8.8,3.7
			C152.8,103.3,151.9,103.4,151.2,103.4L151.2,103.4z M254.5,103.3c-4.4,0-4.9-3.4-5.1-6.6c-0.2-7.1-0.1-14.4,0.1-21.4
			c0.1-4.4,0.2-8.9,0.2-13.4c0-2.8-0.1-5-0.2-7.1c-0.1-3-0.2-5.9-0.1-9.8c0.3-4.6-0.2-8.6-1.2-9.7c-0.1-0.1-0.2-0.1-0.2-0.1
			c-0.5,0-1.4,0.2-2.6,0.3c-5.2,0.7-15.9,2.1-23.4,2.1c-5.8,0-8.6-0.9-9.1-2.9c0,0,0-0.1,0-0.1c-0.4-1.9-1-12.2,2.1-15.1
			c0,0,0.1,0,0.1-0.1c2.1-1.6,29.7-3.6,30.9-3.6c1.2-0.1,2.9-0.1,4.6-0.1c1.6,0,3.1,0,4.3-0.1c1.4-0.1,2.6-0.1,3.9-0.1
			c2.4,0,4.1,0.2,5.7,0.3c1.3,0.1,2.4,0.2,3.7,0.2c0.4,0,0.8,0,1.2,0c0.4,0,0.9-0.1,1.3-0.1c0.8-0.1,1.6-0.1,2.4-0.1
			c0.9,0,3.5,0,4.7,2.1c1,1.4,1.1,3.5,1.2,5.2c0,0.3,0,0.5,0,0.8c0.3,2.7,1.2,11.2-4.2,12.8c-2.1,0.8-3.2,0.8-4.7,0.9
			c-0.6,0-1.3,0.1-2.2,0.2c-0.2,0.7-0.2,2.3-0.3,3.2c-0.3,2.7-0.3,5.9-0.3,7.7c0,7.9,0.2,14.7,0.3,21.2c0.2,6.6,0.3,13.4,0.3,21.3
			c0,0.5,0.1,1.1,0.2,1.8c0.3,2.3,0.6,5.1-1.1,7c-2.3,2.5-6.8,2.9-9.7,3.2C256.2,103.3,255.3,103.3,254.5,103.3z M367,102.9
			c-3-0.2-7.1-0.7-8.5-3.2c-0.7-1.2-0.7-2.6-0.8-3.8c0-0.3,0-0.7-0.1-1c-0.1-2.1-0.3-4.2-0.3-6.3c0-3.2-0.1-6.2-0.3-9.4
			c-0.1-2.2-0.2-4.4-0.2-6.7c-0.1-4.1-0.3-8.3-0.3-12.4c0-2.5,0-4.8,0.3-7.4c0.3-3.4,0.4-6.6,0.2-9.5c-0.2-5.7-0.6-11.2-1.2-16.8
			c0-0.5-0.1-1-0.1-1.5c-0.2-1.6-0.4-3.4,0.2-5.3c0.4-1.5,1.8-3.4,5.9-3.4c0.7-0.1,1.4-0.1,2-0.2c1.9-0.2,3.8-0.3,5.8-0.7
			c1.5-0.4,3.1-0.7,4.6-1c1.7-0.3,3.3-0.7,4.9-1.1c0.4-0.1,0.8-0.2,1.2-0.3c1.1-0.3,2.2-0.6,3.2-0.6c1.9,0,2.9,1,3.4,1.9
			c1.3,2.1,1.5,5,1.6,7.3l0,0.2c0,0.5,0,1.1,0,1.8c0,1.1,0.1,2.5,0.1,3.9c0,5.3-0.5,6.6-0.6,7c-1,2.5-3.2,3.2-5.1,3.9
			c-0.3,0.1-0.6,0.2-1,0.3c0,0-0.1,0-0.1,0c-2.3,0.7-6.2,1.2-9,1.5c0,0-0.1,0-0.1,0c-2.4,0-2.4,0.1-2.5,1.9c0,1.2,0,1.4,0.1,2.5
			c0,0.3,0.1,0.7,0.1,0.9c0,0.5,0,0.7,0.2,0.9c0,0,0.3,0.3,1.4,0.3c0.8,0,1.7-0.1,2.5-0.2c0.4,0,0.8-0.1,1-0.1
			c0.6-0.1,1.2-0.2,2-0.4c2-0.4,4.3-0.9,6-0.9c0.2,0,0.3,0,0.5,0c0,0,0.1,0,0.1,0c3.3,0.5,3.5,4.6,3.5,6.8c0,0.3,0,0.6,0,0.9
			c0.1,1.6,0.1,3.1,0.1,4.8c0,0.2,0,0.4,0.1,0.6c0.1,1.2,0.3,2.5,0,3.7c0,0,0,0.1,0,0.1c-1.4,4.7-7.8,5.6-12,6.2
			c-0.7,0.1-1.3,0.2-1.8,0.3c-1.9,0.3-1.9,0.3-2,3c-0.1,3.1-0.1,3.9,0.2,6.7c0.2,1.5,0.6,1.8,2.3,1.8c0.2,0,0.4,0,0.5,0
			c2.4,0,5.1-0.5,7.2-1c0.4-0.1,0.9-0.3,1.3-0.6c0.9-0.4,1.8-0.8,2.8-0.8c1.4,0,2.5,0.8,3.3,2.2c0.9,1.6,1.1,3.7,1.2,5.6
			c0,0.6,0.1,1.2,0.1,1.8l0,0.4c0.3,2.2,0.6,4.9-0.9,7.2c-1.9,3.1-6,4.5-9.2,5.8c-0.4,0.1-0.7,0.2-1,0.4c0,0-0.1,0-0.1,0
			c-4.3,1.2-8.5,1.9-12.7,1.9C367.1,102.9,367.1,102.9,367,102.9z M78,102.6c-0.8,0-1.5-0.1-2.1-0.2c-3.8-0.8-5.3-2.9-6.8-4.9
			c-0.5-0.7-1-1.4-1.7-2.2c-2.4-2.8-4-6.6-4.6-11.5c-0.3-2.5-0.5-5.4-0.5-8.7c0-2.9,0.1-5.8,0.3-8.6c0,0,0-0.1,0-0.1
			c0.1-1.2,0.1-2.3,0.1-3.6c0-2.3-0.1-4.7-0.2-7c-0.2-3.2-0.3-6.5-0.2-9.8c0.1-1.5,0-3.1-0.1-4.8c-0.1-1.3-0.2-2.6-0.2-3.9
			c0-2,0.1-4.4,0.8-6.7c1-3.3,2.9-6.3,6.3-9.9C73,16.9,80.4,13,87.3,13c2.8,0,5.2,0.6,7.3,1.9c6,3.6,6.8,9.5,6.8,14.8
			c0,1.4-0.1,2.8-0.1,4.2c-0.1,1.4-0.1,2.7-0.1,3.9c0.1,2.7,0,5.4-0.1,8.1c-0.1,2-0.1,4-0.1,6c0,1.6,0,3.2,0.1,4.8
			c0.1,2.2,0,4.4-0.2,6.5c-0.2,2.1-0.3,4.1-0.2,6.1l0,0.2c0.3,3.6,0.5,7.1,0.2,10.7l0,0.2c-0.3,3.3-0.7,8.9-3.3,12.2
			c-1.3,1.6-2.8,2.9-4.3,4.3L93.3,97c-1.2,1.1-2.4,1.6-3.6,2.1c-0.8,0.3-1.5,0.6-2.3,1.1C84.9,101.8,80.8,102.6,78,102.6z
			 M79.5,79.3c0.1,0,0.2,0,0.3,0c1,0,2.7-0.7,3.4-1.5c0.8-0.8,0.8-3.5,0.7-5.2c0-0.7,0-1.3,0-1.9c0.2-2.4,0.1-4.6-0.1-7
			c-0.1-2.2-0.3-4.4-0.2-6.7c0-1.1,0-2.3,0.1-3.5c0-1.2,0.1-2.4,0.1-3.7c0-3.1-0.2-5.7-0.5-8c0-0.1-0.1-0.3-0.1-0.4
			c-0.1,0-0.3,0-0.4,0c-0.7,0-2.6,0.5-3,0.8c-0.5,0.4-0.5,1.9-0.6,3c0,0.4,0,0.8-0.1,1.1c-0.4,2.7-0.4,5.1-0.4,7.6
			c0,1.6,0.1,3.2,0.2,4.8c0.1,3.2,0.2,6.6,0.2,9.9c0,1.1-0.1,2.2-0.1,3.3C79.1,73,79,74.2,79,75.2C79,76.9,79.2,78.2,79.5,79.3
			C79.5,79.2,79.5,79.3,79.5,79.3C79.5,79.3,79.5,79.3,79.5,79.3z M323,102.2c-5,0-5.3-4.7-5.5-8.2l0-0.9c-0.2-1.8-0.4-3.7-0.6-5.5
			c-0.3-2.4-0.6-5-0.8-7.5c0-1.1,0-2.1-0.1-3.1c0-1-0.1-1.9-0.1-2.8c0-0.4,0-1-0.1-1.7c0-1-0.1-3-0.3-3.5c-0.1-0.2-0.2-0.3-0.6-0.3
			c-0.3,0-0.8,0.1-1.2,0.3c-0.7,0.3-0.8,0.6-0.9,2.4c0,0.3,0,0.6,0,0.9c-0.1,1.7-0.1,3.4-0.1,5.1c0,1.8,0,3.6,0.1,5.3
			c0,1.8,0.1,3.6,0.1,5.4c0,2.4,0,5-0.3,7.6c-0.4,3.9-5.1,6.3-9.3,6.3c-1.1,0-2.1-0.2-3-0.5c-3.1-1.1-3.1-5.2-3.1-6.6
			c0-1.2,0.1-2.3,0.2-3.3c0.1-0.8,0.2-1.5,0.2-2c0.1-2.4,0.1-4.6,0.1-6.8c0-2.2,0-4.5-0.1-6.7c0-2.2-0.1-4.5-0.1-6.7
			c0-2.2,0-4.6,0.1-6.9c0.1-2.7,0-5.7-0.1-8.6c-0.1-2.2-0.1-4.5-0.1-6.7c0-2,0.1-3.8,0.3-5.7c0.1-0.8,0-1.7,0-2.7c0-0.5,0-1.1,0-1.6
			c0-3.3,0.1-6.8,1.8-9.2c1.4-2.3,6.1-3.5,12.1-4.8c1.4-0.3,2.7-0.6,3.3-0.8c1.1-0.4,2.1-0.5,2.9-0.5c4.4,0,4.8,4.8,5,6.9
			c0.1,0.8,0.1,1.5,0.2,2.3c0.3,3.2,0.7,6.5,0.7,9.9c0,0.5,0,1,0,1.7c0,0.8-0.1,1.8-0.1,2.8c0,4.1,0.6,5.5,1.1,6c0,0,0,0,0.1,0.1
			c0.1,0.1,0.3,0.2,0.6,0.2c0.4,0,0.9-0.2,1-0.3c0,0,0.1,0,0.1-0.1c0.6-0.5,0.7-1.8,0.8-3.2c0-0.3,0-0.6,0-0.9
			c0.4-9.6,1-18.8,1.5-26.6c0.3-5.9,3.1-6.9,7.5-7.7c0.4-0.1,0.8-0.1,1.3-0.2c1.5-0.3,3.4-0.7,5.3-0.7c4,0,5.6,1.8,6.4,3.3
			c0.8,1.5,0.9,3.5,0.9,5.3c0,1,0,2-0.1,3c-0.1,1.3-0.1,2.5,0,3.5c0.5,4.9,0.9,10,1.2,15c0.2,5.4,0.8,10.9,1.3,16.2
			c0.5,5.3,1.1,10.7,1.3,16.1c0.1,1.7,0.3,4.7,0.6,7.8c0.4,4,0.7,8.2,0.7,10.5c0,4.9-5.8,6.3-9.2,7.1l-0.3,0.1
			c-0.7,0.2-1.2,0.2-1.7,0.2c-2.6,0-2.8-2.2-3-4.2l0-0.2l-0.4-5.7c-0.2-1.8-0.4-5.2-0.7-8.4c-0.3-3.4-0.5-6.9-0.7-8.8
			c0-0.1,0-0.1,0-0.2c0-0.5,0-0.9-0.1-1.2c-0.2,0-0.4,0-0.6,0c-0.6,0-0.6,0-0.9,0.5c-0.4,0.8-0.3,2.5-0.2,4.4l0,0.2
			c0.1,2.2,0.2,4.3,0.3,6.4c0.1,2,0.2,4.1,0.2,6.1c0,0.6,0.1,1.2,0.2,1.8c0.1,1,0.3,2.1,0.3,3.2c0,2.9-1.2,4.8-3.5,5.7
			c-2.6,1-6,1.5-9,2c-0.7,0.1-1.3,0.2-1.9,0.3C323.6,102.2,323.3,102.2,323,102.2z"/>
		<path d="M343,13.7c2.1,0,4.1,0.5,5,2.4c0.6,1.2,0.8,2.8,0.8,4.6c0,2.3-0.3,4.8-0.1,6.6c0.5,5,0.9,10.1,1.2,15
			c0.4,10.8,2.2,21.5,2.6,32.2c0.1,4,1.3,14.2,1.3,18.2c0,3.9-5,4.9-8.4,5.7c-0.6,0.1-1,0.2-1.4,0.2c-1.2,0-1.3-0.9-1.5-3.1
			c-0.1-1.9-0.3-3.7-0.4-5.7c-0.4-3.7-1-13.7-1.4-17.3c0-0.9-0.1-2.4-0.8-2.6c-0.6-0.1-1-0.1-1.4-0.1c-1.3,0-1.7,0.4-2.2,1.2
			c-0.6,1.2-0.5,3.1-0.4,5.4c0.1,4.3,0.4,8.4,0.5,12.5c0.1,1.7,0.5,3.3,0.5,5c0,1.8-0.5,3.5-2.6,4.3c-3.1,1.2-7.5,1.7-10.6,2.2
			c-0.3,0-0.5,0-0.8,0c-3.9,0-3.8-3.9-4-7.7c-0.4-4.4-1.2-8.6-1.4-13c0-2.1-0.1-4-0.1-5.9c-0.1-1.3,0-4.5-0.5-5.7
			c-0.5-0.9-1.2-1.2-2-1.2c-0.6,0-1.2,0.2-1.9,0.4c-1.9,0.9-1.7,2.4-1.8,4.6c-0.1,1.7-0.1,3.5-0.1,5.2c0,3.6,0.1,7.1,0.1,10.7
			c0,2.4,0,4.9-0.3,7.5c-0.3,3.1-4.4,4.9-7.8,4.9c-0.9,0-1.7-0.1-2.4-0.4c-1.8-0.6-2.2-2.8-2.2-5.2c0-1.9,0.4-4,0.4-5.3
			c0.1-2.3,0.1-4.6,0.1-6.8c0-4.5-0.1-8.9-0.1-13.4c0-2.2,0-4.5,0.1-6.8c0.1-4.9-0.3-10.3-0.3-15.4c0-1.9,0.1-3.7,0.3-5.5
			c0.1-1.3,0-2.8,0-4.4c0-3.1,0.1-6.3,1.5-8.4c1.7-2.7,12-4.1,14.7-5c1-0.3,1.8-0.5,2.4-0.5c2.4,0,3.2,1.9,3.5,5.5
			c0.4,4,0.9,8,0.9,12.1c0,1-0.1,2.7-0.1,4.5c0,2.8,0.3,5.8,1.5,7.1c0.4,0.5,1.1,0.7,1.7,0.7c0.8,0,1.5-0.3,2-0.7
			c1.4-1,1.3-3.2,1.4-5.2c0.4-8.8,0.9-18.1,1.5-26.6c0.3-4.9,2.1-5.6,6.3-6.3C338.2,14.4,340.7,13.7,343,13.7 M383.6,13.9
			c0.9,0,1.6,0.3,2.1,1.2c1.2,1.8,1.3,4.6,1.4,6.8c0,1,0.1,3.2,0.1,5.6c0,2.7-0.1,5.4-0.5,6.5c-0.9,2.2-3.1,2.6-5.2,3.3
			c-2.3,0.7-6.2,1.2-8.8,1.4c-2.7,0-3.9,0.4-4,3.3c0,1.3,0,1.5,0.1,2.7c0.1,1,0,1.5,0.4,2.3c0.4,0.9,1.5,1.1,2.8,1.1
			c1.3,0,2.8-0.3,3.7-0.3c2.1-0.4,5.6-1.3,7.8-1.3c0.1,0,0.3,0,0.4,0c2.5,0.4,2.2,4.4,2.3,6.3c0.1,1.5,0.1,3.1,0.1,4.8
			c0.1,1.3,0.4,2.7,0.1,4c-1.3,4.4-9,4.8-12.6,5.4c-3,0.5-3.1,1.6-3.2,4.4c-0.1,3.1-0.1,4,0.3,7c0.4,2.4,1.5,3.1,3.8,3.1
			c0.2,0,0.4,0,0.6,0c2.5,0,5.2-0.5,7.5-1c1.4-0.4,2.6-1.3,3.7-1.3c0.7,0,1.4,0.4,2,1.5c1,1.8,0.9,4.5,1.2,6.8
			c0.3,2.2,0.6,4.6-0.6,6.6c-1.8,3-6.5,4.4-9.5,5.6c-4,1.2-8.1,1.8-12.3,1.8c-2.2-0.1-6.2-0.5-7.4-2.4c-0.6-1.2-0.5-2.8-0.6-4.1
			c-0.1-2.1-0.3-4.1-0.3-6.2c0-5.4-0.4-10.6-0.5-16.1c-0.1-4.1-0.3-8.3-0.3-12.4c0-2.5,0-4.8,0.3-7.2c0.3-3.1,0.4-6.5,0.3-9.7
			c-0.3-5.8-0.6-11.4-1.2-16.9c-0.1-2.1-0.6-4.1,0-6.2c0.5-1.9,2.7-2.3,4.5-2.3c2.6-0.3,5.3-0.4,8-0.9c3.2-0.8,6.5-1.3,9.5-2.1
			C380.8,14.6,382.3,13.9,383.6,13.9 M87.3,14.5c2.4,0,4.6,0.5,6.6,1.7c5.2,3.1,6.1,8.1,6.1,13.5c0,2.7-0.3,5.5-0.3,8.1
			c0.1,4.6-0.3,9.4-0.3,14.1c0,1.7,0,3.2,0.1,4.9c0.3,4.1-0.7,8.4-0.4,12.5c0.3,3.6,0.5,7.1,0.3,10.7c-0.3,3.2-0.7,8.6-3,11.6
			c-1.3,1.6-2.7,2.8-4.3,4.3c-1.7,1.6-3.6,1.7-5.7,3c-2,1.4-5.7,2.2-8.5,2.2c-0.7,0-1.3-0.1-1.8-0.2c-4.4-0.9-5-3.7-7.6-6.6
			c-2.6-3-3.7-7-4.3-10.7c-0.4-2.7-0.5-5.7-0.5-8.5c0-2.8,0.1-5.7,0.3-8.5c0.1-1.3,0.1-2.4,0.1-3.7c0-5.7-0.6-11.2-0.4-16.8
			c0.1-2.8-0.3-5.8-0.3-8.8c0-2.2,0.1-4.3,0.8-6.2c1-3.5,3.2-6.4,5.9-9.3C74,18,81.1,14.5,87.3,14.5 M79.8,80.8
			c1.5,0,3.5-0.9,4.5-1.9c1.7-1.7,1-6.1,1.2-8c0.4-4.6-0.5-9-0.3-13.7c0-2.3,0.1-4.8,0.1-7.2c0-2.8-0.1-5.5-0.5-8.3
			c-0.2-1.2-0.4-1.7-1.5-1.7c-0.1,0-0.3,0-0.4,0c-0.9,0-3.1,0.5-3.9,1c-1.4,1-1.2,3.6-1.3,5.2c-0.4,2.7-0.4,5.2-0.4,7.7
			c0.1,4.9,0.4,9.8,0.4,14.7c0,2.1-0.3,4.4-0.3,6.6c0,1.6,0.1,3.1,0.5,4.4C78.2,80.5,78.9,80.8,79.8,80.8 M48,15.5
			c3.7,0,6.8,1.2,7.9,4.9c1,3.4,0.7,7.2,0.8,10.7c0.1,3.1,0.3,11.7,0.8,14.8c0.4,2.1,1.2,5.5-0.7,7.2c-1.4,1.3-4.9,1.7-6.8,2.2
			c-0.6,0.2-1.2,0.2-1.7,0.2c-1.8,0-3-0.8-3-2.8c0-2.2,0-6.5-0.5-8.6c-0.2-0.7-0.8-0.9-1.5-0.9c-1.2,0-3,0.7-4.3,1.2
			c-2.7,0.9-1.8,3.3-1.9,5.4c-0.4,3.2-0.7,6.5-0.4,9.7c0.5,6.3,0.5,14.3,0.9,20.8c0.1,1-0.3,2.3,0.8,3c0.3,0.1,0.7,0.2,1.2,0.2
			c1,0,2.2-0.2,2.8-0.4c2.8-1.2,3-1.2,3.1-3.3c0.1-2.4,0.4-7,0.3-9.4c-0.1-1.2-0.5-2.7-0.3-4c0.4-1.2,1.4-1.3,2.7-1.4
			c1.9-0.3,4-0.8,6-0.8c0.6,0,1.2,0.1,1.8,0.2c2.7,0.6,2.5,3.1,2.6,5.2c0,3.7-0.1,7.5-0.1,11.2c0,2.8,0.1,5.6,0.3,8.3
			c0.1,1.9,0.9,4.9-0.8,6.4c-1.9,1.6-5.9,4.3-8.4,5c-3.2,0.8-4.9,1.9-8.3,2.6c-0.8,0.2-1.5,0.3-2.1,0.3c-1.5,0-2.9-0.6-6.2-1.2
			c-0.4-0.3-4-1-4.4-1.3c-2.2-1-3-3.6-3.4-5.6c-0.6-3.6-0.5-7.2-0.5-10.8c0-11.3-0.8-22.7-1.2-34.1c-0.1-1.8-0.1-4.6-0.1-7.6
			c0-4.3,0.1-8.8,0.4-11.4c0.3-2.8,0.9-5.8,3.1-8.1c3.6-3.7,11.1-6.2,16.4-7.1C44.7,15.8,46.4,15.5,48,15.5 M258.7,16.9
			c4.2,0,6.4,0.6,9.3,0.6c0.4,0,0.9,0,1.3,0c1.1-0.1,2.4-0.2,3.6-0.2c1.5,0,2.8,0.3,3.5,1.4c0.9,1.3,0.9,3.7,1,5.3
			c0.4,3.5,0.8,10.1-3.1,11.2c-3,1-3.5,0.7-7,1c-1,0.1-1.2,1.5-1.3,4.6c-0.3,2.7-0.3,5.9-0.3,7.7c0,15.9,0.6,26.7,0.6,42.6
			c0,2.1,1.2,5.9-0.5,7.7c-1.9,2.1-6.1,2.4-8.8,2.7c-1.1,0.2-2,0.3-2.7,0.3c-2.5,0-3.4-1.2-3.6-5.2c-0.4-11.5,0.3-23.1,0.3-34.7
			c0-6.7-0.5-10.2-0.3-16.9c0.2-3.8,0.1-11.4-2.9-11.4c-0.1,0-0.1,0-0.2,0c-2.5,0.3-16.6,2.5-25.7,2.5c-4.2,0-7.3-0.5-7.7-1.8
			c-0.5-2.6-0.6-11.6,1.7-13.7c1.6-1.2,28.2-3.2,30.1-3.4c2.4-0.3,6.4,0,8.9-0.3C256.4,17,257.6,16.9,258.7,16.9 M168.7,17.2
			c1.1,0,2.1,0.3,2.8,1.4c0.8,1.4,0.8,3.9,1,5.4c0.4,3.4,0.9,10.6-3,11.9c-3.1,0.9-3.9,0.5-7.4,1c-1,0.1-1.2,1.5-1.3,4.5
			c-0.1,2.7-0.1,6.1-0.1,7.9c0.1,15.9,1,25.5,1.2,41.4c0,2.1,1.2,5.9-0.4,7.7c-1.9,2.1-5.3,2.8-7.9,3.2c-1,0.1-1.8,0.2-2.6,0.2
			c-2.7,0-3.7-1.2-3.9-5.1c-0.5-11.5,0-19-0.1-30.6c0-6.7-0.6-13.3-0.4-20c0.1-3.8,0-11.4-3.1-11.4c-0.1,0-0.1,0-0.2,0
			c-2.4,0.3-18.6,2.7-28.6,2.7c-4.4,0-7.7-0.5-8-1.8c-0.7-2.5-1-13,1.3-15c1.4-1.3,31.3-2.2,33.2-2.3c2.4-0.3,4.9-0.4,7.5-0.6
			c2-0.1,3.6-0.2,5.1-0.2c2.3,0,4.2,0.1,6.5,0.1c1.4,0,3.1,0,5.2-0.2C166.6,17.5,167.7,17.2,168.7,17.2 M199.7,17.6
			c1.8,0,3.5,0.3,4.3,1.2c1.8,1.9,1.2,5.6,1.2,8c0.3,4.8,0,11.2,0.5,16c1.3,11.7,2.1,17.5,3.2,27.9c0.1,1.2,0.3,2.4,0.3,3.6
			c0,1.3,0,2.4,0,3.9c0,3.9-0.1,8.4-0.1,12.4c0,2.4,0.1,4.6,0.3,6.7c0.3,2.7,0.6,5-2.1,6.1c-1.8,0.7-8.3,3.6-11.1,3.6
			c-0.4,0-0.6,0-0.9-0.1c-2.2-0.9-1.9-4.5-2.1-6.7c-0.1-2.8-0.3-5.7-0.5-8.5c-0.1-1,0-5.6-0.6-6.3c-0.3-0.3-0.8-0.4-1.3-0.4
			c-1.1,0-2.5,0.5-3.2,0.7c-1.9,0.7-1.2,0.3-2.8,1.6c-1.3,1.2-1.2,5.4-1.2,7.2c0,2.8-0.1,4-2.7,5c-1.4,0.6-4.2,1.1-6.3,1.1
			c-0.4,0-0.8,0-1.2-0.1c-2.8-0.4-2.7-4-2.6-6.3c0.4-9-0.1-14.2,0.8-21.9c1-9,2.3-20.3,4-33.2c0.4-3.6,0.6-8.8,1.4-12.3
			c0.6-2.8,1.3-4,3.9-5.2c2.2-0.9,9.4-2.5,11.9-3C194,18.2,197,17.6,199.7,17.6 M187,69.8c0.2,0,0.4,0,0.6-0.1
			c1.2-0.1,3.2-1,3.6-2.2c0.3-1.4,0-3-0.1-4.4c-0.1-1.5,0.1-3,0.1-4.5c0-1.3,0.1-2.6,0.1-3.9c0-2.1-0.1-4.1-0.6-6.2
			c-0.3-0.8-1.2-1.3-2-1.3c-0.8,0-1.6,0.4-1.8,1.3c-0.8,2.8-0.9,6.5-1,9.4c0,2.8-0.1,5.7-0.3,8.5C185.5,68,185.3,69.8,187,69.8
			 M137.7,40.1c0.7,0,1.3,0.1,1.9,0.3c1.4,4.5,0.4,8.3,0.3,12.9c-0.3,6.3,0,12.9,0,19.2c0,9.2-0.1,14.2,0.6,23
			c0.5,4.8-3.9,5.7-7.7,6.7c-1.5,0.4-2.7,0.7-3.8,0.7c-1.9,0-3.1-0.9-4.2-3.8c-2.7-7.1-4.3-15.1-7.3-21.9c-0.3-0.7-0.4-1.3-0.6-1.9
			c-0.2,0-0.4,0-0.6,0c-3.5,0-2.4,2.4-2.3,5.7c0.1,3.1,0.4,6.2,0.5,9.3c0.1,3,0.5,6.8,0.3,9.4c-0.3,2.5-4.8,3.1-7.5,3.1
			c-0.3,0-0.5,0-0.8,0c-1.9-5.2-0.8-11.5-0.8-16.8c-0.1-7.7-0.8-11.2-0.8-19c0-5.2-0.4-10.1-0.4-15.1c0-4.6,2.6-6.1,6.6-7.2
			c1.7-0.4,3.3-0.6,4.9-1.2c1-0.3,2-0.6,2.9-0.6s1.5,0.3,1.9,1.3c1.4,3.2,1.4,7.5,2.6,11c1.2,3.6,1.9,7.6,2.8,11.2
			c0.1,1.2,0.5,4.3,1.6,4.9c0.3,0.2,0.5,0.2,0.8,0.2c1.3,0,1.5-2.5,1.7-3.7c0.7-4.9-0.6-9.7-0.8-14.6c0-4.5-0.9-9.8,1.4-11.5
			C132.9,41.2,135.4,40.1,137.7,40.1 M235,40.4c3.3,0,6.1,0.9,7.1,3.7c0.9,2.5,0.5,5.5,0.6,8.1c0.1,2.3,0.3,5.8,0.6,8.1
			c0.4,1.5,1.2,4.3-0.5,5.5c-1.3,1-4.4,1.3-6.1,1.7c-0.5,0.1-1,0.1-1.5,0.1c-1.6,0-2.8-0.6-2.8-2.1c0-1.7,0-4.9-0.5-6.6
			c-0.1-0.5-0.6-0.7-1.3-0.7c-1.1,0-2.7,0.5-3.9,0.8c-2.3,0.6-1.6,2.6-1.7,4.1c-0.4,2.5-0.6,4.9-0.4,7.4c0.5,4.8,0.5,10.8,0.9,15.7
			c0,0.8-0.3,1.8,0.6,2.3c0.2,0.1,0.5,0.1,0.9,0.1c0.9,0,2.1-0.2,2.6-0.4c2.6-0.8,2.7-0.9,2.8-2.6c0.1-1.8,0.3-5.3,0.1-7.1
			c0-0.9-0.4-2.1-0.1-3c0.4-1,1.2-1,2.4-1.2c1.6-0.2,3.5-0.6,5.3-0.6c0.5,0,1,0,1.5,0.1c2.4,0.5,2.2,2.4,2.2,4
			c0.1,4.9-0.1,9.8,0.1,14.7c0.1,1.6,0.9,3.7-0.6,4.9c-1.7,1.2-5.3,3.2-7.5,3.7c-2.8,0.8-4.4,1.6-7.2,2.1c-0.7,0.2-1.3,0.2-1.9,0.2
			c-1.4,0-2.6-0.4-5.6-0.9c-0.4-0.3-3.5-0.9-3.9-1c-1.9-0.8-2.7-2.7-3-4.3c-0.5-2.7-0.4-5.4-0.4-8.1c0-8.6-0.8-17.3-1.2-25.9
			c-0.1-3.2-0.1-8,0.3-11.2c0.3-2.2,0.8-4.4,2.8-6.2c3.2-2.8,9.8-4.6,14.6-5.4C232.2,40.6,233.7,40.4,235,40.4 M343,10.7
			c-2,0-4,0.4-5.6,0.7c-0.5,0.1-0.9,0.2-1.2,0.2c-4.8,0.9-8.4,2.1-8.8,9.1c-0.6,7.8-1.1,17-1.5,26.6c0,0.3,0,0.6,0,0.9
			c0,0.6-0.1,1.5-0.2,1.9c-0.2-0.6-0.5-1.8-0.5-4.6c0-1,0-1.9,0.1-2.7c0-0.7,0-1.3,0-1.8c0-3.5-0.4-6.8-0.7-10.1
			c-0.1-0.8-0.2-1.6-0.2-2.3c-0.2-2-0.7-8.2-6.5-8.2c-1,0-2.1,0.2-3.4,0.6c-0.6,0.2-1.8,0.5-3.2,0.8c-6.5,1.4-11.3,2.7-13.1,5.5
			c-1.9,2.8-2,6.5-2,10c0,0.5,0,1.1,0,1.7c0,0.9,0,1.8,0,2.4c0,0,0,0.1,0,0.1c-0.1,1.8-0.3,3.7-0.3,5.8c0,2.2,0.1,4.5,0.1,6.7
			c0.1,2.9,0.2,5.8,0.1,8.5c-0.1,2.4-0.1,4.7-0.1,7c0,2.3,0,4.6,0.1,6.8c0,2.2,0.1,4.4,0.1,6.7c0,2.2,0,4.4-0.1,6.7
			c0,0.1,0,0.1,0,0.2c0,0.4-0.1,1.1-0.1,1.8c-0.1,1.1-0.2,2.3-0.2,3.5c0,4.3,1.4,7,4.1,8c1,0.4,2.2,0.6,3.5,0.6
			c4.9,0,10.3-2.8,10.8-7.6c0.3-2.7,0.3-5.3,0.3-7.8c0-1.8,0-3.7-0.1-5.4c0-1.7-0.1-3.5-0.1-5.3c0-1.7,0-3.4,0.1-4.9c0,0,0,0,0-0.1
			c0-0.3,0-0.7,0-1c0-0.2,0-0.4,0-0.6c0,0.6,0,1.2,0.1,1.6c0,0.6,0,1.2,0.1,1.7c0,1,0,1.9,0.1,2.8c0,1,0.1,2,0.1,3
			c0,0.1,0,0.1,0,0.2c0.1,2.6,0.5,5.2,0.8,7.6c0.2,1.8,0.5,3.7,0.6,5.5c0,0.3,0,0.5,0,0.8c0.2,3.4,0.5,9.6,7,9.6
			c0.4,0,0.7,0,1.1-0.1c0,0,0.1,0,0.2,0c0.6-0.1,1.2-0.2,1.9-0.3c2.9-0.4,6.5-1,9.3-2.1c1.3-0.5,3.4-1.7,4.2-4.5
			c0.2,1.9,0.9,4.9,4.4,4.9c0.6,0,1.2-0.1,2-0.3l0.3-0.1c3-0.7,8.2-1.9,9.9-5.8c0,0.2,0,0.3,0,0.5c0.1,1.3,0.1,2.9,1,4.4
			c0,0,0,0.1,0,0.1c1.8,3.1,6.2,3.7,9.8,3.9c0.1,0,0.1,0,0.2,0c4.3,0,8.7-0.7,13.1-1.9c0.1,0,0.1-0.1,0.2-0.1c0.3-0.1,0.7-0.2,1-0.4
			c3.3-1.2,7.8-2.9,10-6.4c1.8-2.7,1.4-5.9,1.1-8.2l0-0.4c-0.1-0.5-0.1-1.1-0.1-1.7c-0.1-2-0.3-4.3-1.4-6.3c-1.4-2.5-3.2-3-4.6-3
			c-1.3,0-2.5,0.5-3.4,1c-0.4,0.2-0.8,0.3-1.1,0.4c-2,0.4-4.5,0.9-6.7,0.9c0,0-0.1,0-0.1,0c-0.2,0-0.3,0-0.5,0c-0.4,0-0.6,0-0.7-0.1
			c0-0.1-0.1-0.3-0.1-0.5c-0.4-2.7-0.4-3.4-0.2-6.4c0-0.4,0-1,0.1-1.4c0.1,0,0.4-0.1,0.6-0.1c0.5-0.1,1.1-0.2,1.7-0.3
			c4.6-0.7,11.6-1.7,13.3-7.3c0-0.1,0-0.2,0.1-0.3c0.3-1.5,0.1-3,0-4.2c0-0.2,0-0.4-0.1-0.5c0-1.7,0-3.2-0.1-4.8c0-0.2,0-0.5,0-0.8
			c-0.1-2.3-0.3-7.5-4.8-8.3c-0.1,0-0.2,0-0.3,0c-0.2,0-0.4,0-0.6,0c-1.8,0-4.2,0.5-6.3,1c-0.7,0.2-1.3,0.3-1.9,0.4
			c-0.3,0-0.6,0.1-1,0.1c-0.7,0.1-1.6,0.2-2.3,0.2c0,0-0.1,0-0.1,0c0-0.2,0-0.5-0.1-0.8c-0.1-0.9-0.1-1.1-0.1-2.3c0-0.2,0-0.3,0-0.4
			c0.2,0,0.5,0,1,0c0.1,0,0.2,0,0.3,0c1.4-0.1,6.2-0.7,9.3-1.5c0.1,0,0.2,0,0.2-0.1c0.3-0.1,0.6-0.2,0.9-0.3c2-0.7,4.7-1.6,6-4.7
			c0,0,0-0.1,0-0.1c0.2-0.5,0.7-1.9,0.7-7.5c0-1.5,0-2.8-0.1-3.9c0-0.7,0-1.2,0-1.6c0-0.1,0-0.1,0-0.2l0-0.2c-0.1-2.5-0.3-5.6-1.8-8
			c-1-1.7-2.6-2.7-4.7-2.7l0,0c-1.3,0-2.6,0.4-3.7,0.7c-0.4,0.1-0.8,0.2-1.1,0.3c-1.6,0.4-3.2,0.7-4.9,1.1c-1.5,0.3-3.1,0.6-4.6,1
			c-1.8,0.3-3.7,0.5-5.5,0.7c-0.7,0.1-1.3,0.1-2,0.2c-5.2,0.1-6.8,2.8-7.2,4.5c-0.6,2.1-0.4,4.1-0.2,5.8c0,0.5,0.1,1,0.1,1.4
			c0,0,0,0.1,0,0.1c0.5,5.6,0.9,11.1,1.1,16.8c0.1,2.8,0,5.9-0.2,9.3c-0.3,2.6-0.3,5-0.3,7.5c0,4.2,0.1,8.4,0.3,12.5
			c0,0.3,0,0.5,0,0.8c-0.2-5.1-0.8-10.2-1.2-15.1c-0.5-5.3-1.1-10.7-1.3-16c0,0,0,0,0,0c-0.3-5-0.7-10.1-1.2-15.1
			c-0.1-0.9,0-2.1,0-3.3c0-1,0.1-2,0.1-3c0-2-0.1-4.2-1.1-6C349.8,12.9,347.7,10.7,343,10.7L343,10.7z M87.3,11.5
			c-7.3,0-15.2,4.2-19.2,8.3c-2.2,2.3-5.3,5.9-6.6,10.5c-0.8,2.4-0.9,5-0.9,7.1c0,1.4,0.1,2.7,0.2,4c0.1,1.6,0.2,3.2,0.1,4.6
			c0,0.7,0,1.4-0.1,2.1c-0.1-0.9-0.3-1.7-0.4-2.4l0-0.3c-0.4-2.2-0.5-8-0.6-11.5c0-1.2-0.1-2.2-0.1-2.9c0-0.9,0-1.8,0-2.7
			c0-2.7,0-5.8-0.9-8.7c-0.9-3.2-3.5-7.1-10.8-7.1c-1.8,0-3.6,0.3-5.4,0.6c-5.8,1-13.9,3.7-18.1,8c-3,3.1-3.7,7-3.9,9.9
			c-0.2,2.5-0.4,6.8-0.4,11.6c0,3,0,5.9,0.1,7.8c0.1,3.8,0.3,7.6,0.5,11.3c0.4,7.4,0.7,15.1,0.7,22.6c0,0.5,0,1,0,1.5
			c0,3.2,0,6.5,0.6,9.8c0,0,0,0,0,0.1c0.3,1.4,1.1,5.8,4.9,7.6c0.5,0.3,1.2,0.5,2.9,0.9c0.5,0.1,1.3,0.3,1.6,0.4
			c0.2,0.1,0.5,0.2,0.7,0.2c1.2,0.2,2.2,0.5,3,0.7c1.4,0.3,2.5,0.6,3.7,0.6c0.9,0,1.8-0.1,2.8-0.4c2-0.4,3.5-0.9,4.9-1.5
			c1.1-0.4,2.1-0.8,3.4-1.1c0.1,0,0.1,0,0.2-0.1c3.3-1,7.9-4.4,9.4-5.6c0,0,0.1-0.1,0.2-0.1c2.5-2.3,2.1-5.6,1.8-7.8
			c0-0.3-0.1-0.7-0.1-1c-0.1-2-0.2-4.1-0.2-6.2c0.1,0.6,0.1,1.1,0.2,1.6c0.7,5.2,2.4,9.3,5,12.2c0,0,0,0,0,0.1
			c0.6,0.7,1.1,1.3,1.6,2c1.5,2.2,3.3,4.6,7.6,5.5c0,0,0,0,0.1,0c0.7,0.1,1.5,0.2,2.4,0.2c3,0,7.4-0.8,10.1-2.7
			c0.6-0.4,1.3-0.7,2-0.9c1.3-0.5,2.7-1.1,4.1-2.3l0.1-0.1c1.6-1.4,3-2.8,4.4-4.4c0,0,0-0.1,0.1-0.1c2.8-3.6,3.3-9.3,3.6-13l0-0.1
			c0.1,1.7,0.2,3.5,0.2,5.7c0,1.3-0.1,2.7-0.2,4.2c-0.2,4.3-0.5,9.2,1.1,13.6c0.4,1.1,1.5,1.9,2.7,1.9c0.3,0,0.6,0,0.9,0
			c6.1,0,10-2.1,10.5-5.7c0,0,0-0.1,0-0.1c0.2-2.1,0.1-4.8-0.1-7.4c-0.1-0.8-0.1-1.7-0.1-2.4c-0.1-1.6-0.2-3.2-0.3-4.7
			c0-0.1,0-0.2,0-0.4c0.6,1.8,1.1,3.6,1.7,5.5c0.9,3.2,1.9,6.6,3.1,9.7c0.5,1.4,2.1,5.8,7,5.8c1.4,0,2.8-0.3,4.6-0.8l0.5-0.1
			c3.8-1,10.1-2.7,9.4-9.8c-0.7-7.5-0.6-12.2-0.6-19.3c0-1.1,0-2.2,0-3.4c0-2.1,0-4.3-0.1-6.4c-0.1-4.2-0.1-8.6,0.1-12.7
			c0-1.2,0.1-2.4,0.2-3.6c0.3-3.2,0.6-6.5-0.6-10.3c-0.2-0.5-0.5-1-0.9-1.4c0.6-0.1,1.1-0.2,1.5-0.2c0.4,0.9,0.9,3.4,0.7,8.2
			c-0.1,4,0,8,0.2,11.9c0.1,2.7,0.2,5.5,0.2,8.2c0.1,4.5,0,8.4,0,12.2c-0.1,5.9-0.1,11.4,0.2,18.5c0.1,2.2,0.4,8,6.9,8
			c0.8,0,1.7-0.1,3-0.2c2.9-0.4,7-1.3,9.6-4.2c0,0,0.1-0.1,0.1-0.1c2-2.3,1.6-5.6,1.3-8c-0.1-0.6-0.2-1.3-0.2-1.7
			c-0.1-8-0.3-14.5-0.6-20.8c-0.2-6.3-0.5-12.7-0.6-20.6c0-1.8,0-5.1,0.1-7.7c0-0.5,0.1-1.2,0.1-1.9c0.6-0.1,1.1-0.1,1.5-0.1
			c1.4-0.1,2.7-0.2,4.9-0.8c0,0,0.1,0,0.1,0c0.7-0.2,1.4-0.6,2-1c0,0.3-0.1,0.5-0.1,0.8c-1.7,13.4-3.1,25.3-4,33.2
			c-0.6,4.9-0.6,8.7-0.6,13.2c0,2.7,0,5.6-0.2,9c-0.1,2.1-0.5,8.7,5.2,9.4c0.5,0.1,1,0.1,1.6,0.1c2.2,0,5.5-0.5,7.5-1.3
			c4.5-1.8,4.5-5,4.5-7.8v-0.5c0-2.4,0.1-4,0.3-4.6c0.2-0.2,0.4-0.3,0.5-0.4c0.1,0,0.1-0.1,0.1-0.1c0.1,0,0.1-0.1,0.2-0.1
			c0.2-0.1,0.4-0.1,0.7-0.2c0.2-0.1,0.4-0.1,0.6-0.2c0.1,0,0.3-0.1,0.5-0.2c0,0.7,0.1,1.6,0.1,2c0,0.9,0,1.4,0.1,1.8
			c0.2,2.8,0.4,5.6,0.5,8.3c0,0.3,0,0.7,0,1c0.1,2.6,0.2,6.8,3.9,8.3c0.6,0.3,1.3,0.4,2,0.4c2.7,0,6.8-1.6,10.7-3.2
			c0.6-0.2,1.1-0.5,1.4-0.6c3.1-1.2,3.9-3.4,4.1-5.5c0.8,2,2.3,3.5,4.1,4.2c0.1,0,0.1,0,0.2,0.1c0.2,0.1,0.6,0.2,1.3,0.3
			c0.5,0.1,1.8,0.4,2.2,0.6c0.3,0.1,0.6,0.2,0.9,0.3c1.1,0.2,2,0.3,2.8,0.5c1.2,0.2,2.2,0.4,3.3,0.4c0.8,0,1.5-0.1,2.4-0.3
			c1.9-0.3,3.4-0.8,4.8-1.3c0.8-0.3,1.6-0.6,2.6-0.8c2.7-0.7,6.6-2.9,8.4-4.2c0,0,0.1,0,0.1-0.1c2.7-2,2.2-5.1,1.9-6.8
			c0-0.3-0.1-0.6-0.1-0.8c-0.1-2.7-0.1-5.5-0.1-8.2c0-2.1,0-4.2,0-6.4c0-0.1,0-0.2,0-0.3c0-1.4,0.1-5.6-4.6-6.6c0,0-0.1,0-0.1,0
			c-0.6-0.1-1.3-0.2-2-0.2c-1.5,0-3,0.2-4.2,0.4c-0.5,0.1-1,0.2-1.4,0.2l-0.2,0c-1.3,0.1-3.7,0.3-4.7,3.1c0,0.1-0.1,0.2-0.1,0.2
			c-0.3,1.2-0.2,2.3-0.1,3.2c0,0.2,0.1,0.5,0.1,0.7c0,0.1,0,0.1,0,0.2c0.1,1.5,0,4.5-0.1,6.4c-0.3,0.1-0.6,0.2-0.7,0.2
			c0,0-0.1,0-0.1,0c-0.1,0-0.1,0-0.2,0.1c-0.1-1.9-0.2-4-0.3-6.2c-0.1-3.1-0.3-6.3-0.6-9.1c-0.2-2.2,0.1-4.6,0.4-6.6
			c0-0.1,0-0.2,0-0.2c0.1-0.5,0-1,0-1.5c0,0,0-0.1,0-0.2c0.1,0,0.2-0.1,0.3-0.1c0.3-0.1,0.6-0.2,0.9-0.3c0.1,1.4,0.1,3.2,0.1,4.1
			c0,2.5,1.8,5.1,5.8,5.1c0.6,0,1.3-0.1,2-0.2c0.1,0,0.1,0,0.2,0c0.4-0.1,0.8-0.2,1.4-0.2c2-0.3,4.3-0.8,5.9-2
			c3.1-2.4,2.1-6.6,1.6-8.4l0-0.1c-0.3-1.8-0.4-4.4-0.5-6.5l-0.1-1.2c0-0.6,0-1.4,0-2.1c0-2.2,0-4.6-0.8-6.9c-0.7-2-2.3-4.3-6-5.2
			c2.6-0.3,5-0.6,6.7-0.9c0.7-0.1,1.3-0.2,1.7-0.2c0.4,1.2,0.8,4.2,0.6,8.1c0,0,0,0.1,0,0.1c-0.1,4,0,6.9,0.1,10
			c0.1,2.1,0.2,4.3,0.2,7c0,4.4-0.1,9-0.2,13.4c-0.1,7-0.3,14.3-0.1,21.5c0.1,2.2,0.4,8.1,6.6,8.1c0.8,0,1.8-0.1,3.1-0.3
			c3.2-0.3,7.9-0.8,10.6-3.6c2.2-2.3,1.8-5.7,1.5-8.2c-0.1-0.6-0.1-1.2-0.1-1.6c0-8-0.2-14.8-0.3-21.4c-0.2-6.5-0.3-13.3-0.3-21.2
			c0-1.7,0-4.9,0.2-7.5c0,0,0-0.1,0-0.2c0-0.5,0-1.3,0.1-1.9c0.4,0,0.7,0,1-0.1c1.5-0.1,2.7-0.2,5.1-1c4.3-1.3,6-6.2,5.1-14.4
			c0-0.2,0-0.5,0-0.7c-0.1-1.9-0.3-4.1-1.4-5.9c-1.1-1.9-3.1-2.8-6-2.8c-0.9,0-1.8,0.1-2.6,0.1c-0.4,0-0.9,0.1-1.2,0.1
			c-0.4,0-0.8,0-1.1,0c-1.2,0-2.2-0.1-3.5-0.2c-1.6-0.2-3.4-0.3-5.8-0.3c-1.2,0-2.5,0.1-3.9,0.1c0,0-0.1,0-0.1,0
			c-1.1,0.1-2.6,0.1-4.1,0.1c-1.6,0-3.3,0-4.7,0.1c-1,0.1-8.1,0.6-15.1,1.3c-14.8,1.4-15.6,2-16.4,2.7c-0.1,0-0.1,0.1-0.2,0.2
			c-4,3.6-2.9,15-2.6,16.5c0,0.1,0,0.1,0.1,0.2c1,3.5,5.6,4,10.6,4c0.8,0,1.6,0,2.4,0c-3.5,1-7.6,2.5-10.2,4.8
			c-2.8,2.5-3.5,5.5-3.8,8.1c-0.1,1.1-0.2,2.2-0.3,3.5c-0.4-3.8-0.9-7.9-1.5-13.1c-0.3-2.7-0.3-6.1-0.4-9.3c0-2.3,0-4.4-0.1-6.4
			c0-0.4,0-0.9,0.1-1.4c0.1-2.6,0.3-6.1-2-8.6c-1.7-1.9-4.5-2.2-6.5-2.2c-2.6,0-5.4,0.5-7,0.8c-0.2,0-0.4,0.1-0.6,0.1
			c0,0-0.1,0-0.1,0c-6.5,1.4-10.7,2.4-12.4,3.1c0,0-0.1,0-0.1,0c-2,0.9-3.3,2-4.1,3.3c-0.2-1.6-0.4-3.4-1.2-4.8c0,0-0.1-0.1-0.1-0.1
			c-0.8-1.3-2.4-2.8-5.4-2.8c-0.9,0-1.7,0.1-2.6,0.2c-0.3,0.1-0.6,0.1-0.9,0.1c-1.8,0.1-3.3,0.2-4.9,0.2c-1.1,0-2.1,0-3.2-0.1
			c-1,0-2.1-0.1-3.3-0.1c-1.7,0-3.4,0.1-5.3,0.2c0,0-0.1,0-0.1,0c-1.2,0.1-2.4,0.2-3.6,0.3c-1.3,0.1-2.6,0.2-3.9,0.3
			c-0.4,0-1.7,0.1-3.2,0.1c-29.5,1.2-30.5,1.9-31.7,2.9c-4.2,3.7-2.5,16.9-2.2,18c0.9,3.4,5,4,10.9,4c0.2,0,0.3,0,0.5,0
			c0,0-0.1,0-0.1,0c-0.1,0-0.2,0-0.2,0.1c-0.9,0.3-1.9,0.5-3,0.7c-0.5,0.1-1.1,0.2-1.6,0.3c-0.1,0-0.1,0-0.2,0
			c-2.2,0.7-5.9,1.7-7.7,5.2c0-0.3,0-0.7,0-1c0.1-2.7,0.2-5.5,0.1-8.2c0-1.2,0.1-2.5,0.1-3.8c0.1-1.4,0.1-2.9,0.1-4.3
			c0-5.4-0.8-12.1-7.5-16.1C93.1,12.2,90.4,11.5,87.3,11.5L87.3,11.5z M120.9,40.4c2.5-0.2,5.2-0.4,7.7-0.7
			c-2.7,2.3-2.5,6.6-2.4,10.7c0,1,0.1,2,0.1,2.9c0,0,0,0,0,0.1c0,0.7,0.1,1.3,0.1,1.9c-0.1-0.3-0.2-0.7-0.3-1
			c-0.5-1.4-0.7-2.9-1-4.6c-0.4-2.2-0.8-4.5-1.7-6.6C123,41.8,122.1,40.9,120.9,40.4L120.9,40.4z M81,43.5c0.3-0.1,0.7-0.2,1.1-0.3
			c0.2,2,0.3,4.2,0.3,6.8c0,1.2,0,2.4-0.1,3.6c0,1.2-0.1,2.3-0.1,3.5c-0.1,2.3,0,4.6,0.2,6.8c0.2,2.3,0.3,4.5,0.1,6.8
			c0,0.7,0,1.3,0,2.1c0,1,0.1,3.4-0.3,4.1c-0.3,0.3-1,0.7-1.5,0.8c-0.1-0.7-0.2-1.5-0.2-2.4c0-1,0.1-2.1,0.1-3.2
			c0.1-1.1,0.1-2.3,0.1-3.4c0-3.3-0.1-6.7-0.2-9.9c-0.1-1.6-0.1-3.2-0.2-4.8c0-2.5,0-4.8,0.4-7.3c0-0.1,0-0.1,0-0.2
			c0-0.3,0-0.7,0.1-1.2C80.8,44.8,80.9,43.9,81,43.5L81,43.5z M39.8,47.2C39.8,47.2,39.9,47.2,39.8,47.2l0.3-0.1
			c0.5-0.2,1.2-0.5,1.8-0.6c0.2,2.1,0.2,4.9,0.2,6.3c0,3.5,2.4,5.8,6,5.8c0.8,0,1.6-0.1,2.5-0.3c0.5-0.1,1-0.2,1.6-0.4
			c2.3-0.5,4.9-1,6.5-2.5c1.3-1.2,1.8-2.7,2-4.2c0,1.6,0.1,3.2,0.2,4.7c0.1,2.3,0.2,4.6,0.2,6.9c0,1.2,0,2.3-0.1,3.4
			c0,0.1,0,0.1,0,0.2c0,0,0,0.1,0,0.1c-0.3-2-1.3-4.5-4.7-5.3c0,0,0,0-0.1,0C55.6,61,54.8,61,53.9,61c-1.7,0-3.4,0.3-4.9,0.6
			c-0.5,0.1-1,0.2-1.4,0.2c-1.4,0.1-4.2,0.5-5.2,3.4c0,0.1-0.1,0.2-0.1,0.4c-0.3,1.5-0.1,2.9,0.1,4.1c0,0.2,0.1,0.5,0.1,0.7
			c0.1,2.2-0.1,6.1-0.2,8.5l0,0.5c0,0.1,0,0.1,0,0.2c-0.3,0.1-0.7,0.3-1,0.4L41,80.2c-0.1,0-0.3,0.1-0.6,0.1c0-0.1,0-0.2,0-0.3
			c-0.2-2.7-0.2-5.7-0.4-8.8c-0.1-4.1-0.2-8.3-0.5-11.9c-0.2-3.1,0-6.3,0.4-9.1c0-0.1,0-0.1,0-0.2c0-0.6,0-1.2,0-1.7
			C39.8,48,39.8,47.5,39.8,47.2L39.8,47.2z"/>
	</g>
	<g>
		<path class="st0" d="M190,102.4c-0.6,0-1.1-0.1-1.5-0.3c-2.7-1.1-2.9-4.7-2.9-7c0-0.3,0-0.7,0-1c-0.1-2.8-0.3-5.7-0.5-8.5
			c0-0.3-0.1-0.9-0.1-1.7c0-0.9-0.1-2.9-0.3-3.7c0,0-0.1,0-0.1,0c-0.6,0-1.5,0.3-2.2,0.5c-0.2,0.1-0.5,0.1-0.6,0.2l-0.7,0.2
			c-0.5,0.2-0.5,0.2-0.9,0.4c-0.2,0.1-0.4,0.3-0.7,0.6c-0.3,0.3-0.7,1.6-0.6,5.6v0.5c0,3.1-0.2,5.1-3.6,6.4
			c-1.6,0.7-4.8,1.2-6.9,1.2c-0.5,0-1,0-1.4-0.1c-4.3-0.6-4-5.7-3.9-7.9c0.1-3.4,0.2-6.3,0.2-9c0-4.4,0-8.2,0.6-13
			c0.9-7.9,2.3-19.8,4-33.2c0.1-1,0.2-2.1,0.3-3.3c0.3-3,0.6-6.5,1.1-9.1c0.7-3.1,1.6-4.8,4.7-6.2c2.1-0.9,7.8-2.1,12.2-3.1l0.7-0.1
			c1.6-0.3,4.2-0.8,6.7-0.8c2.7,0,4.4,0.5,5.4,1.7c1.8,2,1.7,5,1.6,7.5c0,0.5-0.1,1-0.1,1.5c0.1,1.9,0.1,4,0.1,6.4
			c0,3.3,0.1,6.7,0.4,9.5c0.7,6.5,1.3,11.3,1.8,15.9c0.4,3.7,0.9,7.4,1.4,11.9c0.1,1.2,0.3,2.6,0.3,3.8v3.9c0,1.9,0,4-0.1,6.1
			c0,2.1-0.1,4.3-0.1,6.3c0,2.3,0.1,4.5,0.2,6.6l0,0.4c0.2,2.6,0.6,5.8-3.1,7.2c-0.4,0.1-0.9,0.3-1.5,0.6
			C196.4,100.8,192.4,102.4,190,102.4z M182.6,42.7c-0.2,0-0.4,0.1-0.4,0.1c0,0,0,0.1,0,0.1c-0.7,2.6-0.8,5.8-1,8.7l0,0.3
			c0,2.8-0.1,5.7-0.3,8.5v0.5c0,0.4,0,1,0.1,1.3c0.1,0,0.2,0,0.3,0c0.9-0.1,2.1-0.8,2.4-1.1c0.1-0.9,0-2-0.1-3
			c0-0.3-0.1-0.6-0.1-0.8c-0.1-1,0-2,0-2.9c0-0.6,0.1-1.1,0.1-1.7c0-0.7,0-1.3,0.1-2c0-0.6,0.1-1.2,0.1-1.9c0-2.4-0.2-4.2-0.6-5.8
			C183.2,42.9,182.9,42.7,182.6,42.7z M221.1,99.3c-1,0-1.8-0.2-3-0.4c-0.7-0.1-1.6-0.3-2.8-0.5c-0.2,0-0.3-0.1-0.5-0.2
			c-0.4-0.1-1.8-0.5-2.4-0.6c-0.6-0.1-1-0.2-1.2-0.3c-2.1-0.9-3.5-2.8-4-5.4c-0.4-2.4-0.4-4.7-0.4-7c0-0.4,0-0.9,0-1.3
			c0-5.7-0.4-11.6-0.7-17.2c-0.2-2.9-0.3-5.8-0.5-8.7c-0.1-3.2-0.1-8.1,0.3-11.5c0.3-2.4,0.9-5,3.3-7.1c4.2-3.7,12.8-5.4,15.3-5.8
			c1.7-0.3,3.2-0.4,4.5-0.4c4.5,0,7.4,1.6,8.5,4.7c0.7,2,0.7,4.3,0.7,6.3c0,0.8,0,1.5,0,2.2l0.1,1.2c0.1,2.2,0.2,4.8,0.6,6.7l0,0.2
			c0.4,1.8,1.3,5.1-1.1,6.9c-1.2,1-3.4,1.4-5.2,1.7c-0.5,0.1-1,0.2-1.4,0.3c-0.7,0.1-1.3,0.2-1.8,0.2c-1.1,0-2.1-0.2-2.8-0.7
			c-0.9-0.6-1.4-1.6-1.4-2.8c0-1.4,0-4.2-0.4-5.8c-0.7,0-1.8,0.3-2.6,0.6c-0.3,0.1-0.6,0.2-0.8,0.2c-0.6,0.2-0.6,0.2-0.6,1.5
			c0,0.4,0,0.8,0,1.3c0,0,0,0.1,0,0.1c-0.3,2.1-0.6,4.5-0.4,7c0.3,2.8,0.4,5.9,0.6,9c0.1,2.3,0.2,4.7,0.4,6.8c0,0,0,0.1,0,0.1
			c0,0.2,0,0.3,0,0.5c0,0.1,0,0.3,0,0.4c0,0,0,0,0,0c0.8,0,1.8-0.2,2.1-0.3c0.5-0.2,1.4-0.4,1.7-0.6c0-0.2,0.1-0.5,0.1-0.7
			c0.1-1.7,0.2-5.1,0.1-6.9c0,0,0-0.1,0-0.1c0-0.2,0-0.5-0.1-0.9c-0.1-0.8-0.2-1.6,0-2.5c0,0,0-0.1,0-0.1c0.7-1.8,2.2-2,3.4-2.1
			l0.2,0c0.4-0.1,0.9-0.1,1.5-0.2c1.2-0.2,2.6-0.4,4-0.4c0.6,0,1.2,0.1,1.8,0.1c3.5,0.7,3.5,3.7,3.4,5.1v0.4c0.1,2.1,0,4.2,0,6.3
			c0,2.7,0,5.6,0.1,8.3c0,0.2,0.1,0.5,0.1,0.8c0.2,1.5,0.6,3.9-1.4,5.3c-1.5,1.1-5.4,3.4-8,4c-1,0.3-1.9,0.6-2.7,0.8
			c-1.4,0.5-2.7,0.9-4.6,1.2C222.4,99.3,221.8,99.3,221.1,99.3z M32.9,98.7c-1.1,0-2-0.2-3.4-0.6c-0.8-0.2-1.8-0.4-3.1-0.7
			c-0.1,0-0.3-0.1-0.4-0.2c-0.3-0.1-1.2-0.3-1.9-0.5c-1.6-0.4-2.2-0.6-2.5-0.8c-3.1-1.5-3.9-5.3-4.1-6.6C17,86.2,17,82.9,17,79.8
			v-1.5c0-7.5-0.4-15.2-0.7-22.6c-0.2-3.8-0.4-7.6-0.5-11.4c-0.1-1.8-0.1-4.7-0.1-7.7c0-4.7,0.2-9.1,0.4-11.5c0.2-2.7,0.9-6.2,3.5-9
			c3.9-4.1,11.7-6.6,17.2-7.5C38.5,8.3,40.3,8,42,8c5.1,0,8.2,2,9.3,6c0.8,2.6,0.8,5.5,0.8,8.3c0,1,0,1.9,0,2.8
			c0,0.7,0.1,1.7,0.1,2.9c0.1,3.8,0.3,9.5,0.7,11.8l0.1,0.3c0.4,2.3,1.2,6.1-1.2,8.3c-1.4,1.2-3.8,1.7-5.8,2.2
			c-0.6,0.1-1.2,0.2-1.6,0.4c-0.8,0.2-1.5,0.3-2.1,0.3c-2.8,0-4.5-1.7-4.5-4.3c0-2,0-6-0.4-8.1c0,0-0.1,0-0.1,0
			c-0.9,0-2.4,0.6-3.5,1l-0.2,0.1c-1,0.3-1.1,0.7-1,2.5c0,0.5,0,1,0,1.6c-0.3,2.9-0.6,6.2-0.4,9.5c0.3,3.6,0.4,7.8,0.5,11.8
			c0.1,3,0.2,6.2,0.4,9c0,0.3,0,0.6,0,1c0,0.2,0,0.6,0,0.8c0.1,0,0.2,0,0.5,0c0.9,0,1.9-0.2,2.2-0.3l0.2-0.1
			c0.8-0.3,1.7-0.7,1.8-0.9c0.1-0.1,0.1-0.8,0.1-1.1l0-0.5c0.1-2.4,0.4-6.5,0.2-8.8c0-0.2-0.1-0.5-0.1-0.8c-0.2-1-0.4-2.4-0.1-3.6
			c0-0.1,0-0.1,0-0.2c0.7-2.1,2.7-2.3,4-2.4c0.4-0.1,0.9-0.2,1.4-0.3c1.5-0.3,3.1-0.6,4.7-0.6c0.8,0,1.5,0.1,2.1,0.2
			c3.5,0.8,3.7,4,3.7,5.8c0,0.2,0,0.5,0,0.7c0,2,0,3.9-0.1,5.7c0,1.9-0.1,3.7-0.1,5.6c0,2.8,0.1,5.5,0.3,8.2c0,0.3,0.1,0.7,0.1,1.1
			c0.2,2,0.6,4.8-1.4,6.6c0,0,0,0.1-0.1,0.1c-2,1.6-6.2,4.4-8.9,5.3c0,0-0.1,0-0.1,0c-1.4,0.3-2.5,0.7-3.6,1.2
			c-1.4,0.5-2.8,1-4.7,1.4C34.4,98.6,33.7,98.7,32.9,98.7z M122.9,98.4c-3.4,0-4.8-2.6-5.6-4.8c-1.2-3.1-2.2-6.4-3.1-9.6
			c-1.2-4.2-2.5-8.4-4.2-12.2c-0.2-0.4-0.3-0.7-0.4-1c-0.3,0-0.4,0.1-0.4,0.1c-0.1,0.2,0,1.4,0,2.1c0.1,0.6,0.1,1.2,0.1,1.9
			c0.1,1.5,0.2,3.1,0.3,4.6c0.1,1.6,0.2,3.1,0.3,4.7c0,0.8,0.1,1.6,0.1,2.5c0.2,2.5,0.3,5.2,0.1,7.2c-0.6,4.2-7,4.5-9,4.5
			c-0.3,0-0.6,0-0.8,0c-0.6,0-1.1-0.4-1.3-1c-1.5-4.1-1.3-8.6-1-13c0.1-1.5,0.2-3,0.2-4.3c-0.1-3.5-0.2-6.2-0.4-8.8
			c-0.2-3.1-0.4-6-0.4-10.2c0-2.6-0.1-5.1-0.2-7.6c-0.1-2.5-0.2-5-0.2-7.5c0-5.9,4-7.6,7.7-8.7c0.6-0.1,1.2-0.2,1.7-0.4
			c1.1-0.2,2.2-0.5,3.2-0.8c0,0,0.7-0.2,0.7-0.2c0.9-0.2,1.8-0.5,2.6-0.5c1.6,0,2.7,0.8,3.3,2.3c0.8,1.9,1.2,4.1,1.6,6.3
			c0.3,1.7,0.6,3.3,1,4.8c0.8,2.5,1.4,5.3,2.1,7.9c0.3,1.2,0.5,2.3,0.8,3.5c0,0.1,0,0.1,0,0.2c0.2,1.8,0.5,2.8,0.7,3.3
			c0.1-0.5,0.2-1.1,0.3-1.5c0-0.2,0.1-0.4,0.1-0.5c0.4-2.8,0-5.6-0.3-8.6c-0.2-1.8-0.4-3.7-0.5-5.6c0-1,0-2-0.1-3
			c-0.2-4.1-0.3-7.9,2.1-9.7c0.1-0.1,0.3-0.2,0.5-0.2c0.6-0.2,1.2-0.4,1.8-0.6c1.7-0.6,3.6-1.2,5.5-1.2c0.9,0,1.7,0.1,2.4,0.4
			c0.4,0.2,0.8,0.5,0.9,1c1.1,3.5,0.9,6.5,0.6,9.8c-0.1,1.2-0.2,2.4-0.2,3.6c-0.2,4.2-0.1,8.6-0.1,12.8c0,2.1,0.1,4.3,0.1,6.4v3.4
			c0,7.2,0,11.9,0.6,19.4c0.6,5.8-4.5,7.2-8.3,8.1l-0.6,0.2C125.4,98.1,124.1,98.4,122.9,98.4z M145.2,97.4c-4.4,0-5.2-3.2-5.4-6.6
			c-0.3-7-0.2-12.6-0.2-18.4c0.1-3.8,0.1-7.7,0-12.2c0-2.8-0.1-5.6-0.2-8.3c-0.2-3.8-0.3-7.8-0.2-11.8c0.2-5.9-0.6-8.9-1.3-9.7
			c-0.1-0.1-0.2-0.1-0.3-0.1c-0.5,0-1.3,0.2-2.4,0.3c-5.4,0.7-18.1,2.4-26.5,2.4c-6.2,0-8.9-0.8-9.4-2.9c-0.5-2-1.5-13.8,1.8-16.5
			c0.8-0.8,3.7-1.5,30.7-2.5c1.8-0.1,3-0.1,3.3-0.1c1.2-0.1,2.5-0.2,3.8-0.3c1.2-0.1,2.4-0.2,3.6-0.3c1.9-0.1,3.6-0.2,5.2-0.2
			c1.2,0,2.2,0,3.3,0.1c1,0,2.1,0.1,3.2,0.1c1.6,0,3.2-0.1,5.1-0.2c0.3,0,0.6-0.1,1-0.1c0.8-0.1,1.6-0.2,2.4-0.2
			c1.9,0,3.2,0.7,4.1,2.1c0.7,1.4,0.9,3.1,1.1,4.6c0.1,0.5,0.1,1,0.2,1.4c0.9,7.8-0.4,12.4-4,13.5c-2.1,0.6-3.3,0.7-4.6,0.8
			c-0.8,0-1.6,0.1-2.7,0.3c-0.2,0.6-0.2,2.2-0.3,3.1c-0.1,2.7-0.1,6-0.1,7.8c0.1,7.9,0.3,14.4,0.6,20.7c0.2,6.3,0.5,12.8,0.6,20.8
			c0,0.5,0.1,1.2,0.2,1.9c0.3,2.2,0.6,5.1-0.9,6.9c-2.4,2.5-6.1,3.3-8.8,3.7C146.8,97.3,145.9,97.4,145.2,97.4L145.2,97.4z
			 M248.5,97.3c-4.4,0-4.9-3.4-5.1-6.6c-0.2-7.1-0.1-14.4,0.1-21.4c0.1-4.4,0.2-8.9,0.2-13.4c0-2.8-0.1-5-0.2-7.1
			c-0.1-3-0.2-5.9-0.1-9.8c0.3-4.6-0.2-8.6-1.2-9.7c-0.1-0.1-0.2-0.1-0.2-0.1c-0.5,0-1.4,0.2-2.6,0.3c-5.2,0.7-15.9,2.1-23.4,2.1
			c-5.8,0-8.6-0.9-9.1-2.9c0,0,0-0.1,0-0.1c-0.4-1.9-1-12.2,2.1-15.1c0,0,0.1-0.1,0.1-0.1c2.1-1.6,29.7-3.6,30.9-3.6
			c1.2-0.1,2.9-0.1,4.6-0.1c1.6,0,3.1,0,4.3-0.1c1.4-0.1,2.6-0.1,3.9-0.1c2.4,0,4.1,0.2,5.7,0.3c1.3,0.1,2.4,0.2,3.6,0.2
			c0.4,0,0.8,0,1.2,0c0.4,0,0.9-0.1,1.3-0.1c0.8-0.1,1.6-0.1,2.4-0.1c0.9,0,3.5,0,4.7,2.1c1,1.4,1.1,3.5,1.2,5.2c0,0.3,0,0.5,0,0.8
			c0.3,2.7,1.2,11.2-4.2,12.8c-2.1,0.8-3.2,0.8-4.7,0.9c-0.6,0-1.3,0.1-2.2,0.2c-0.2,0.7-0.2,2.3-0.3,3.2c-0.3,2.7-0.3,5.9-0.3,7.7
			c0,7.9,0.2,14.7,0.3,21.2c0.2,6.6,0.3,13.4,0.3,21.3c0,0.5,0.1,1.1,0.2,1.8c0.3,2.3,0.6,5.1-1.1,7c-2.3,2.5-6.8,2.9-9.7,3.2
			C250.2,97.3,249.3,97.3,248.5,97.3z M361,96.9c-3-0.2-7.1-0.7-8.5-3.2c-0.7-1.2-0.7-2.6-0.8-3.8c0-0.3,0-0.7-0.1-1
			c-0.1-2.1-0.3-4.2-0.3-6.3c0-3.2-0.1-6.2-0.3-9.4c-0.1-2.2-0.2-4.4-0.2-6.7c-0.1-4.1-0.3-8.3-0.3-12.4c0-2.5,0-4.8,0.3-7.4
			c0.3-3.4,0.4-6.6,0.2-9.5c-0.2-5.7-0.6-11.2-1.2-16.8c0-0.5-0.1-1-0.1-1.5c-0.2-1.6-0.4-3.4,0.2-5.3c0.4-1.5,1.8-3.4,5.9-3.4
			c0.7-0.1,1.4-0.1,2-0.2c1.9-0.2,3.8-0.3,5.8-0.7c1.5-0.4,3.1-0.7,4.6-1c1.7-0.3,3.3-0.7,4.9-1.1c0.4-0.1,0.8-0.2,1.2-0.3
			c1.1-0.3,2.2-0.6,3.2-0.6c1.9,0,2.9,1,3.4,1.9c1.3,2.1,1.5,5,1.6,7.3l0,0.2c0,0.5,0,1.1,0,1.8c0,1.1,0.1,2.5,0.1,3.9
			c0,5.4-0.5,6.6-0.6,7c-1,2.5-3.2,3.2-5.1,3.9c-0.3,0.1-0.6,0.2-1,0.3c0,0-0.1,0-0.1,0c-2.3,0.7-6.2,1.2-9,1.5c0,0-0.1,0-0.1,0
			c-2.4,0-2.4,0.1-2.5,1.9c0,1.2,0,1.4,0.1,2.5c0,0.3,0.1,0.7,0.1,0.9c0,0.5,0,0.7,0.2,0.9c0,0,0.3,0.3,1.4,0.3
			c0.8,0,1.7-0.1,2.5-0.2c0.4,0,0.8-0.1,1-0.1c0.6-0.1,1.2-0.2,2-0.4c2-0.4,4.3-0.9,6-0.9c0.2,0,0.3,0,0.5,0c0,0,0.1,0,0.1,0
			c3.3,0.5,3.5,4.6,3.5,6.8c0,0.3,0,0.6,0,0.9c0.1,1.6,0.1,3.1,0.1,4.8c0,0.2,0,0.4,0.1,0.6c0.1,1.2,0.3,2.5,0,3.7c0,0,0,0.1,0,0.1
			c-1.4,4.7-7.8,5.6-12,6.2c-0.7,0.1-1.3,0.2-1.8,0.3c-1.9,0.3-1.9,0.3-2,3c-0.1,3.1-0.1,3.9,0.2,6.7c0.2,1.5,0.6,1.8,2.3,1.8
			c0.2,0,0.4,0,0.5,0c2.4,0,5.1-0.5,7.2-1c0.4-0.1,0.9-0.3,1.3-0.6c0.9-0.4,1.8-0.8,2.8-0.8c1.4,0,2.5,0.8,3.3,2.2
			c0.9,1.6,1.1,3.7,1.2,5.6c0,0.6,0.1,1.2,0.1,1.8l0,0.4c0.3,2.2,0.6,4.9-0.9,7.2c-1.9,3.1-6,4.5-9.2,5.8c-0.4,0.1-0.7,0.2-1,0.4
			c0,0-0.1,0-0.1,0c-4.3,1.2-8.5,1.9-12.7,1.9C361.1,96.9,361.1,96.9,361,96.9z M72,96.6c-0.8,0-1.5-0.1-2.1-0.2
			c-3.8-0.8-5.3-2.9-6.8-4.9c-0.5-0.7-1-1.4-1.7-2.2c-2.4-2.8-4-6.6-4.6-11.5c-0.3-2.5-0.5-5.4-0.5-8.7c0-2.9,0.1-5.8,0.3-8.5
			c0,0,0-0.1,0-0.1c0.1-1.2,0.1-2.3,0.1-3.6c0-2.3-0.1-4.7-0.2-7c-0.2-3.2-0.3-6.5-0.2-9.8c0.1-1.5,0-3.1-0.1-4.8
			c-0.1-1.3-0.2-2.6-0.2-3.9c0-2,0.1-4.4,0.8-6.7c1-3.3,2.9-6.3,6.3-9.9C67,10.9,74.4,7,81.3,7c2.8,0,5.2,0.6,7.3,1.9
			c6,3.6,6.8,9.5,6.8,14.8c0,1.4-0.1,2.8-0.1,4.2c-0.1,1.4-0.1,2.7-0.1,3.9c0.1,2.7,0,5.4-0.1,8.1c-0.1,2-0.1,4-0.1,6
			c0,1.6,0,3.2,0.1,4.8c0.1,2.2,0,4.4-0.2,6.5c-0.2,2.1-0.3,4.1-0.2,6l0,0.2C95,67,95.2,70.5,95,74.1l0,0.2
			c-0.3,3.3-0.7,8.9-3.3,12.2c-1.3,1.6-2.8,2.9-4.3,4.3L87.3,91c-1.2,1.1-2.4,1.6-3.6,2.1c-0.8,0.3-1.5,0.6-2.3,1.1
			C78.9,95.8,74.8,96.6,72,96.6z M73.5,73.3c0.1,0,0.2,0,0.3,0c1,0,2.6-0.7,3.4-1.5c0.8-0.8,0.8-3.5,0.7-5.2c0-0.7,0-1.3,0-1.9
			c0.2-2.4,0.1-4.6-0.1-7c-0.1-2.2-0.3-4.4-0.2-6.7c0-1.1,0-2.3,0.1-3.5c0-1.2,0.1-2.4,0.1-3.7c0-3.1-0.2-5.7-0.5-8
			c0-0.1-0.1-0.3-0.1-0.4c-0.1,0-0.3,0-0.4,0c-0.7,0-2.6,0.5-3,0.8c-0.5,0.4-0.5,1.9-0.6,3c0,0.4,0,0.8,0,1.1
			c-0.4,2.7-0.4,5.1-0.4,7.6c0,1.6,0.1,3.2,0.2,4.8c0.1,3.2,0.2,6.6,0.2,9.9c0,1.1-0.1,2.2-0.1,3.3C73.1,67,73,68.2,73,69.2
			C73,70.9,73.2,72.2,73.5,73.3C73.5,73.2,73.5,73.3,73.5,73.3C73.5,73.3,73.5,73.3,73.5,73.3z M317,96.2c-5,0-5.3-4.7-5.5-8.2
			l0-0.9c-0.2-1.8-0.4-3.7-0.6-5.5c-0.3-2.4-0.6-5-0.8-7.5c0-1.1,0-2.1-0.1-3.1c0-1-0.1-1.9-0.1-2.8c0-0.4,0-1-0.1-1.7
			c0-1-0.1-3-0.3-3.5c-0.1-0.2-0.2-0.3-0.6-0.3c-0.3,0-0.8,0.1-1.2,0.3c-0.7,0.3-0.8,0.6-0.9,2.4c0,0.3,0,0.6,0,0.9
			c-0.1,1.7-0.1,3.4-0.1,5.1c0,1.8,0,3.6,0.1,5.3c0,1.8,0.1,3.6,0.1,5.4c0,2.4,0,5-0.3,7.6c-0.4,3.9-5.1,6.3-9.3,6.3
			c-1.1,0-2.1-0.2-3-0.5c-3.1-1.1-3.1-5.2-3.1-6.6c0-1.2,0.1-2.3,0.2-3.3c0.1-0.8,0.2-1.5,0.2-2c0.1-2.4,0.1-4.6,0.1-6.8
			c0-2.2,0-4.5-0.1-6.7c0-2.2-0.1-4.5-0.1-6.7c0-2.2,0-4.6,0.1-6.9c0.1-2.7,0-5.7-0.1-8.6c-0.1-2.2-0.1-4.5-0.1-6.7
			c0-2,0.1-3.8,0.3-5.7c0.1-0.8,0-1.7,0-2.7c0-0.5,0-1.1,0-1.6c0-3.3,0.1-6.8,1.8-9.2c1.4-2.3,6.1-3.5,12.1-4.8
			c1.4-0.3,2.7-0.6,3.3-0.8c1.1-0.4,2.1-0.6,2.9-0.6c4.4,0,4.8,4.8,5,6.9c0.1,0.8,0.1,1.5,0.2,2.3c0.3,3.2,0.7,6.5,0.7,9.9
			c0,0.5,0,1,0,1.7c0,0.8-0.1,1.8-0.1,2.8c0,4.1,0.6,5.5,1.1,6c0,0,0,0,0.1,0.1c0.1,0.1,0.3,0.2,0.6,0.2c0.4,0,0.9-0.2,1-0.3
			c0,0,0.1,0,0.1-0.1c0.6-0.5,0.7-1.8,0.8-3.2c0-0.3,0-0.6,0-0.9c0.4-9.6,1-18.8,1.5-26.6c0.3-5.9,3.1-6.9,7.5-7.7
			c0.4-0.1,0.8-0.2,1.3-0.2c1.5-0.3,3.4-0.7,5.3-0.7c4,0,5.6,1.8,6.4,3.3c0.8,1.5,0.9,3.5,0.9,5.3c0,1,0,2-0.1,3
			c-0.1,1.3-0.1,2.5,0,3.5c0.5,4.9,0.9,10,1.2,15c0.2,5.4,0.8,10.9,1.3,16.2c0.5,5.3,1.1,10.7,1.3,16.1c0.1,1.7,0.3,4.7,0.6,7.8
			c0.4,4,0.7,8.2,0.7,10.5c0,4.9-5.8,6.3-9.2,7.1l-0.3,0.1c-0.7,0.2-1.2,0.2-1.7,0.2c-2.6,0-2.8-2.2-3-4.2l0-0.2l-0.4-5.7
			c-0.2-1.8-0.4-5.2-0.7-8.4c-0.3-3.4-0.5-6.9-0.7-8.8c0-0.1,0-0.1,0-0.2c0-0.5,0-0.9-0.1-1.2c-0.2,0-0.4,0-0.6,0
			c-0.6,0-0.6,0-0.9,0.5c-0.4,0.8-0.3,2.5-0.2,4.4l0,0.2c0.1,2.2,0.2,4.3,0.3,6.4c0.1,2,0.2,4.1,0.2,6.1c0,0.6,0.1,1.2,0.2,1.8
			c0.1,1,0.3,2.1,0.3,3.2c0,2.9-1.2,4.8-3.5,5.7c-2.6,1-6,1.5-9,2c-0.7,0.1-1.3,0.2-1.9,0.3C317.6,96.2,317.3,96.2,317,96.2z"/>
		<path d="M337,7.7c2.1,0,4.1,0.5,5,2.4c0.6,1.2,0.8,2.8,0.8,4.6c0,2.3-0.3,4.8-0.1,6.6c0.5,5,0.9,10.1,1.2,15
			c0.4,10.8,2.2,21.5,2.6,32.2c0.1,4,1.3,14.2,1.3,18.2c0,3.9-5,4.9-8.4,5.7c-0.6,0.1-1,0.2-1.4,0.2c-1.2,0-1.3-0.9-1.5-3.1
			c-0.1-1.9-0.3-3.7-0.4-5.7c-0.4-3.7-1-13.7-1.4-17.3c0-0.9-0.1-2.4-0.8-2.6c-0.6-0.1-1-0.1-1.4-0.1c-1.3,0-1.7,0.4-2.2,1.3
			c-0.6,1.2-0.5,3.1-0.4,5.4c0.1,4.3,0.4,8.4,0.5,12.5c0.1,1.7,0.5,3.3,0.5,5c0,1.8-0.5,3.5-2.6,4.3c-3.1,1.2-7.5,1.7-10.6,2.2
			c-0.3,0-0.5,0-0.8,0c-3.9,0-3.8-3.9-4-7.7c-0.4-4.4-1.2-8.6-1.4-13c0-2.1-0.1-4-0.1-5.9c-0.1-1.3,0-4.5-0.5-5.7
			c-0.5-0.9-1.2-1.2-2-1.2c-0.6,0-1.2,0.2-1.9,0.5c-1.9,0.9-1.7,2.4-1.8,4.6c-0.1,1.7-0.1,3.5-0.1,5.2c0,3.6,0.1,7.1,0.1,10.7
			c0,2.4,0,4.9-0.3,7.5c-0.3,3.1-4.4,4.9-7.8,4.9c-0.9,0-1.7-0.1-2.4-0.4c-1.8-0.6-2.2-2.8-2.2-5.2c0-1.9,0.4-4,0.4-5.3
			c0.1-2.3,0.1-4.6,0.1-6.8c0-4.5-0.1-8.9-0.1-13.4c0-2.2,0-4.5,0.1-6.8c0.1-4.9-0.3-10.3-0.3-15.4c0-1.9,0.1-3.7,0.3-5.5
			c0.1-1.3,0-2.8,0-4.4c0-3.1,0.1-6.3,1.5-8.4c1.7-2.7,12-4.1,14.7-5c1-0.3,1.8-0.5,2.4-0.5c2.4,0,3.2,1.9,3.5,5.5
			c0.4,4,0.9,8,0.9,12.1c0,1-0.1,2.7-0.1,4.5c0,2.8,0.3,5.8,1.5,7.1c0.4,0.5,1.1,0.7,1.7,0.7c0.8,0,1.5-0.3,2-0.7
			c1.4-1,1.3-3.2,1.4-5.2c0.4-8.8,0.9-18.1,1.5-26.6c0.3-4.9,2.1-5.6,6.3-6.3C332.2,8.4,334.7,7.7,337,7.7 M377.6,7.9
			c0.9,0,1.6,0.3,2.1,1.2c1.2,1.8,1.3,4.6,1.4,6.8c0,1,0.1,3.2,0.1,5.6c0,2.7-0.1,5.4-0.5,6.5c-0.9,2.2-3.1,2.6-5.2,3.4
			c-2.3,0.6-6.2,1.2-8.8,1.4c-2.7,0-3.9,0.4-4,3.3c0,1.3,0,1.5,0.1,2.7c0.1,1,0,1.5,0.4,2.3c0.4,0.9,1.5,1.1,2.8,1.1
			c1.3,0,2.8-0.3,3.7-0.3c2.1-0.4,5.6-1.3,7.8-1.3c0.1,0,0.3,0,0.4,0c2.5,0.4,2.2,4.4,2.3,6.3c0.1,1.5,0.1,3.1,0.1,4.8
			c0.1,1.3,0.4,2.7,0.1,4c-1.3,4.4-9,4.8-12.6,5.4c-3,0.5-3.1,1.5-3.2,4.4c-0.1,3.1-0.1,4,0.3,7c0.4,2.4,1.5,3.1,3.8,3.1
			c0.2,0,0.4,0,0.6,0c2.5,0,5.2-0.5,7.5-1c1.4-0.4,2.6-1.3,3.7-1.3c0.7,0,1.4,0.4,2,1.5c1,1.8,0.9,4.5,1.2,6.8
			c0.3,2.2,0.6,4.6-0.6,6.6c-1.8,3-6.5,4.4-9.5,5.6c-4,1.2-8.1,1.8-12.3,1.8c-2.2-0.1-6.2-0.5-7.4-2.4c-0.6-1.2-0.5-2.8-0.6-4.1
			c-0.1-2.1-0.3-4.1-0.3-6.2c0-5.4-0.4-10.6-0.5-16.1c-0.1-4.1-0.3-8.3-0.3-12.4c0-2.5,0-4.8,0.3-7.2c0.3-3.1,0.4-6.5,0.3-9.7
			c-0.3-5.8-0.6-11.4-1.2-16.9c-0.1-2.1-0.6-4.1,0-6.2c0.5-1.9,2.7-2.3,4.5-2.3c2.6-0.3,5.3-0.4,8-0.9c3.2-0.8,6.5-1.3,9.5-2.1
			C374.8,8.6,376.3,7.9,377.6,7.9 M81.3,8.5c2.4,0,4.6,0.5,6.6,1.7c5.2,3.1,6.1,8.1,6.1,13.5c0,2.7-0.3,5.5-0.3,8.1
			c0.1,4.6-0.3,9.4-0.3,14.1c0,1.7,0,3.2,0.1,4.9c0.3,4.1-0.7,8.4-0.4,12.5c0.3,3.6,0.5,7.1,0.3,10.7c-0.3,3.2-0.7,8.6-3,11.6
			c-1.3,1.6-2.7,2.8-4.3,4.3c-1.7,1.6-3.6,1.7-5.7,3c-2,1.4-5.7,2.2-8.5,2.2c-0.7,0-1.3-0.1-1.8-0.2c-4.4-0.9-5-3.7-7.6-6.6
			c-2.6-3-3.7-7-4.3-10.7c-0.4-2.7-0.5-5.7-0.5-8.5c0-2.8,0.1-5.7,0.3-8.5c0.1-1.3,0.1-2.5,0.1-3.7c0-5.7-0.6-11.2-0.4-16.8
			c0.1-2.8-0.3-5.8-0.3-8.8c0-2.2,0.1-4.3,0.8-6.2c1-3.5,3.2-6.4,5.9-9.3C68,12,75.1,8.5,81.3,8.5 M73.8,74.8c1.5,0,3.5-0.9,4.5-1.9
			c1.7-1.7,1-6.1,1.2-8c0.4-4.6-0.5-9-0.3-13.7c0-2.3,0.1-4.8,0.1-7.2c0-2.8-0.1-5.5-0.5-8.3c-0.2-1.2-0.4-1.7-1.5-1.7
			c-0.1,0-0.3,0-0.4,0c-0.9,0-3.1,0.5-3.9,1c-1.4,1-1.2,3.6-1.3,5.2c-0.4,2.7-0.4,5.2-0.4,7.7c0.1,4.9,0.4,9.8,0.4,14.7
			c0,2.1-0.3,4.4-0.3,6.6c0,1.6,0.1,3.1,0.5,4.4C72.2,74.5,72.9,74.8,73.8,74.8 M42,9.5c3.7,0,6.8,1.2,7.9,4.9
			c1,3.4,0.7,7.2,0.8,10.7c0.1,3.1,0.3,11.7,0.8,14.8c0.4,2.1,1.2,5.5-0.7,7.2c-1.4,1.3-4.9,1.7-6.8,2.2c-0.6,0.2-1.2,0.2-1.7,0.2
			c-1.8,0-3-0.8-3-2.8c0-2.2,0-6.5-0.5-8.6c-0.2-0.7-0.8-0.9-1.5-0.9c-1.2,0-3,0.7-4.3,1.2c-2.7,0.9-1.8,3.3-1.9,5.4
			c-0.4,3.2-0.6,6.5-0.4,9.7c0.5,6.3,0.5,14.3,0.9,20.8c0.1,1-0.3,2.3,0.8,3c0.3,0.1,0.7,0.2,1.2,0.2c1,0,2.2-0.2,2.8-0.4
			c2.8-1.2,3-1.2,3.1-3.3c0.1-2.4,0.4-7,0.3-9.4c-0.1-1.2-0.5-2.7-0.3-4c0.4-1.2,1.4-1.3,2.7-1.4c1.9-0.3,4-0.8,6-0.8
			c0.6,0,1.2,0,1.8,0.2c2.7,0.6,2.5,3.1,2.6,5.2c0,3.7-0.1,7.5-0.1,11.2c0,2.8,0.1,5.6,0.3,8.3c0.1,1.9,0.9,4.9-0.8,6.4
			c-1.9,1.6-5.9,4.3-8.4,5C40,95,38.3,96.2,35,96.8c-0.8,0.2-1.5,0.3-2.1,0.3c-1.5,0-2.9-0.6-6.2-1.2c-0.4-0.3-4-1-4.4-1.3
			c-2.2-1-3-3.6-3.4-5.6c-0.6-3.6-0.5-7.2-0.5-10.8c0-11.3-0.8-22.7-1.2-34.1c-0.1-1.8-0.1-4.6-0.1-7.6c0-4.3,0.1-8.8,0.4-11.4
			c0.3-2.8,0.9-5.8,3.1-8.1c3.6-3.7,11.1-6.2,16.4-7.1C38.7,9.8,40.4,9.5,42,9.5 M252.7,10.9c4.2,0,6.4,0.6,9.3,0.6
			c0.4,0,0.9,0,1.3,0c1.1-0.1,2.4-0.2,3.6-0.2c1.5,0,2.8,0.3,3.5,1.4c0.9,1.3,0.9,3.7,1,5.3c0.4,3.5,0.8,10.1-3.1,11.2
			c-3,1-3.5,0.6-7,1c-1,0.1-1.2,1.5-1.3,4.6c-0.3,2.7-0.3,5.9-0.3,7.7c0,15.9,0.6,26.7,0.6,42.6c0,2.1,1.2,5.9-0.5,7.7
			c-1.9,2.1-6.1,2.4-8.8,2.7c-1.1,0.2-2,0.3-2.7,0.3c-2.5,0-3.4-1.2-3.6-5.2c-0.4-11.5,0.3-23.1,0.3-34.7c0-6.7-0.5-10.2-0.3-16.9
			c0.2-3.8,0.1-11.4-2.9-11.4c-0.1,0-0.1,0-0.2,0c-2.5,0.3-16.6,2.5-25.7,2.5c-4.2,0-7.3-0.5-7.7-1.8c-0.5-2.6-0.6-11.6,1.7-13.7
			c1.6-1.2,28.2-3.2,30.1-3.4c2.4-0.3,6.4,0,8.9-0.3C250.4,11,251.6,10.9,252.7,10.9 M162.7,11.2c1.1,0,2.1,0.3,2.8,1.4
			c0.8,1.4,0.8,3.9,1,5.4c0.4,3.4,0.9,10.6-3,11.9c-3.1,0.9-3.9,0.5-7.4,1c-1,0.1-1.2,1.6-1.3,4.5c-0.1,2.7-0.1,6.1-0.1,7.9
			c0.1,15.9,1,25.5,1.2,41.4c0,2.1,1.2,5.9-0.4,7.7c-1.9,2.1-5.3,2.8-7.9,3.2c-1,0.1-1.8,0.2-2.6,0.2c-2.7,0-3.7-1.2-3.9-5.1
			c-0.5-11.5,0-19-0.1-30.6c0-6.7-0.6-13.3-0.4-20c0.1-3.8,0-11.4-3.1-11.4c-0.1,0-0.2,0-0.2,0c-2.4,0.3-18.6,2.7-28.6,2.7
			c-4.4,0-7.7-0.5-8-1.8c-0.7-2.5-1-13,1.3-15c1.4-1.3,31.3-2.2,33.2-2.3c2.4-0.3,4.9-0.4,7.5-0.6c2-0.1,3.6-0.2,5.1-0.2
			c2.3,0,4.2,0.1,6.5,0.1c1.4,0,3.1,0,5.2-0.2C160.6,11.5,161.7,11.2,162.7,11.2 M193.7,11.6c1.8,0,3.5,0.3,4.3,1.2
			c1.8,1.9,1.2,5.6,1.2,8c0.3,4.8,0,11.2,0.5,16c1.3,11.7,2.1,17.5,3.2,27.9c0.1,1.2,0.3,2.4,0.3,3.6c0,1.3,0,2.4,0,3.9
			c0,3.9-0.1,8.4-0.1,12.4c0,2.4,0.1,4.6,0.3,6.7c0.3,2.7,0.6,5-2.1,6.1c-1.8,0.7-8.3,3.6-11.1,3.6c-0.4,0-0.6,0-0.9-0.1
			c-2.2-0.9-1.9-4.5-2.1-6.7c-0.1-2.8-0.3-5.7-0.5-8.5c-0.1-1,0-5.6-0.6-6.3c-0.3-0.3-0.8-0.4-1.3-0.4c-1.1,0-2.5,0.5-3.2,0.7
			c-1.9,0.7-1.2,0.3-2.8,1.6c-1.3,1.2-1.2,5.4-1.2,7.2c0,2.8-0.1,4-2.7,5c-1.4,0.6-4.2,1.1-6.3,1.1c-0.4,0-0.8,0-1.2-0.1
			c-2.8-0.4-2.7-4-2.6-6.3c0.4-9-0.1-14.2,0.8-21.9c1-9,2.3-20.3,4-33.2c0.4-3.6,0.6-8.8,1.4-12.3c0.6-2.8,1.3-4,3.9-5.2
			c2.2-0.9,9.4-2.4,11.9-3C188,12.2,191,11.6,193.7,11.6 M181,63.8c0.2,0,0.4,0,0.6,0c1.2-0.1,3.2-1,3.6-2.2c0.3-1.4,0-3-0.1-4.4
			c-0.1-1.5,0.1-3,0.1-4.5c0-1.3,0.1-2.6,0.1-3.9c0-2.1-0.1-4.1-0.6-6.2c-0.3-0.8-1.2-1.3-2-1.3c-0.8,0-1.6,0.4-1.8,1.3
			c-0.8,2.8-0.9,6.5-1,9.4c0,2.8-0.1,5.7-0.3,8.5C179.5,62,179.3,63.8,181,63.8 M131.7,34.1c0.7,0,1.3,0.1,1.9,0.3
			c1.4,4.5,0.4,8.3,0.3,12.9c-0.3,6.3,0,12.9,0,19.2c0,9.2-0.1,14.2,0.6,23c0.5,4.8-3.9,5.7-7.7,6.7c-1.5,0.4-2.7,0.7-3.8,0.7
			c-1.9,0-3.1-0.9-4.2-3.8c-2.7-7.1-4.3-15.1-7.3-21.9c-0.3-0.7-0.4-1.3-0.6-1.9c-0.2,0-0.4,0-0.6,0c-3.5,0-2.4,2.4-2.3,5.7
			c0.1,3.1,0.4,6.2,0.5,9.3c0.1,3,0.5,6.8,0.3,9.4c-0.3,2.5-4.8,3.1-7.5,3.1c-0.3,0-0.5,0-0.8,0c-1.9-5.2-0.8-11.5-0.8-16.8
			c-0.1-7.7-0.8-11.2-0.8-19c0-5.2-0.4-10.1-0.4-15.1c0-4.6,2.6-6.1,6.6-7.2c1.7-0.4,3.3-0.6,4.9-1.2c1-0.3,2-0.6,2.9-0.6
			s1.5,0.3,1.9,1.3c1.4,3.2,1.4,7.5,2.6,11c1.2,3.6,1.9,7.6,2.8,11.2c0.1,1.2,0.5,4.3,1.6,4.9c0.3,0.2,0.5,0.2,0.8,0.2
			c1.3,0,1.5-2.5,1.7-3.7c0.7-4.9-0.6-9.7-0.8-14.6c0-4.5-0.9-9.8,1.4-11.5C126.9,35.2,129.4,34.1,131.7,34.1 M229,34.4
			c3.3,0,6.1,0.9,7.1,3.7c0.9,2.5,0.5,5.5,0.6,8.1c0.1,2.3,0.3,5.8,0.6,8.1c0.4,1.5,1.2,4.3-0.5,5.5c-1.3,1-4.4,1.3-6.1,1.7
			c-0.5,0.1-1,0.1-1.5,0.1c-1.6,0-2.8-0.6-2.8-2.1c0-1.7,0-4.9-0.5-6.6c-0.1-0.5-0.6-0.7-1.3-0.7c-1.1,0-2.7,0.5-3.9,0.8
			c-2.3,0.6-1.6,2.6-1.7,4.1c-0.4,2.5-0.6,4.9-0.4,7.4c0.5,4.8,0.5,10.8,0.9,15.7c0,0.8-0.3,1.8,0.6,2.3c0.2,0.1,0.5,0.1,0.9,0.1
			c0.9,0,2.1-0.2,2.6-0.4c2.6-0.8,2.7-0.9,2.8-2.6c0.1-1.8,0.3-5.3,0.1-7.1c0-0.9-0.4-2.1-0.1-3c0.4-1,1.2-1,2.4-1.2
			c1.6-0.2,3.5-0.6,5.3-0.6c0.5,0,1,0,1.5,0.1c2.4,0.5,2.2,2.4,2.2,4c0.1,4.9-0.1,9.8,0.1,14.7c0.1,1.6,0.9,3.7-0.6,4.9
			c-1.7,1.2-5.3,3.2-7.5,3.7c-2.8,0.8-4.4,1.6-7.2,2.1c-0.7,0.2-1.3,0.2-1.9,0.2c-1.4,0-2.6-0.4-5.6-0.9c-0.4-0.3-3.5-0.9-3.9-1
			c-1.9-0.8-2.7-2.7-3-4.3c-0.5-2.7-0.4-5.4-0.4-8.1c0-8.6-0.8-17.3-1.2-25.9c-0.1-3.2-0.1-8,0.3-11.2c0.3-2.2,0.8-4.4,2.8-6.2
			c3.2-2.8,9.8-4.6,14.6-5.4C226.2,34.6,227.7,34.4,229,34.4 M337,4.7c-2,0-4,0.4-5.6,0.7c-0.5,0.1-0.9,0.2-1.2,0.2
			c-4.8,0.9-8.4,2.1-8.8,9.1c-0.6,7.8-1.1,17-1.5,26.6c0,0.3,0,0.6,0,0.9c0,0.6-0.1,1.5-0.2,1.9c-0.2-0.6-0.5-1.8-0.5-4.6
			c0-1,0-1.9,0.1-2.7c0-0.7,0-1.3,0-1.8c0-3.5-0.4-6.8-0.7-10.1c-0.1-0.8-0.2-1.6-0.2-2.3c-0.2-2-0.7-8.2-6.5-8.2
			c-1,0-2.1,0.2-3.4,0.6c-0.6,0.2-1.8,0.5-3.2,0.8c-6.5,1.4-11.3,2.7-13.1,5.5c-1.9,2.8-2,6.5-2,10c0,0.5,0,1.1,0,1.7
			c0,0.9,0,1.8,0,2.4c0,0,0,0.1,0,0.1c-0.1,1.8-0.3,3.7-0.3,5.8c0,2.2,0.1,4.5,0.1,6.7c0.1,2.9,0.2,5.8,0.1,8.5
			c-0.1,2.4-0.1,4.7-0.1,7c0,2.3,0,4.6,0.1,6.8c0,2.2,0.1,4.4,0.1,6.7c0,2.2,0,4.4-0.1,6.7c0,0.1,0,0.1,0,0.2c0,0.4-0.1,1.1-0.1,1.8
			c-0.1,1.1-0.2,2.3-0.2,3.5c0,4.3,1.4,7,4.1,8c1,0.4,2.2,0.6,3.5,0.6c4.9,0,10.3-2.8,10.8-7.6c0.3-2.7,0.3-5.3,0.3-7.8
			c0-1.8,0-3.7-0.1-5.4c0-1.7-0.1-3.5-0.1-5.3c0-1.7,0-3.4,0.1-4.9c0,0,0,0,0-0.1c0-0.3,0-0.7,0-1c0-0.2,0-0.4,0-0.6
			c0,0.6,0,1.2,0.1,1.6c0,0.6,0,1.2,0.1,1.7c0,1,0,1.9,0.1,2.8c0,1,0.1,2,0.1,3c0,0.1,0,0.1,0,0.2c0.1,2.6,0.5,5.2,0.8,7.6
			c0.2,1.8,0.5,3.7,0.6,5.5c0,0.3,0,0.5,0,0.8c0.2,3.4,0.5,9.6,7,9.6c0.4,0,0.7,0,1.1-0.1c0,0,0.1,0,0.2,0c0.6-0.1,1.2-0.2,1.9-0.3
			c2.9-0.4,6.5-1,9.3-2.1c1.3-0.5,3.4-1.7,4.2-4.5c0.2,1.9,0.9,4.9,4.4,4.9c0.6,0,1.2-0.1,2-0.3l0.3-0.1c3-0.7,8.2-1.9,9.9-5.8
			c0,0.2,0,0.3,0,0.5c0.1,1.3,0.1,2.9,1,4.4c0,0,0,0.1,0,0.1c1.8,3.1,6.2,3.7,9.8,3.9c0.1,0,0.1,0,0.2,0c4.3,0,8.7-0.7,13.1-1.9
			c0.1,0,0.1-0.1,0.2-0.1c0.3-0.1,0.7-0.2,1-0.4c3.3-1.2,7.8-2.9,10-6.4c1.8-2.7,1.4-5.9,1.1-8.2l0-0.4c-0.1-0.5-0.1-1.1-0.1-1.7
			c-0.1-2-0.3-4.3-1.4-6.3c-1.4-2.5-3.2-3-4.6-3c-1.3,0-2.5,0.5-3.4,1c-0.4,0.2-0.8,0.3-1.1,0.4c-2,0.4-4.5,0.9-6.7,0.9
			c0,0-0.1,0-0.1,0c-0.2,0-0.3,0-0.5,0c-0.4,0-0.6,0-0.7-0.1c0-0.1-0.1-0.3-0.1-0.5c-0.4-2.7-0.4-3.4-0.2-6.4c0-0.4,0-1,0.1-1.4
			c0.1,0,0.4-0.1,0.6-0.1c0.5-0.1,1.1-0.2,1.7-0.3c4.6-0.7,11.6-1.7,13.3-7.3c0-0.1,0-0.2,0.1-0.3c0.3-1.5,0.1-3,0-4.2
			c0-0.2,0-0.4-0.1-0.5c0-1.7,0-3.2-0.1-4.8c0-0.2,0-0.5,0-0.8c-0.1-2.3-0.3-7.5-4.8-8.3c-0.1,0-0.2,0-0.3,0c-0.2,0-0.4,0-0.6,0
			c-1.8,0-4.2,0.5-6.3,1c-0.7,0.2-1.3,0.3-1.9,0.4c-0.3,0-0.6,0.1-1,0.1c-0.7,0.1-1.6,0.2-2.3,0.2c0,0-0.1,0-0.1,0
			c0-0.2,0-0.5-0.1-0.8c-0.1-0.9-0.1-1.1-0.1-2.3c0-0.2,0-0.3,0-0.4c0.2,0,0.5,0,1,0c0.1,0,0.2,0,0.3,0c1.4-0.1,6.2-0.7,9.3-1.5
			c0.1,0,0.2,0,0.2-0.1c0.3-0.1,0.6-0.2,0.9-0.3c2-0.7,4.7-1.6,6-4.7c0,0,0-0.1,0-0.1c0.2-0.5,0.7-1.9,0.7-7.5c0-1.5,0-2.8-0.1-3.9
			c0-0.7,0-1.2,0-1.6c0-0.1,0-0.1,0-0.2l0-0.2c-0.1-2.5-0.3-5.6-1.8-8c-1-1.7-2.6-2.7-4.7-2.7l0,0c-1.3,0-2.6,0.4-3.7,0.7
			c-0.4,0.1-0.8,0.2-1.1,0.3c-1.6,0.4-3.2,0.7-4.9,1.1c-1.5,0.3-3.1,0.6-4.6,1c-1.8,0.3-3.7,0.5-5.5,0.7c-0.7,0.1-1.3,0.1-2,0.2
			c-5.2,0.1-6.8,2.8-7.2,4.5c-0.6,2.1-0.4,4.1-0.2,5.8c0,0.5,0.1,1,0.1,1.4c0,0,0,0.1,0,0.1c0.5,5.6,0.9,11.1,1.1,16.8
			c0.1,2.8,0,5.9-0.2,9.3c-0.3,2.6-0.3,5-0.3,7.5c0,4.2,0.1,8.4,0.3,12.5c0,0.3,0,0.5,0,0.8c-0.2-5.1-0.8-10.2-1.2-15.1
			c-0.5-5.3-1.1-10.7-1.3-16c0,0,0,0,0,0c-0.3-5-0.7-10.1-1.2-15.1c-0.1-0.9,0-2.1,0-3.3c0-1,0.1-2,0.1-3c0-2-0.1-4.2-1.1-6
			C343.8,6.9,341.7,4.7,337,4.7L337,4.7z M81.3,5.5c-7.3,0-15.2,4.2-19.2,8.3c-2.2,2.3-5.3,5.9-6.6,10.5c-0.8,2.4-0.9,5-0.9,7.1
			c0,1.4,0.1,2.7,0.2,4c0.1,1.6,0.2,3.2,0.1,4.6c0,0.7,0,1.4-0.1,2.1c-0.1-0.9-0.3-1.7-0.4-2.4l0-0.3c-0.4-2.2-0.5-8-0.6-11.5
			c0-1.2-0.1-2.2-0.1-2.9c0-0.9,0-1.8,0-2.7c0-2.7,0-5.8-0.9-8.7c-0.9-3.2-3.5-7.1-10.8-7.1c-1.8,0-3.6,0.3-5.4,0.6
			c-5.8,1-13.9,3.7-18.1,8c-3,3.1-3.7,7-3.9,9.9c-0.2,2.5-0.4,6.9-0.4,11.6c0,3,0,5.9,0.1,7.8c0.1,3.8,0.3,7.6,0.5,11.3
			c0.4,7.4,0.7,15.1,0.7,22.6c0,0.5,0,1,0,1.5c0,3.2,0,6.5,0.6,9.8c0,0,0,0,0,0.1c0.3,1.4,1.1,5.8,4.9,7.6c0.5,0.3,1.2,0.5,2.9,0.9
			c0.5,0.1,1.3,0.3,1.6,0.4c0.2,0.1,0.5,0.2,0.7,0.2c1.2,0.2,2.2,0.5,3,0.7c1.4,0.3,2.5,0.6,3.7,0.6c0.9,0,1.8-0.1,2.8-0.4
			c2-0.4,3.5-0.9,4.9-1.5c1.1-0.4,2.1-0.8,3.4-1.1c0.1,0,0.1,0,0.2-0.1c3.3-1,7.9-4.4,9.4-5.6c0,0,0.1-0.1,0.2-0.1
			c2.5-2.3,2.1-5.6,1.8-7.8c0-0.3-0.1-0.7-0.1-1c-0.1-2-0.2-4.1-0.2-6.2c0.1,0.6,0.1,1.1,0.2,1.6c0.7,5.2,2.4,9.3,5,12.2
			c0,0,0,0,0,0.1c0.6,0.7,1.1,1.3,1.6,2c1.5,2.2,3.3,4.6,7.6,5.5c0,0,0,0,0.1,0c0.7,0.1,1.5,0.2,2.4,0.2c3,0,7.4-0.8,10.1-2.7
			c0.6-0.4,1.3-0.7,2-0.9c1.3-0.5,2.7-1.1,4.1-2.3l0.1-0.1c1.6-1.4,3-2.8,4.4-4.4c0,0,0-0.1,0.1-0.1c2.8-3.6,3.3-9.3,3.6-13l0-0.1
			c0.1,1.7,0.2,3.5,0.2,5.7c0,1.3-0.1,2.7-0.2,4.2c-0.2,4.3-0.5,9.2,1.1,13.6c0.4,1.1,1.5,1.9,2.7,1.9c0.3,0,0.6,0,0.9,0
			c6.1,0,10-2.1,10.5-5.7c0,0,0-0.1,0-0.1c0.2-2.1,0.1-4.8-0.1-7.4c-0.1-0.8-0.1-1.7-0.1-2.4c-0.1-1.6-0.2-3.2-0.3-4.7
			c0-0.1,0-0.2,0-0.4c0.6,1.8,1.1,3.6,1.7,5.5c0.9,3.2,1.9,6.6,3.1,9.7c0.5,1.4,2.1,5.8,7,5.8c1.4,0,2.8-0.3,4.6-0.8l0.5-0.1
			c3.8-1,10.1-2.7,9.4-9.8c-0.7-7.5-0.7-12.2-0.6-19.3c0-1.1,0-2.2,0-3.4c0-2.1,0-4.3-0.1-6.4c-0.1-4.2-0.1-8.6,0.1-12.7
			c0-1.2,0.1-2.4,0.2-3.6c0.3-3.2,0.6-6.5-0.6-10.3c-0.2-0.5-0.5-1-0.9-1.4c0.6-0.1,1.1-0.1,1.5-0.2c0.4,0.9,0.9,3.4,0.7,8.2
			c-0.1,4,0,8,0.2,11.9c0.1,2.7,0.2,5.5,0.2,8.2c0.1,4.5,0,8.4,0,12.2c-0.1,5.9-0.1,11.4,0.2,18.5c0.1,2.2,0.4,8,6.9,8
			c0.8,0,1.7-0.1,3-0.2c2.9-0.4,7-1.3,9.6-4.2c0,0,0.1-0.1,0.1-0.1c2-2.3,1.6-5.6,1.3-8c-0.1-0.6-0.2-1.3-0.2-1.7
			c-0.1-8-0.3-14.5-0.6-20.8c-0.2-6.3-0.5-12.7-0.6-20.6c0-1.8,0-5.1,0.1-7.7c0-0.5,0.1-1.2,0.1-1.9c0.6-0.1,1.1-0.1,1.5-0.1
			c1.4-0.1,2.7-0.2,4.9-0.8c0,0,0.1,0,0.1,0c0.7-0.2,1.4-0.6,2-1c0,0.3-0.1,0.5-0.1,0.8c-1.7,13.4-3.1,25.3-4,33.2
			c-0.6,4.9-0.6,8.7-0.6,13.2c0,2.7,0,5.6-0.2,9c-0.1,2.1-0.5,8.7,5.2,9.4c0.5,0.1,1,0.1,1.6,0.1c2.2,0,5.5-0.5,7.5-1.3
			c4.5-1.8,4.5-5,4.5-7.8v-0.5c0-2.4,0.1-4,0.3-4.6c0.2-0.2,0.4-0.3,0.5-0.4c0.1,0,0.1-0.1,0.1-0.1c0.1,0,0.1-0.1,0.2-0.1
			c0.2-0.1,0.4-0.1,0.7-0.2c0.2-0.1,0.4-0.1,0.6-0.2c0.1,0,0.3-0.1,0.5-0.2c0,0.7,0.1,1.6,0.1,2c0,0.9,0,1.4,0.1,1.8
			c0.2,2.8,0.4,5.6,0.5,8.3c0,0.3,0,0.7,0,1c0.1,2.6,0.2,6.8,3.9,8.3c0.6,0.3,1.3,0.4,2,0.4c2.7,0,6.8-1.6,10.7-3.2
			c0.6-0.2,1.1-0.5,1.4-0.6c3.1-1.2,3.9-3.4,4.1-5.5c0.8,2,2.3,3.5,4.1,4.2c0.1,0,0.1,0,0.2,0.1c0.2,0.1,0.6,0.2,1.3,0.3
			c0.5,0.1,1.8,0.4,2.2,0.6c0.3,0.1,0.6,0.2,0.9,0.3c1.1,0.2,2,0.3,2.8,0.5c1.2,0.2,2.2,0.4,3.3,0.4c0.8,0,1.5-0.1,2.4-0.3
			c1.9-0.3,3.4-0.8,4.8-1.3c0.8-0.3,1.6-0.6,2.6-0.8c2.7-0.7,6.6-2.9,8.4-4.2c0,0,0.1,0,0.1-0.1c2.7-2,2.2-5.1,1.9-6.8
			c0-0.3-0.1-0.6-0.1-0.8c-0.1-2.7-0.1-5.5-0.1-8.2c0-2.1,0-4.2,0-6.4c0-0.1,0-0.2,0-0.3c0-1.4,0.1-5.6-4.6-6.6c0,0-0.1,0-0.1,0
			c-0.6-0.1-1.3-0.2-2-0.2c-1.5,0-3,0.2-4.2,0.4c-0.5,0.1-1,0.2-1.4,0.2l-0.2,0c-1.3,0.1-3.7,0.3-4.7,3.1c0,0.1-0.1,0.2-0.1,0.2
			c-0.3,1.2-0.2,2.3-0.1,3.2c0,0.2,0.1,0.5,0.1,0.7c0,0.1,0,0.1,0,0.2c0.1,1.5,0,4.5-0.1,6.4c-0.3,0.1-0.6,0.2-0.7,0.2
			c0,0-0.1,0-0.1,0c-0.1,0-0.1,0-0.2,0.1c-0.1-1.9-0.2-4-0.3-6.2c-0.1-3.1-0.3-6.3-0.6-9.1c-0.2-2.2,0.1-4.6,0.4-6.6
			c0-0.1,0-0.2,0-0.2c0.1-0.5,0-1,0-1.5c0,0,0-0.1,0-0.2c0.1,0,0.2-0.1,0.3-0.1c0.3-0.1,0.6-0.2,0.9-0.3c0.1,1.4,0.1,3.2,0.1,4
			c0,2.5,1.8,5.1,5.8,5.1c0.6,0,1.3-0.1,2-0.2c0.1,0,0.1,0,0.2,0c0.4-0.1,0.8-0.2,1.4-0.2c2-0.3,4.3-0.8,5.9-2
			c3.1-2.4,2.1-6.6,1.6-8.4l0-0.1c-0.3-1.8-0.4-4.4-0.5-6.5l-0.1-1.2c0-0.6,0-1.4,0-2.1c0-2.2,0-4.6-0.8-6.9c-0.7-2-2.3-4.3-6-5.2
			c2.6-0.3,5-0.6,6.7-0.9c0.7-0.1,1.3-0.2,1.7-0.2c0.4,1.2,0.8,4.2,0.6,8.1c0,0,0,0.1,0,0.1c-0.1,4,0,6.9,0.1,10
			c0.1,2.1,0.2,4.3,0.2,7c0,4.4-0.1,9-0.2,13.4c-0.1,7-0.3,14.3-0.1,21.5c0.1,2.2,0.4,8.1,6.6,8.1c0.8,0,1.8-0.1,3.1-0.3
			c3.2-0.3,7.9-0.8,10.6-3.6c2.2-2.3,1.8-5.7,1.5-8.2c-0.1-0.6-0.1-1.2-0.1-1.6c0-8-0.2-14.8-0.3-21.4c-0.2-6.5-0.3-13.3-0.3-21.2
			c0-1.7,0-4.9,0.2-7.5c0,0,0-0.1,0-0.2c0-0.5,0.1-1.3,0.1-1.9c0.4,0,0.7,0,1-0.1c1.5-0.1,2.7-0.2,5.1-1c4.3-1.3,6-6.2,5.1-14.4
			c0-0.2,0-0.5,0-0.7c-0.1-1.9-0.3-4.1-1.4-5.9c-1.1-1.9-3.1-2.8-6-2.8c-0.9,0-1.8,0.1-2.6,0.1c-0.4,0-0.9,0.1-1.2,0.1
			c-0.4,0-0.8,0-1.1,0c-1.2,0-2.2-0.1-3.5-0.2c-1.6-0.2-3.4-0.3-5.8-0.3c-1.2,0-2.5,0.1-3.9,0.1c0,0-0.1,0-0.1,0
			c-1.1,0.1-2.6,0.1-4.1,0.1c-1.6,0-3.3,0-4.7,0.1c-1,0.1-8.1,0.6-15.1,1.3c-14.8,1.4-15.6,2-16.4,2.7c-0.1,0.1-0.1,0.1-0.2,0.2
			c-4,3.6-2.9,15-2.6,16.5c0,0.1,0,0.1,0.1,0.2c1,3.5,5.6,4,10.6,4c0.8,0,1.6,0,2.4,0c-3.5,1-7.6,2.5-10.2,4.8
			c-2.8,2.5-3.5,5.5-3.8,8.1c-0.1,1.1-0.2,2.2-0.3,3.5c-0.4-3.8-0.9-7.9-1.5-13.2c-0.3-2.7-0.3-6.1-0.4-9.3c0-2.3,0-4.4-0.1-6.4
			c0-0.4,0-0.9,0.1-1.4c0.1-2.6,0.3-6.1-2-8.6c-1.7-1.9-4.5-2.2-6.5-2.2c-2.6,0-5.4,0.5-7,0.8c-0.2,0-0.4,0.1-0.6,0.1
			c0,0-0.1,0-0.1,0c-6.5,1.4-10.7,2.4-12.4,3.1c0,0-0.1,0-0.1,0c-2,0.9-3.3,2-4.1,3.3c-0.2-1.6-0.4-3.4-1.2-4.8
			c0-0.1-0.1-0.1-0.1-0.1c-0.8-1.3-2.4-2.8-5.4-2.8c-0.9,0-1.7,0.1-2.6,0.2c-0.3,0.1-0.6,0.1-0.9,0.1c-1.8,0.1-3.3,0.2-4.9,0.2
			c-1.1,0-2.1,0-3.2-0.1c-1,0-2.1-0.1-3.3-0.1c-1.7,0-3.4,0.1-5.3,0.2c0,0-0.1,0-0.1,0c-1.2,0.1-2.4,0.2-3.6,0.3
			c-1.3,0.1-2.6,0.2-3.9,0.3c-0.3,0-1.7,0.1-3.2,0.1c-29.5,1.1-30.5,1.9-31.7,2.9c-4.2,3.7-2.5,16.9-2.2,18c0.9,3.4,5,4,10.9,4
			c0.2,0,0.3,0,0.5,0c0,0-0.1,0-0.1,0c-0.1,0-0.2,0-0.2,0.1c-0.9,0.3-1.9,0.5-3,0.7c-0.5,0.1-1.1,0.2-1.6,0.3c-0.1,0-0.1,0-0.2,0
			c-2.2,0.7-5.9,1.7-7.7,5.2c0-0.3,0-0.7,0-1c0.1-2.7,0.2-5.5,0.1-8.2c0-1.2,0.1-2.5,0.1-3.8c0.1-1.4,0.1-2.9,0.1-4.3
			c0-5.4-0.8-12.1-7.5-16.1C87.1,6.2,84.4,5.5,81.3,5.5L81.3,5.5z M114.9,34.4c2.5-0.2,5.2-0.4,7.7-0.7c-2.7,2.3-2.5,6.6-2.4,10.7
			c0,1,0.1,2,0.1,2.9c0,0,0,0,0,0.1c0,0.7,0.1,1.3,0.1,1.9c-0.1-0.3-0.2-0.7-0.3-1c-0.5-1.4-0.7-2.9-1-4.6c-0.4-2.2-0.8-4.5-1.7-6.6
			C117,35.8,116.1,34.9,114.9,34.4L114.9,34.4z M75,37.5c0.3-0.1,0.7-0.2,1.1-0.3c0.2,2,0.3,4.2,0.3,6.8c0,1.2,0,2.4-0.1,3.6
			c0,1.2-0.1,2.3-0.1,3.5c-0.1,2.3,0,4.6,0.2,6.8c0.2,2.3,0.3,4.5,0.1,6.8c0,0.7,0,1.3,0,2.1c0,1,0.1,3.4-0.3,4.1
			c-0.3,0.3-1,0.7-1.5,0.8c-0.1-0.7-0.2-1.5-0.2-2.4c0-1,0.1-2.1,0.1-3.2c0.1-1.1,0.1-2.3,0.1-3.4c0-3.3-0.1-6.7-0.2-9.9
			c-0.1-1.6-0.1-3.2-0.2-4.8c0-2.5,0-4.8,0.4-7.3c0-0.1,0-0.1,0-0.2c0-0.3,0-0.7,0.1-1.2C74.8,38.8,74.9,37.9,75,37.5L75,37.5z
			 M33.8,41.2C33.8,41.2,33.9,41.2,33.8,41.2l0.3-0.1c0.5-0.2,1.2-0.5,1.8-0.6c0.2,2.1,0.2,4.9,0.2,6.3c0,3.5,2.4,5.8,6,5.8
			c0.8,0,1.6-0.1,2.5-0.3c0.5-0.1,1-0.2,1.6-0.4c2.3-0.5,4.9-1,6.5-2.5c1.3-1.2,1.8-2.7,2-4.2c0,1.6,0.1,3.2,0.2,4.7
			c0.1,2.3,0.2,4.6,0.2,6.9c0,1.2,0,2.3-0.1,3.4c0,0,0,0.1,0,0.2c0,0,0,0,0,0.1c-0.3-2-1.3-4.5-4.7-5.3c0,0,0,0-0.1,0
			C49.6,55,48.8,55,47.9,55c-1.7,0-3.4,0.3-4.9,0.6c-0.5,0.1-1,0.2-1.4,0.2c-1.4,0.1-4.2,0.5-5.2,3.5c0,0.1-0.1,0.2-0.1,0.4
			c-0.3,1.5-0.1,3,0.1,4.1c0,0.2,0.1,0.5,0.1,0.7c0.1,2.2-0.1,6.1-0.2,8.5l0,0.5c0,0.1,0,0.1,0,0.2c-0.3,0.1-0.7,0.3-1,0.4L35,74.2
			c-0.1,0-0.3,0.1-0.6,0.1c0-0.1,0-0.2,0-0.3c-0.2-2.7-0.2-5.7-0.3-8.8c-0.1-4.1-0.2-8.3-0.5-11.9c-0.2-3.1,0-6.3,0.4-9.1
			c0-0.1,0-0.1,0-0.2c0-0.6,0-1.2,0-1.7C33.8,42,33.8,41.5,33.8,41.2L33.8,41.2z"/>
	</g>
</g>
</svg>
