<?xml version="1.0" encoding="utf-8"?>
<!-- Generator: Adobe Illustrator 28.1.0, SVG Export Plug-In . SVG Version: 6.00 Build 0)  -->
<svg version="1.1" id="Layer_1" xmlns="http://www.w3.org/2000/svg" xmlns:xlink="http://www.w3.org/1999/xlink" x="0px" y="0px"
	 viewBox="0 0 561 137.4" style="enable-background:new 0 0 561 137.4;" xml:space="preserve">
<style type="text/css">
	.st0{fill:#68CC3D;}
</style>
<g>
	<g>
		<path d="M224.4,106.9c-1.2,0-2.4-0.1-3.7-0.4c-3.8-0.7-9.4-5.1-9.8-8.4c-0.6-2.6-0.4-5.5-0.3-8.5c0.1-1.3,0.1-2.7,0.1-4.1
			c0-3.3-0.2-4.5-0.4-4.9c-0.4,0.1-1.1,0.5-1.7,0.7c-0.6,0.3-1.2,0.6-1.9,0.9c-1.7,0.6-1.7,1.1-1.4,3.5c0,0.3,0.1,0.7,0.1,1.1
			c0.1,1.5,0.2,2.2,0.5,3c0.2,0.9,0.5,1.8,0.6,3.6c0,0.4,0.1,0.9,0.1,1.3c0.2,1.8,0.4,3.9-1.8,5.7c-2,1.7-5.3,2.6-9,2.6
			c-0.7,0-1.4,0-2.1-0.1c-1.6-0.1-2.7-0.7-3.5-1.6c-1.2-1.5-1-3.4-0.8-5.2c0.1-0.7,0.2-1.4,0.1-2c-0.6-9.7-0.7-18-0.5-29.1
			c0-4.9-0.2-9.8-0.3-14.6c-0.2-4.8-0.3-9.8-0.3-14.8c0-1.1,0-2.3,0.1-3.4c0.1-2.2,0.1-4.5-0.1-6.8c-0.4-5,2.9-5.8,6.9-6.9
			c0.3-0.1,0.6-0.2,0.9-0.3c1.4-0.4,3.2-0.9,4.8-0.9c2.9,0,3.9,1.7,4.2,2.7c0.8,2.1,0.6,4.7,0.4,7c-0.1,0.9-0.1,1.7-0.1,2.4
			c0,1.6-0.1,3.1-0.1,4.7c-0.1,1.5-0.1,3.2-0.1,4.7c0,0.7-0.1,2.2-0.2,4.1c-0.2,3.3-0.5,10.2-0.3,13.4c1.1-2.6,3.1-9,6.4-25.3
			c0.1-0.5,0.2-0.8,0.2-1c0.4-1.9,0.9-3.7,1.4-5.4c0.4-1.4,0.7-2.7,1.1-4.1c0.6-2.5,1.3-5.6,5.2-5.6c0.6,0,1.2,0.1,1.9,0.2
			c3.9,0.5,8.1,1.2,9.6,3.3c1.1,1.8,0.3,3.6-0.3,4.9c-0.2,0.4-0.4,0.8-0.5,1.1c-0.2,0.7-0.4,1.3-0.6,1.9c-0.3,1-0.6,2.1-1,3.1
			c-1.7,4.8-3.6,12.3-5.1,18.3c-0.4,1.6-0.8,3.1-1.1,4.5c-1.1,4.6-0.8,7.2-0.3,7.7c1.2,0.3,1.7,0.3,2.1,0.3h0.2c0.8,0,1.6,0,3.5,0.7
			c4.3,1.3,4.3,4.6,4.3,7.3c0,0.4,0,0.8,0,1.3c0.1,2.3-0.1,4.7-0.3,7c-0.3,3.3-0.6,6.8,0.1,10.2c0,0,0,0.1,0,0.1
			c0.1,1,0.4,1.7,2.9,1.7c0.4,0,0.9,0,1.3,0l7.9-0.8c1.1-0.3,1.9-0.4,2.7-0.4c4.2,0,4.2,4.1,4.2,5.5c0,0.4,0,1,0.1,1.7
			c0.2,3.3,0.6,8.4-3.2,9.6c-2.6,0.9-3.7,0.9-5.4,1c-0.7,0-1.5,0.1-2.6,0.2l-9,0.9c-1,0.1-1.9,0.2-2.7,0.2
			C226.7,106.8,225.6,106.9,224.4,106.9z M366,106.7c-2.2,0-3.9-0.5-5.3-1.5l-0.3-0.2c-2.5-1.8-6.3-4.6-6.5-8.9c-0.1-2,0-4,0.4-6.1
			c0-2.5,0-3.2,0.1-3.8c0-0.4,0-0.8,0-2c0-3.3-0.8-5.1-2.5-5.5c-0.2,1.9-0.2,3.9-0.1,5.9c0,0.9,0.1,1.9,0.1,2.8v6.3c0,0.3,0,0.6,0,1
			c0.1,2.2,0.2,5.6-2,6.9c-0.8,0.5-1.9,0.6-2.8,0.6c-0.4,0-0.9,0-1,0.1c-0.1,0-0.2,0-0.3,0.1c-0.8,0.1-1.7,0.3-2.6,0.5
			c-0.4,0.1-0.8,0.2-1.2,0.3c-0.7,0.1-1.5,0.2-2.3,0.2c-1.4,0-3.3-0.2-4.5-1.1c-1.6-1.3-1.5-3.8-1.4-5.6c0-0.4,0-0.7,0-1
			c0-4.7,0.1-8.6,0.1-12.4c0.1-3.8,0.1-7.7,0.1-12.4c0-3.2-0.1-6.4-0.2-9.6c-0.1-3.2-0.2-6.5-0.2-9.9c0-1.9,0-3.8,0.1-5.7
			c0.1-4.7,0.2-9.6-0.3-14.1c-0.1-1.4-0.2-2.4-0.2-3.3c0-1-0.1-1.8-0.2-3c-0.1-1.6,0.1-5.4,5.9-5.9c1.2-0.1,2.4-0.6,3.7-1
			c1.3-0.5,2.7-1,4.1-1.1c1-0.2,2.1-0.5,3.3-0.8c2-0.6,4.1-1.1,6.2-1.1c1.2,0,2.4-0.2,3.8-0.3c1.4-0.2,2.9-0.4,4.3-0.4
			c1.3,0,5.3,0,7,3.9c0.8,1.8,0.7,5.3,0.6,9.4c0,0.8-0.1,1.5-0.1,2c0,1.2,0,2.5,0,3.7c0,2.5,0.1,5,0,7.5c-0.2,3.5-0.4,6.9-0.5,10.4
			c-0.2,3.3-0.3,6.7-0.5,10c-0.2,4.3-3.4,6.9-6.5,9.4c-0.2,0.2-0.4,0.3-0.7,0.5c0.1,0,0.3,0.1,0.4,0.1c1.1,0.4,2.3,0.8,3.4,1.3
			c2,0.9,4.5,2.1,5.7,4.6c1,1.9,0.9,3.9,0.9,5.8c0,1.3,0,2.7,0.2,4.1c0.1,0.4,0.2,0.8,1.9,0.8c0.4,0,0.8,0,1.2,0c0.4,0,0.9,0,1.2,0
			c3.5,0,5.8-0.3,8.5-0.8c1.8-0.3,3.7-0.6,6.2-0.8c1.2-0.1,1.9-0.2,2.6-0.3c0.9-0.1,1.7-0.3,3.4-0.3l0.1,0c0.4,0,0.8-0.1,1.2-0.1
			c1.8,0,3,0.9,3.5,2.7c0.5,1.3,0.5,3.1,0.5,4.3c0,5.9-2,9.6-5.2,9.9c-1.5,0.1-2.4,0.2-3.2,0.2s-1.6,0.1-3,0.2
			c-12,0.9-19.5,2.9-19.6,2.9c-0.1,0-0.2,0-0.3,0.1c-1,0.1-2,0.2-3,0.3C368.8,106.5,367.4,106.7,366,106.7z M352.8,40.8
			c-0.7,0.1-1.9,0.2-2.4,0.5c-0.6,0.3-0.5,2-0.4,3c0,0.4,0,0.7,0,1c0,0.5,0,1.1,0,1.7c0,1.2,0.1,2.5,0,3.7c0,0,0,0.1,0,0.1
			c-0.2,1.4-0.5,7.2-0.2,9.2c1.2-0.1,3.1-0.8,3.5-1.2c0.4-0.6,0.3-2.2,0.2-3.3c0-0.7-0.1-1.4,0-2c0.1-1.1,0.1-2.2,0.1-3.3
			c0-1.1,0-2.3,0.1-3.5c0.1-2,0.1-4,0-6c0,0,0,0,0-0.1C353.5,40.7,352.8,40.8,352.8,40.8z M144,106.6c-2.6,0-4.3-1.5-4.5-3.8
			c-0.1-1.6-0.1-3.3-0.1-5c0-0.6,0-1.2,0.1-1.8c0.1-1.1,0.1-2.1,0-3.1c0-0.1,0-0.2,0-0.2c0-0.2,0-0.4,0-0.7c0-0.4,0.1-1.6,0-2.3
			c-0.7,0.1-1.7,0.4-2.3,0.6c-0.2,0.1-0.4,0.1-0.6,0.2c-0.5,0.2-0.6,0.3-0.6,2.1l0,0.6v5.8c0,5.7-9.3,6.1-12.2,6.1
			c-0.9,0-2.3-0.3-3-0.7c0,0-0.1,0-0.1-0.1c-1.4-0.8-1.4-2.7-1.4-3.6c-0.1-1.9,0-4.5,0.1-7c0-1.5,0.1-3,0.1-4.3
			c0-1.1-0.1-2.2-0.2-3.4c-0.1-2.3-0.2-4.7-0.2-7.1c0-0.3,0-0.7,0-1c0-0.8-0.1-1.6,0-2.3c0-0.1,0-0.1,0-0.2c0.1-0.5,0.3-1,0.5-1.5
			c0.2-0.5,0.3-0.9,0.4-1.4c1.2-3.2,1.7-5.8,2.3-8.5c0.4-1.9,0.8-3.8,1.5-6.1c0.7-2.3,0.8-3,1.2-4.7l0.2-1.3c0.1-0.3,0.1-0.6,0.2-1
			c0.2-1.4,0.4-3,1.2-4.2c0.7-1,2.5-2.4,10.3-4c2.6-0.8,4.8-1.2,6.9-1.5c0.2,0,0.4,0,0.7-0.1c0.5,0,1.1-0.1,1.6-0.1
			c1.4,0,2.5,0.4,3.4,1.2c1.4,1.3,1.9,3.2,2.3,5c0.2,1,0.3,1.9,0.4,2.7c0.5,3.1,0.8,5,1.1,9.1c0.1,1.8,0.4,3.4,0.8,5.2
			c0.4,2,0.9,4,0.9,6.2c0,2.9,0,5.8-0.1,8.7c-0.1,4.3-0.1,8.7-0.1,12.9v7.2c0,0.1,0.1,0.2,0.1,0.4c0.2,0.7,0.4,1.7-0.1,2.7
			c-0.4,1.3-1.4,1.7-2.1,2c-0.1,0.1-0.2,0.1-0.3,0.2c-3,1.3-5.3,1.6-8.3,1.8C144.1,106.6,144.1,106.6,144,106.6z M136.9,71.1
			c0.1,1.1,0.1,2.3,0.1,3.5c0.7-0.1,1.6-0.3,1.9-0.5c0.1-0.1,0.3-0.2,0.2-0.8c0,0,0-0.1,0-0.1l0-0.4c-0.1-1.9-0.2-3.7-0.2-5.7
			l-0.4-2.6c0-0.1,0-0.1,0-0.2c0-0.2,0-0.3,0-0.5c0,0,0-0.1,0-0.2c-0.5,0.1-1.2,0.4-1.6,0.7c-0.2,0.2-0.1,1,0,1.7l0,0.3
			c0.1,1.2,0.1,2.2,0,3.3C136.9,70.2,136.9,70.7,136.9,71.1z M493.2,106.6c-1,0-1.8-0.2-3-0.4c-0.7-0.1-1.6-0.3-2.8-0.5
			c-0.2,0-0.3-0.1-0.5-0.2c-0.4-0.1-1.8-0.5-2.5-0.6c-0.6-0.1-1-0.2-1.2-0.3c-2.1-0.9-3.5-2.8-4-5.4c-0.5-2.4-0.4-4.7-0.4-7
			c0-0.4,0-0.9,0-1.3c0-5.7-0.4-11.6-0.7-17.2c-0.2-2.9-0.3-5.8-0.5-8.7c-0.1-3.2-0.1-8.1,0.3-11.5c0.3-2.4,0.9-5,3.3-7.1
			c4.2-3.7,12.8-5.4,15.3-5.8c1.7-0.3,3.2-0.4,4.5-0.4c4.5,0,7.4,1.6,8.5,4.7c0.7,2,0.7,4.3,0.7,6.3c0,0.8,0,1.5,0,2.2l0.1,1.2
			c0.1,2.2,0.2,4.8,0.5,6.7l0,0.2c0.5,1.8,1.3,5.1-1.1,6.9c-1.2,1-3.3,1.4-5.2,1.7c-0.5,0.1-1,0.2-1.4,0.3c-0.7,0.1-1.3,0.2-1.8,0.2
			c-1.1,0-2.1-0.2-2.8-0.7c-0.9-0.6-1.5-1.6-1.5-2.8c0-1.4,0-4.2-0.4-5.8c-0.7,0-1.8,0.3-2.6,0.6c-0.3,0.1-0.5,0.2-0.8,0.2
			c-0.6,0.2-0.6,0.2-0.6,1.5c0,0.4,0,0.8,0,1.3c0,0,0,0.1,0,0.1c-0.3,2.1-0.6,4.5-0.4,7c0.3,2.8,0.4,5.9,0.5,9
			c0.1,2.3,0.2,4.7,0.4,6.8c0,0,0,0.1,0,0.1c0,0.2,0,0.3,0,0.5c0,0.1,0,0.3,0,0.4c0,0,0,0,0,0c0.8,0,1.8-0.2,2.1-0.3
			c0.5-0.2,1.4-0.4,1.7-0.6c0-0.2,0.1-0.5,0.1-0.7c0.1-1.7,0.2-5.1,0.1-6.9c0,0,0-0.1,0-0.1c0-0.2,0-0.5-0.1-0.9
			c-0.1-0.8-0.2-1.6,0-2.5c0,0,0-0.1,0-0.1c0.7-1.8,2.2-2,3.5-2.1l0.2,0c0.4-0.1,0.9-0.1,1.5-0.2c1.2-0.2,2.6-0.4,4-0.4
			c0.6,0,1.2,0.1,1.8,0.1c3.5,0.7,3.5,3.7,3.4,5.1v0.4c0.1,2.1,0,4.2,0,6.3c0,2.7,0,5.6,0.1,8.3c0,0.2,0.1,0.5,0.1,0.8
			c0.2,1.5,0.6,3.9-1.4,5.3c-1.5,1.1-5.5,3.4-8,4c-1,0.3-1.9,0.6-2.7,0.8c-1.4,0.5-2.7,0.9-4.6,1.2
			C494.5,106.5,493.9,106.6,493.2,106.6z M520.6,104.6c-4.4,0-4.9-3.4-5.1-6.6c-0.2-7.1-0.1-14.4,0.1-21.4c0.1-4.4,0.2-8.9,0.2-13.4
			c0-2.8-0.1-5-0.2-7.1c-0.1-3-0.2-5.9-0.1-9.8c0.3-4.6-0.2-8.6-1.2-9.7c-0.1-0.1-0.2-0.1-0.2-0.1c-0.5,0-1.4,0.2-2.6,0.3
			c-5.2,0.7-15.9,2.1-23.4,2.1c-5.8,0-8.6-0.9-9.1-2.9c0,0,0-0.1,0-0.1c-0.4-1.9-1-12.2,2.1-15.1c0,0,0.1,0,0.1-0.1
			c2.1-1.5,27.9-3.4,30.9-3.6c1.2-0.1,2.9-0.1,4.6-0.1c1.5,0,3.2,0,4.3-0.1c1.4-0.1,2.6-0.1,3.8-0.1c2.3,0,4.1,0.2,5.7,0.3
			c1.3,0.1,2.4,0.2,3.7,0.2c0.4,0,0.8,0,1.2,0c0.4,0,0.8-0.1,1.3-0.1c0.8-0.1,1.6-0.1,2.4-0.1c0.9,0,3.5,0,4.7,2.1
			c1,1.4,1.1,3.5,1.2,5.2c0,0.3,0,0.5,0,0.8c0.3,2.7,1.2,11.2-4.2,12.8c-2.2,0.8-3.2,0.8-4.7,0.9c-0.6,0-1.3,0.1-2.2,0.2
			c-0.2,0.7-0.2,2.3-0.3,3.2c-0.3,2.7-0.3,5.9-0.3,7.7c0,7.9,0.2,14.7,0.3,21.2c0.2,6.6,0.3,13.4,0.3,21.3c0,0.5,0.1,1.1,0.2,1.8
			c0.3,2.3,0.6,5.1-1.1,7c-2.3,2.5-6.8,2.9-9.7,3.2C522.3,104.5,521.4,104.6,520.6,104.6z M266.6,104.6c-1.9,0-4-0.3-5.9-1
			c-4.6-1.8-4.6-6.1-4.7-9.6c0-0.9,0-1.8-0.1-2.6c-0.3-2.3-0.4-4.8-0.4-7.4c0-1.5,0-3,0.1-4.5c0-1.5,0.1-3.1,0.1-4.7
			c0-2.6,0-5.1-0.4-7.5c-0.4-3.1-0.5-6.2-0.6-9.1l0-0.2c-0.3-4.9-0.3-9.8-0.3-14.5l0-1.7c0-3.2,0-6.6-0.5-9.7
			c-0.3-2.4-0.6-4.8,0.4-6.8c1.1-2.3,3.1-3.3,5.1-4.2c0.4-0.2,0.8-0.4,1.1-0.6c3.7-2.1,6.8-3.5,10-4.7c0,0,0.1,0,0.1,0
			c1.2-0.3,3-0.7,4.8-0.7c3.5,0,6.9,1,10,2c6.4,1.8,7.3,4.7,7.9,10.4c0.4,5.1,0.8,10,0.8,15c0,2.2-0.1,4.4-0.3,6.4
			c-0.4,4.6-0.6,8.8-0.6,12.7c0,2,0,4.1,0.1,6c0.1,1.8,0.3,3.7,0.3,5.5c0,2.4-0.3,4.5-1.1,6.7c-1.9,5.1-6,9.6-9.8,13.4
			c-0.5,0.6-1,1.2-1.6,1.8c-2.2,2.5-4.8,5.4-7.6,7.6C271.7,103.9,269.3,104.6,266.6,104.6z M270.9,75.9c0.1,0,0.2,0,0.3,0l0,0
			c0.8,0,1.6-0.3,1.8-0.5c2.6-2.3,3.8-3.8,3.8-5c0-6.6-0.2-12.4-0.6-19.5c-0.1-1.2-0.1-2.5,0-3.7c0-0.6,0-1.2,0-1.8
			c0-0.3,0-0.7,0.1-1c0-0.4,0.1-1,0-1.3c-0.1,0-0.2,0-0.3,0c-1.9,0-5.1,1.8-5.6,2.5c-0.2,1.2-0.3,2.5-0.3,3.8c0,1.4,0.1,2.9,0.2,4.3
			c0.1,1.8,0.3,3.7,0.2,5.7c-0.2,3.4,0.1,6.9,0.3,10.3c0.1,1.1,0.2,2.2,0.2,3.3c0,0.4,0,0.7,0,1.1C270.9,74.7,270.8,75.5,270.9,75.9
			z M454.2,104.2c-3-0.2-7.1-0.7-8.5-3.2c-0.7-1.2-0.7-2.6-0.8-3.8c0-0.3,0-0.7-0.1-1c-0.1-2.1-0.3-4.2-0.3-6.3
			c0-3.2-0.1-6.2-0.3-9.4c-0.1-2.2-0.2-4.4-0.2-6.7c-0.1-4.1-0.3-8.3-0.3-12.4c0-2.5,0-4.8,0.3-7.4c0.3-3.4,0.4-6.6,0.2-9.5
			c-0.2-5.7-0.6-11.2-1.2-16.8c0-0.5-0.1-1-0.1-1.5c-0.2-1.6-0.4-3.4,0.2-5.3c0.4-1.5,1.8-3.4,5.9-3.4c0.7-0.1,1.4-0.1,2-0.2
			c1.9-0.2,3.9-0.3,5.8-0.7c1.5-0.4,3.1-0.7,4.6-1c1.7-0.3,3.3-0.7,4.9-1.1c0.4-0.1,0.8-0.2,1.2-0.3c1.1-0.3,2.2-0.6,3.2-0.6
			c1.9,0,2.9,1,3.4,1.9c1.3,2.1,1.5,5,1.6,7.3l0,0.2c0,0.5,0,1.1,0,1.8c0,1.1,0.1,2.5,0.1,3.9c0,5.3-0.5,6.6-0.6,7
			c-1,2.5-3.2,3.2-5.1,3.9c-0.3,0.1-0.6,0.2-1,0.3c0,0-0.1,0-0.1,0c-2.3,0.7-6.2,1.2-9,1.5c0,0-0.1,0-0.1,0c-2.4,0-2.4,0.1-2.5,1.9
			c0,1.2,0,1.4,0.1,2.5c0,0.3,0.1,0.7,0.1,0.9c0,0.5,0,0.7,0.2,0.9c0,0,0.3,0.3,1.4,0.3c0.8,0,1.7-0.1,2.5-0.2c0.4,0,0.8-0.1,1-0.1
			c0.6-0.1,1.2-0.2,2-0.4c2-0.4,4.3-0.9,6-0.9c0.2,0,0.3,0,0.5,0c0,0,0.1,0,0.1,0c3.3,0.5,3.5,4.6,3.5,6.8c0,0.3,0,0.6,0,0.9
			c0.1,1.6,0.1,3.1,0.1,4.8c0,0.2,0,0.4,0.1,0.6c0.1,1.2,0.3,2.5,0,3.7c0,0,0,0.1,0,0.1c-1.4,4.7-7.8,5.6-12,6.2
			c-0.7,0.1-1.3,0.2-1.8,0.3c-1.9,0.3-1.9,0.3-2,3c-0.1,3.1-0.1,3.9,0.2,6.7c0.2,1.5,0.6,1.8,2.3,1.8c0.2,0,0.4,0,0.5,0
			c2.4,0,5.1-0.5,7.2-1c0.4-0.1,0.9-0.3,1.3-0.6c0.9-0.4,1.8-0.8,2.8-0.8c1.4,0,2.5,0.8,3.3,2.2c0.9,1.6,1.1,3.7,1.2,5.6
			c0,0.6,0.1,1.2,0.1,1.8l0,0.4c0.3,2.2,0.6,4.9-0.9,7.2c-1.9,3.1-6,4.5-9.2,5.7c-0.4,0.1-0.7,0.2-1,0.4c0,0-0.1,0-0.1,0
			c-4.3,1.2-8.5,1.9-12.7,1.9C454.3,104.2,454.2,104.2,454.2,104.2z M164.3,103.9c-4.4,0-5.1-3.2-5.2-6.6c-0.3-7.1-0.1-14.5,0-21.6
			c0.1-4.2,0.2-8.6,0.2-12.9c0-2.6-0.1-4.7-0.2-6.7c-0.1-3-0.3-5.7-0.1-9.8c0.1-2,0.2-6.8-1-8c-0.1-0.1-0.2-0.2-0.4-0.2
			c-0.5,0-1.5,0.2-2.9,0.4c-5.4,0.8-15.6,2.3-22.6,2.3c-3.8,0-7.8-0.3-8.4-3c-0.5-1.7-1.9-13.6,1.4-16.3c2.2-1.8,29.5-4.1,29.7-4.1
			c1.2-0.1,2.4-0.2,3.6-0.3c1.3-0.1,2.5-0.2,3.8-0.3c1.4-0.1,2.6-0.1,3.8-0.1c1.8,0,3.3,0.1,4.7,0.2c1.4,0.1,2.8,0.2,4.6,0.2
			c1.1,0,2.3,0,3.6-0.1c0.2,0,0.5-0.1,0.8-0.1c0.8-0.1,1.6-0.2,2.3-0.2c2,0,3.4,0.7,4.3,2.2c0.8,1.4,1,3.4,1.1,5
			c0,0.3,0,0.6,0.1,0.8c0.3,2.9,1.3,11.7-4.1,13.4c-2,0.6-2.9,0.7-4,0.8c-0.6,0-1.3,0.1-2.3,0.3c-0.2,0.6-0.3,2-0.4,3.2
			c-0.1,2-0.2,5.6-0.2,7.6c0,7.3,0.2,13.6,0.3,19.6c0.2,7.1,0.4,13.8,0.3,22.2c0,0.4,0.1,1.1,0.2,1.8c0.3,2.2,0.6,5-1.1,6.9
			c-2,2.3-5.7,2.8-8.6,3.2l-0.6,0.1C165.9,103.8,165.1,103.9,164.3,103.9z M93,103.9c-0.9,0-1.6-0.2-2.2-0.6
			c-2.3-1.4-2.3-3.1-2.3-5.2v-0.5c-0.2-4.4-0.3-9.9-0.4-14.7l-0.1-3c-0.1-3.8-0.5-7.7-0.8-11.4c-0.4-4.8-0.9-9.7-0.9-14.5
			c0-2.1,0-4.3,0.3-6.5c0.1-1.3,0.1-2.7,0.1-4.1s0-2.8-0.1-4.3c0-1.4-0.1-2.8-0.1-4.1c0-1.1-0.2-2.3-0.3-3.5c-0.3-2.3-0.6-4.7,0-7
			c1-4.1,4.7-4.1,6.1-4.1c0.5,0,1.1,0,1.7,0c0.5,0,1,0,1.5,0c3.8,0,7.8-0.6,11.4-1.7c0.5-0.1,1.1-0.4,1.6-0.5
			c1.7-0.6,3.7-1.3,5.5-1.3c1.2,0,2.3,0.3,3.1,0.9c2,1.3,2.3,3.9,2.3,6c0,1-0.1,2.1-0.2,3c-0.1,0.7-0.1,1.4-0.1,1.9
			c0,0.3,0,0.7,0,1.1c0,4.6,0,9.2-1.4,11.3c-1.6,2.7-5.7,3-9,3.3c-0.7,0.1-1.3,0.1-1.8,0.2c-0.6,0.1-1.2,0.1-1.9,0.1
			c-1.2,0-4.1,0.2-4.5,0.9c-0.6,1.2-0.7,4.9-0.1,5.7c0.1,0.1,0.3,0.2,0.8,0.2c1.3,0,3.5-0.7,5.2-1.3c1.2-0.4,2.3-0.8,3.2-0.9
			c1.1-0.1,2-0.2,2.7-0.2c3.4,0,4.5,2.2,4.9,5.6c0.2,1.7,0.7,5.5,0.7,8.6c0,1.7-0.2,3.1-0.4,4.2c0,0.1,0,0.1-0.1,0.2
			c-1.3,3.3-5.6,3.3-8.7,3.3c-0.5,0-1,0-1.4,0c-1.3,0-2.9,0.9-3.4,1.9c-0.2,0.4,0,2.2,0.1,3.1c0.1,0.6,0.1,1.2,0.1,1.6
			c0.1,1.9,0.3,3.5,0.4,4.9c0.2,1.5,0.3,3,0.4,4.9c0.1,0.7,0.1,1.5,0.1,2.2c0,1,0,2,0.2,2.9c0,0,0,0.1,0,0.1c0,0.4,0.1,0.7,0.1,1.1
			c0.2,1.2,0.3,2.6,0,4c-1.1,3.9-6.1,5.4-8.9,5.7c-0.4,0-0.8,0.1-1.3,0.2C94.5,103.8,93.7,103.9,93,103.9z M432.7,103
			c-0.8,0-1.6-0.1-2.4-0.3c-3.9-0.8-10-2.5-14.3-4.8c-4.3-2.3-9.2-5.8-9.2-12.7c0-3.6,1.2-7.1,3.2-9.4c0,0,0.4-0.4,0.4-0.4
			c0.8-0.8,1.7-1.7,2.9-2.2c0.5-0.2,1-0.3,1.5-0.3c1.7,0,3.3,1,4.7,1.9c0.8,0.5,1.8,1.1,2.3,1.1c0,0,0.6-0.7,0.6-4.8
			c0-2.3-0.2-5-0.3-6.8l-0.1-0.8c-0.2-2.1-0.3-3.5-0.5-4.6c-0.2-1.9-0.3-3-0.3-5.1c0-1.4,0-3.1,0.1-6.1c0.1-4.5-0.2-7.1-0.5-9.9
			c-0.3-2.6-0.5-5.4-0.5-9.9c0-0.5,0-1.1-0.1-1.6c-0.1-1.7-0.2-3.5,0.7-4.9c1.1-1.8,4.6-3.1,7.4-3.8c1.1-0.3,3.6-0.9,5.8-0.9
			c2.3,0,3.8,0.5,4.7,1.7c0.8,1.3,0.8,3.3,0.6,5.9c0,0.5-0.1,1-0.1,1.3c0,1.5-0.1,3-0.1,4.5c-0.1,2-0.2,3.8-0.1,5.8
			c0.1,3.4,0.2,5.1,0.3,6.7c0.1,1.6,0.2,3.3,0.3,6.7c0.2,7.2,0.3,11.4,0.3,16.2c0,3.3,0.1,6.8,0.2,11.8l0,0.4
			c0.1,3.7,0.2,7.1,0.2,10.2C440.6,93.3,440.6,103,432.7,103z M303.7,100.9c-0.4,0-0.8,0-1.2-0.1c0,0-0.1,0-0.1,0
			c-3.1-0.7-3.2-4.3-3.3-6.7c0-0.6,0-1.1-0.1-1.4c-0.5-5.6-0.6-11.3-0.8-16.7c-0.1-3.1-0.1-6.3-0.3-9.5c-0.1-1.8-0.2-3.6-0.3-5.4
			c-0.4-7.1-0.9-14.5-1-21.7c-0.1-2.1-0.3-4.2-0.6-6.2c-0.2-1.5-0.4-3.1-0.5-4.6c-0.6-4.1,3.3-6.2,4.9-7c4.3-2.1,8.8-3,12.6-3.6
			c0.9-0.1,1.6-0.2,2.5-0.2c1.5,0,2.9,0.2,4.5,0.4l0.9,0.1c0.4,0,0.9,0.1,1.4,0.1c2.1,0.2,4.5,0.4,6.4,1.5c3.1,1.7,3.3,6.3,3.4,9
			l0,0.6c0.1,2,0.1,4,0.1,6c0,3.4-0.1,6.9-0.3,10.3c-0.1,2.3-0.2,4.5-0.2,6.8l0,0.2c-0.1,4-0.3,8-0.6,12.2c-0.1,2.2-1.1,5.2-3.1,6.9
			c-2,1.6-4.9,2.3-7.4,2.8c-0.6,0.1-1.1,0.2-1.6,0.4c-0.3,0.1-0.7,0.2-1.1,0.2c-1.9,0.4-3.3,0.8-3.5,1.7c-0.4,1.3-0.4,2.7-0.4,4.2
			c0,0.6,0,1.3,0,1.9c0,1.2,0.1,2.5,0,3.8c-0.1,2.4,0,4.9,0.1,7c0.2,3.6-2,4.9-4.1,5.7C308.6,100.2,306,100.9,303.7,100.9z
			 M315.6,45.9c-0.6,0-1.5,0.2-2.3,0.5c-1.3,0.4-1.3,0.4-1.2,2.1c0.1,2,0.1,4,0.1,5.9c0,0.4,0,0.9,0,1.3c0,1.1-0.1,2.1,0.2,3
			c0.4,0,1-0.2,1.6-0.3c0.2-0.1,0.5-0.1,0.7-0.2c1.4-0.3,1.5-1.2,1.4-3.8c0-0.4,0-0.8,0-1.2c0-0.6,0-1.2,0-1.8c0-1.8,0-3.4-0.1-5.1
			c0-0.2,0-0.3-0.1-0.3C315.7,45.9,315.7,45.9,315.6,45.9z M36.8,91.6c-0.9,0-1.6-0.1-2.2-0.4c-2.4-1.3-2.7-4.1-2.9-6
			c0-0.3-0.1-0.6-0.1-0.8c-0.4-2.2-0.6-4.5-0.7-6.7c-0.1,0-0.2,0-0.2,0.1c-0.8,0.2-1.4,0.3-2.1,0.3c-1.9,0-3-1.2-3.7-2.3
			c-1.1-1.5-1.4-2.3-1.5-4.3c0,0,0-0.1,0-0.1c0-0.3,0-0.7,0-1.1c-0.1-1.2-0.1-2.6,0.2-3.8c0.4-1.7,1.7-3.8,5.7-4.7
			c0.6-0.1,1.1-0.2,1.6-0.4c0.2,0,0.4-0.1,0.6-0.1c0.1-1.8,0.2-3.5,0.2-5.1c0-1.5-0.1-3-0.2-4.5c-0.3,0-0.6,0.1-0.8,0.2
			c-0.1,0-0.1,0-0.2,0c-0.3,0.1-0.7,0.1-1,0.2c-0.8,0.2-1.5,0.3-2.2,0.3c-1.5,0-2.7-0.7-3.8-2.3c-1.1-1.7-1.4-2.3-1.4-4.4l0-0.2
			c-0.1-1.5-0.4-3.4,0.1-4.9c0.7-2.4,2.8-4,5.8-4.7c1-0.2,1.9-0.4,2.8-0.6V33c0-0.9-0.2-2.1-0.4-3.3c-0.2-1.4-0.4-2.9-0.4-4.3
			c0-3.1,1-5.4,3-7c2.2-1.7,7.1-3.1,11-3.1c1.4,0,2.6,0.2,3.6,0.6c3.6,1.3,4.1,6.8,4.1,10.8c0,1.8-0.1,3.6-0.2,5.1
			c0,0.4,0,0.8-0.1,1.2c1.7,0,3.4,0,5-0.1c0-0.7,0-1.3,0-1.9c0-1.7,0-3.4,0.2-5.1c0.7-7.6,8.1-8.2,12.1-8.5c0.2,0,0.5-0.1,0.8-0.1
			c0.7-0.1,1.3-0.2,1.9-0.2c1.8,0,3.1,0.8,3.9,2.4c0.9,2,0.8,4.7,0.6,6.8c0,0.7-0.1,1.3-0.1,1.8v2.9c1-0.2,2.2-0.5,3.3-0.5
			c0.7,0,1.3,0.1,1.8,0.3c3.8,1.3,3.2,7.2,2.9,9.7c-0.5,4.9-2.7,6.2-6.7,6.9c-0.4,0.1-0.9,0.1-1.3,0.1v6.8c0,0.9,0,1.8,0,2.6
			c0.1,0,0.2,0,0.3-0.1c1-0.2,2.2-0.5,3.2-0.5c0.6,0,1.1,0.1,1.5,0.2c3.9,1.5,3.2,7.5,2.9,9.7c-0.4,4.5-2.1,6.2-6.6,6.9
			c-0.3,0.1-0.8,0.1-1.2,0.1V80c0,5.8-3.7,9.2-10.3,9.5h-1c-2.4,0-5.1-0.2-6.5-1.6c-1.3-1.4-1.4-4.1-1.3-7.4c0-0.7,0-1.4,0-1.8
			c0,0,0-0.1,0-0.1v-3.7c-1.6,0.2-3.2,0.3-5,0.4c0.2,1.9,0.3,3.8,0.3,5.6l0,0.4c0,0.3,0,0.5,0,0.7c0,1.8,0.1,4.3-1.6,6
			c-1.5,1.7-4.3,2.1-6.6,2.4c-0.4,0.1-0.7,0.1-1.1,0.2c-0.5,0.1-1.2,0.2-1.9,0.4C39.7,91.2,38.2,91.6,36.8,91.6z M51.3,49.7
			c-0.1,0.4-0.1,1.3-0.1,1.7c0,0,0,0.1,0,0.2c-0.1,0.8,0,1.5,0,2.3c0,0.4,0,0.9,0,1.3c0,0.3,0,0.6,0,1c0,0.6-0.1,2.1,0.2,2.4
			c0.3,0.3,0.4,0.3,0.6,0.3c0.3,0,0.6-0.1,1-0.2l0.4-0.1c0.2-0.1,0.5-0.1,0.8-0.2c0.5-0.1,1.6-0.4,1.9-0.6c0.2-0.2,0.1-1.2,0-1.6
			c0-0.4-0.1-0.8-0.1-1.2c0-0.5,0-0.9,0-1.4c0-1.3,0-2.7-0.1-4c0-0.1-0.1-0.5-1.6-0.7C53.3,49,51.9,49.3,51.3,49.7z M385.7,86.6
			c-0.5,0-1.1-0.1-1.6-0.2c-2.6-0.4-6.5-2.1-8.5-4.4c-1.5-1.8-1.7-4.9-1.8-7.4c0-0.7-0.1-1.3-0.1-1.9c-0.9-8.8-0.9-13.2-0.8-19.8
			c0-1.9,0-4,0-6.4c0-1.3-0.1-2.7-0.1-4.2c-0.2-3.8-0.4-7.8,0.6-11.3c0.6-2.1,1.9-3.8,3.1-5.5c0.5-0.7,1-1.4,1.5-2.1
			c2.2-3.5,4.6-5.1,9.2-6.5c1.9-0.5,3.4-0.7,4.9-0.7c1.9,0,3.6,0.4,5.3,1.1c2.4,1.2,5.5,3.2,6.1,6.6c0.5,1.9,0.5,3.9,0.5,5.8
			c0,1.5,0,2.9,0.2,4.2c0.4,3.2,0.5,6.4,0.6,9.5c0.1,2.7,0.1,5.5,0.4,8.1l1.3,11.5c0,0.1,0,0.2,0,0.2l0,0.4
			c-0.1,2.7-0.2,5.6-0.5,8.4c0,0.4-0.1,0.7-0.1,1c-0.2,2.4-0.4,4.8-2.7,7c-2.1,1.8-4.7,2.7-7.2,3.5l-1,0.3c-0.7,0.2-1.4,0.5-2.2,0.8
			C390.6,85.7,388.1,86.6,385.7,86.6z M390.9,43.8c-0.6,0.1-1.4,0.4-1.7,0.6c-0.5,0.3-0.5,0.3-0.5,1.2c0,0.2,0,0.5,0,0.8
			c-0.2,5.4,0,7.8,0.2,11.3c0.1,1.9,0.2,4.1,0.3,7.2c0,0.5,0,0.9,0,1.3c0,0.5-0.1,1.3,0,1.7c0.1,0,0.1,0,0.2-0.1
			c0.2-0.1,0.5-0.1,0.9-0.2c0.6-0.2,1.6-0.4,1.9-0.6c0.2-0.2,0.2-0.2,0.1-1.4l0-0.1c-0.2-3.2-0.4-5.2-0.6-6.9
			c-0.3-2.4-0.5-4.5-0.5-9c0-0.2,0-0.5,0-0.8C391.2,46.2,391.1,44.5,390.9,43.8z M240.2,86.5c-2.6,0-4.3-0.6-5.2-1.8
			c-1.2-1.4-1.2-4.2-1.2-7.7c0-0.8,0-1.5,0-2c-0.1-3.3-0.1-4.2,0-5.5c0-0.9,0-2,0-4.1c0-4-0.2-7.9-0.3-11.8
			c-0.2-5.5-0.4-11.2-0.2-16.9c0.1-1.9,0.1-3.8,0.1-5.6c0-1.9,0-3.9,0.1-5.8c0.6-8,7.1-8.7,11-9.1c0.2,0,0.4-0.1,0.7-0.1
			c0.6-0.1,1.2-0.2,1.7-0.2c1.8,0,3.1,0.9,3.9,2.7c0,0,0,0.1,0,0.1c0.7,1.9,0.5,4.5,0.4,6.9c0,0.8-0.1,1.5-0.1,2.2v28
			c0,4.6,0.1,7.6,0.1,10.5c0.1,2.9,0.1,5.8,0.1,10.3c0,6.2-3.5,9.8-9.6,10C241.3,86.4,240.7,86.5,240.2,86.5z"/>
		<path d="M470.8,15.2c0.9,0,1.6,0.3,2.1,1.2c1.2,1.8,1.3,4.6,1.4,6.8c0,1,0.1,3.2,0.1,5.5c0,2.7-0.1,5.4-0.5,6.5
			c-0.9,2.2-3.1,2.6-5.2,3.3c-2.3,0.7-6.2,1.2-8.8,1.4c-2.7,0-3.9,0.4-4,3.3c0,1.3,0,1.5,0.1,2.7c0.1,1,0,1.5,0.4,2.3
			c0.4,0.9,1.5,1.1,2.8,1.1c1.3,0,2.8-0.3,3.7-0.3c2.1-0.4,5.6-1.3,7.8-1.3c0.1,0,0.3,0,0.4,0c2.5,0.4,2.2,4.4,2.3,6.3
			c0.1,1.5,0.1,3.1,0.1,4.8c0.1,1.3,0.4,2.7,0.1,4c-1.3,4.4-9,4.8-12.6,5.4c-3,0.5-3.1,1.6-3.2,4.4c-0.1,3.1-0.1,4,0.3,7
			c0.4,2.4,1.5,3.1,3.8,3.1c0.2,0,0.4,0,0.6,0c2.5,0,5.2-0.5,7.5-1c1.4-0.4,2.6-1.3,3.7-1.3c0.7,0,1.4,0.4,2,1.5
			c1,1.8,0.9,4.5,1.2,6.8c0.3,2.2,0.6,4.6-0.6,6.6c-1.8,3-6.5,4.4-9.5,5.6c-4,1.2-8.1,1.8-12.3,1.8c-2.2-0.1-6.2-0.5-7.4-2.4
			c-0.6-1.2-0.5-2.8-0.6-4.1c-0.1-2.1-0.3-4.1-0.3-6.2c0-5.4-0.4-10.6-0.5-16.1c-0.1-4.1-0.3-8.3-0.3-12.4c0-2.5,0-4.8,0.3-7.2
			c0.3-3.1,0.4-6.5,0.3-9.7c-0.3-5.8-0.6-11.3-1.2-16.9c-0.1-2.1-0.6-4.1,0-6.2c0.5-1.9,2.7-2.3,4.5-2.3c2.6-0.3,5.3-0.4,8-0.9
			c3.2-0.8,6.5-1.3,9.5-2.1C468,15.8,469.5,15.2,470.8,15.2 M364.4,16c2.5,0,4.6,0.6,5.6,3c0.9,2.1,0.4,8.5,0.4,10.8
			c0,3.7,0.1,7.5,0,11.2c-0.4,6.7-0.6,13.5-1,20.4c-0.3,4.8-5,7.2-8.5,10.4c1.7,0.9,4,1.3,5.9,2.3c1.9,0.9,4.1,1.9,5,3.9
			c1.4,2.8,0.3,5.9,1,9.6c0.3,1.7,1.8,2,3.4,2c0.8,0,1.6-0.1,2.4-0.1c6.1,0,8.8-1,14.8-1.6c3-0.3,3-0.5,5.9-0.6
			c0.4,0,0.8-0.1,1.2-0.1c1,0,1.7,0.3,2,1.6c0.4,1,0.4,2.7,0.4,3.9c0,3.3-0.8,8.1-3.9,8.4c-3,0.3-3.2,0.1-6.2,0.4
			c-12.3,0.9-19.9,3-19.9,3c-2.4,0.2-4.8,0.7-7,0.7c-1.6,0-3.1-0.3-4.5-1.2c-2.5-1.8-5.9-4.3-6.1-7.9c-0.1-1.9,0-3.9,0.4-5.9
			c0-4.6,0.1-3.1,0.1-5.9c0-3.2-0.8-7-4.6-7c-0.2,0-0.5,0-0.7,0c-0.6,3.2-0.3,6.8-0.3,10.2c0,3.1,0,3.2,0,6.3c0,1.8,0.5,5.6-1.3,6.6
			c-0.8,0.5-2.6,0.3-3.5,0.5c-1.3,0.1-2.7,0.5-4,0.8c-0.5,0.1-1.2,0.2-2,0.2c-1.4,0-2.8-0.2-3.6-0.8c-1.3-1-0.8-3.9-0.8-5.4
			c0-9.3,0.3-15.5,0.3-24.8c0-6.4-0.4-12.9-0.4-19.5s0.5-13.5-0.3-20c-0.3-2.6-0.1-3.9-0.4-6.3c-0.3-2.8,1.7-4,4.5-4.3
			c2.7-0.3,5.3-1.9,7.9-2.2c3-0.5,6.3-1.9,9.3-1.9C358.8,16.6,361.8,16,364.4,16 M349.6,61.5c1.5,0,4.2-1,4.9-1.8
			c1-1.4,0.4-4.5,0.5-6.1c0.1-2.3,0-4.6,0.1-6.8c0.1-2.1,0.1-4.1,0-6.2c-0.1-1-0.2-1.5-1.2-1.5c-0.2,0-0.4,0-0.7,0.1
			c-0.9,0.1-2.6,0.3-3.5,0.8c-1.7,0.9-1.2,3.7-1.2,5.3c0,1.7,0.1,3.6,0,5.3c-0.3,1.5-0.6,9.7,0,10.6
			C348.7,61.4,349.1,61.5,349.6,61.5 M219,16.6c0.5,0,1,0.1,1.6,0.2c2.2,0.3,7.4,0.9,8.6,2.7c0.9,1.4-0.6,3.4-1,4.8
			c-0.5,1.5-0.9,3.2-1.6,4.9c-2.2,6.2-4.6,16.5-6.3,23c-0.9,3.6-1.4,8.4,0.5,9.4c1.5,0.4,2.1,0.4,2.7,0.4c0.1,0,0.2,0,0.2,0
			c0.6,0,1.3,0,3,0.6c3.9,1.2,3.2,4.1,3.4,7.2c0.3,5.7-1.3,11.5-0.1,17.4c0.3,2.6,2.2,3,4.4,3c0.4,0,0.9,0,1.4,0l8.1-0.8
			c1-0.2,1.8-0.4,2.4-0.4c2.1,0,2.7,1.3,2.7,4c0,2.6,1.2,8.8-2.1,9.8c-3.5,1.2-4,0.8-7.7,1.2l-9,0.9c-2.4,0.2-4.1,0.5-6,0.5
			c-1,0-2.1-0.1-3.4-0.4c-3.4-0.7-8.4-4.6-8.6-7.2c-0.8-3.6-0.1-8-0.1-12.4c0-5-0.5-6.4-1.7-6.4c-1,0-2.4,0.9-4.4,1.8
			c-3.2,1.2-2.4,3.3-2.2,6.1c0.1,3.2,0.9,3.3,1,6.6c0.1,2.4,0.9,4.1-1.2,5.8c-1.9,1.6-5.1,2.3-8,2.3c-0.7,0-1.3,0-1.9-0.1
			c-4.6-0.4-2.7-4.4-2.8-7.3c-0.6-10.2-0.6-18.7-0.5-29c0-9.8-0.6-19.6-0.6-29.4c0-3.3,0.3-6.8,0-10.3c-0.3-3.7,1.7-4.3,5.8-5.3
			c1.4-0.4,3.6-1.1,5.3-1.1c1.3,0,2.4,0.4,2.8,1.6c0.9,2.6,0.3,6.2,0.3,8.9c0,3.1-0.3,6.2-0.3,9.4c0,2.7-1.2,17.3-0.1,19.7
			c0.2,0.6,0.5,0.8,0.8,0.8c2.9,0,8.1-27.3,8.4-28.9c0.8-3.2,1.7-6.3,2.4-9.4C215.9,18.3,216.5,16.6,219,16.6 M275.4,16.6
			c3.2,0,6.5,0.9,9.5,1.9c5.5,1.5,6.3,3.6,6.8,9.2c0.4,4.8,0.8,9.8,0.8,14.8c0,2.2-0.1,4.4-0.3,6.3c-0.4,4.1-0.6,8.5-0.6,12.8
			c0,2.1,0,4.1,0.1,6.1c0.1,1.8,0.3,3.6,0.3,5.4c0,2.1-0.3,4-1,6.2c-1.8,4.8-5.8,9.2-9.4,12.9c-2.7,3-5.7,6.6-9,9.2
			c-1.5,1.2-3.7,1.7-5.9,1.7c-1.9,0-3.9-0.4-5.4-0.9c-4.5-1.8-3.4-6.8-3.7-10.8c-0.3-2.3-0.4-4.8-0.4-7.2c0-3,0.1-6.1,0.1-9.2
			c0-2.6,0-5.2-0.4-7.7c-0.4-3.1-0.5-6.2-0.6-9.2c-0.3-4.9-0.3-9.7-0.3-14.5c0-3.9,0.1-7.9-0.5-11.6c-0.3-1.9-0.5-4.3,0.3-5.9
			c1-2.2,3.4-3,5.6-4.1c3.2-1.8,6.3-3.4,9.8-4.6C272.4,16.9,274,16.6,275.4,16.6 M271.2,77.4c1.1,0,2.4-0.5,2.8-0.9
			c3-2.6,4.3-4.4,4.3-6.1c0-6.8-0.3-12.6-0.6-19.6c-0.1-1.7,0-3.6,0-5.4c0-1,0.4-2.6-0.3-3.3c-0.3-0.4-0.8-0.5-1.5-0.5
			c-2.5,0-6.7,2.3-7,3.6c-0.3,1.4-0.4,2.8-0.4,4.3c0,3.3,0.5,6.6,0.4,9.9c-0.3,4.5,0.3,9.3,0.5,13.8c0,1-0.3,2.6,0.1,3.5
			C269.8,77.2,270.5,77.4,271.2,77.4 M43.8,16.8c1.2,0,2.2,0.1,3,0.5c2.6,0.9,3.1,5.3,3.1,9.4c0,3.1-0.3,6.2-0.3,7.9
			c2.7,0,5.4,0,8-0.1c0.1-2.8,0-5.5,0.3-8.4c0.5-5.8,5.5-6.7,10.7-7.1c1-0.1,1.9-0.2,2.6-0.2c1.1,0,1.9,0.3,2.6,1.5
			c1,2.2,0.4,5.8,0.4,8c0,1.5,0,3.2,0,4.8c1.3-0.2,3.2-0.8,4.8-0.8c0.5,0,0.9,0.1,1.3,0.2c2.6,0.9,2.2,5.7,1.9,8.1
			c-0.4,3.9-1.8,4.9-5.4,5.5c-0.8,0.1-1.7,0.1-2.6,0.3c0,2.7,0,5.4,0,8.1c0,1.4,0,3,0.1,4.4c1.3-0.1,3.4-0.8,4.9-0.8
			c0.4,0,0.7,0,1,0.1c2.6,1,2.2,5.8,1.9,8.1c-0.4,4-1.7,5-5.3,5.6c-0.8,0.1-1.7,0.1-2.4,0.3c0,2.6,0,5.3,0,7.9c0,5.4-3.5,7.7-8.9,8
			c-0.3,0-0.6,0-1,0c-1.8,0-4.4-0.1-5.5-1.2c-1.3-1.4-0.8-6.3-0.9-8.3c0-1.8,0-3.6,0-5.3c-0.4,0-0.7,0-1,0c-2.3,0.3-4.6,0.4-7.1,0.5
			c0.3,2.4,0.4,5,0.5,7.5c0,1.7,0.3,4.1-1.2,5.6c-1.4,1.6-4.6,1.8-6.8,2.2c-1.5,0.2-3.9,1.1-5.9,1.1c-0.6,0-1.1-0.1-1.6-0.3
			c-1.9-1-1.9-4-2.2-5.7c-0.5-2.7-0.7-5.6-0.8-8.3c-0.3,0-0.6,0.1-1,0.1c-1.2,0.2-2,0.5-2.7,0.5c-0.9,0-1.6-0.4-2.4-1.7
			c-0.9-1.3-1.2-1.8-1.3-3.6c0-1.3-0.3-3.2,0.1-4.5c0.5-2.3,2.7-3.2,4.5-3.6c1.2-0.3,2.2-0.5,3.4-0.8C32.9,60.2,33,58,33,56
			s-0.1-4.1-0.4-6.3c-0.9,0.3-1.8,0.3-2.6,0.5c-1.2,0.2-2.1,0.5-2.9,0.5c-0.9,0-1.7-0.4-2.5-1.7c-0.9-1.4-1.2-1.8-1.2-3.6
			c-0.1-1.3-0.4-3.3,0-4.6c0.6-2.2,2.7-3.2,4.6-3.6c1.3-0.3,2.6-0.5,4-0.9c0-1,0-2.1,0-3.2c0-2.2-0.8-5-0.8-7.6
			c0-2.2,0.5-4.3,2.5-5.8C35.6,18.1,40.2,16.8,43.8,16.8 M52,60.3c0.5,0,1.1-0.2,1.8-0.3c0.9-0.3,2.7-0.5,3.3-1.2
			c1-0.9,0.4-2.7,0.4-3.9c0-1.8,0.1-3.7-0.1-5.5c-0.3-1.4-1.7-1.8-3-1.9c-1.2,0-3.3,0.4-4.3,1.3c-0.4,0.6-0.4,1.8-0.4,2.6
			c-0.1,1.3,0,2.5,0,3.7s-0.4,3.6,0.6,4.5C50.9,60.1,51.4,60.3,52,60.3 M246.9,17.3c1.1,0,1.9,0.4,2.5,1.8c0.8,2.2,0.3,6.1,0.3,8.5
			c0,9.3,0,18.7,0,28c0,9.2,0.3,11.9,0.3,20.8c0,5.8-3.2,8.4-8.1,8.5c-0.4,0-1,0.1-1.6,0.1c-1.5,0-3.3-0.2-4-1.2
			c-1.3-1.6-0.8-6.8-0.9-8.9c-0.1-5.4,0-4.1,0-9.6c0-9.7-0.9-19-0.5-28.6c0.3-3.7,0-7.6,0.3-11.4c0.5-6.3,5-7.2,9.7-7.7
			C245.5,17.4,246.3,17.3,246.9,17.3 M392.1,17.8c1.6,0,3.1,0.3,4.7,1c2.5,1.3,4.8,3,5.3,5.5c0.8,3.2,0.1,6.7,0.6,9.9
			c0.8,5.8,0.4,11.7,1,17.5l1.3,11.5c-0.1,2.8-0.3,5.8-0.5,8.6c-0.3,2.7-0.1,5-2.3,7.1c-2.1,1.8-4.9,2.6-7.6,3.5
			c-2.7,0.9-6,2.6-8.9,2.6c-0.4,0-0.9,0-1.3-0.1c-2.5-0.4-5.9-1.9-7.6-3.9c-1.5-1.8-1.3-6.2-1.5-8.5c-1.2-11.1-0.8-15-0.8-26.1
			c0-4.8-0.9-10.5,0.4-15.1c0.8-2.7,2.8-4.8,4.4-7.2c2.1-3.2,4.3-4.6,8.4-5.8C389.1,18.1,390.6,17.8,392.1,17.8 M388.9,69.4
			c0.2,0,0.5,0,0.8-0.1c0.9-0.3,2.5-0.5,3.2-1c1-0.8,0.9-1.7,0.8-3c-0.4-7.6-1-8.1-1-15.7c0-1.7,0.3-6.7-1-7.2
			c-0.1,0-0.2-0.1-0.4-0.1c-0.8,0-2.3,0.5-2.8,0.8c-1.4,0.8-1.2,1.7-1.3,3.2c-0.3,8.6,0.3,10.1,0.5,18.6
			C387.6,66.8,387,69.4,388.9,69.4 M182.3,18.1c1.2,0,2.3,0.3,3,1.5c0.8,1.3,0.8,3.6,0.9,5.2c0.4,3.5,0.9,10.6-3.1,11.9
			c-3,0.9-3,0.5-6.3,1c-1,0.1-1.2,1.5-1.4,4.5c-0.1,2.7-0.3,5.9-0.3,7.7c0,15.7,0.8,26.1,0.6,41.8c0,2.1,1.2,5.8-0.5,7.6
			c-1.8,2.1-5.6,2.4-8.3,2.8c-1,0.1-1.9,0.2-2.7,0.2c-2.6,0-3.6-1.1-3.7-5.1c-0.5-11.3,0.3-23,0.3-34.5c0-6.6-0.6-9.7-0.3-16.4
			c0.1-3.8,0.2-9.8-2.9-9.8c-0.1,0-0.1,0-0.2,0c-2.4,0.3-16.5,2.7-25.3,2.7c-3.9,0-6.7-0.5-7-1.8c-0.6-2.5-1.4-12.9,0.9-14.8
			c1.6-1.3,27.2-3.6,28.9-3.7c2.6-0.3,5-0.4,7.5-0.6c1.4-0.1,2.6-0.1,3.7-0.1c3.5,0,5.7,0.4,9.2,0.4c1.1,0,2.3,0,3.7-0.1
			C180.3,18.3,181.3,18.1,182.3,18.1 M524.8,18.2c4.2,0,6.4,0.6,9.3,0.6c0.4,0,0.8,0,1.3,0c1.1-0.1,2.4-0.2,3.7-0.2
			c1.5,0,2.8,0.3,3.5,1.4c0.9,1.3,0.9,3.7,1,5.3c0.4,3.5,0.8,10.1-3.1,11.2c-3,1-3.5,0.6-7,1c-1,0.1-1.2,1.5-1.3,4.6
			c-0.3,2.7-0.3,5.9-0.3,7.7c0,15.9,0.7,26.7,0.7,42.6c0,2.1,1.2,5.9-0.5,7.7c-1.9,2.1-6.1,2.4-8.8,2.7c-1.1,0.2-2,0.3-2.7,0.3
			c-2.5,0-3.4-1.2-3.6-5.2c-0.4-11.5,0.3-23.1,0.3-34.7c0-6.7-0.5-10.2-0.3-16.9c0.2-3.8,0.1-11.4-2.9-11.4c-0.1,0-0.2,0-0.2,0
			c-2.5,0.3-16.6,2.5-25.7,2.5c-4.2,0-7.3-0.5-7.7-1.8c-0.5-2.6-0.6-11.6,1.7-13.7c1.5-1.2,28.2-3.2,30.1-3.4c2.5-0.3,6.5,0,8.9-0.3
			C522.5,18.2,523.7,18.2,524.8,18.2 M114.1,18.3c0.8,0,1.6,0.2,2.2,0.6c1.4,0.9,1.7,2.8,1.7,4.8c0,1.8-0.3,3.6-0.3,4.9
			c0,2.7,0.3,9.4-1.2,11.6c-1.6,2.6-7,2.5-9.8,2.8c-2.1,0.3-6.4-0.1-7.5,1.8c-0.8,1.5-1,6.1,0.1,7.3c0.4,0.5,1.1,0.7,1.9,0.7
			c2.6,0,6.7-1.9,8.6-2.2c1-0.1,1.8-0.2,2.5-0.2c2.2,0,3,0.9,3.5,4.3c0.3,1.8,0.7,5.4,0.7,8.4c0,1.6-0.1,2.8-0.4,3.7
			c-1.2,2.8-6.1,2.3-8.8,2.4c-1.7,0-3.9,1.2-4.6,2.7c-0.5,1.2,0,4.1,0,5.4c0.3,4,0.7,6.1,0.9,9.9c0.1,1.8,0,3.6,0.3,5.3
			c0.1,1.6,0.5,3.1,0.1,4.6c-0.8,2.8-4.8,4.3-7.6,4.5c-1.1,0.1-2.3,0.5-3.3,0.5c-0.5,0-1-0.1-1.4-0.3c-1.7-1-1.6-2.1-1.6-4.4
			c-0.3-5.4-0.4-12.4-0.5-17.8c-0.3-8.5-1.7-17.3-1.7-25.9c0-2.1,0-4.3,0.3-6.3c0.1-1.4,0.1-2.8,0.1-4.3c0-2.8-0.1-5.7-0.1-8.4
			c0-3.2-1.2-7-0.4-10.2c0.6-2.5,2.5-2.9,4.7-2.9c1,0,2.2,0.1,3.2,0.1c3.9,0,8.1-0.6,11.9-1.8C109.3,19.6,111.9,18.3,114.1,18.3
			 M434.2,18.4c1.5,0,2.9,0.3,3.5,1.1c0.8,1.2,0.3,4.9,0.3,6.3c0,3.5-0.4,6.8-0.3,10.3c0.3,6.8,0.4,6.6,0.6,13.4
			c0.4,12.1,0.3,15.7,0.5,28c0.1,3.7,0.3,7.3,0.3,10.6c0,7.7-0.9,13.4-6.4,13.4c-0.6,0-1.4-0.1-2.1-0.2c-3.7-0.8-9.7-2.4-13.9-4.6
			c-5-2.7-8.4-5.9-8.4-11.3c0-3.1,1-6.3,2.8-8.4c0.9-0.9,1.7-1.8,2.8-2.3c0.3-0.1,0.6-0.2,0.9-0.2c2.4,0,5.1,3,7,3
			c1.3,0,2.1-1.4,2.1-6.3c0-2.7-0.3-5.8-0.4-7.6c-0.5-5.8-0.8-6.5-0.8-9.5c0-1.4,0-3.1,0.1-6.1c0.1-9-1-10.7-1-19.9
			c0-2.1-0.5-4.3,0.4-5.7c0.9-1.5,4.9-2.7,6.5-3.1C429.7,18.9,432.1,18.4,434.2,18.4 M315.6,19.2c1.7,0,3.2,0.3,5.1,0.5
			c2.2,0.3,5.2,0.3,7.2,1.4c2.6,1.4,2.6,5.9,2.7,8.4c0.1,1.9,0.1,4,0.1,5.9c0,5.7-0.4,11.4-0.5,17c-0.1,4-0.3,8.1-0.6,12.3
			c-0.1,1.9-1,4.5-2.6,5.9c-2.1,1.7-5.8,2.2-8.4,2.8c-2.1,0.5-5.2,0.8-5.7,3.1c-0.4,1.4-0.4,3-0.4,4.5c0,1.9,0.1,3.7,0,5.6
			c-0.1,2.4,0,4.9,0.1,7.2c0.1,2.4-1,3.3-3.2,4.3c-1.5,0.7-3.9,1.2-5.8,1.2c-0.4,0-0.7,0-1-0.1c-2.5-0.5-1.9-4.8-2.2-6.8
			c-0.8-8.6-0.6-17.3-1-26.1c-0.5-9-1.2-18.1-1.3-27.1c-0.1-3.7-0.8-7.3-1-11c-0.4-2.7,1.7-4.3,4.1-5.5c3.9-1.9,8-2.8,12.1-3.5
			C314.2,19.2,314.9,19.2,315.6,19.2 M312.3,60.2c0.8,0,1.8-0.3,2.7-0.6c3.4-0.8,2.5-4.4,2.5-6.5c0-2.5,0.1-4.8-0.1-7.1
			c-0.1-1.3-0.8-1.7-1.7-1.7c-0.7,0-1.6,0.2-2.7,0.5c-2.5,0.8-2.5,1.7-2.3,3.6c0.1,1.9,0.1,3.9,0.1,5.8c0,1.7-0.3,3.3,0.3,5
			C311.2,60,311.7,60.2,312.3,60.2 M501.1,41.7c3.3,0,6.1,0.9,7.1,3.7c0.9,2.5,0.5,5.5,0.6,8.1c0.1,2.3,0.3,5.8,0.6,8.1
			c0.4,1.5,1.2,4.3-0.5,5.5c-1.3,1-4.4,1.3-6.1,1.7c-0.5,0.1-1,0.1-1.5,0.1c-1.6,0-2.8-0.6-2.8-2.1c0-1.7,0-4.9-0.5-6.6
			c-0.1-0.5-0.6-0.7-1.3-0.7c-1.1,0-2.7,0.5-3.9,0.8c-2.3,0.7-1.5,2.6-1.7,4.1c-0.4,2.4-0.6,4.9-0.4,7.3c0.5,4.8,0.5,10.8,0.9,15.7
			c0,0.8-0.3,1.8,0.6,2.3c0.2,0.1,0.5,0.1,0.9,0.1c0.9,0,2.1-0.2,2.6-0.4c2.6-0.8,2.7-0.9,2.8-2.6c0.1-1.8,0.3-5.3,0.1-7.1
			c0-0.9-0.4-2.1-0.1-3c0.4-1,1.2-1,2.5-1.2c1.6-0.2,3.5-0.6,5.3-0.6c0.5,0,1,0,1.5,0.1c2.5,0.5,2.2,2.4,2.2,4
			c0.1,4.9-0.1,9.8,0.1,14.7c0.1,1.6,0.9,3.7-0.6,4.9c-1.7,1.2-5.3,3.2-7.5,3.7c-2.8,0.8-4.4,1.6-7.2,2.1c-0.7,0.2-1.3,0.2-1.9,0.2
			c-1.4,0-2.6-0.4-5.6-0.9c-0.4-0.3-3.5-0.9-3.9-1c-1.9-0.8-2.7-2.7-3-4.3c-0.5-2.7-0.4-5.4-0.4-8.1c0-8.6-0.8-17.3-1.2-25.9
			c-0.1-3.2-0.1-8,0.3-11.2c0.3-2.2,0.8-4.4,2.8-6.2c3.2-2.8,9.8-4.6,14.6-5.4C498.3,41.8,499.8,41.7,501.1,41.7 M146,42.9
			c0.9,0,1.7,0.2,2.4,0.8c1.2,1,1.6,2.7,1.8,4.1c0.8,4.9,1.2,6.6,1.6,11.6c0.1,3.9,1.7,7.3,1.7,11.2c0,7.2-0.3,14.6-0.1,21.7
			c0,2.4,0,4.9,0,7.3c0.1,0.8,0.5,1.7,0.1,2.3c-0.3,0.9-0.9,1-1.7,1.4c-2.7,1.2-4.9,1.4-7.7,1.7c-1.7,0-2.8-0.8-3-2.4
			c-0.1-1.6-0.1-3.2-0.1-4.9c0-1.7,0.3-3.3,0-5c0-0.9,0.3-3.7-0.5-4.3c-0.2-0.1-0.5-0.2-0.8-0.2c-1.2,0-2.7,0.6-3.4,0.8
			c-1.9,0.6-1.7,2.3-1.7,4.1c0,1.9,0,3.9,0,5.8c0,4.1-7.9,4.6-10.7,4.6c-0.7,0-1.8-0.3-2.3-0.5c-0.7-0.4-0.7-1.7-0.7-2.3
			c-0.1-3.1,0.1-8,0.1-11.2c-0.1-3.5-0.4-7-0.4-10.4c0-1-0.1-2.2,0-3.1c0.3-0.9,0.7-1.9,0.9-2.8c1.9-5.4,2.2-9,3.7-14.6
			c0.9-2.8,0.9-3.3,1.4-6.2c0.3-1.4,0.4-3.5,1.2-4.6c1.2-1.7,7.5-3,9.4-3.3c2.2-0.6,4.4-1.2,6.7-1.4C144.6,43,145.3,42.9,146,42.9
			 M136.5,76.2c0.9,0,2.6-0.4,3.1-0.7c0.9-0.5,1-1.4,0.9-2.3c-0.1-2.1-0.3-4-0.3-6.1c-0.1-0.9-0.3-1.8-0.4-2.7
			c0-0.7,0.1-1.3-0.3-1.8c-0.2-0.3-0.5-0.4-0.9-0.4c-0.9,0-2.2,0.6-2.8,1c-1,0.8-0.8,2.2-0.7,3.4c0.1,1.6,0,3.1,0,4.6
			c0.1,1.2,0.1,2.4,0.1,3.7c0,0.4,0,0.9,0.5,1.2C136.1,76.2,136.3,76.2,136.5,76.2 M470.8,12.2L470.8,12.2c-1.3,0-2.6,0.4-3.7,0.7
			c-0.4,0.1-0.8,0.2-1.1,0.3c-1.6,0.4-3.2,0.7-4.9,1.1c-1.5,0.3-3.1,0.6-4.6,1c-1.8,0.3-3.7,0.5-5.5,0.7c-0.7,0.1-1.3,0.1-2,0.2
			c-5.2,0-6.8,2.8-7.2,4.5c-0.6,2.1-0.4,4.1-0.2,5.8c0,0.5,0.1,1,0.1,1.4c0,0,0,0.1,0,0.1c0.5,5.6,0.9,11.1,1.1,16.8
			c0.1,2.8,0,5.9-0.2,9.3c-0.3,2.6-0.3,5-0.3,7.5c0,4.2,0.1,8.4,0.3,12.5c0,2.3,0.1,4.5,0.2,6.7c0.1,3.2,0.3,6.2,0.3,9.3
			c0,2.2,0.1,4.3,0.3,6.4c0,0,0,0.1,0,0.1c0,0.3,0,0.6,0,0.9c0.1,1.3,0.1,2.9,1,4.4c0,0,0,0.1,0,0.1c1.8,3.1,6.2,3.7,9.8,3.9
			c0.1,0,0.1,0,0.2,0c4.3,0,8.7-0.7,13.1-1.9c0.1,0,0.1-0.1,0.2-0.1c0.3-0.1,0.7-0.2,1-0.4c2.9-1,6.6-2.4,9-5c0,0.4,0.1,0.8,0.2,1.2
			c0.5,3.1,2.3,5.5,4.8,6.5c0,0,0.1,0,0.2,0.1c0.2,0.1,0.6,0.2,1.3,0.3c0.5,0.1,1.8,0.4,2.2,0.6c0.3,0.1,0.6,0.2,0.9,0.3
			c1.1,0.2,2,0.3,2.8,0.5c1.2,0.2,2.2,0.4,3.3,0.4c0.8,0,1.5-0.1,2.4-0.3c1.9-0.4,3.4-0.8,4.8-1.3c0.8-0.3,1.6-0.6,2.6-0.8
			c2.7-0.7,6.6-2.9,8.5-4.2c0,0,0.1,0,0.1-0.1c2.7-2,2.2-5.1,1.9-6.8c0-0.3-0.1-0.6-0.1-0.8c-0.1-2.7-0.1-5.5-0.1-8.2
			c0-2.1,0-4.2,0-6.4c0-0.1,0-0.2,0-0.3c0-1.4,0.1-5.6-4.6-6.6c0,0-0.1,0-0.1,0c-0.6-0.1-1.3-0.2-2-0.2c-1.5,0-3,0.2-4.3,0.4
			c-0.5,0.1-1,0.2-1.4,0.2l-0.2,0c-1.3,0.1-3.7,0.3-4.7,3.1c0,0.1,0,0.2-0.1,0.2c-0.3,1.2-0.2,2.3-0.1,3.2c0,0.2,0.1,0.5,0.1,0.7
			c0,0.1,0,0.1,0,0.2c0.1,1.5,0,4.5-0.1,6.4c-0.3,0.1-0.6,0.2-0.7,0.2c0,0-0.1,0-0.1,0c0,0-0.1,0-0.2,0.1c-0.1-1.9-0.2-4-0.3-6.2
			c-0.1-3.1-0.3-6.3-0.6-9.1c-0.2-2.2,0-4.6,0.4-6.6c0-0.1,0-0.2,0-0.2c0-0.5,0-1,0-1.5c0,0,0-0.1,0-0.2c0.1,0,0.2-0.1,0.3-0.1
			c0.3-0.1,0.6-0.2,1-0.3c0.1,1.4,0.1,3.2,0.1,4c0,2.5,1.8,5.1,5.8,5.1c0.6,0,1.3-0.1,2-0.2c0.1,0,0.1,0,0.2,0
			c0.4-0.1,0.8-0.2,1.4-0.3c2-0.3,4.3-0.8,5.9-2c3.1-2.4,2.1-6.6,1.6-8.4l0-0.1c-0.3-1.8-0.4-4.4-0.5-6.5l-0.1-1.2
			c0-0.6,0-1.4,0-2.1c0-2.2,0-4.6-0.8-6.9c-0.7-2-2.3-4.3-6-5.2c2.6-0.3,5-0.6,6.7-0.9c0.7-0.1,1.3-0.2,1.7-0.2
			c0.4,1.2,0.8,4.2,0.6,8.1c0,0,0,0.1,0,0.1c-0.1,4,0,6.9,0.1,10c0.1,2.1,0.2,4.3,0.2,7c0,4.4-0.1,9-0.2,13.4
			c-0.1,7-0.3,14.3-0.1,21.5c0.1,2.2,0.4,8.1,6.6,8.1c0.8,0,1.8-0.1,3.1-0.3c3.2-0.3,7.9-0.8,10.6-3.6c2.2-2.4,1.8-5.7,1.5-8.2
			c-0.1-0.6-0.2-1.2-0.2-1.6c0-8-0.2-14.8-0.3-21.4c-0.2-6.6-0.3-13.3-0.3-21.2c0-1.7,0-4.9,0.2-7.5c0,0,0-0.1,0-0.2
			c0-0.5,0-1.3,0.1-1.9c0.3,0,0.7,0,1-0.1c1.5-0.1,2.7-0.2,5.1-1c4.3-1.3,6.1-6.2,5.2-14.4c0-0.2,0-0.5,0-0.7
			c-0.1-1.9-0.3-4.1-1.4-5.9c-1.1-1.9-3.1-2.8-6-2.8c-0.9,0-1.8,0.1-2.6,0.1c-0.4,0-0.8,0.1-1.2,0.1c-0.4,0-0.8,0-1.1,0
			c-1.2,0-2.2-0.1-3.5-0.2c-1.6-0.2-3.4-0.3-5.8-0.3l0,0c-1.2,0-2.5,0.1-3.9,0.1c0,0-0.1,0-0.1,0c-1.1,0.1-2.6,0.1-4.1,0.1
			c-1.6,0-3.3,0-4.7,0.1c-1.2,0.1-8.1,0.6-15.1,1.3c-14.8,1.4-15.6,2-16.5,2.6c-0.1,0-0.1,0.1-0.2,0.2c-1.6,1.5-2.4,4.2-2.8,7.1
			c0-0.7,0-1.4-0.1-1.9c0-0.7,0-1.2,0-1.6c0-0.1,0-0.1,0-0.2l0-0.2c-0.1-2.5-0.3-5.6-1.8-8C474.5,13.1,472.9,12.2,470.8,12.2
			L470.8,12.2z M459,43c0.2,0,0.5,0,1,0c0.1,0,0.2,0,0.3,0c1.4-0.1,6.2-0.7,9.3-1.5c0.1,0,0.2,0,0.2-0.1c0.3-0.1,0.6-0.2,0.9-0.3
			c2-0.7,4.7-1.6,6-4.7c0,0,0-0.1,0-0.1c0.1-0.3,0.4-1,0.5-2.8c0.1,1.4,0.2,2.4,0.3,2.8c0,0.1,0,0.1,0,0.2c1,3.5,5.6,4,10.6,4
			c0.8,0,1.6,0,2.4,0c-3.5,1-7.6,2.5-10.2,4.8c-2.8,2.5-3.5,5.5-3.8,8.1c0,0.2-0.1,0.5-0.1,0.8c0,0,0-0.1,0-0.1c0-0.2,0-0.5,0-0.8
			c-0.1-2.3-0.3-7.5-4.8-8.3c-0.1,0-0.2,0-0.3,0c-0.2,0-0.4,0-0.6,0c-1.8,0-4.2,0.5-6.3,1c-0.7,0.2-1.3,0.3-1.9,0.4
			c-0.3,0-0.6,0.1-1,0.1c-0.7,0.1-1.6,0.2-2.3,0.2c0,0-0.1,0-0.1,0c0-0.2,0-0.5-0.1-0.8c-0.1-0.9-0.1-1.1-0.1-2.3
			C459,43.3,459,43.1,459,43L459,43z M460.9,71.5c0.1,0,0.4-0.1,0.6-0.1c0.5-0.1,1.1-0.2,1.8-0.3c4.4-0.6,10.8-1.6,12.9-6.3
			c0,0.1,0,0.2,0,0.3c0.1,2.9,0.3,5.9,0.5,8.7c0.1,1.7,0.2,3.4,0.3,5.1c-1.1-1.1-2.4-1.3-3.3-1.3c-1.3,0-2.5,0.5-3.4,1
			c-0.4,0.2-0.8,0.3-1.1,0.5c-2,0.4-4.5,0.9-6.7,0.9c0,0-0.1,0-0.1,0c-0.2,0-0.3,0-0.5,0c-0.4,0-0.6,0-0.7-0.1
			c0-0.1-0.1-0.3-0.1-0.5c-0.4-2.7-0.4-3.4-0.2-6.4C460.8,72.5,460.8,71.9,460.9,71.5L460.9,71.5z M364.4,13c-1.5,0-3,0.2-4.5,0.4
			c-1.3,0.2-2.6,0.3-3.6,0.3c-2.2,0-4.5,0.6-6.6,1.2c-1.1,0.3-2.2,0.6-3.1,0.8c-1.6,0.2-3,0.7-4.4,1.2c-1.2,0.4-2.3,0.9-3.3,1
			c-3.9,0.4-5.7,2-6.6,3.7c-0.6-1.2-1.5-2.3-2.8-3c-2.2-1.2-4.8-1.5-7-1.6c-0.5,0-0.9-0.1-1.3-0.1l-0.9-0.1c-1.6-0.2-3-0.5-4.7-0.5
			c-0.9,0-1.8,0.1-2.6,0.2c-4,0.6-8.6,1.5-13,3.8c0,0,0,0-0.1,0c-1.3,0.7-4.3,2.3-5.4,5.3c-0.8-5.2-2.6-8-8.7-9.7
			c-3.2-1.1-6.7-2.1-10.4-2.1c-2,0-3.9,0.4-5.2,0.8c-0.1,0-0.2,0.1-0.2,0.1c-3.2,1.2-6.4,2.7-10.2,4.8c-0.4,0.2-0.7,0.4-1.1,0.5
			c-2,1-4.5,2.2-5.8,4.9c0,0.1-0.1,0.2-0.1,0.3c0.1-2.4,0.2-4.9-0.5-7c0-0.1-0.1-0.1-0.1-0.2c-1-2.3-2.9-3.6-5.3-3.6
			c-0.7,0-1.3,0.1-1.9,0.2c-0.2,0-0.4,0.1-0.6,0.1C240.6,15,232.8,15.8,232,25c-0.1,2-0.1,4-0.1,5.9c0,1.9,0,3.7-0.1,5.5
			c0,0,0,0.1,0,0.1c-0.2,5.8,0,11.5,0.2,17c0.1,3.1,0.2,6.4,0.3,9.6c-0.8-1.4-2.1-2.7-4.4-3.4c-1.8-0.6-2.8-0.8-3.9-0.8h-0.1h-0.1
			c-0.2,0-0.5,0-1-0.1c-0.2-1-0.1-3.2,0.6-6c0.3-1.3,0.7-2.8,1.1-4.4c1.5-6,3.4-13.4,5.1-18.2c0.4-1.1,0.7-2.2,1-3.2
			c0.2-0.6,0.4-1.2,0.5-1.8c0,0,0-0.1,0.1-0.2c0.1-0.2,0.2-0.6,0.4-0.9c0.7-1.5,1.8-3.9,0.3-6.3c0,0-0.1-0.1-0.1-0.1
			c-1.8-2.6-6.2-3.4-10.6-3.9c-0.8-0.1-1.4-0.2-2.1-0.2c-5.1,0-6.1,4.2-6.7,6.7c-0.3,1.3-0.7,2.6-1.1,4c-0.5,1.8-0.9,3.5-1.4,5.4
			c0,0,0,0,0,0.1c0,0.1-0.1,0.5-0.2,1c-1.2,6.3-2.3,11-3.2,14.7c0-0.9,0.1-1.8,0.1-2.4c0.1-2,0.2-3.4,0.2-4.2c0-1.6,0.1-3.2,0.1-4.7
			c0.1-1.5,0.1-3.1,0.1-4.7c0-0.7,0.1-1.5,0.1-2.3c0.1-2.4,0.3-5.2-0.5-7.6c-0.4-1.1-1.7-3.7-5.6-3.7c-1.8,0-3.7,0.5-5.2,1
			c-0.3,0.1-0.6,0.2-0.9,0.3c-2.2,0.6-4.6,1.2-6.2,2.7c-0.2-0.6-0.4-1.2-0.7-1.8c0,0,0,0,0,0c-1.2-1.9-3.1-2.9-5.6-2.9l0,0
			c-0.9,0-1.7,0.1-2.5,0.2c-0.2,0-0.5,0.1-0.8,0.1c-1.2,0.1-2.4,0.1-3.5,0.1c-1.7,0-3-0.1-4.4-0.2c-1.4-0.1-2.9-0.2-4.8-0.2
			c-1.2,0-2.5,0.1-3.9,0.1c0,0-0.1,0-0.1,0c-1.2,0.1-2.5,0.2-3.8,0.3c-1.2,0.1-2.4,0.2-3.7,0.3c-1,0.1-7.8,0.7-14.6,1.4
			c-14.3,1.6-15.1,2.3-16,3c-1.2,1-2.6,3-2.6,9.5c0,3.1,0.3,6.6,0.8,8.4c1,4.1,7,4.1,9.9,4.1c0.3,0,0.5,0,0.8,0
			c-5.4,1.4-7,2.6-7.8,3.8c0,0,0,0,0,0c-1,1.5-1.2,3.3-1.5,4.8c-0.1,0.3-0.1,0.6-0.2,0.9c-0.1,0.5-0.2,1-0.2,1.4
			c-0.3,1.7-0.4,2.3-1.1,4.5c0,0,0,0.1,0,0.1c-0.7,2.3-1.1,4.3-1.5,6.2c-0.6,2.6-1.1,5.1-2.2,8.2c0,0.1,0,0.1-0.1,0.2
			c-0.1,0.4-0.3,0.8-0.4,1.3c-0.2,0.5-0.3,1-0.5,1.6c0,0.1-0.1,0.3-0.1,0.4c-0.1,0.9-0.1,1.8-0.1,2.6c0,0.3,0,0.6,0,0.9
			c0,2.4,0.1,4.8,0.2,7.1c0.1,1.1,0.1,2.2,0.2,3.4c0,1.2,0,2.6-0.1,4.2c-0.1,2.5-0.1,5.1-0.1,7.1c0,1.1,0,3.6,2.1,4.8
			c0.1,0,0.1,0.1,0.2,0.1c0.9,0.5,2.5,0.8,3.7,0.8c8.6,0,13.7-2.9,13.7-7.6v-5.8c0-0.2,0-0.4,0-0.6c0-0.2,0-0.5,0-0.8
			c0,0,0.1,0,0.1,0c0.1,0,0.2-0.1,0.4-0.1c0,0.1,0,0.2,0,0.3c0,0.3,0,0.5,0,0.7c0,0.2,0,0.3,0,0.5c0.1,0.8,0.1,1.8,0,2.8
			c0,0.6-0.1,1.2-0.1,1.8c0,1.7,0,3.5,0.1,5.2c0.2,3.2,2.6,5.2,6,5.2c0.1,0,0.2,0,0.3,0c3.1-0.3,5.6-0.6,8.6-1.9
			c0.1,0,0.1-0.1,0.2-0.1c0.1-0.1,0.2-0.1,0.3-0.1c0.7-0.3,2.2-1,2.8-2.8c0.7-1.4,0.3-2.8,0.1-3.6c0-0.1,0-0.1,0-0.2v-7.1
			c0,0,0,0,0-0.1c-0.1-4.2,0-8.6,0.1-12.9c0-2.9,0.1-5.8,0.1-8.8c0-2.3-0.5-4.4-0.9-6.5c-0.4-1.7-0.7-3.3-0.8-4.8c0,0,0-0.1,0-0.1
			c-0.3-4.1-0.6-6.2-1.1-9.2c-0.1-0.8-0.3-1.6-0.4-2.6c0,0,0,0,0-0.1c-0.2-1.3-0.7-4-2.8-5.8c-0.3-0.2-0.6-0.5-0.9-0.7
			c2.1-0.3,4.1-0.6,5.6-0.8c0.9-0.1,1.6-0.2,2.2-0.3c0.3,0.8,0.5,2.6,0.4,6.6c-0.2,4.1-0.1,7,0.1,9.9c0.1,2,0.2,4,0.2,6.6
			c0,4.3-0.1,8.6-0.2,12.9c-0.2,7.1-0.4,14.5,0,21.7c0.1,2.2,0.2,8,6.7,8c0.8,0,1.7-0.1,3.1-0.3l0.6-0.1c3-0.4,7.1-1,9.5-3.7
			c2.1-2.3,1.7-5.6,1.4-8c-0.1-0.6-0.1-1.2-0.1-1.6c0.1-8.4-0.1-15.4-0.3-22.3c-0.2-6-0.3-12.2-0.3-19.5c0-1.9,0.2-5.5,0.2-7.5
			c0.1-0.6,0.1-1.4,0.2-1.9c0.5,0,0.8-0.1,1.2-0.1c1.3-0.1,2.2-0.2,4.3-0.8c1.2-0.4,2.1-1,2.8-1.8c0,4.2,0.2,8.5,0.3,12.7
			c0.2,4.8,0.3,9.8,0.3,14.6c-0.1,11.1-0.1,19.4,0.5,29.2c0,0.5-0.1,1.1-0.1,1.8c-0.2,1.8-0.5,4.3,1.1,6.3c1,1.2,2.6,2,4.6,2.1
			c0.7,0.1,1.5,0.1,2.2,0.1c1.9,0,6.7-0.3,9.9-3c2.9-2.3,2.6-5.2,2.4-7c-0.1-0.4-0.1-0.8-0.1-1.2c-0.1-1.9-0.4-3-0.6-3.9
			c-0.2-0.8-0.4-1.3-0.4-2.6c0-0.1,0-0.1,0-0.2c0-0.4-0.1-0.8-0.1-1.1c-0.1-0.5-0.2-1.3-0.1-1.6c0.1-0.1,0.2-0.1,0.5-0.2
			c0.1,0,0.1,0,0.2-0.1c0.7-0.3,1.3-0.6,1.8-0.8c0,0.6,0.1,1.5,0.1,2.7c0,1.3-0.1,2.7-0.1,4c-0.1,3-0.3,6.1,0.3,8.9
			c0.6,4.3,7,8.9,11,9.7c1.4,0.3,2.7,0.4,4,0.4c1.3,0,2.4-0.1,3.6-0.3c0.8-0.1,1.6-0.2,2.6-0.2c0,0,0.1,0,0.1,0l9-0.9
			c1.1-0.1,1.9-0.2,2.5-0.2c1.8-0.1,3-0.2,5.9-1.1c4.8-1.5,4.4-7.8,4.2-11.1c0-0.6-0.1-1.2-0.1-1.6c0-4.7-2.1-6.3-4.1-6.8
			c3.1-1.9,4.8-5.3,4.8-9.8c0-4.4-0.1-7.4-0.1-10.3c-0.1-2.9-0.1-5.9-0.1-10.5V34.7c0.2,2.3,0.2,4.8,0.2,7.3c0,0.6,0,1.1,0,1.7
			c0,4.7,0,9.6,0.3,14.6l0,0.2c0.1,3,0.3,6.1,0.7,9.2c0,0,0,0.1,0,0.1c0.4,2.4,0.4,4.8,0.4,7.3c0,1.5,0,3.1-0.1,4.6
			c0,1.5-0.1,3.1-0.1,4.6c0,2.6,0.1,5.1,0.4,7.6c0.1,0.7,0.1,1.5,0.1,2.4c0.1,3.5,0.1,8.8,5.5,10.9c0.1,0,0.1,0,0.2,0.1
			c2,0.7,4.3,1.1,6.4,1.1c3,0,5.8-0.8,7.7-2.3c3-2.3,5.5-5.2,7.9-7.8c0.5-0.6,1.1-1.2,1.6-1.8c3.8-3.9,8-8.6,10-13.9c0,0,0,0,0-0.1
			c0.8-2.4,1.2-4.6,1.2-7.2c0-1.9-0.1-3.8-0.3-5.6c-0.1-1.8-0.1-3.8-0.1-5.8c0-3.8,0.2-8,0.6-12.5c0,0,0,0,0-0.1
			c0-0.8,0.1-1.6,0.1-2.4c0.2,4.9,0.5,9.7,0.8,14.5c0.1,1.8,0.2,3.6,0.3,5.4c0.1,3.1,0.2,6.3,0.3,9.4c0.1,5.5,0.3,11.2,0.8,16.8
			c0,0,0,0.1,0,0.1c0,0.3,0.1,0.8,0.1,1.3c0.1,2.5,0.3,7.2,4.5,8.1c0.1,0,0.2,0,0.2,0c0.4,0.1,0.9,0.1,1.4,0.1c2.2,0,5-0.6,7-1.5
			c1.6-0.6,5.3-2.2,5-7.2c-0.1-2.1-0.2-4.5-0.1-6.9c0.1-1.3,0.1-2.6,0-3.9c0-0.6,0-1.2,0-1.9c0-1.4,0-2.7,0.3-3.7v0
			c0.4-0.3,1.7-0.6,2.4-0.7c0.4-0.1,0.8-0.2,1.1-0.2c0.5-0.1,1-0.2,1.6-0.4c2.6-0.6,5.8-1.3,8-3.1c0,0,0.1-0.1,0.1-0.1
			c2-1.9,3.1-4.7,3.4-6.9c0,1.6,0.1,3.2,0.1,4.8c0,4.6-0.1,8.5-0.1,12.3c-0.1,3.8-0.1,7.8-0.1,12.4c0,0.3,0,0.6,0,0.9
			c-0.1,2-0.3,5.1,1.9,6.8c1.2,1,3.1,1.4,5.5,1.4c0.9,0,1.7-0.1,2.5-0.2c0,0,0.1,0,0.1,0c0.4-0.1,0.8-0.2,1.3-0.3
			c0.8-0.2,1.7-0.4,2.4-0.5c0.2,0,0.3-0.1,0.5-0.1c0.1,0,0.5,0,0.8-0.1c1.1,0,2.4-0.1,3.5-0.8c1.4-0.8,2.1-2.1,2.5-3.5
			c1.3,3.2,4.2,5.3,6.4,6.8l0.2,0.2c0,0,0.1,0,0.1,0.1c1.7,1.2,3.7,1.7,6.2,1.7c1.5,0,2.9-0.2,4.3-0.4c1-0.1,1.9-0.3,2.9-0.3
			c0.2,0,0.4-0.1,0.6-0.1c0.1,0,7.5-2,19.3-2.9c1.5-0.1,2.2-0.2,3-0.2c0.8,0,1.7-0.1,3.2-0.2c4.1-0.3,6.6-4.6,6.6-11.4
			c0-1.4,0-2.7-0.3-3.9c1.4,5.4,5.7,8.4,9.5,10.5c0,0,0,0,0,0c4.5,2.3,10.5,4.1,14.7,4.9c1,0.2,1.9,0.3,2.7,0.3
			c9.4,0,9.4-11.1,9.4-16.4c0-3.2-0.1-6.6-0.2-10.3l0-0.4c-0.1-4.9-0.1-8.4-0.2-11.8c-0.1-4.8-0.1-9-0.3-16.2
			c-0.1-3.5-0.2-5.2-0.3-6.8c-0.1-1.6-0.2-3.3-0.3-6.7c-0.1-1.9,0-3.7,0.1-5.6c0.1-1.5,0.1-3,0.1-4.6c0-0.2,0-0.7,0.1-1.2
			c0.2-3,0.2-5.2-0.8-6.8c0,0,0-0.1-0.1-0.1c-1.1-1.5-3.1-2.3-5.9-2.3l0,0c-2.5,0-5.1,0.6-6.2,0.9c-4.3,1.1-7.1,2.6-8.2,4.4
			c-1.2,1.9-1,3.9-0.9,5.8c0,0.5,0.1,1,0.1,1.5c0,4.6,0.3,7.4,0.6,10.1c0.3,2.7,0.5,5.3,0.5,9.7c-0.1,3-0.1,4.8-0.1,6.2
			c0,2.1,0.1,3.2,0.3,5.2c0.1,1.1,0.3,2.5,0.5,4.6l0,0.7c0.1,1.8,0.3,4.4,0.3,6.6c0,1.2-0.1,2.1-0.1,2.7c-0.2-0.1-0.3-0.2-0.5-0.3
			c-1.5-0.9-3.4-2.1-5.5-2.1c-0.7,0-1.4,0.1-2.1,0.4c0,0-0.1,0-0.1,0c-1.5,0.7-2.5,1.7-3.4,2.6c-0.1,0.1-0.2,0.2-0.4,0.4
			c0,0.1-0.1,0.1-0.1,0.2c-2.2,2.6-3.6,6.4-3.6,10.4c0,1.2,0.1,2.2,0.4,3.3c0-0.2-0.1-0.4-0.2-0.6c-0.5-1.7-1.8-3.7-4.9-3.7
			c-0.4,0-0.9,0-1.3,0.1l-0.1,0c-0.2,0-0.4,0-0.5,0c1.9-0.7,3.9-1.6,5.5-3c0,0,0-0.1,0.1-0.1c2.8-2.6,3-5.6,3.2-8c0-0.3,0-0.7,0.1-1
			c0.2-2.8,0.4-5.7,0.5-8.4l0-0.4c0-0.2,0-0.3,0-0.5l-1.3-11.5c-0.3-2.6-0.4-5.2-0.4-8c-0.1-3.1-0.2-6.4-0.6-9.6c0,0,0,0,0-0.1
			c-0.2-1.2-0.2-2.6-0.2-4c0-2,0-4-0.5-6.1c-0.8-4-4.3-6.2-6.8-7.5c0,0-0.1,0-0.1-0.1c-1.9-0.9-3.8-1.3-6-1.3
			c-1.6,0-3.2,0.2-5.2,0.7c0,0-0.1,0-0.1,0c-5,1.4-7.7,3.3-10.1,7.1c-0.4,0.7-0.9,1.4-1.4,2.1c-0.6,0.8-1.3,1.7-1.9,2.7
			c0.1-4.2,0.2-7.7-0.7-9.7C371.3,14.6,368.5,13,364.4,13L364.4,13z M351.5,42.5c0.2,0,0.5-0.1,0.7-0.1c0,1.4,0,2.8-0.1,4.3
			c-0.1,1.2-0.1,2.4-0.1,3.6c0,1.1,0,2.2-0.1,3.3c0,0.7,0,1.4,0,2.1c0,0.6,0.1,1.6,0,2.2c-0.2,0.1-0.5,0.2-0.9,0.3
			c0-2.4,0.1-6.1,0.3-7.1c0-0.1,0-0.2,0-0.3c0.1-1.3,0.1-2.6,0-3.9c0-0.6,0-1.1,0-1.6c0-0.3,0-0.7,0-1.1
			C351.5,43.8,351.4,43,351.5,42.5L351.5,42.5z M271.8,46.3c0.6-0.5,1.9-1.1,2.9-1.5c0,0.2,0,0.4,0,0.6c0,0.6,0,1.2,0,1.8
			c0,1.3-0.1,2.6,0,3.8c0.4,7.1,0.6,12.8,0.6,19.4c0,0.2-0.1,1.1-2.9,3.5c0-0.3,0-0.6,0-0.8c0-0.1,0-0.1,0-0.2
			c-0.1-1.1-0.1-2.2-0.2-3.3c-0.2-3.4-0.5-6.9-0.3-10.1c0,0,0,0,0-0.1c0.1-2-0.1-4-0.2-5.8c-0.1-1.5-0.2-2.8-0.2-4.2
			C271.5,48.4,271.6,47.3,271.8,46.3L271.8,46.3z M313.8,47.8c0.2,0,0.4-0.1,0.7-0.2c0.1,1.2,0,2.4,0,3.7c0,0.6,0,1.2,0,1.9
			c0,0.4,0,0.9,0.1,1.3c0,0.6,0.1,1.8,0,2.2c0,0-0.1,0-0.1,0c0,0,0,0,0,0c-0.2,0-0.4,0.1-0.6,0.2c0-0.4,0-0.8,0-1.2
			c0-0.5,0-0.9,0-1.4c0-2,0-4-0.1-6c0-0.1,0-0.3,0-0.5C313.6,47.8,313.7,47.8,313.8,47.8L313.8,47.8z M390.6,66c0-0.3,0-0.7,0-1.1
			c0,0,0-0.1,0-0.1c0-0.4,0-0.9,0-1.3c0,0.6,0.1,1.2,0.1,1.9c0,0.1,0,0.1,0,0.2l0,0.1c0,0.1,0,0.1,0,0.2
			C390.7,65.9,390.6,65.9,390.6,66L390.6,66z M366.7,70.9c2-1.7,3.9-3.5,4.9-6.1c0.1,2.3,0.3,5,0.7,8.1c0,0.3,0.1,0.7,0.1,1.1
			c-1.4-1.2-3-1.9-4.3-2.5C367.6,71.2,367.1,71,366.7,70.9L366.7,70.9z M233.1,87.1c0-0.1,0-0.1,0-0.2c0-0.1,0-0.1,0-0.2
			c-0.2-1.2-0.3-2.3-0.4-3.5c0.2,0.9,0.6,1.8,1.1,2.4c0.5,0.7,1.2,1.2,2,1.6l-0.1,0c-0.4,0-0.8,0-1.1,0
			C233.6,87.2,233.3,87.1,233.1,87.1L233.1,87.1z M375.6,86.6c-0.1-0.8-0.2-1.7-0.2-2.5c1.1,1,2.5,1.8,3.9,2.4c-0.2,0-0.5,0-0.8,0
			c-0.4,0-0.9,0-1.3,0c-0.4,0-0.7,0-1.1,0C375.9,86.6,375.8,86.6,375.6,86.6L375.6,86.6z M43.8,13.8c-3.8,0-9.2,1.3-12,3.4
			c-2.4,1.9-3.6,4.6-3.6,8.2c0,1.6,0.2,3.1,0.4,4.5c0.2,1.1,0.3,2.2,0.3,3.1v0.9c-0.5,0.1-1,0.2-1.6,0.3c-3.6,0.7-6.1,2.8-7,5.7
			c-0.5,1.8-0.3,3.9-0.1,5.5l0,0.2c0,2.4,0.5,3.4,1.6,5l0,0c0,0,0,0,0,0c0.5,0.7,2,3,5,3c0.9,0,1.7-0.2,2.5-0.4c0.1,0,0.2,0,0.2,0
			c0,0.9,0.1,1.8,0.1,2.7c0,1.2,0,2.6-0.1,3.9c-0.4,0.1-0.8,0.2-1.1,0.3c-4.9,1-6.4,4-6.8,5.8c-0.4,1.4-0.3,3-0.3,4.2
			c0,0.4,0,0.7,0,1c0,0.1,0,0.1,0,0.2c0.2,2.4,0.6,3.4,1.8,5.1c0.9,1.3,2.3,3,4.9,3c0.3,0,0.6,0,1-0.1c0.1,1.7,0.3,3.5,0.6,5.2
			c0,0.2,0.1,0.5,0.1,0.7c0.2,2.1,0.6,5.5,3.6,7.1c0,0,0.1,0.1,0.1,0.1c0.8,0.4,1.8,0.6,2.9,0.6c1.6,0,3.2-0.4,4.6-0.7
			C42,92.2,42.7,92,43,92c0,0,0.1,0,0.1,0c0.3-0.1,0.7-0.1,1-0.2c2.5-0.4,5.5-0.9,7.5-2.9c2.1-2.1,2-5.1,2-7c0-0.2,0-0.4,0-0.6
			c0-0.1,0-0.1,0-0.2l0-0.4c-0.1-1.4-0.1-2.7-0.2-4.1c0.6,0,1.3-0.1,1.9-0.1v2.1c0,0.1,0,0.1,0,0.2c0,0.4,0,1,0,1.7
			c0,3.6,0,6.6,1.7,8.3c0,0,0.1,0.1,0.1,0.1c1.8,1.8,4.7,2,7.6,2h0.6h0.4c0.1,0,0.1,0,0.1,0c7.5-0.4,11.8-4.4,11.8-11v-5.2
			c5.1-0.8,7.2-3.1,7.7-8.2c0-0.4,0.1-0.8,0.1-1.4c0.1,1.1,0.2,2.3,0.3,3.4c0.3,3.8,0.7,7.6,0.8,11.4l0.1,3
			c0.1,4.8,0.2,10.3,0.4,14.8v0.4c0,2.2,0,4.7,3,6.5c0.9,0.5,1.9,0.8,3,0.8c0.9,0,1.8-0.2,2.5-0.3c0.4-0.1,0.8-0.2,1.1-0.2
			c4.3-0.4,9.1-2.6,10.3-6.7c0,0,0,0,0-0.1c0.4-1.7,0.2-3.3,0.1-4.6c0-0.3-0.1-0.7-0.1-1c0-0.1,0-0.1,0-0.2
			c-0.1-0.8-0.1-1.7-0.2-2.7c0-0.8,0-1.5-0.1-2.3c-0.1-1.9-0.3-3.5-0.4-4.9c-0.2-1.5-0.3-3-0.4-4.9c0-0.5-0.1-1-0.1-1.7
			c-0.1-0.6-0.2-1.9-0.1-2.5c0.3-0.4,1.3-0.9,1.9-0.9c0.1,0,0.1,0,0.1,0c0.4,0,0.9,0,1.4,0c3.1,0,8.3-0.1,10-4.3
			c0-0.1,0.1-0.2,0.1-0.3c0.3-1.2,0.5-2.7,0.5-4.6c0-3.2-0.4-7-0.7-8.8c-0.3-2.2-1-6.9-6.4-6.9c-0.8,0-1.7,0.1-2.8,0.2
			c0,0-0.1,0-0.1,0c-1,0.2-2.1,0.5-3.4,1c-1.3,0.5-3.2,1.1-4.3,1.2c-0.1-1,0-2.5,0.2-3.4c0.7-0.2,2.4-0.3,3.3-0.4
			c0.7,0,1.4-0.1,2-0.1c0.5-0.1,1.1-0.1,1.8-0.2c3.4-0.3,8.1-0.7,10.2-4c1.6-2.5,1.7-7.2,1.6-12.1c0-0.4,0-0.8,0-1.1
			c0-0.5,0.1-1.1,0.1-1.8c0.1-0.9,0.2-2,0.2-3.1c0-1.5,0-5.3-3-7.3c-1.1-0.8-2.4-1.2-3.9-1.2c-2.1,0-4.3,0.8-6,1.4
			c-0.6,0.2-1.1,0.4-1.5,0.5c-3.4,1.1-7.4,1.7-11,1.7c-0.5,0-0.9,0-1.5,0c-0.6,0-1.1,0-1.7,0c-4.2,0-6.8,1.8-7.6,5.2
			c-0.6,2.6-0.3,5.2,0,7.5c0.1,0.8,0.2,1.6,0.2,2.3c-0.5-1.9-1.6-3.6-3.7-4.3c-0.7-0.3-1.5-0.4-2.3-0.4c-0.6,0-1.2,0.1-1.8,0.1v-1.1
			c0-0.5,0-1.1,0.1-1.7c0.2-2.3,0.3-5.2-0.8-7.5c0,0,0,0,0-0.1c-1.1-2.1-2.8-3.2-5.2-3.2c-0.7,0-1.4,0.1-2.1,0.2
			c-0.2,0-0.5,0.1-0.8,0.1c-4.1,0.3-12.6,1-13.4,9.8c-0.2,1.8-0.2,3.6-0.2,5.3c0,0.2,0,0.3,0,0.5c-0.7,0-1.3,0-2,0
			c0.1-1.4,0.1-3.1,0.1-4.8c0-2.9,0-10.4-5.1-12.2C46.8,14.1,45.4,13.8,43.8,13.8L43.8,13.8z M77.2,49C77.3,49,77.3,49,77.2,49
			c4.3-0.8,7.2-2.4,7.9-7.6c0,0.7,0,1.3,0,2c0,1.4,0,2.7-0.1,3.9c-0.3,2.2-0.3,4.6-0.3,6.6c0,1.9,0.1,3.8,0.2,5.7
			c-0.5-1.8-1.6-3.5-3.5-4.3c-0.1,0-0.1,0-0.2-0.1c-0.6-0.2-1.2-0.3-2-0.3c-0.7,0-1.4,0.1-2,0.2c0-0.3,0-0.5,0-0.8L77.2,49L77.2,49z
			 M52.7,50.7c0.4-0.1,1-0.2,1.5-0.2c0.1,0,0.2,0,0.2,0c0.1,0.9,0.1,2,0,3c0,0.5,0,1,0,1.4c0,0.5,0.1,1,0.1,1.4c0,0.1,0,0.2,0,0.3
			c-0.3,0.1-0.6,0.1-0.8,0.2c-0.3,0.1-0.6,0.1-0.8,0.2c-0.1,0-0.2,0-0.4,0.1c0-0.4,0-0.8,0-1c0-0.4,0-0.7,0-1c0-0.5,0-0.9,0-1.4
			c0-0.8,0-1.4,0-2.1c0-0.1,0-0.2,0-0.3C52.7,51.2,52.7,51,52.7,50.7L52.7,50.7z"/>
	</g>
	<g>
		<path class="st0" d="M218.4,100.9c-1.2,0-2.4-0.1-3.7-0.4c-3.8-0.7-9.4-5.1-9.8-8.4c-0.6-2.6-0.4-5.5-0.3-8.5
			c0.1-1.3,0.1-2.7,0.1-4.1c0-3.3-0.2-4.5-0.4-4.9c-0.4,0.1-1.1,0.5-1.7,0.7c-0.6,0.3-1.2,0.6-1.9,0.9c-1.7,0.6-1.7,1.1-1.4,3.5
			c0,0.3,0.1,0.7,0.1,1.1c0.1,1.5,0.2,2.2,0.5,3c0.2,0.9,0.5,1.8,0.6,3.6c0,0.4,0.1,0.9,0.1,1.3c0.2,1.8,0.4,3.9-1.8,5.7
			c-2,1.7-5.3,2.6-9,2.6c-0.7,0-1.4,0-2.1-0.1c-1.6-0.1-2.7-0.7-3.5-1.6c-1.2-1.5-1-3.4-0.8-5.2c0.1-0.7,0.2-1.4,0.1-2
			c-0.6-9.7-0.7-18-0.5-29.1c0-4.9-0.2-9.8-0.3-14.6c-0.2-4.8-0.3-9.8-0.3-14.8c0-1.1,0-2.3,0.1-3.4c0.1-2.2,0.1-4.5-0.1-6.8
			c-0.4-5,2.9-5.8,6.9-6.9c0.3-0.1,0.6-0.2,0.9-0.3c1.4-0.4,3.2-0.9,4.8-0.9c2.9,0,3.9,1.7,4.2,2.7c0.8,2.1,0.6,4.7,0.4,7
			c-0.1,0.9-0.1,1.7-0.1,2.4c0,1.6-0.1,3.1-0.1,4.7c-0.1,1.5-0.1,3.1-0.1,4.7c0,0.7-0.1,2.2-0.2,4.1c-0.2,3.3-0.5,10.2-0.3,13.4
			c1.1-2.6,3.1-9,6.4-25.3c0.1-0.5,0.2-0.8,0.2-1c0.4-1.9,0.9-3.7,1.4-5.4c0.4-1.4,0.7-2.7,1.1-4.1c0.6-2.5,1.3-5.6,5.2-5.6
			c0.6,0,1.2,0.1,1.9,0.2c3.9,0.5,8.1,1.2,9.6,3.3c1.1,1.8,0.3,3.6-0.3,4.9c-0.2,0.4-0.4,0.8-0.5,1.1c-0.2,0.7-0.4,1.3-0.6,1.9
			c-0.3,1-0.6,2.1-1,3.1c-1.7,4.8-3.6,12.3-5.1,18.3c-0.4,1.6-0.8,3.1-1.1,4.5c-1.1,4.6-0.8,7.2-0.3,7.7c1.2,0.3,1.7,0.3,2.1,0.3
			h0.2c0.8,0,1.6,0,3.5,0.7c4.3,1.3,4.3,4.6,4.3,7.3c0,0.4,0,0.8,0,1.3c0.1,2.3-0.1,4.7-0.3,7c-0.3,3.3-0.6,6.8,0.1,10.2
			c0,0,0,0.1,0,0.1c0.1,1,0.4,1.7,2.9,1.7c0.4,0,0.9,0,1.3,0l7.9-0.8c1.1-0.3,1.9-0.4,2.7-0.4c4.2,0,4.2,4.1,4.2,5.5
			c0,0.4,0,1,0.1,1.7c0.2,3.3,0.6,8.4-3.2,9.6c-2.6,0.9-3.7,0.9-5.4,1c-0.7,0-1.5,0.1-2.6,0.2l-9,0.9c-1,0.1-1.9,0.2-2.7,0.2
			C220.7,100.8,219.6,100.9,218.4,100.9z M360,100.7c-2.2,0-3.9-0.5-5.3-1.5l-0.3-0.2c-2.5-1.8-6.3-4.6-6.5-8.9c-0.1-2,0-4,0.4-6.1
			c0-2.5,0-3.2,0.1-3.8c0-0.4,0-0.8,0-2c0-3.3-0.8-5.1-2.5-5.5c-0.2,1.9-0.2,3.9-0.1,5.9c0,0.9,0.1,1.9,0.1,2.8v6.3c0,0.3,0,0.6,0,1
			c0.1,2.2,0.2,5.6-2,6.9c-0.8,0.5-1.9,0.6-2.8,0.6c-0.4,0-0.9,0-1,0.1c-0.1,0-0.2,0-0.3,0.1c-0.8,0.1-1.7,0.3-2.6,0.5
			c-0.4,0.1-0.8,0.2-1.2,0.3c-0.7,0.1-1.5,0.2-2.3,0.2c-1.4,0-3.3-0.2-4.5-1.1c-1.6-1.3-1.5-3.8-1.4-5.6c0-0.4,0-0.7,0-1
			c0-4.7,0.1-8.6,0.1-12.4c0.1-3.8,0.1-7.7,0.1-12.4c0-3.2-0.1-6.5-0.2-9.6c-0.1-3.2-0.2-6.5-0.2-9.9c0-1.9,0-3.8,0.1-5.7
			c0.1-4.7,0.2-9.6-0.3-14.1c-0.1-1.4-0.2-2.4-0.2-3.3c0-1-0.1-1.8-0.2-3c-0.1-1.6,0.1-5.4,5.9-5.9c1.2-0.1,2.4-0.6,3.7-1
			c1.3-0.5,2.7-1,4.1-1.1c1-0.2,2.1-0.5,3.3-0.8c2-0.6,4.1-1.1,6.2-1.1c1.2,0,2.4-0.2,3.8-0.3c1.4-0.2,2.9-0.4,4.3-0.4
			c1.3,0,5.3,0,7,3.9c0.8,1.8,0.7,5.3,0.6,9.4c0,0.8-0.1,1.5-0.1,2c0,1.2,0,2.5,0,3.7c0,2.5,0.1,5,0,7.6c-0.2,3.5-0.4,6.9-0.5,10.4
			c-0.2,3.3-0.3,6.7-0.5,10c-0.2,4.3-3.4,6.9-6.5,9.4c-0.2,0.2-0.4,0.3-0.7,0.5c0.1,0,0.3,0.1,0.4,0.1c1.1,0.4,2.3,0.8,3.4,1.3
			c2,0.9,4.5,2.1,5.7,4.6c1,1.9,0.9,3.9,0.9,5.8c0,1.3,0,2.7,0.2,4.1c0.1,0.4,0.2,0.8,1.9,0.8c0.4,0,0.8,0,1.2,0c0.4,0,0.9,0,1.2,0
			c3.5,0,5.8-0.3,8.5-0.8c1.8-0.3,3.7-0.6,6.2-0.8c1.2-0.1,1.9-0.2,2.6-0.3c0.9-0.1,1.7-0.3,3.4-0.3l0.1,0c0.4,0,0.8-0.1,1.2-0.1
			c1.8,0,3,0.9,3.5,2.7c0.5,1.3,0.5,3.1,0.5,4.3c0,5.9-2,9.6-5.2,9.9c-1.5,0.1-2.4,0.2-3.2,0.2s-1.6,0.1-3,0.2
			c-12,0.9-19.5,2.9-19.6,2.9c-0.1,0-0.2,0-0.3,0.1c-1,0.1-2,0.2-3,0.3C362.8,100.5,361.4,100.7,360,100.7z M346.8,34.8
			c-0.7,0.1-1.9,0.2-2.4,0.5c-0.6,0.3-0.5,2-0.4,3c0,0.4,0,0.7,0,1c0,0.5,0,1.1,0,1.7c0,1.2,0.1,2.5,0,3.7c0,0,0,0.1,0,0.1
			c-0.2,1.4-0.5,7.2-0.2,9.2c1.2-0.1,3.1-0.8,3.5-1.2c0.4-0.6,0.3-2.2,0.2-3.3c0-0.7-0.1-1.4,0-2c0.1-1.1,0.1-2.2,0.1-3.3
			c0-1.1,0-2.3,0.1-3.5c0.1-2,0.1-4,0-6c0,0,0,0,0-0.1C347.5,34.7,346.8,34.8,346.8,34.8z M138,100.6c-2.6,0-4.3-1.5-4.5-3.8
			c-0.1-1.6-0.1-3.3-0.1-5c0-0.6,0-1.2,0.1-1.8c0.1-1.1,0.1-2.1,0-3.1c0-0.1,0-0.2,0-0.2c0-0.2,0-0.4,0-0.7c0-0.4,0.1-1.6,0-2.3
			c-0.7,0.1-1.7,0.4-2.3,0.6c-0.2,0.1-0.4,0.1-0.6,0.2c-0.5,0.2-0.6,0.3-0.6,2.1l0,0.6v5.8c0,5.7-9.3,6.1-12.2,6.1
			c-0.9,0-2.3-0.3-3-0.7c0,0-0.1,0-0.1-0.1c-1.4-0.8-1.4-2.7-1.4-3.6c-0.1-1.9,0-4.5,0.1-7c0-1.5,0.1-3,0.1-4.3
			c0-1.1-0.1-2.2-0.2-3.4c-0.1-2.3-0.2-4.7-0.2-7.1c0-0.3,0-0.7,0-1c0-0.8-0.1-1.6,0-2.3c0-0.1,0-0.1,0-0.2c0.1-0.5,0.3-1,0.5-1.5
			c0.2-0.5,0.3-0.9,0.4-1.4c1.2-3.2,1.7-5.8,2.3-8.5c0.4-1.9,0.8-3.8,1.5-6.1c0.7-2.3,0.8-3,1.2-4.7l0.2-1.3c0.1-0.3,0.1-0.6,0.2-1
			c0.2-1.4,0.4-3,1.2-4.2c0.7-1,2.5-2.4,10.3-4c2.6-0.8,4.8-1.2,6.9-1.5c0.2,0,0.4,0,0.7-0.1c0.5,0,1.1-0.1,1.6-0.1
			c1.4,0,2.5,0.4,3.4,1.2c1.4,1.3,1.9,3.2,2.3,5c0.2,1,0.3,1.9,0.4,2.7c0.5,3.1,0.8,5,1.1,9.1c0.1,1.8,0.4,3.4,0.8,5.2
			c0.4,2,0.9,4,0.9,6.2c0,2.9,0,5.8-0.1,8.7c-0.1,4.3-0.1,8.7-0.1,12.9v7.2c0,0.1,0.1,0.2,0.1,0.4c0.2,0.7,0.4,1.7-0.1,2.7
			c-0.4,1.3-1.4,1.7-2.1,2c-0.1,0.1-0.2,0.1-0.3,0.2c-3,1.3-5.3,1.6-8.3,1.8C138.1,100.6,138.1,100.6,138,100.6z M130.9,65.1
			c0.1,1.1,0.1,2.3,0.1,3.5c0.7-0.1,1.6-0.3,1.9-0.5c0.1-0.1,0.3-0.2,0.2-0.8c0,0,0-0.1,0-0.1l0-0.4c-0.1-1.9-0.2-3.7-0.2-5.7
			l-0.4-2.6c0-0.1,0-0.1,0-0.2c0-0.2,0-0.3,0-0.5c0,0,0-0.1,0-0.2c-0.5,0.1-1.2,0.4-1.6,0.7c-0.2,0.2-0.1,1,0,1.7l0,0.3
			c0.1,1.2,0.1,2.2,0,3.3C130.9,64.2,130.9,64.7,130.9,65.1z M487.2,100.6c-1,0-1.8-0.2-3-0.4c-0.7-0.1-1.6-0.3-2.8-0.5
			c-0.2,0-0.3-0.1-0.5-0.2c-0.4-0.1-1.8-0.5-2.5-0.6c-0.6-0.1-1-0.2-1.2-0.3c-2.1-0.9-3.5-2.8-4-5.4c-0.5-2.4-0.4-4.7-0.4-7
			c0-0.4,0-0.9,0-1.3c0-5.7-0.4-11.6-0.7-17.2c-0.2-2.9-0.3-5.8-0.5-8.7c-0.1-3.2-0.1-8.1,0.3-11.5c0.3-2.4,0.9-5,3.3-7.1
			c4.2-3.7,12.8-5.4,15.3-5.8c1.7-0.3,3.2-0.4,4.5-0.4c4.5,0,7.4,1.6,8.5,4.7c0.7,2,0.7,4.3,0.7,6.3c0,0.8,0,1.5,0,2.2l0.1,1.2
			c0.1,2.2,0.2,4.8,0.5,6.7l0,0.2c0.5,1.8,1.3,5.1-1.1,6.9c-1.2,1-3.3,1.4-5.2,1.7c-0.5,0.1-1,0.2-1.4,0.3c-0.7,0.1-1.3,0.2-1.8,0.2
			c-1.1,0-2.1-0.2-2.8-0.7c-0.9-0.6-1.5-1.6-1.5-2.8c0-1.4,0-4.2-0.4-5.8c-0.7,0-1.8,0.3-2.6,0.6c-0.3,0.1-0.5,0.2-0.8,0.2
			c-0.6,0.2-0.6,0.2-0.6,1.5c0,0.4,0,0.8,0,1.3c0,0,0,0.1,0,0.1c-0.3,2.1-0.6,4.5-0.4,7c0.3,2.8,0.4,5.9,0.5,9
			c0.1,2.3,0.2,4.7,0.4,6.8c0,0,0,0.1,0,0.1c0,0.2,0,0.3,0,0.5c0,0.1,0,0.3,0,0.4c0,0,0,0,0,0c0.8,0,1.8-0.2,2.1-0.3
			c0.5-0.2,1.4-0.4,1.7-0.6c0-0.2,0.1-0.5,0.1-0.7c0.1-1.7,0.2-5.1,0.1-6.9c0,0,0-0.1,0-0.1c0-0.2,0-0.5-0.1-0.9
			c-0.1-0.8-0.2-1.6,0-2.5c0,0,0-0.1,0-0.1c0.7-1.8,2.2-2,3.5-2.1l0.2,0c0.4-0.1,0.9-0.1,1.5-0.2c1.2-0.2,2.6-0.4,4-0.4
			c0.6,0,1.2,0.1,1.8,0.1c3.5,0.7,3.5,3.7,3.4,5.1v0.4c0.1,2.1,0,4.2,0,6.3c0,2.7,0,5.6,0.1,8.3c0,0.2,0.1,0.5,0.1,0.8
			c0.2,1.5,0.6,3.9-1.4,5.3c-1.5,1.1-5.5,3.4-8,4c-1,0.3-1.9,0.6-2.7,0.8c-1.4,0.5-2.7,0.9-4.6,1.2
			C488.5,100.5,487.9,100.6,487.2,100.6z M514.6,98.6c-4.4,0-4.9-3.4-5.1-6.6c-0.2-7.1-0.1-14.4,0.1-21.4c0.1-4.4,0.2-8.9,0.2-13.4
			c0-2.8-0.1-5-0.2-7.1c-0.1-3-0.2-5.9-0.1-9.8c0.3-4.6-0.2-8.6-1.2-9.7c-0.1-0.1-0.2-0.1-0.2-0.1c-0.5,0-1.4,0.2-2.6,0.3
			c-5.2,0.7-15.9,2.1-23.4,2.1c-5.8,0-8.6-0.9-9.1-2.9c0,0,0-0.1,0-0.1c-0.4-1.9-1-12.2,2.1-15.1c0,0,0.1-0.1,0.1-0.1
			c2.1-1.6,27.9-3.4,30.9-3.6c1.2-0.1,2.9-0.1,4.6-0.1c1.5,0,3.2,0,4.3-0.1c1.4-0.1,2.6-0.1,3.8-0.1c2.4,0,4.1,0.2,5.7,0.3
			c1.3,0.1,2.4,0.2,3.7,0.2c0.4,0,0.8,0,1.2,0c0.4,0,0.8-0.1,1.3-0.1c0.8-0.1,1.6-0.1,2.4-0.1c0.9,0,3.5,0,4.7,2.1
			c1,1.4,1.1,3.5,1.2,5.2c0,0.3,0,0.5,0,0.8c0.3,2.7,1.2,11.2-4.2,12.8c-2.2,0.8-3.2,0.8-4.7,0.9c-0.6,0-1.3,0.1-2.2,0.2
			c-0.2,0.7-0.2,2.3-0.3,3.2c-0.3,2.7-0.3,5.9-0.3,7.7c0,7.9,0.2,14.7,0.3,21.2c0.2,6.6,0.3,13.4,0.3,21.3c0,0.5,0.1,1.1,0.2,1.8
			c0.3,2.3,0.6,5.1-1.1,7c-2.3,2.5-6.8,2.9-9.7,3.2C516.3,98.5,515.4,98.6,514.6,98.6z M260.6,98.6c-1.9,0-4-0.3-5.9-1
			c-4.6-1.8-4.6-6.1-4.7-9.6c0-0.9,0-1.8-0.1-2.6c-0.3-2.3-0.4-4.8-0.4-7.4c0-1.5,0-3,0.1-4.5c0-1.5,0.1-3.1,0.1-4.7
			c0-2.6,0-5-0.4-7.5c-0.4-3.1-0.5-6.2-0.6-9.1l0-0.2c-0.3-4.9-0.3-9.8-0.3-14.5l0-1.7c0-3.2,0-6.6-0.5-9.7
			c-0.3-2.4-0.6-4.8,0.4-6.8c1.1-2.3,3.1-3.3,5.1-4.2c0.4-0.2,0.8-0.4,1.1-0.6c3.7-2.1,6.8-3.6,10-4.7c0,0,0.1,0,0.1,0
			c1.2-0.3,3-0.7,4.8-0.7c3.5,0,6.9,1,10,2c6.4,1.8,7.3,4.7,7.9,10.4c0.4,5.1,0.8,10,0.8,15c0,2.2-0.1,4.4-0.3,6.4
			c-0.4,4.6-0.6,8.8-0.6,12.7c0,2,0,4.1,0.1,6c0.1,1.8,0.3,3.7,0.3,5.5c0,2.4-0.3,4.5-1.1,6.7c-1.9,5.1-6,9.6-9.8,13.4
			c-0.5,0.6-1,1.2-1.6,1.8c-2.2,2.5-4.8,5.4-7.6,7.6C265.7,97.9,263.3,98.6,260.6,98.6z M264.9,69.9c0.1,0,0.2,0,0.3,0l0,0
			c0.8,0,1.6-0.3,1.8-0.5c2.6-2.3,3.8-3.8,3.8-5c0-6.6-0.2-12.4-0.6-19.5c-0.1-1.2-0.1-2.5,0-3.7c0-0.6,0-1.2,0-1.8
			c0-0.3,0-0.7,0.1-1c0-0.4,0.1-1,0-1.3c-0.1,0-0.2,0-0.3,0c-1.9,0-5.1,1.8-5.6,2.5c-0.2,1.2-0.3,2.5-0.3,3.8c0,1.4,0.1,2.9,0.2,4.3
			c0.1,1.8,0.3,3.7,0.2,5.7c-0.2,3.4,0.1,6.9,0.3,10.3c0.1,1.1,0.2,2.2,0.2,3.3c0,0.4,0,0.7,0,1.1C264.9,68.7,264.8,69.5,264.9,69.9
			z M448.2,98.2c-3-0.2-7.1-0.7-8.5-3.2c-0.7-1.2-0.7-2.6-0.8-3.8c0-0.3,0-0.7-0.1-1c-0.1-2.1-0.3-4.2-0.3-6.3
			c0-3.2-0.1-6.2-0.3-9.4c-0.1-2.2-0.2-4.4-0.2-6.7c-0.1-4.1-0.3-8.3-0.3-12.4c0-2.5,0-4.8,0.3-7.4c0.3-3.4,0.4-6.6,0.2-9.5
			c-0.2-5.7-0.6-11.2-1.2-16.8c0-0.5-0.1-1-0.1-1.5c-0.2-1.6-0.4-3.4,0.2-5.3c0.4-1.5,1.8-3.4,5.9-3.4c0.7-0.1,1.4-0.1,2-0.2
			c1.9-0.2,3.9-0.3,5.8-0.7c1.5-0.4,3.1-0.7,4.6-1c1.7-0.3,3.3-0.7,4.9-1.1c0.4-0.1,0.8-0.2,1.2-0.3c1.1-0.3,2.2-0.6,3.2-0.6
			c1.9,0,2.9,1,3.4,1.9c1.3,2.1,1.5,5,1.6,7.3l0,0.2c0,0.5,0,1.1,0,1.8c0,1.1,0.1,2.5,0.1,3.9c0,5.4-0.5,6.6-0.6,7
			c-1,2.5-3.2,3.2-5.1,3.9c-0.3,0.1-0.6,0.2-1,0.3c0,0-0.1,0-0.1,0c-2.3,0.7-6.2,1.2-9,1.5c0,0-0.1,0-0.1,0c-2.4,0-2.4,0.1-2.5,1.9
			c0,1.2,0,1.4,0.1,2.5c0,0.3,0.1,0.7,0.1,0.9c0,0.5,0,0.7,0.2,0.9c0,0,0.3,0.3,1.4,0.3c0.8,0,1.7-0.1,2.5-0.2c0.4,0,0.8-0.1,1-0.1
			c0.6-0.1,1.2-0.2,2-0.4c2-0.4,4.3-0.9,6-0.9c0.2,0,0.3,0,0.5,0c0,0,0.1,0,0.1,0c3.3,0.5,3.5,4.6,3.5,6.8c0,0.3,0,0.6,0,0.9
			c0.1,1.6,0.1,3.1,0.1,4.8c0,0.2,0,0.4,0.1,0.6c0.1,1.2,0.3,2.5,0,3.7c0,0,0,0.1,0,0.1c-1.4,4.7-7.8,5.6-12,6.2
			c-0.7,0.1-1.3,0.2-1.8,0.3c-1.9,0.3-1.9,0.3-2,3c-0.1,3.1-0.1,3.9,0.2,6.7c0.2,1.5,0.6,1.8,2.3,1.8c0.2,0,0.4,0,0.5,0
			c2.4,0,5.1-0.5,7.2-1c0.4-0.1,0.9-0.3,1.3-0.6c0.9-0.4,1.8-0.8,2.8-0.8c1.4,0,2.5,0.8,3.3,2.2c0.9,1.6,1.1,3.7,1.2,5.6
			c0,0.6,0.1,1.2,0.1,1.8l0,0.4c0.3,2.2,0.6,4.9-0.9,7.2c-1.9,3.1-6,4.5-9.2,5.7c-0.4,0.1-0.7,0.2-1,0.4c0,0-0.1,0-0.1,0
			c-4.3,1.2-8.5,1.9-12.7,1.9C448.3,98.2,448.2,98.2,448.2,98.2z M158.3,97.9c-4.4,0-5.1-3.2-5.2-6.6c-0.3-7.1-0.1-14.5,0-21.6
			c0.1-4.2,0.2-8.6,0.2-12.9c0-2.6-0.1-4.7-0.2-6.7c-0.1-3-0.3-5.7-0.1-9.8c0.1-2,0.2-6.8-1-8c-0.1-0.1-0.2-0.2-0.4-0.2
			c-0.5,0-1.5,0.2-2.9,0.4c-5.4,0.8-15.6,2.3-22.6,2.3c-3.8,0-7.8-0.3-8.4-3c-0.5-1.7-1.9-13.6,1.4-16.3c2.2-1.8,29.5-4.1,29.7-4.1
			c1.2-0.1,2.4-0.2,3.6-0.3c1.3-0.1,2.5-0.2,3.8-0.3c1.4-0.1,2.6-0.1,3.8-0.1c1.8,0,3.3,0.1,4.7,0.2c1.4,0.1,2.8,0.2,4.6,0.2
			c1.1,0,2.3,0,3.6-0.1c0.2,0,0.5-0.1,0.8-0.1c0.8-0.1,1.6-0.2,2.3-0.2c2,0,3.4,0.7,4.3,2.2c0.8,1.4,1,3.4,1.1,5
			c0,0.3,0,0.6,0.1,0.8c0.3,2.9,1.3,11.7-4.1,13.4c-2,0.6-2.9,0.7-4,0.8c-0.6,0-1.3,0.1-2.3,0.3c-0.2,0.6-0.3,2-0.4,3.2
			c-0.1,2-0.2,5.6-0.2,7.6c0,7.3,0.2,13.6,0.3,19.6c0.2,7.1,0.4,13.8,0.3,22.2c0,0.4,0.1,1.1,0.2,1.8c0.3,2.2,0.6,5-1.1,6.9
			c-2,2.3-5.7,2.8-8.6,3.2l-0.6,0.1C159.9,97.8,159.1,97.9,158.3,97.9z M87,97.9c-0.9,0-1.6-0.2-2.2-0.6c-2.3-1.4-2.3-3.1-2.3-5.2
			v-0.5c-0.2-4.4-0.3-9.9-0.4-14.7l-0.1-3c-0.1-3.8-0.5-7.7-0.8-11.4c-0.4-4.8-0.9-9.7-0.9-14.5c0-2.1,0-4.3,0.3-6.5
			c0.1-1.3,0.1-2.7,0.1-4.1s0-2.8-0.1-4.3c0-1.4-0.1-2.8-0.1-4.1c0-1.1-0.2-2.3-0.3-3.5c-0.3-2.3-0.6-4.7,0-7c1-4.1,4.7-4.1,6.1-4.1
			c0.5,0,1.1,0,1.7,0.1c0.5,0,1,0.1,1.5,0.1c3.8,0,7.8-0.6,11.4-1.7c0.5-0.1,1.1-0.4,1.6-0.6c1.7-0.6,3.7-1.3,5.5-1.3
			c1.2,0,2.3,0.3,3.1,0.9c2,1.3,2.3,3.9,2.3,6c0,1-0.1,2.1-0.2,3c-0.1,0.7-0.1,1.4-0.1,1.9c0,0.3,0,0.7,0,1.1c0,4.6,0,9.2-1.4,11.3
			c-1.6,2.7-5.7,3-9,3.3c-0.7,0.1-1.3,0.1-1.8,0.2c-0.6,0.1-1.2,0.1-1.9,0.1c-1.2,0-4.1,0.2-4.5,0.9c-0.6,1.2-0.7,4.9-0.1,5.7
			c0.1,0.1,0.3,0.2,0.8,0.2c1.3,0,3.5-0.7,5.2-1.3c1.2-0.4,2.3-0.8,3.2-0.9c1.1-0.1,2-0.2,2.7-0.2c3.4,0,4.5,2.2,4.9,5.6
			c0.2,1.7,0.7,5.5,0.7,8.6c0,1.7-0.2,3.1-0.4,4.2c0,0,0,0.1-0.1,0.2c-1.3,3.3-5.6,3.3-8.7,3.4c-0.5,0-1,0-1.4,0
			c-1.3,0-2.9,0.9-3.4,1.9c-0.2,0.4,0,2.2,0.1,3.1c0.1,0.6,0.1,1.2,0.1,1.6c0.1,1.9,0.3,3.5,0.4,4.9c0.2,1.5,0.3,3,0.4,4.9
			c0.1,0.7,0.1,1.5,0.1,2.2c0,1,0,2,0.2,2.9c0,0,0,0.1,0,0.1c0,0.4,0.1,0.7,0.1,1.1c0.2,1.2,0.3,2.6,0,4c-1.1,3.9-6.1,5.4-8.9,5.7
			c-0.4,0-0.8,0.1-1.3,0.2C88.5,97.8,87.7,97.9,87,97.9z M426.7,97c-0.8,0-1.6-0.1-2.4-0.3c-3.9-0.8-10-2.5-14.3-4.8
			c-4.3-2.3-9.2-5.8-9.2-12.7c0-3.6,1.2-7.1,3.2-9.4c0,0,0.4-0.4,0.4-0.4c0.8-0.8,1.7-1.7,2.9-2.2c0.5-0.2,1-0.3,1.5-0.3
			c1.7,0,3.3,1,4.7,1.9c0.8,0.5,1.8,1.1,2.3,1.1c0,0,0.6-0.7,0.6-4.8c0-2.3-0.2-5-0.3-6.8l-0.1-0.8c-0.2-2.1-0.3-3.5-0.5-4.6
			c-0.2-1.9-0.3-3-0.3-5.1c0-1.4,0-3.1,0.1-6.1c0.1-4.5-0.2-7.1-0.5-9.9c-0.3-2.6-0.5-5.4-0.5-9.9c0-0.5,0-1.1-0.1-1.6
			c-0.1-1.7-0.2-3.5,0.7-4.9c1.1-1.8,4.6-3.1,7.4-3.8c1.1-0.3,3.6-0.9,5.8-0.9c2.3,0,3.8,0.6,4.7,1.7c0.8,1.3,0.8,3.3,0.6,5.9
			c0,0.5-0.1,1-0.1,1.3c0,1.5-0.1,3-0.1,4.5c-0.1,2-0.2,3.8-0.1,5.8c0.1,3.4,0.2,5.1,0.3,6.7c0.1,1.6,0.2,3.3,0.3,6.7
			c0.2,7.2,0.3,11.4,0.3,16.2c0,3.3,0.1,6.8,0.2,11.8l0,0.4c0.1,3.7,0.2,7.1,0.2,10.2C434.6,87.3,434.6,97,426.7,97z M297.7,94.9
			c-0.4,0-0.8,0-1.2-0.1c0,0-0.1,0-0.1,0c-3.1-0.7-3.2-4.3-3.3-6.7c0-0.6,0-1.1-0.1-1.4c-0.5-5.6-0.6-11.3-0.8-16.7
			c-0.1-3.1-0.1-6.3-0.3-9.5c-0.1-1.8-0.2-3.6-0.3-5.4c-0.4-7.1-0.9-14.5-1-21.7c-0.1-2.1-0.3-4.2-0.6-6.2c-0.2-1.5-0.4-3.1-0.5-4.6
			c-0.6-4.1,3.3-6.2,4.9-7c4.3-2.1,8.8-3,12.6-3.6c0.9-0.1,1.6-0.2,2.5-0.2c1.5,0,2.9,0.2,4.5,0.4l0.9,0.1c0.4,0.1,0.9,0.1,1.4,0.1
			c2.1,0.2,4.5,0.4,6.4,1.5c3.1,1.7,3.3,6.3,3.4,9l0,0.6c0.1,2,0.1,4,0.1,6c0,3.4-0.1,6.9-0.3,10.3c-0.1,2.3-0.2,4.5-0.2,6.8l0,0.2
			c-0.1,4-0.3,8-0.6,12.2c-0.1,2.2-1.1,5.1-3.1,6.9c-2,1.6-4.9,2.3-7.4,2.8c-0.6,0.1-1.1,0.2-1.6,0.4c-0.3,0.1-0.7,0.2-1.1,0.2
			c-1.9,0.4-3.3,0.8-3.5,1.7c-0.4,1.3-0.4,2.7-0.4,4.2c0,0.6,0,1.3,0,1.9c0,1.2,0.1,2.5,0,3.8c-0.1,2.4,0,4.9,0.1,7
			c0.2,3.6-2,4.9-4.1,5.7C302.6,94.2,300,94.9,297.7,94.9z M309.6,39.9c-0.6,0-1.5,0.2-2.3,0.5c-1.3,0.4-1.3,0.4-1.2,2.1
			c0.1,2,0.1,4,0.1,5.9c0,0.4,0,0.9,0,1.3c0,1.1-0.1,2.1,0.2,3c0.4,0,1-0.2,1.6-0.3c0.2-0.1,0.5-0.1,0.7-0.2
			c1.4-0.3,1.5-1.2,1.4-3.8c0-0.4,0-0.8,0-1.2c0-0.6,0-1.2,0-1.8c0-1.8,0-3.4-0.1-5.1c0-0.2,0-0.3-0.1-0.3
			C309.7,39.9,309.7,39.9,309.6,39.9z M30.8,85.6c-0.9,0-1.6-0.1-2.2-0.4c-2.4-1.3-2.7-4.1-2.9-6c0-0.3-0.1-0.6-0.1-0.8
			c-0.4-2.2-0.6-4.5-0.7-6.7c-0.1,0-0.2,0-0.2,0.1c-0.8,0.2-1.4,0.3-2.1,0.3c-1.9,0-3-1.2-3.7-2.3c-1.1-1.5-1.4-2.3-1.5-4.3
			c0,0,0-0.1,0-0.1c0-0.3,0-0.7,0-1.1c-0.1-1.2-0.1-2.6,0.2-3.8c0.4-1.7,1.7-3.8,5.7-4.7c0.6-0.1,1.1-0.2,1.6-0.4
			c0.2,0,0.4-0.1,0.6-0.1c0.1-1.8,0.2-3.5,0.2-5.1c0-1.5-0.1-3-0.2-4.5c-0.3,0-0.6,0.1-0.8,0.2c-0.1,0-0.1,0-0.2,0
			c-0.3,0.1-0.7,0.1-1,0.2c-0.8,0.2-1.5,0.3-2.2,0.3c-1.5,0-2.7-0.7-3.8-2.3c-1.1-1.7-1.4-2.3-1.4-4.4l0-0.2
			c-0.1-1.5-0.3-3.4,0.1-4.9c0.7-2.4,2.8-4,5.8-4.6c0.9-0.2,1.9-0.4,2.8-0.6V27c0-0.9-0.2-2.1-0.4-3.3c-0.2-1.4-0.4-2.9-0.4-4.3
			c0-3.1,1-5.4,3-7c2.2-1.7,7.1-3.1,11.1-3.1c1.4,0,2.6,0.2,3.6,0.6c3.6,1.3,4.1,6.8,4.1,10.8c0,1.8-0.1,3.6-0.2,5.1
			c0,0.4,0,0.8-0.1,1.2c1.7,0,3.4,0,5-0.1c0-0.6,0-1.3,0-1.9c0-1.7,0-3.4,0.2-5.1c0.7-7.6,8.1-8.2,12.1-8.5c0.2,0,0.5-0.1,0.8-0.1
			c0.7-0.1,1.3-0.2,1.9-0.2c1.8,0,3.1,0.8,3.9,2.4c1,2,0.8,4.7,0.6,6.8c0,0.7-0.1,1.3-0.1,1.8v2.9c1-0.2,2.2-0.5,3.3-0.5
			c0.7,0,1.3,0.1,1.8,0.3c3.8,1.3,3.2,7.2,2.9,9.7c-0.5,4.9-2.7,6.2-6.7,6.9c-0.4,0.1-0.9,0.1-1.3,0.1v6.8c0,0.9,0,1.8,0,2.6
			c0.1,0,0.2,0,0.3-0.1c1-0.2,2.2-0.5,3.2-0.5c0.6,0,1.1,0.1,1.5,0.2c3.9,1.5,3.2,7.5,2.9,9.7c-0.4,4.5-2.1,6.2-6.6,6.9
			c-0.3,0.1-0.8,0.1-1.2,0.1V74c0,5.8-3.7,9.2-10.3,9.5h-1c-2.4,0-5.1-0.2-6.5-1.6c-1.3-1.4-1.4-4.1-1.3-7.4c0-0.7,0-1.4,0-1.8
			c0,0,0-0.1,0-0.1v-3.7c-1.6,0.2-3.2,0.3-5,0.4c0.2,1.9,0.3,3.8,0.3,5.6l0,0.4c0,0.3,0,0.5,0,0.7c0,1.8,0.1,4.3-1.6,6
			c-1.5,1.7-4.3,2.1-6.6,2.4c-0.4,0.1-0.7,0.1-1.1,0.2c-0.5,0.1-1.2,0.2-1.9,0.4C33.7,85.2,32.2,85.6,30.8,85.6z M45.3,43.7
			c-0.1,0.4-0.1,1.3-0.1,1.7c0,0,0,0.1,0,0.2c-0.1,0.8,0,1.5,0,2.3c0,0.4,0,0.9,0,1.3c0,0.3,0,0.6,0,1c0,0.6-0.1,2.1,0.2,2.4
			c0.3,0.3,0.4,0.3,0.6,0.3c0.3,0,0.6-0.1,1-0.2l0.4-0.1c0.2-0.1,0.5-0.1,0.8-0.2c0.5-0.1,1.6-0.4,1.9-0.6c0.2-0.2,0.1-1.2,0-1.6
			c0-0.4-0.1-0.8-0.1-1.2c0-0.5,0-0.9,0-1.4c0-1.3,0-2.7-0.1-4c0-0.1-0.1-0.5-1.6-0.7C47.3,43,45.9,43.3,45.3,43.7z M379.7,80.6
			c-0.5,0-1.1-0.1-1.6-0.2c-2.6-0.4-6.5-2.1-8.5-4.4c-1.5-1.8-1.7-4.9-1.8-7.4c0-0.7-0.1-1.3-0.1-1.9c-0.9-8.8-0.9-13.2-0.8-19.8
			c0-1.9,0-4,0-6.4c0-1.3-0.1-2.7-0.1-4.2c-0.2-3.8-0.4-7.8,0.6-11.3c0.6-2.1,1.9-3.8,3.1-5.5c0.5-0.7,1-1.4,1.5-2.1
			c2.2-3.5,4.6-5.1,9.2-6.4c1.9-0.5,3.4-0.7,4.9-0.7c1.9,0,3.6,0.4,5.3,1.1c2.4,1.2,5.5,3.2,6.1,6.6c0.5,1.9,0.5,3.9,0.5,5.8
			c0,1.5,0,2.9,0.2,4.2c0.4,3.2,0.5,6.4,0.6,9.5c0.1,2.7,0.1,5.5,0.4,8.1l1.3,11.5c0,0.1,0,0.2,0,0.2l0,0.4
			c-0.1,2.8-0.2,5.6-0.5,8.4c0,0.4-0.1,0.7-0.1,1c-0.2,2.4-0.4,4.8-2.7,7c-2.1,1.8-4.7,2.7-7.2,3.5l-1,0.3c-0.7,0.2-1.4,0.5-2.2,0.8
			C384.6,79.7,382.1,80.6,379.7,80.6z M384.9,37.8c-0.6,0.1-1.4,0.4-1.7,0.6c-0.5,0.3-0.5,0.3-0.5,1.2c0,0.2,0,0.5,0,0.8
			c-0.2,5.4,0,7.8,0.2,11.3c0.1,1.9,0.2,4.1,0.3,7.2c0,0.5,0,0.9,0,1.3c0,0.5-0.1,1.3,0,1.7c0.1,0,0.1,0,0.2,0
			c0.2-0.1,0.5-0.1,0.9-0.2c0.6-0.2,1.6-0.4,1.9-0.6c0.2-0.2,0.2-0.2,0.1-1.4l0-0.1c-0.2-3.2-0.4-5.2-0.6-6.9
			c-0.3-2.4-0.5-4.5-0.5-9c0-0.2,0-0.5,0-0.8C385.2,40.2,385.1,38.5,384.9,37.8z M234.2,80.5c-2.6,0-4.3-0.6-5.2-1.8
			c-1.2-1.4-1.2-4.2-1.2-7.7c0-0.8,0-1.5,0-2c-0.1-3.3-0.1-4.2,0-5.5c0-0.9,0-2,0-4.1c0-4-0.2-7.9-0.3-11.8
			c-0.2-5.5-0.4-11.2-0.2-16.9c0.1-1.9,0.1-3.8,0.1-5.6c0-1.9,0-3.9,0.1-5.8c0.6-8,7.1-8.7,11-9.1c0.2,0,0.4-0.1,0.7-0.1
			c0.6-0.1,1.2-0.2,1.7-0.2c1.8,0,3.1,0.9,3.9,2.7c0,0,0,0.1,0,0.1c0.7,1.9,0.5,4.5,0.4,6.9c0,0.8-0.1,1.5-0.1,2.2v28
			c0,4.6,0.1,7.6,0.1,10.5c0.1,2.9,0.1,5.8,0.1,10.3c0,6.2-3.5,9.8-9.6,10C235.3,80.4,234.7,80.5,234.2,80.5z"/>
		<path d="M464.8,9.2c0.9,0,1.6,0.3,2.1,1.2c1.2,1.8,1.3,4.6,1.4,6.8c0,1,0.1,3.2,0.1,5.5c0,2.7-0.1,5.4-0.5,6.5
			c-0.9,2.2-3.1,2.6-5.2,3.3c-2.3,0.7-6.2,1.2-8.8,1.4c-2.7,0-3.9,0.4-4,3.3c0,1.3,0,1.5,0.1,2.7c0.1,1,0,1.5,0.4,2.3
			c0.4,0.9,1.5,1.1,2.8,1.1c1.3,0,2.8-0.3,3.7-0.3c2.1-0.4,5.6-1.3,7.8-1.3c0.1,0,0.3,0,0.4,0c2.5,0.4,2.2,4.4,2.3,6.3
			c0.1,1.5,0.1,3.1,0.1,4.8c0.1,1.3,0.4,2.7,0.1,4c-1.3,4.4-9,4.8-12.6,5.4c-3,0.5-3.1,1.5-3.2,4.4c-0.1,3.1-0.1,4,0.3,7
			c0.4,2.4,1.5,3.1,3.8,3.1c0.2,0,0.4,0,0.6,0c2.5,0,5.2-0.5,7.5-1c1.4-0.4,2.6-1.3,3.7-1.3c0.7,0,1.4,0.4,2,1.5
			c1,1.8,0.9,4.5,1.2,6.8c0.3,2.2,0.6,4.6-0.6,6.6c-1.8,3-6.5,4.4-9.5,5.6c-4,1.2-8.1,1.8-12.3,1.8c-2.2-0.1-6.2-0.5-7.4-2.4
			c-0.6-1.2-0.5-2.8-0.6-4.1c-0.1-2.1-0.3-4.1-0.3-6.2c0-5.4-0.4-10.6-0.5-16.1c-0.1-4.1-0.3-8.3-0.3-12.4c0-2.5,0-4.8,0.3-7.2
			c0.3-3.1,0.4-6.5,0.3-9.7c-0.3-5.8-0.6-11.4-1.2-16.9c-0.1-2.1-0.6-4.1,0-6.2c0.5-1.9,2.7-2.3,4.5-2.3c2.6-0.3,5.3-0.4,8-0.9
			c3.2-0.8,6.5-1.3,9.5-2.1C462,9.8,463.5,9.2,464.8,9.2 M358.4,10c2.5,0,4.6,0.6,5.6,3c0.9,2.1,0.4,8.5,0.4,10.8
			c0,3.7,0.1,7.5,0,11.2c-0.4,6.7-0.6,13.5-1,20.4c-0.3,4.8-5,7.2-8.5,10.4c1.7,0.9,4,1.3,5.9,2.3c1.9,0.9,4.1,1.9,5,3.9
			c1.4,2.8,0.3,5.9,1,9.6c0.3,1.7,1.8,2,3.4,2c0.8,0,1.6-0.1,2.4-0.1c6.1,0,8.8-1,14.8-1.6c3-0.3,3-0.5,5.9-0.6
			c0.4,0,0.8-0.1,1.2-0.1c1,0,1.7,0.3,2,1.6c0.4,1,0.4,2.7,0.4,3.9c0,3.3-0.8,8.1-3.9,8.4c-3,0.3-3.2,0.1-6.2,0.4
			c-12.3,0.9-19.9,3-19.9,3c-2.4,0.2-4.8,0.7-7,0.7c-1.6,0-3.1-0.3-4.5-1.2c-2.5-1.8-5.9-4.3-6.1-7.9c-0.1-1.9,0-3.9,0.4-5.9
			c0-4.6,0.1-3.1,0.1-5.9c0-3.2-0.8-7-4.6-7c-0.2,0-0.5,0-0.7,0c-0.6,3.2-0.3,6.8-0.3,10.2c0,3.1,0,3.2,0,6.3c0,1.8,0.5,5.6-1.3,6.6
			c-0.8,0.5-2.6,0.3-3.5,0.5c-1.3,0.1-2.7,0.5-4,0.8c-0.5,0.1-1.2,0.2-2,0.2c-1.4,0-2.8-0.2-3.6-0.8c-1.3-1-0.8-3.9-0.8-5.4
			c0-9.3,0.3-15.5,0.3-24.8c0-6.5-0.4-12.9-0.4-19.5s0.5-13.5-0.3-20c-0.3-2.6-0.1-3.9-0.4-6.3c-0.3-2.8,1.7-4,4.5-4.3
			c2.7-0.3,5.3-1.9,7.9-2.2c3-0.5,6.3-1.9,9.3-1.9C352.8,10.6,355.8,10,358.4,10 M343.6,55.5c1.5,0,4.2-1,4.9-1.8
			c1-1.4,0.4-4.5,0.5-6.1c0.1-2.3,0-4.6,0.1-6.8c0.1-2.1,0.1-4.1,0-6.2c-0.1-1-0.2-1.5-1.2-1.5c-0.2,0-0.4,0-0.7,0.1
			c-0.9,0.1-2.6,0.3-3.5,0.8c-1.7,0.9-1.2,3.7-1.2,5.3c0,1.7,0.1,3.6,0,5.3c-0.3,1.5-0.6,9.7,0,10.6
			C342.7,55.4,343.1,55.5,343.6,55.5 M213,10.6c0.5,0,1,0.1,1.6,0.2c2.2,0.3,7.4,0.9,8.6,2.7c0.9,1.4-0.6,3.3-1,4.8
			c-0.5,1.5-0.9,3.2-1.6,4.9c-2.2,6.2-4.6,16.5-6.3,23c-0.9,3.6-1.4,8.4,0.5,9.4c1.5,0.4,2.1,0.4,2.7,0.4c0.1,0,0.2,0,0.2,0
			c0.6,0,1.3,0,3,0.6c3.9,1.2,3.2,4.1,3.4,7.2c0.3,5.7-1.3,11.5-0.1,17.4c0.3,2.6,2.2,3,4.4,3c0.4,0,0.9,0,1.4,0l8.1-0.8
			c1-0.2,1.8-0.4,2.4-0.4c2.1,0,2.7,1.3,2.7,4c0,2.6,1.2,8.8-2.1,9.8c-3.5,1.2-4,0.8-7.7,1.2l-9,0.9c-2.4,0.2-4.1,0.5-6,0.5
			c-1,0-2.1-0.1-3.4-0.4c-3.4-0.7-8.4-4.6-8.6-7.2c-0.8-3.6-0.1-8-0.1-12.4c0-5-0.5-6.4-1.7-6.4c-1,0-2.4,0.9-4.4,1.8
			c-3.2,1.2-2.4,3.3-2.2,6.1c0.1,3.2,0.9,3.3,1,6.6c0.1,2.4,0.9,4.1-1.2,5.8c-1.9,1.6-5.1,2.3-8,2.3c-0.7,0-1.3,0-1.9-0.1
			c-4.6-0.4-2.7-4.4-2.8-7.3c-0.6-10.2-0.6-18.7-0.5-29c0-9.8-0.6-19.6-0.6-29.4c0-3.4,0.3-6.8,0-10.3c-0.3-3.7,1.7-4.3,5.8-5.3
			c1.4-0.4,3.6-1.1,5.3-1.1c1.3,0,2.4,0.4,2.8,1.6c0.9,2.6,0.3,6.2,0.3,8.9c0,3.1-0.3,6.2-0.3,9.4c0,2.7-1.2,17.3-0.1,19.7
			c0.2,0.6,0.5,0.8,0.8,0.8c2.9,0,8.1-27.3,8.4-28.9c0.8-3.2,1.7-6.3,2.4-9.4C209.9,12.3,210.5,10.6,213,10.6 M269.4,10.6
			c3.2,0,6.5,0.9,9.5,1.9c5.5,1.6,6.3,3.6,6.8,9.2c0.4,4.8,0.8,9.8,0.8,14.8c0,2.2-0.1,4.4-0.3,6.3c-0.4,4.1-0.6,8.5-0.6,12.8
			c0,2.1,0,4.1,0.1,6.1c0.1,1.8,0.3,3.6,0.3,5.4c0,2.1-0.3,4-1,6.2c-1.8,4.8-5.8,9.2-9.4,12.9c-2.7,3-5.7,6.6-9,9.2
			c-1.5,1.2-3.7,1.7-5.9,1.7c-1.9,0-3.9-0.4-5.4-0.9c-4.5-1.8-3.4-6.8-3.7-10.8c-0.3-2.3-0.4-4.8-0.4-7.2c0-3,0.1-6.1,0.1-9.2
			c0-2.6,0-5.2-0.4-7.7c-0.4-3.1-0.5-6.2-0.6-9.2c-0.3-4.9-0.3-9.7-0.3-14.5c0-3.9,0.1-7.9-0.5-11.6c-0.3-1.9-0.5-4.3,0.3-5.9
			c1-2.2,3.4-3,5.6-4.1c3.2-1.8,6.3-3.3,9.8-4.6C266.4,10.9,268,10.6,269.4,10.6 M265.2,71.4c1.1,0,2.4-0.5,2.8-0.9
			c3-2.6,4.3-4.4,4.3-6.1c0-6.8-0.3-12.6-0.6-19.6c-0.1-1.7,0-3.6,0-5.4c0-1,0.4-2.6-0.3-3.3c-0.3-0.4-0.8-0.5-1.5-0.5
			c-2.5,0-6.7,2.3-7,3.6c-0.3,1.4-0.4,2.8-0.4,4.3c0,3.3,0.5,6.6,0.4,9.9c-0.3,4.5,0.3,9.3,0.5,13.8c0,1-0.3,2.6,0.1,3.5
			C263.8,71.2,264.5,71.4,265.2,71.4 M37.8,10.8c1.2,0,2.2,0.1,3,0.4c2.6,0.9,3.1,5.3,3.1,9.4c0,3.1-0.3,6.2-0.3,7.9
			c2.7,0,5.4,0,8-0.1c0.1-2.8,0-5.6,0.3-8.4c0.5-5.8,5.5-6.7,10.7-7.1c1-0.1,1.9-0.2,2.6-0.2c1.1,0,1.9,0.3,2.5,1.5
			c1,2.2,0.4,5.8,0.4,8c0,1.5,0,3.2,0,4.8c1.3-0.2,3.2-0.9,4.8-0.9c0.5,0,0.9,0.1,1.3,0.2c2.6,0.9,2.2,5.7,1.9,8.1
			c-0.4,3.9-1.8,4.9-5.4,5.5c-0.8,0.1-1.7,0.1-2.6,0.3c0,2.7,0,5.4,0,8.1c0,1.4,0,3,0.1,4.4c1.3-0.1,3.4-0.8,4.9-0.8
			c0.4,0,0.7,0,1,0.1c2.6,1,2.2,5.8,1.9,8.1c-0.4,4-1.7,5-5.3,5.5c-0.8,0.1-1.7,0.1-2.4,0.3c0,2.6,0,5.3,0,7.9c0,5.4-3.5,7.7-8.9,8
			c-0.3,0-0.6,0-1,0c-1.8,0-4.4-0.1-5.5-1.2c-1.3-1.4-0.8-6.3-0.9-8.3c0-1.8,0-3.6,0-5.3c-0.4,0-0.7,0-1,0c-2.3,0.3-4.6,0.4-7.1,0.5
			c0.3,2.4,0.4,5,0.5,7.5c0,1.7,0.3,4.1-1.2,5.6c-1.4,1.6-4.6,1.8-6.8,2.2c-1.5,0.2-3.9,1.1-5.9,1.1c-0.6,0-1.1-0.1-1.6-0.3
			c-1.9-1-1.9-4-2.2-5.7c-0.5-2.7-0.6-5.6-0.8-8.3c-0.3,0-0.6,0.1-1,0.1c-1.2,0.2-2,0.5-2.7,0.5c-0.9,0-1.6-0.4-2.4-1.7
			c-0.9-1.3-1.2-1.8-1.3-3.6c0-1.3-0.3-3.2,0.1-4.5c0.5-2.3,2.7-3.2,4.5-3.6c1.2-0.3,2.2-0.5,3.4-0.8C26.9,54.2,27,52,27,50
			c0-2.1-0.1-4.1-0.4-6.3c-0.9,0.3-1.8,0.3-2.6,0.5c-1.2,0.2-2.1,0.5-2.9,0.5c-0.9,0-1.7-0.4-2.5-1.7c-0.9-1.4-1.2-1.8-1.2-3.6
			c-0.1-1.3-0.4-3.3,0-4.6c0.6-2.2,2.7-3.2,4.6-3.6c1.3-0.3,2.6-0.5,4-0.9c0-1,0-2.1,0-3.2c0-2.2-0.8-5-0.8-7.6
			c0-2.2,0.5-4.3,2.4-5.8C29.6,12.1,34.2,10.8,37.8,10.8 M46,54.3c0.5,0,1.1-0.2,1.8-0.3c0.9-0.3,2.7-0.5,3.3-1.2
			c1-0.9,0.4-2.7,0.4-3.9c0-1.8,0.1-3.7-0.1-5.5c-0.3-1.4-1.7-1.8-3-1.9c-1.2,0-3.3,0.4-4.3,1.3c-0.4,0.6-0.4,1.8-0.4,2.6
			c-0.1,1.3,0,2.5,0,3.7s-0.4,3.6,0.6,4.5C44.9,54.1,45.4,54.3,46,54.3 M240.9,11.3c1.1,0,1.9,0.4,2.5,1.8c0.8,2.2,0.3,6.1,0.3,8.5
			c0,9.3,0,18.7,0,28c0,9.2,0.3,11.9,0.3,20.8c0,5.8-3.2,8.4-8.1,8.5c-0.4,0-1,0.1-1.6,0.1c-1.5,0-3.3-0.2-4-1.2
			c-1.3-1.6-0.8-6.8-0.9-8.9c-0.1-5.4,0-4.1,0-9.5c0-9.7-0.9-19-0.5-28.6c0.3-3.7,0-7.6,0.3-11.4c0.5-6.3,5-7.2,9.7-7.7
			C239.5,11.4,240.3,11.3,240.9,11.3 M386.1,11.8c1.6,0,3.1,0.3,4.7,1c2.5,1.3,4.8,3,5.3,5.5c0.8,3.2,0.1,6.7,0.6,9.9
			c0.8,5.8,0.4,11.7,1,17.5l1.3,11.5c-0.1,2.8-0.3,5.8-0.5,8.6c-0.3,2.7-0.1,5-2.3,7.1c-2.1,1.8-4.9,2.6-7.6,3.5
			c-2.7,0.9-6,2.6-8.9,2.6c-0.4,0-0.9,0-1.3-0.1c-2.5-0.4-5.9-1.9-7.6-3.9c-1.5-1.8-1.3-6.2-1.5-8.5c-1.2-11.1-0.8-15-0.8-26.1
			c0-4.8-0.9-10.5,0.4-15.1c0.8-2.7,2.8-4.8,4.4-7.2c2.1-3.2,4.3-4.6,8.4-5.8C383.1,12.1,384.6,11.8,386.1,11.8 M382.9,63.4
			c0.2,0,0.5,0,0.8-0.1c0.9-0.3,2.5-0.5,3.2-1c1-0.8,0.9-1.7,0.8-3c-0.4-7.6-1-8.1-1-15.7c0-1.7,0.3-6.7-1-7.2
			c-0.1,0-0.2-0.1-0.4-0.1c-0.8,0-2.3,0.5-2.8,0.8c-1.4,0.8-1.2,1.7-1.3,3.2c-0.3,8.6,0.3,10.1,0.5,18.6
			C381.6,60.8,381,63.4,382.9,63.4 M176.3,12.1c1.2,0,2.3,0.3,3,1.5c0.8,1.3,0.8,3.6,0.9,5.2c0.4,3.5,0.9,10.6-3.1,11.9
			c-3,0.9-3,0.5-6.3,1c-1,0.1-1.2,1.6-1.4,4.5c-0.1,2.7-0.3,5.9-0.3,7.7c0,15.7,0.8,26.1,0.6,41.8c0,2.1,1.2,5.8-0.5,7.6
			c-1.8,2.1-5.6,2.4-8.3,2.8c-1,0.1-1.9,0.2-2.7,0.2c-2.6,0-3.6-1.1-3.7-5.1c-0.5-11.3,0.3-23,0.3-34.5c0-6.6-0.6-9.7-0.3-16.4
			c0.1-3.8,0.2-9.8-2.9-9.8c-0.1,0-0.1,0-0.2,0c-2.4,0.3-16.5,2.7-25.3,2.7c-3.8,0-6.7-0.5-7-1.8c-0.6-2.5-1.4-12.9,0.9-14.8
			c1.6-1.3,27.2-3.6,28.9-3.7c2.6-0.3,5-0.4,7.5-0.6c1.4-0.1,2.6-0.1,3.7-0.1c3.5,0,5.7,0.4,9.2,0.4c1.1,0,2.3,0,3.7-0.1
			C174.3,12.3,175.3,12.1,176.3,12.1 M518.8,12.2c4.2,0,6.4,0.6,9.3,0.6c0.4,0,0.8,0,1.3,0c1.1-0.1,2.4-0.2,3.7-0.2
			c1.5,0,2.8,0.3,3.5,1.4c0.9,1.3,0.9,3.7,1,5.3c0.4,3.5,0.8,10.1-3.1,11.2c-3,1-3.5,0.6-7,1c-1,0.1-1.2,1.6-1.3,4.6
			c-0.3,2.7-0.3,5.9-0.3,7.7c0,15.9,0.7,26.7,0.7,42.6c0,2.1,1.2,5.9-0.5,7.7c-1.9,2.1-6.1,2.4-8.8,2.7c-1.1,0.2-2,0.3-2.7,0.3
			c-2.5,0-3.4-1.2-3.6-5.2c-0.4-11.5,0.3-23.1,0.3-34.7c0-6.7-0.5-10.2-0.3-16.9c0.2-3.8,0.1-11.4-2.9-11.4c-0.1,0-0.1,0-0.2,0
			c-2.5,0.3-16.6,2.5-25.7,2.5c-4.2,0-7.3-0.5-7.7-1.8c-0.5-2.6-0.6-11.6,1.7-13.7c1.5-1.2,28.2-3.2,30.1-3.4c2.5-0.3,6.5,0,8.9-0.3
			C516.5,12.2,517.7,12.2,518.8,12.2 M108.1,12.3c0.8,0,1.6,0.2,2.2,0.6c1.4,0.9,1.7,2.8,1.7,4.8c0,1.8-0.3,3.6-0.3,4.9
			c0,2.7,0.3,9.4-1.2,11.6c-1.6,2.6-7,2.5-9.8,2.8c-2.1,0.3-6.4-0.1-7.5,1.8c-0.8,1.5-1,6.1,0.1,7.3c0.4,0.5,1.1,0.7,1.9,0.7
			c2.6,0,6.7-1.9,8.6-2.2c1-0.1,1.8-0.2,2.5-0.2c2.2,0,3,0.9,3.5,4.3c0.3,1.8,0.7,5.4,0.7,8.4c0,1.5-0.1,2.8-0.4,3.7
			c-1.2,2.8-6.1,2.3-8.8,2.5c-1.7,0-3.9,1.2-4.6,2.7c-0.5,1.2,0,4.1,0,5.4c0.3,4,0.7,6.1,0.9,9.9c0.1,1.8,0,3.6,0.3,5.3
			c0.1,1.6,0.5,3.1,0.1,4.6c-0.8,2.8-4.8,4.3-7.6,4.5c-1.1,0.1-2.3,0.5-3.3,0.5c-0.5,0-1-0.1-1.4-0.3C83.9,95,84,94,84,91.7
			c-0.3-5.4-0.4-12.4-0.5-17.8c-0.3-8.5-1.7-17.3-1.7-25.9c0-2.1,0-4.3,0.3-6.3c0.1-1.4,0.1-2.8,0.1-4.3c0-2.8-0.1-5.7-0.1-8.4
			c0-3.2-1.2-7-0.4-10.2c0.6-2.5,2.5-2.9,4.7-2.9c1,0,2.2,0.1,3.2,0.1c3.9,0,8.1-0.6,11.9-1.8C103.3,13.6,105.9,12.3,108.1,12.3
			 M428.2,12.4c1.5,0,2.9,0.3,3.5,1.1c0.8,1.2,0.3,4.9,0.3,6.3c0,3.5-0.4,6.8-0.3,10.3c0.3,6.8,0.4,6.6,0.6,13.4
			c0.4,12.1,0.3,15.7,0.5,28c0.1,3.7,0.3,7.3,0.3,10.6c0,7.7-0.9,13.4-6.4,13.4c-0.6,0-1.4-0.1-2.1-0.2c-3.7-0.8-9.7-2.4-13.9-4.6
			c-5-2.7-8.4-5.9-8.4-11.3c0-3.1,1-6.3,2.8-8.4c0.9-0.9,1.7-1.8,2.8-2.3c0.3-0.1,0.6-0.2,0.9-0.2c2.4,0,5.1,3,7,3
			c1.3,0,2.1-1.4,2.1-6.3c0-2.7-0.3-5.8-0.4-7.6c-0.5-5.8-0.8-6.5-0.8-9.5c0-1.4,0-3.1,0.1-6.1c0.1-9-1-10.7-1-19.9
			c0-2.1-0.5-4.3,0.4-5.7c0.9-1.6,4.9-2.7,6.5-3.1C423.7,12.9,426.1,12.4,428.2,12.4 M309.6,13.2c1.7,0,3.2,0.3,5.1,0.6
			c2.2,0.3,5.2,0.3,7.2,1.4c2.6,1.4,2.6,5.9,2.7,8.4c0.1,1.9,0.1,4,0.1,5.9c0,5.7-0.4,11.4-0.5,17c-0.1,4-0.3,8.1-0.6,12.3
			c-0.1,1.9-1,4.5-2.6,5.9c-2.1,1.7-5.8,2.2-8.4,2.8c-2.1,0.5-5.2,0.8-5.7,3.1c-0.4,1.4-0.4,3-0.4,4.5c0,1.9,0.1,3.7,0,5.6
			c-0.1,2.4,0,4.9,0.1,7.2c0.1,2.4-1,3.3-3.2,4.3c-1.5,0.7-3.9,1.2-5.8,1.2c-0.4,0-0.7,0-1-0.1c-2.5-0.5-1.9-4.8-2.2-6.8
			c-0.8-8.6-0.6-17.3-1-26.1c-0.5-9-1.2-18.1-1.3-27.1c-0.1-3.7-0.8-7.4-1-11c-0.4-2.7,1.7-4.3,4.1-5.5c3.9-1.9,8-2.8,12.1-3.5
			C308.2,13.2,308.9,13.2,309.6,13.2 M306.3,54.2c0.8,0,1.8-0.3,2.7-0.6c3.4-0.8,2.5-4.4,2.5-6.5c0-2.5,0.1-4.8-0.1-7.1
			c-0.1-1.3-0.8-1.7-1.7-1.7c-0.7,0-1.6,0.2-2.7,0.5c-2.5,0.8-2.5,1.7-2.3,3.6c0.1,1.9,0.1,3.9,0.1,5.8c0,1.7-0.3,3.3,0.3,5
			C305.2,54,305.7,54.2,306.3,54.2 M495.1,35.7c3.3,0,6.1,0.9,7.1,3.7c0.9,2.5,0.5,5.5,0.6,8.1c0.1,2.3,0.3,5.8,0.6,8.1
			c0.4,1.5,1.2,4.3-0.5,5.5c-1.3,1-4.4,1.3-6.1,1.7c-0.5,0.1-1,0.1-1.5,0.1c-1.6,0-2.8-0.6-2.8-2.1c0-1.7,0-4.9-0.5-6.6
			c-0.1-0.5-0.6-0.7-1.3-0.7c-1.1,0-2.7,0.5-3.9,0.8c-2.3,0.7-1.5,2.6-1.7,4.1c-0.4,2.5-0.6,4.9-0.4,7.4c0.5,4.8,0.5,10.8,0.9,15.7
			c0,0.8-0.3,1.8,0.6,2.3c0.2,0.1,0.5,0.1,0.9,0.1c0.9,0,2.1-0.2,2.6-0.4c2.6-0.8,2.7-0.9,2.8-2.6c0.1-1.8,0.3-5.3,0.1-7.1
			c0-0.9-0.4-2.1-0.1-3c0.4-1,1.2-1,2.5-1.2c1.6-0.2,3.5-0.6,5.3-0.6c0.5,0,1,0,1.5,0.1c2.5,0.5,2.2,2.4,2.2,4
			c0.1,4.9-0.1,9.8,0.1,14.7c0.1,1.6,0.9,3.7-0.6,4.9c-1.7,1.2-5.3,3.2-7.5,3.7c-2.8,0.8-4.4,1.6-7.2,2.1c-0.7,0.2-1.3,0.2-1.9,0.2
			c-1.4,0-2.6-0.4-5.6-0.9c-0.4-0.3-3.5-0.9-3.9-1c-1.9-0.8-2.7-2.7-3-4.3c-0.5-2.7-0.4-5.4-0.4-8.1c0-8.6-0.8-17.3-1.2-25.9
			c-0.1-3.2-0.1-8,0.3-11.2c0.3-2.2,0.8-4.4,2.8-6.2c3.2-2.8,9.8-4.6,14.6-5.4C492.3,35.8,493.8,35.7,495.1,35.7 M140,36.9
			c0.9,0,1.7,0.2,2.4,0.8c1.2,1,1.6,2.7,1.8,4.1c0.8,4.9,1.2,6.6,1.6,11.6c0.1,3.9,1.7,7.3,1.7,11.2c0,7.2-0.3,14.6-0.1,21.7
			c0,2.4,0,4.9,0,7.3c0.1,0.8,0.5,1.7,0.1,2.3c-0.3,0.9-0.9,1-1.7,1.4c-2.7,1.2-4.9,1.4-7.7,1.7c-1.7,0-2.8-0.8-3-2.4
			c-0.1-1.6-0.1-3.2-0.1-4.9c0-1.7,0.3-3.3,0-5c0-0.9,0.3-3.7-0.5-4.3c-0.2-0.1-0.5-0.2-0.8-0.2c-1.1,0-2.7,0.6-3.4,0.8
			c-1.9,0.6-1.7,2.3-1.7,4.1c0,1.9,0,3.9,0,5.8c0,4.1-7.9,4.6-10.7,4.6c-0.7,0-1.8-0.3-2.3-0.5c-0.7-0.4-0.7-1.7-0.7-2.3
			c-0.1-3.1,0.1-8,0.1-11.2c-0.1-3.5-0.4-7-0.4-10.4c0-1-0.1-2.2,0-3.1c0.3-0.9,0.7-1.9,0.9-2.8c1.9-5.4,2.2-9,3.7-14.6
			c0.9-2.8,0.9-3.3,1.4-6.2c0.3-1.4,0.4-3.5,1.2-4.6c1.2-1.7,7.5-3,9.4-3.3c2.2-0.6,4.4-1.2,6.7-1.4C138.6,37,139.3,36.9,140,36.9
			 M130.5,70.2c0.9,0,2.6-0.4,3.1-0.7c0.9-0.5,1-1.4,0.9-2.3c-0.1-2.1-0.3-4-0.3-6.1c-0.1-0.9-0.3-1.8-0.4-2.7
			c0-0.7,0.1-1.3-0.3-1.8c-0.2-0.3-0.5-0.4-0.9-0.4c-0.9,0-2.2,0.6-2.8,1c-1,0.8-0.8,2.2-0.6,3.3c0.1,1.5,0,3.1,0,4.6
			c0.1,1.2,0.1,2.4,0.1,3.7c0,0.4,0,0.9,0.5,1.2C130.1,70.2,130.3,70.2,130.5,70.2 M464.8,6.2L464.8,6.2c-1.3,0-2.6,0.4-3.7,0.7
			c-0.4,0.1-0.8,0.2-1.1,0.3c-1.6,0.4-3.2,0.7-4.9,1.1c-1.5,0.3-3.1,0.6-4.6,1c-1.8,0.3-3.7,0.5-5.5,0.7c-0.7,0.1-1.3,0.1-2,0.2
			c-5.2,0.1-6.8,2.8-7.2,4.5c-0.6,2.1-0.4,4.1-0.2,5.8c0,0.5,0.1,1,0.1,1.4c0,0,0,0.1,0,0.1c0.5,5.6,0.9,11.1,1.1,16.8
			c0.1,2.8,0,5.9-0.2,9.3c-0.3,2.6-0.3,5-0.3,7.5c0,4.2,0.1,8.4,0.3,12.5c0,2.3,0.1,4.5,0.2,6.7c0.1,3.2,0.3,6.2,0.3,9.3
			c0,2.2,0.1,4.3,0.3,6.4c0,0,0,0.1,0,0.1c0,0.3,0,0.6,0,0.9c0.1,1.3,0.1,2.9,1,4.4c0,0,0,0.1,0,0.1c1.8,3.1,6.2,3.7,9.8,3.9
			c0.1,0,0.1,0,0.2,0c4.3,0,8.7-0.7,13.1-1.9c0.1,0,0.1-0.1,0.2-0.1c0.3-0.1,0.7-0.2,1-0.4c2.9-1,6.6-2.4,9-5c0,0.4,0.1,0.8,0.2,1.2
			c0.5,3.1,2.3,5.5,4.8,6.5c0,0,0.1,0,0.2,0.1c0.2,0.1,0.6,0.2,1.3,0.3c0.5,0.1,1.8,0.4,2.2,0.6c0.3,0.1,0.6,0.2,0.9,0.3
			c1.1,0.2,2,0.3,2.8,0.5c1.2,0.2,2.2,0.4,3.3,0.4c0.8,0,1.5-0.1,2.4-0.3c1.9-0.4,3.4-0.8,4.8-1.3c0.8-0.3,1.6-0.6,2.6-0.8
			c2.7-0.7,6.6-2.9,8.5-4.2c0,0,0.1,0,0.1-0.1c2.7-2,2.2-5.1,1.9-6.8c0-0.3-0.1-0.6-0.1-0.8c-0.1-2.7-0.1-5.5-0.1-8.2
			c0-2.1,0-4.2,0-6.4c0-0.1,0-0.2,0-0.3c0-1.4,0.1-5.6-4.6-6.6c0,0-0.1,0-0.1,0c-0.6-0.1-1.3-0.2-2-0.2c-1.5,0-3,0.2-4.3,0.4
			c-0.5,0.1-1,0.2-1.4,0.2l-0.2,0c-1.3,0.1-3.7,0.3-4.7,3.1c0,0.1,0,0.2-0.1,0.2c-0.3,1.2-0.2,2.3-0.1,3.2c0,0.2,0.1,0.5,0.1,0.7
			c0,0.1,0,0.1,0,0.2c0.1,1.5,0,4.5-0.1,6.4c-0.3,0.1-0.6,0.2-0.7,0.2c0,0-0.1,0-0.1,0c0,0-0.1,0-0.2,0.1c-0.1-1.9-0.2-4-0.3-6.2
			c-0.1-3.1-0.3-6.3-0.6-9.1c-0.2-2.2,0-4.6,0.4-6.6c0-0.1,0-0.2,0-0.2c0-0.5,0-1,0-1.5c0,0,0-0.1,0-0.2c0.1,0,0.2-0.1,0.3-0.1
			c0.3-0.1,0.6-0.2,1-0.3c0.1,1.4,0.1,3.2,0.1,4c0,2.5,1.8,5.1,5.8,5.1c0.6,0,1.3-0.1,2-0.2c0.1,0,0.1,0,0.2,0
			c0.4-0.1,0.8-0.2,1.4-0.3c2-0.3,4.3-0.8,5.9-2c3.1-2.4,2.1-6.6,1.6-8.4l0-0.1c-0.3-1.8-0.4-4.4-0.5-6.5l-0.1-1.2
			c0-0.6,0-1.4,0-2.1c0-2.2,0-4.6-0.8-6.9c-0.7-2-2.3-4.3-6-5.2c2.6-0.3,5-0.6,6.7-0.9c0.7-0.1,1.2-0.2,1.7-0.2
			c0.4,1.2,0.8,4.2,0.6,8.1c0,0,0,0.1,0,0.1c-0.1,4,0,6.9,0.1,10c0.1,2.1,0.2,4.3,0.2,7c0,4.4-0.1,9-0.2,13.4
			c-0.1,7-0.3,14.3-0.1,21.5c0.1,2.2,0.4,8.1,6.6,8.1c0.8,0,1.8-0.1,3.1-0.3c3.2-0.3,7.9-0.8,10.6-3.6c2.2-2.4,1.8-5.7,1.5-8.2
			c-0.1-0.6-0.2-1.2-0.2-1.6c0-8-0.2-14.8-0.3-21.4c-0.2-6.5-0.3-13.3-0.3-21.2c0-1.7,0-4.9,0.2-7.5c0,0,0-0.1,0-0.2
			c0-0.5,0-1.3,0.1-1.9c0.3,0,0.7,0,1-0.1c1.5-0.1,2.7-0.2,5.1-1c4.3-1.3,6.1-6.2,5.2-14.4c0-0.2,0-0.5,0-0.7
			c-0.1-1.9-0.3-4.1-1.4-5.9c-1.1-1.9-3.1-2.8-6-2.8c-0.9,0-1.8,0.1-2.6,0.1c-0.4,0-0.8,0.1-1.2,0.1c-0.4,0-0.8,0-1.1,0
			c-1.2,0-2.2-0.1-3.5-0.2c-1.6-0.2-3.4-0.3-5.8-0.3l0,0c-1.2,0-2.5,0.1-3.9,0.1c0,0-0.1,0-0.1,0c-1.1,0.1-2.6,0.1-4.1,0.1
			c-1.6,0-3.3,0-4.7,0.1c-1.2,0.1-8.1,0.6-15.1,1.3c-14.8,1.4-15.6,2-16.5,2.7c-0.1,0.1-0.1,0.1-0.2,0.2c-1.6,1.5-2.4,4.2-2.8,7.1
			c0-0.7,0-1.4-0.1-1.9c0-0.7,0-1.2,0-1.6c0-0.1,0-0.1,0-0.2l0-0.2c-0.1-2.5-0.3-5.6-1.8-8C468.5,7.1,466.9,6.2,464.8,6.2L464.8,6.2
			z M453,37c0.2,0,0.5,0,1,0c0.1,0,0.2,0,0.3,0c1.4-0.1,6.2-0.7,9.3-1.5c0.1,0,0.2,0,0.2-0.1c0.3-0.1,0.6-0.2,0.9-0.3
			c2-0.7,4.7-1.6,6-4.7c0,0,0-0.1,0-0.1c0.1-0.3,0.4-1,0.5-2.9c0.1,1.4,0.2,2.4,0.3,2.8c0,0.1,0,0.1,0,0.2c1,3.5,5.6,4,10.6,4
			c0.8,0,1.6,0,2.4,0c-3.5,1-7.6,2.5-10.2,4.8c-2.8,2.5-3.5,5.5-3.8,8.1c0,0.2-0.1,0.5-0.1,0.8c0,0,0-0.1,0-0.1c0-0.2,0-0.5,0-0.8
			c-0.1-2.3-0.3-7.5-4.8-8.3c-0.1,0-0.2,0-0.3,0c-0.2,0-0.4,0-0.6,0c-1.8,0-4.2,0.5-6.3,1c-0.7,0.2-1.3,0.3-1.9,0.4
			c-0.3,0-0.6,0.1-1,0.1c-0.7,0.1-1.6,0.2-2.3,0.2c0,0-0.1,0-0.1,0c0-0.2,0-0.5-0.1-0.8c-0.1-0.9-0.1-1.1-0.1-2.3
			C453,37.3,453,37.1,453,37L453,37z M454.9,65.5c0.1,0,0.4-0.1,0.6-0.1c0.5-0.1,1.1-0.2,1.8-0.3c4.4-0.6,10.8-1.5,12.9-6.3
			c0,0.1,0,0.2,0,0.3c0.1,2.9,0.3,5.9,0.5,8.7c0.1,1.7,0.2,3.4,0.3,5.1c-1.1-1.1-2.4-1.3-3.3-1.3c-1.3,0-2.5,0.5-3.4,1
			c-0.4,0.2-0.8,0.3-1.1,0.5c-2,0.4-4.5,0.9-6.7,0.9c0,0-0.1,0-0.1,0c-0.2,0-0.3,0-0.5,0c-0.4,0-0.6,0-0.7-0.1
			c0-0.1-0.1-0.3-0.1-0.5c-0.4-2.7-0.4-3.4-0.2-6.4C454.8,66.5,454.8,65.9,454.9,65.5L454.9,65.5z M358.4,7c-1.5,0-3,0.2-4.5,0.4
			c-1.3,0.2-2.6,0.3-3.6,0.3c-2.2,0-4.5,0.6-6.6,1.2c-1.1,0.3-2.2,0.6-3.1,0.8c-1.6,0.2-3,0.7-4.4,1.2c-1.2,0.4-2.3,0.9-3.3,0.9
			c-3.9,0.4-5.7,2-6.6,3.7c-0.6-1.2-1.5-2.3-2.8-3c-2.2-1.2-4.8-1.4-7-1.6c-0.5,0-0.9-0.1-1.3-0.1l-0.9-0.1c-1.6-0.2-3-0.4-4.7-0.4
			c-0.9,0-1.8,0.1-2.6,0.2c-4,0.6-8.6,1.6-13,3.8c0,0,0,0-0.1,0c-1.3,0.7-4.3,2.3-5.4,5.3c-0.8-5.2-2.6-8-8.7-9.7
			c-3.2-1.1-6.7-2.1-10.4-2.1c-2,0-3.9,0.4-5.2,0.8c-0.1,0-0.2,0.1-0.2,0.1c-3.2,1.2-6.4,2.7-10.2,4.8c-0.4,0.2-0.7,0.4-1.1,0.5
			c-2,1-4.5,2.2-5.8,4.9c0,0.1-0.1,0.2-0.1,0.3c0.1-2.4,0.2-4.9-0.5-7c0-0.1-0.1-0.1-0.1-0.2c-1-2.3-2.9-3.6-5.3-3.6
			c-0.7,0-1.3,0.1-1.9,0.2c-0.2,0-0.4,0.1-0.6,0.1C234.6,8.9,226.8,9.8,226,19c-0.1,2-0.1,4-0.1,5.9c0,1.9,0,3.7-0.1,5.5
			c0,0,0,0.1,0,0.1c-0.2,5.8,0,11.5,0.2,17c0.1,3.1,0.2,6.4,0.3,9.6c-0.8-1.4-2.1-2.7-4.4-3.4c-1.8-0.6-2.8-0.8-3.9-0.8h-0.1h-0.1
			c-0.2,0-0.5,0-1-0.1c-0.2-1-0.1-3.2,0.6-6c0.3-1.3,0.7-2.8,1.1-4.4c1.5-6,3.4-13.4,5.1-18.2c0.4-1.1,0.7-2.2,1-3.2
			c0.2-0.6,0.4-1.2,0.5-1.8c0,0,0-0.1,0.1-0.2c0.1-0.2,0.2-0.6,0.4-0.9c0.7-1.5,1.8-3.9,0.3-6.3c0-0.1-0.1-0.1-0.1-0.1
			c-1.8-2.6-6.2-3.4-10.6-3.9c-0.8-0.1-1.4-0.2-2.1-0.2c-5.1,0-6.1,4.2-6.7,6.7c-0.3,1.3-0.7,2.6-1.1,4c-0.5,1.8-0.9,3.5-1.4,5.4
			c0,0,0,0,0,0.1c0,0.1-0.1,0.5-0.2,1c-1.2,6.3-2.3,11-3.2,14.7c0-0.9,0.1-1.8,0.1-2.4c0.1-2,0.2-3.4,0.2-4.2c0-1.6,0.1-3.1,0.1-4.7
			c0.1-1.5,0.1-3.1,0.1-4.7c0-0.7,0.1-1.5,0.1-2.3c0.1-2.4,0.3-5.2-0.5-7.6c-0.4-1.1-1.7-3.7-5.6-3.7c-1.8,0-3.7,0.5-5.2,1
			c-0.3,0.1-0.6,0.2-0.9,0.3c-2.2,0.6-4.6,1.2-6.2,2.7c-0.2-0.6-0.4-1.2-0.7-1.8c0,0,0,0,0-0.1c-1.2-1.9-3.1-2.9-5.6-2.9l0,0
			c-0.9,0-1.7,0.1-2.5,0.2c-0.2,0-0.5,0.1-0.8,0.1c-1.2,0.1-2.4,0.1-3.5,0.1c-1.7,0-3-0.1-4.4-0.2c-1.4-0.1-2.9-0.2-4.8-0.2
			c-1.2,0-2.5,0.1-3.9,0.1c0,0-0.1,0-0.1,0c-1.2,0.1-2.5,0.2-3.8,0.3c-1.2,0.1-2.4,0.2-3.7,0.3c-1,0.1-7.8,0.7-14.6,1.4
			c-14.3,1.6-15.1,2.3-16,3c-1.2,1-2.6,3-2.6,9.5c0,3.1,0.3,6.6,0.8,8.4c1,4.1,7,4.1,9.9,4.1c0.3,0,0.5,0,0.8,0
			c-5.4,1.4-7,2.6-7.8,3.8c0,0,0,0,0,0c-1,1.5-1.2,3.3-1.5,4.8c-0.1,0.3-0.1,0.6-0.2,0.9c-0.1,0.5-0.2,1-0.2,1.4
			c-0.3,1.7-0.4,2.3-1.1,4.5c0,0,0,0.1,0,0.1c-0.7,2.3-1.1,4.3-1.5,6.2c-0.6,2.6-1.1,5.1-2.2,8.2c0,0.1,0,0.1-0.1,0.2
			c-0.1,0.4-0.3,0.8-0.4,1.3c-0.2,0.5-0.3,1-0.5,1.6c0,0.1-0.1,0.3-0.1,0.4c-0.1,0.9-0.1,1.8-0.1,2.6c0,0.3,0,0.6,0,0.9
			c0,2.4,0.1,4.8,0.2,7.1c0.1,1.1,0.1,2.2,0.2,3.4c0,1.2,0,2.6-0.1,4.2c-0.1,2.5-0.1,5.1-0.1,7.1c0,1.1,0,3.6,2.1,4.8
			c0.1,0,0.1,0.1,0.2,0.1c0.9,0.5,2.5,0.8,3.7,0.8c8.6,0,13.7-2.9,13.7-7.6v-5.8c0-0.2,0-0.4,0-0.6c0-0.2,0-0.5,0-0.8
			c0,0,0.1,0,0.1,0c0.1,0,0.2-0.1,0.4-0.1c0,0.1,0,0.2,0,0.3c0,0.3,0,0.5,0,0.7c0,0.2,0,0.3,0,0.5c0.1,0.8,0.1,1.8,0,2.8
			c0,0.6-0.1,1.2-0.1,1.8c0,1.7,0,3.5,0.1,5.2c0.2,3.2,2.6,5.2,6,5.2c0.1,0,0.2,0,0.3,0c3.1-0.3,5.6-0.6,8.6-1.9
			c0.1,0,0.1-0.1,0.2-0.1c0.1-0.1,0.2-0.1,0.3-0.1c0.7-0.3,2.2-1,2.8-2.8c0.7-1.4,0.3-2.8,0.1-3.6c0-0.1,0-0.1,0-0.2v-7.1
			c0,0,0,0,0-0.1c-0.1-4.2,0-8.6,0.1-12.9c0-2.9,0.1-5.8,0.1-8.8c0-2.3-0.5-4.5-0.9-6.5c-0.4-1.7-0.7-3.3-0.8-4.8c0,0,0-0.1,0-0.1
			c-0.3-4.1-0.6-6.2-1.1-9.2c-0.1-0.8-0.3-1.6-0.4-2.6c0,0,0,0,0-0.1c-0.2-1.3-0.7-4-2.8-5.8c-0.3-0.2-0.6-0.5-0.9-0.7
			c2.1-0.3,4.1-0.6,5.6-0.8c0.9-0.1,1.6-0.2,2.2-0.3c0.3,0.8,0.5,2.6,0.4,6.6c-0.2,4.1-0.1,7,0.1,9.9c0.1,2,0.2,4,0.2,6.6
			c0,4.3-0.1,8.6-0.2,12.9c-0.2,7.1-0.4,14.5,0,21.7c0.1,2.2,0.2,8,6.7,8c0.8,0,1.7-0.1,3.1-0.3L162,99c3-0.4,7.1-1,9.5-3.7
			c2.1-2.3,1.7-5.6,1.4-8c-0.1-0.6-0.1-1.2-0.1-1.6c0.1-8.4-0.1-15.4-0.3-22.3c-0.2-6-0.3-12.2-0.3-19.5c0-1.9,0.2-5.5,0.2-7.5
			c0.1-0.6,0.1-1.4,0.2-1.9c0.5,0,0.8-0.1,1.2-0.1c1.3-0.1,2.2-0.2,4.3-0.8c1.2-0.4,2.1-1,2.8-1.8c0,4.2,0.2,8.5,0.3,12.7
			c0.2,4.8,0.3,9.8,0.3,14.6c-0.1,11.1-0.1,19.4,0.5,29.2c0,0.5-0.1,1.1-0.1,1.8c-0.2,1.8-0.5,4.3,1.1,6.3c1,1.2,2.6,2,4.6,2.1
			c0.7,0.1,1.5,0.1,2.2,0.1c1.9,0,6.7-0.3,9.9-3c2.9-2.3,2.6-5.2,2.4-7c-0.1-0.4-0.1-0.8-0.1-1.2c-0.1-1.9-0.4-3-0.6-3.9
			c-0.2-0.8-0.4-1.3-0.4-2.6c0-0.1,0-0.1,0-0.2c0-0.4-0.1-0.8-0.1-1.1c-0.1-0.5-0.2-1.3-0.1-1.6c0.1-0.1,0.2-0.1,0.5-0.2
			c0.1,0,0.1,0,0.2-0.1c0.7-0.3,1.3-0.6,1.8-0.8c0,0.6,0.1,1.5,0.1,2.7c0,1.3-0.1,2.7-0.1,4c-0.1,3-0.3,6.1,0.3,8.9
			c0.6,4.3,7,8.9,11,9.7c1.4,0.3,2.7,0.4,4,0.4c1.3,0,2.4-0.1,3.6-0.3c0.8-0.1,1.6-0.2,2.6-0.2c0,0,0.1,0,0.1,0l9-0.9
			c1.1-0.1,1.9-0.2,2.5-0.2c1.8-0.1,3-0.2,5.9-1.1c4.8-1.5,4.4-7.8,4.2-11.1c0-0.6-0.1-1.2-0.1-1.6c0-4.7-2.1-6.3-4.1-6.8
			c3.1-1.9,4.8-5.3,4.8-9.8c0-4.4-0.1-7.4-0.1-10.3c-0.1-2.9-0.1-5.9-0.1-10.5V28.7c0.2,2.4,0.2,4.8,0.2,7.3c0,0.6,0,1.1,0,1.7
			c0,4.7,0,9.6,0.3,14.6l0,0.2c0.1,3,0.3,6,0.7,9.2c0,0,0,0,0,0.1c0.4,2.4,0.4,4.8,0.4,7.3c0,1.5,0,3.1-0.1,4.6
			c0,1.5-0.1,3.1-0.1,4.6c0,2.6,0.1,5.1,0.4,7.6c0.1,0.7,0.1,1.5,0.1,2.4c0.1,3.5,0.1,8.8,5.5,10.9c0.1,0,0.1,0,0.2,0.1
			c2.1,0.7,4.3,1.1,6.4,1.1c3,0,5.8-0.8,7.7-2.3c3-2.3,5.5-5.2,7.9-7.8c0.5-0.6,1.1-1.2,1.6-1.8c3.8-3.9,8-8.6,10-13.9
			c0,0,0,0,0-0.1c0.8-2.4,1.2-4.6,1.2-7.2c0-1.9-0.1-3.8-0.3-5.6c-0.1-1.8-0.1-3.8-0.1-5.8c0-3.8,0.2-8,0.6-12.5c0,0,0,0,0-0.1
			c0-0.8,0.1-1.6,0.1-2.4c0.2,4.9,0.5,9.7,0.8,14.5c0.1,1.8,0.2,3.6,0.3,5.4c0.1,3.1,0.2,6.3,0.3,9.4c0.1,5.5,0.3,11.2,0.8,16.8
			c0,0,0,0.1,0,0.1c0,0.3,0.1,0.8,0.1,1.3c0.1,2.5,0.3,7.2,4.5,8.1c0.1,0,0.2,0,0.2,0c0.4,0.1,0.9,0.1,1.4,0.1c2.2,0,5-0.6,7-1.5
			c1.6-0.6,5.3-2.2,5-7.2c-0.1-2.1-0.2-4.5-0.1-6.9c0.1-1.3,0.1-2.6,0-3.9c0-0.6,0-1.2,0-1.9c0-1.4,0-2.7,0.3-3.7v0
			c0.4-0.3,1.7-0.6,2.4-0.7c0.4-0.1,0.8-0.2,1.1-0.2c0.5-0.1,1-0.2,1.6-0.4c2.6-0.6,5.8-1.3,8-3.1c0,0,0.1-0.1,0.1-0.1
			c2-1.9,3.1-4.7,3.4-6.9c0,1.6,0.1,3.2,0.1,4.8c0,4.6-0.1,8.5-0.1,12.3c-0.1,3.8-0.1,7.8-0.1,12.4c0,0.3,0,0.6,0,0.9
			c-0.1,2-0.3,5.1,1.9,6.8c1.2,1,3.1,1.4,5.5,1.4c0.9,0,1.7-0.1,2.5-0.2c0,0,0.1,0,0.1,0c0.4-0.1,0.8-0.2,1.3-0.3
			c0.8-0.2,1.7-0.4,2.4-0.5c0.2,0,0.3-0.1,0.5-0.1c0.1,0,0.5,0,0.8-0.1c1.1,0,2.4-0.1,3.5-0.8c1.4-0.8,2.1-2.1,2.5-3.5
			c1.3,3.2,4.2,5.3,6.4,6.8l0.2,0.2c0,0,0.1,0,0.1,0.1c1.7,1.2,3.7,1.7,6.2,1.7c1.5,0,2.9-0.2,4.3-0.4c1-0.1,1.9-0.3,2.9-0.3
			c0.2,0,0.4-0.1,0.6-0.1c0.1,0,7.5-2,19.3-2.9c1.5-0.1,2.2-0.2,3-0.2c0.8,0,1.7-0.1,3.2-0.2c4.1-0.3,6.6-4.6,6.6-11.4
			c0-1.4,0-2.7-0.3-3.9c1.4,5.4,5.7,8.4,9.5,10.5c0,0,0,0,0,0c4.5,2.3,10.5,4.1,14.7,4.9c1,0.2,1.9,0.3,2.7,0.3
			c9.4,0,9.4-11.1,9.4-16.4c0-3.2-0.1-6.6-0.2-10.3l0-0.4c-0.1-4.9-0.1-8.4-0.2-11.8c-0.1-4.8-0.1-9-0.3-16.2
			c-0.1-3.5-0.2-5.2-0.3-6.8c-0.1-1.6-0.2-3.3-0.3-6.6c-0.1-1.9,0-3.7,0.1-5.6c0.1-1.5,0.1-3,0.1-4.6c0-0.2,0-0.7,0.1-1.2
			c0.2-3,0.2-5.2-0.8-6.8c0,0,0-0.1-0.1-0.1c-1.1-1.5-3.1-2.3-5.9-2.3l0,0c-2.5,0-5.1,0.6-6.2,0.9c-4.3,1.1-7.1,2.6-8.2,4.4
			c-1.2,1.9-1,3.9-0.9,5.8c0,0.5,0.1,1,0.1,1.5c0,4.6,0.3,7.4,0.6,10c0.3,2.7,0.5,5.3,0.5,9.7c-0.1,3-0.1,4.8-0.1,6.2
			c0,2.1,0.1,3.2,0.3,5.2c0.1,1.1,0.3,2.5,0.5,4.6l0,0.7c0.1,1.8,0.3,4.4,0.3,6.6c0,1.2-0.1,2.1-0.1,2.7c-0.2-0.1-0.3-0.2-0.5-0.3
			c-1.5-0.9-3.4-2.1-5.5-2.1c-0.7,0-1.4,0.1-2.1,0.4c0,0-0.1,0-0.1,0c-1.5,0.7-2.5,1.7-3.4,2.6c-0.1,0.1-0.2,0.2-0.4,0.4
			c0,0.1-0.1,0.1-0.1,0.2c-2.2,2.6-3.6,6.4-3.6,10.4c0,1.2,0.1,2.2,0.4,3.3c0-0.2-0.1-0.4-0.2-0.6c-0.5-1.7-1.8-3.7-4.9-3.7
			c-0.4,0-0.9,0-1.3,0.1l-0.1,0c-0.2,0-0.4,0-0.5,0c1.9-0.7,3.9-1.6,5.5-3c0,0,0-0.1,0.1-0.1c2.8-2.6,3-5.6,3.2-8c0-0.3,0-0.7,0.1-1
			c0.2-2.8,0.4-5.7,0.5-8.4l0-0.4c0-0.2,0-0.3,0-0.5l-1.3-11.5c-0.3-2.6-0.4-5.2-0.4-8c-0.1-3.1-0.2-6.4-0.6-9.6c0,0,0,0,0-0.1
			c-0.2-1.2-0.2-2.6-0.2-4c0-2,0-4-0.5-6.1c-0.8-4-4.3-6.2-6.8-7.6c0,0-0.1-0.1-0.1-0.1c-1.9-0.9-3.8-1.3-6-1.3
			c-1.6,0-3.2,0.2-5.2,0.7c0,0-0.1,0-0.1,0c-5,1.4-7.7,3.3-10.1,7.1c-0.4,0.7-0.9,1.4-1.4,2.1c-0.6,0.8-1.3,1.7-1.9,2.7
			c0.1-4.2,0.2-7.7-0.7-9.7C365.3,8.6,362.5,7,358.4,7L358.4,7z M345.5,36.5c0.2,0,0.5-0.1,0.7-0.1c0,1.4,0,2.8-0.1,4.3
			c-0.1,1.2-0.1,2.4-0.1,3.6c0,1.1,0,2.2-0.1,3.3c0,0.7,0,1.4,0,2.1c0,0.6,0.1,1.6,0,2.2c-0.2,0.1-0.5,0.2-0.9,0.3
			c0-2.4,0.1-6.1,0.3-7.1c0-0.1,0-0.2,0-0.3c0.1-1.3,0.1-2.6,0-3.9c0-0.6,0-1.1,0-1.6c0-0.3,0-0.7,0-1.1
			C345.5,37.8,345.4,37,345.5,36.5L345.5,36.5z M265.8,40.3c0.6-0.5,1.9-1.1,2.9-1.5c0,0.2,0,0.4,0,0.6c0,0.6,0,1.2,0,1.8
			c0,1.3-0.1,2.6,0,3.8c0.4,7.1,0.6,12.8,0.6,19.4c0,0.2-0.1,1.1-2.9,3.5c0-0.3,0-0.6,0-0.8c0-0.1,0-0.1,0-0.2
			c-0.1-1.1-0.1-2.2-0.2-3.3c-0.2-3.4-0.5-6.9-0.3-10.1c0,0,0,0,0-0.1c0.1-2-0.1-4-0.2-5.8c-0.1-1.5-0.2-2.8-0.2-4.2
			C265.5,42.4,265.6,41.3,265.8,40.3L265.8,40.3z M307.8,41.8c0.2,0,0.4-0.1,0.7-0.2c0.1,1.2,0,2.4,0,3.7c0,0.6,0,1.2,0,1.9
			c0,0.4,0,0.9,0.1,1.3c0,0.6,0.1,1.8,0,2.2c0,0-0.1,0-0.1,0c0,0,0,0,0,0c-0.2,0-0.4,0.1-0.6,0.2c0-0.4,0-0.8,0-1.2
			c0-0.5,0-0.9,0-1.4c0-2,0-4-0.1-6c0-0.1,0-0.3,0-0.5C307.6,41.8,307.7,41.8,307.8,41.8L307.8,41.8z M384.6,60c0-0.3,0-0.7,0-1.1
			c0,0,0-0.1,0-0.1c0-0.4,0-0.9,0-1.3c0,0.6,0.1,1.2,0.1,1.9c0,0,0,0.1,0,0.2l0,0.1c0,0.1,0,0.1,0,0.2
			C384.7,59.9,384.6,59.9,384.6,60L384.6,60z M360.7,64.9c2-1.7,3.9-3.5,4.9-6c0.1,2.3,0.3,5,0.7,8.1c0,0.3,0.1,0.7,0.1,1.1
			c-1.4-1.2-3-1.9-4.3-2.5C361.6,65.2,361.1,65,360.7,64.9L360.7,64.9z M227.1,81.1c0-0.1,0-0.1,0-0.2c0-0.1,0-0.1,0-0.2
			c-0.2-1.2-0.3-2.3-0.4-3.5c0.2,0.9,0.6,1.8,1.1,2.4c0.5,0.7,1.2,1.2,2,1.6l-0.1,0c-0.4,0-0.8,0-1.1,0
			C227.6,81.2,227.3,81.1,227.1,81.1L227.1,81.1z M369.6,80.6c-0.1-0.8-0.2-1.7-0.2-2.5c1.1,1,2.5,1.8,3.9,2.4c-0.2,0-0.5,0-0.8,0
			c-0.4,0-0.9,0-1.3,0c-0.4,0-0.7,0-1.1,0C369.9,80.6,369.8,80.6,369.6,80.6L369.6,80.6z M37.8,7.8c-3.8,0-9.2,1.3-12,3.4
			c-2.4,1.9-3.6,4.6-3.6,8.2c0,1.6,0.2,3.1,0.4,4.5c0.2,1.1,0.3,2.2,0.3,3.1v0.9c-0.5,0.1-1,0.2-1.6,0.3c-3.6,0.7-6.1,2.8-6.9,5.7
			c-0.5,1.8-0.3,3.9-0.1,5.5l0,0.2c0,2.4,0.5,3.4,1.6,5l0,0c0,0,0,0,0,0c0.5,0.7,2,3,5,3c0.9,0,1.7-0.2,2.5-0.4c0.1,0,0.2,0,0.2,0
			c0.1,0.9,0.1,1.8,0.1,2.7c0,1.2,0,2.6-0.1,3.9c-0.4,0.1-0.8,0.2-1.1,0.3c-4.9,1-6.3,4-6.8,5.8c-0.4,1.4-0.3,3-0.3,4.2
			c0,0.4,0,0.7,0,1c0,0.1,0,0.1,0,0.2c0.2,2.4,0.6,3.4,1.8,5.1c0.9,1.3,2.3,3,4.9,3c0.3,0,0.6,0,1-0.1c0.1,1.7,0.3,3.5,0.6,5.2
			c0,0.2,0.1,0.5,0.1,0.7c0.2,2.1,0.6,5.5,3.6,7.1c0,0,0.1,0.1,0.1,0.1c0.8,0.4,1.8,0.6,2.9,0.6c1.6,0,3.2-0.4,4.6-0.7
			C36,86.2,36.7,86,37,86c0,0,0.1,0,0.1,0c0.3-0.1,0.7-0.1,1-0.2c2.5-0.4,5.5-0.9,7.4-2.9c2.1-2.1,2-5.1,2-7c0-0.2,0-0.4,0-0.6
			c0-0.1,0-0.1,0-0.2l0-0.4c-0.1-1.4-0.1-2.7-0.2-4.1c0.6,0,1.3-0.1,1.9-0.1v2.1c0,0.1,0,0.1,0,0.2c0,0.4,0,1,0,1.7
			c0,3.6,0,6.6,1.7,8.3c0,0,0.1,0.1,0.1,0.1c1.8,1.8,4.7,2,7.6,2h0.6h0.4c0,0,0.1,0,0.1,0c7.5-0.4,11.8-4.4,11.8-11v-5.2
			c5.1-0.8,7.2-3.1,7.7-8.2c0-0.4,0.1-0.8,0.1-1.4c0.1,1.1,0.2,2.3,0.3,3.4c0.3,3.8,0.7,7.6,0.8,11.4l0.1,3
			c0.1,4.8,0.2,10.3,0.4,14.8v0.4c0,2.2,0,4.7,3,6.5c0.9,0.5,1.9,0.8,3,0.8c0.9,0,1.8-0.2,2.5-0.3c0.4-0.1,0.8-0.2,1.1-0.2
			c4.3-0.4,9.1-2.6,10.3-6.7c0,0,0,0,0-0.1c0.4-1.7,0.2-3.3,0.1-4.6c0-0.3-0.1-0.7-0.1-1c0-0.1,0-0.1,0-0.2
			c-0.1-0.8-0.1-1.7-0.2-2.7c0-0.8,0-1.5-0.1-2.3c-0.1-1.9-0.3-3.5-0.4-4.9c-0.2-1.5-0.3-3-0.4-4.9c0-0.5-0.1-1-0.1-1.7
			c-0.1-0.6-0.2-1.9-0.1-2.5c0.3-0.4,1.3-0.9,1.9-0.9c0.1,0,0.1,0,0.1,0c0.4,0,0.9,0,1.4,0c3.1,0,8.3-0.1,10-4.3
			c0-0.1,0.1-0.2,0.1-0.3c0.3-1.2,0.5-2.7,0.5-4.6c0-3.2-0.4-7-0.7-8.8c-0.3-2.2-1-6.9-6.4-6.9c-0.8,0-1.7,0.1-2.8,0.2
			c0,0-0.1,0-0.1,0c-1,0.2-2.1,0.5-3.4,1c-1.3,0.5-3.2,1.1-4.3,1.2c-0.1-1,0-2.5,0.2-3.4c0.7-0.2,2.4-0.3,3.3-0.4
			c0.7,0,1.4-0.1,2-0.1c0.5-0.1,1.1-0.1,1.8-0.2c3.4-0.3,8.1-0.7,10.2-4c1.6-2.5,1.7-7.1,1.6-12.1c0-0.4,0-0.8,0-1.1
			c0-0.5,0.1-1.1,0.1-1.8c0.1-0.9,0.2-2,0.2-3.1c0-1.5,0-5.3-3-7.3c-1.1-0.8-2.4-1.2-3.9-1.2c-2.1,0-4.3,0.8-6,1.4
			c-0.6,0.2-1.1,0.4-1.5,0.5c-3.4,1.1-7.4,1.7-11,1.7c-0.5,0-0.9,0-1.5-0.1c-0.6,0-1.1-0.1-1.7-0.1c-4.2,0-6.8,1.8-7.6,5.2
			c-0.6,2.6-0.3,5.2,0,7.5c0.1,0.8,0.2,1.6,0.2,2.3c-0.5-1.9-1.6-3.6-3.7-4.3c-0.7-0.3-1.5-0.4-2.3-0.4c-0.6,0-1.2,0.1-1.8,0.1v-1.1
			c0-0.5,0-1.1,0.1-1.7c0.2-2.3,0.3-5.2-0.8-7.5c0,0,0,0,0-0.1c-1.1-2.1-2.8-3.2-5.2-3.2c-0.7,0-1.4,0.1-2.1,0.2
			c-0.2,0-0.5,0.1-0.8,0.1c-4.1,0.3-12.6,1-13.4,9.8c-0.2,1.8-0.2,3.6-0.2,5.3c0,0.2,0,0.3,0,0.5c-0.7,0-1.3,0-2,0
			c0.1-1.4,0.1-3.1,0.1-4.8c0-2.9,0-10.4-5.1-12.2C40.8,8.1,39.4,7.8,37.8,7.8L37.8,7.8z M71.2,43C71.3,43,71.3,43,71.2,43
			c4.3-0.8,7.2-2.4,7.9-7.6c0,0.7,0,1.3,0,2c0,1.4,0,2.7-0.1,3.9c-0.3,2.2-0.3,4.6-0.3,6.6c0,1.9,0.1,3.8,0.2,5.7
			c-0.5-1.8-1.6-3.5-3.5-4.3c0,0-0.1,0-0.2-0.1c-0.6-0.2-1.2-0.3-2-0.3c-0.7,0-1.4,0.1-2,0.2c0-0.3,0-0.5,0-0.8L71.2,43L71.2,43z
			 M46.7,44.7c0.4-0.1,1-0.2,1.5-0.2c0.1,0,0.2,0,0.2,0c0.1,0.9,0.1,2,0,3c0,0.5,0,1,0,1.4c0,0.5,0.1,1,0.1,1.4c0,0.1,0,0.2,0,0.3
			c-0.3,0.1-0.6,0.1-0.8,0.2c-0.3,0.1-0.6,0.1-0.8,0.2c-0.1,0-0.2,0-0.4,0.1c0-0.4,0-0.8,0-1c0-0.4,0-0.7,0-1c0-0.5,0-0.9,0-1.4
			c0-0.8,0-1.4,0-2.1c0-0.1,0-0.2,0-0.3C46.7,45.2,46.7,45,46.7,44.7L46.7,44.7z"/>
	</g>
</g>
</svg>
