<?xml version="1.0" encoding="utf-8"?>
<!-- Generator: Adobe Illustrator 28.1.0, SVG Export Plug-In . SVG Version: 6.00 Build 0)  -->
<svg version="1.1" id="Layer_1" xmlns="http://www.w3.org/2000/svg" xmlns:xlink="http://www.w3.org/1999/xlink" x="0px" y="0px"
	 viewBox="0 0 548 137.4" style="enable-background:new 0 0 548 137.4;" xml:space="preserve">
<style type="text/css">
	.st0{fill:#68CC3D;}
</style>
<g>
	<g>
		<path d="M318.5,107.8c-2,0-3.9-0.6-6.1-1.9c-4.1-2.4-3.8-5.3-3.4-8.6l0.1-0.7c0.2-2.7,0.4-5.7,0.4-8.5v-4.5c0-2.6,0-5.2,0.3-7.9
			c0.4-3.8,0.6-7.8,0.4-11.9c-0.1-2.1-0.1-4.3-0.1-6.4c0-1.8,0-3.5,0.1-5.2c0-1.7,0.1-3.4,0.1-5.1c0-2.5-0.1-5.1-0.2-7.6
			c-0.1-1-0.2-2.1-0.3-3.2c-0.4-3.4-0.8-7.3,0-10.3c1.2-4.3,6.3-5.8,10.4-7c1.1-0.3,2.2-0.6,3-1c3.6-1.4,6.7-2.6,10.5-2.6
			c1.2,0,2.5,0.1,4,0.4c0.7,0.1,1.4,0.3,2.1,0.4c2.9,0.4,6.2,0.9,8.1,3.4c0.9,1.2,1.3,2.9,1.3,5.2c0,1.8-0.3,3.7-0.5,5.4
			c-0.2,1.4-0.4,2.7-0.4,3.7c0,2.8,0.1,5.7,0.2,8.5c0.1,2.8,0.2,5.7,0.2,8.6c0,1.7,0,3.5-0.1,5.3c-0.1,1.9-0.2,4-0.4,6
			c-0.2,3.3-0.5,6.8-0.5,10.1c0.1,2.1,0.3,4.4,0.3,6.7c0,1.7-0.1,3.4-0.4,4.9c0,0.1,0,0.1,0,0.1c-1,3.4-4.1,6.9-6.9,9.9
			c-2.7,2.8-6.3,5.8-11,9l-0.8,0.6C325.2,105.7,322.2,107.8,318.5,107.8z M327.6,78.9c0,0.6,0.1,1,0.1,1.3c2.6-2.2,2.7-3.4,2.9-5.5
			c0-0.3,0-0.6,0.1-1c0.2-2.1,0.1-3.6,0.1-5.3c0-1-0.1-2-0.1-3.3c0-1.5,0.1-2.9,0.1-4.4c0.1-3,0.2-6,0.2-9c0-1.2,0-2.3-0.1-3.4
			c0-1.2-0.1-2.3-0.1-3.5c0-0.3,0-0.7,0.1-1.2c0-0.5,0.1-1.7,0-2.2c-0.5,0-1.2,0.3-2,0.8c-0.8,0.5-0.8,0.6-1.1,2.3
			c-0.2,1.7-0.2,3.7-0.1,5.8c0,1.4,0.1,2.8,0,4.2c-0.1,1.6,0,3.1,0.1,4.6c0,0.5,0.1,1,0.1,1.5c0.2,1.7-0.1,3.3-0.4,4.9
			c-0.1,0.6-0.2,1.2-0.3,1.8c-0.2,1.5-0.1,3.1,0,4.7c0,0.8,0.1,1.6,0.1,2.4c0,0.8,0,1.5,0.1,2.3C327.6,77.4,327.6,78.2,327.6,78.9z
			 M99.4,107.4c-3,0-5.1-0.5-6.4-1.4c-1.7-1.1-4-3-5.4-5.4c-1.7-1.4-1.4-4.6-1.1-7.4c0.1-0.7,0.1-1.4,0.1-1.8c0-0.3,0-0.7,0.1-1.3
			c0.1-1.2,0.2-3,0.2-5.4c0-2.3-0.4-5-2.5-5.4c-0.2,1.9-0.2,4-0.1,6c0,0.9,0.1,1.9,0.1,2.8v6.8c0,0.2,0,0.6,0,0.9
			c0.1,2.2,0.2,5.5-2,6.9c-0.1,0-0.1,0.1-0.1,0.1c-0.8,0.4-1.9,0.4-2.9,0.5c-0.4,0-0.7,0-1,0.1c-1.3,0.3-2.6,0.5-4,0.8
			c-0.6,0.2-1.5,0.3-2.4,0.3c-1.3,0-3.1-0.2-4.3-1.2c-1.6-1.2-1.5-3.6-1.4-5.5c0-0.4,0-0.8,0-1.1c0-4.6,0.1-8.7,0.1-12.6
			c0.1-3.9,0.1-8,0.1-12.6c0-3.3-0.1-6.6-0.2-9.8c-0.1-3.2-0.2-6.5-0.2-9.7c0-2.1,0.1-4.2,0.1-6.2c0.1-4.5,0.2-9.3-0.2-13.7
			c-0.1-1.1-0.2-1.9-0.2-2.7c-0.1-1.1-0.1-2-0.3-3.4c0,0,0-0.1,0-0.1c-0.2-2.4,0.8-3.8,1.6-4.5c1-0.9,2.5-1.4,4.4-1.5
			c1.2-0.1,2.4-0.6,3.8-1c1.3-0.5,2.6-0.9,4-1.1c1.1-0.1,2.3-0.5,3.6-0.8c2-0.5,4-1.1,5.9-1.1c1.1,0,2.3-0.1,3.7-0.3
			c1.4-0.2,2.8-0.3,4.2-0.3c1.3,0,5.4,0,7.1,3.8c0.8,1.8,0.7,5,0.5,9.2c-0.1,1-0.1,1.8-0.1,2.4c0,1.2,0,2.5,0,3.7
			c0,2.4,0.1,4.9,0,7.4c-0.3,6.8-0.7,13.8-1,20.5c-0.2,4.3-3.4,6.8-6.5,9.3c-0.3,0.2-0.5,0.4-0.8,0.6c0.3,0.1,0.6,0.2,0.9,0.3
			c1,0.3,2,0.6,2.9,1.1c0.3,0.2,0.5,0.3,0.8,0.4c1.8,0.9,3.9,2,5.1,4.3c0.8,1.9,0.9,2.3,0.8,3.8c0,0.3-0.1,0.6-0.1,1.1
			c-0.1,1.9,0,3.9,0.4,5.7c0.2,0.3,1.7,1.1,6.2,1.1c1.3,0,2.3-0.1,2.6-0.1c1.3-0.1,1.9-0.2,2.6-0.3c0.8-0.1,1.6-0.2,3.2-0.3l0.1,0
			c0.4,0,0.8-0.1,1.2-0.1c1.2,0,2.8,0.3,3.5,2.6c0.2,0.4,0.5,1.5,0.5,7.3c0,3.1-0.6,6.3-5.2,6.7c-1.5,0.1-2.4,0.1-3.3,0.1
			c-0.8,0-1.6,0-3,0.1c-1,0.1-2.5,0.3-4.2,0.6C107.4,106.8,103.1,107.4,99.4,107.4z M82.7,41.8c-0.5,0.5-0.5,1.9-0.4,3
			c0,0.4,0,0.7,0,1c0,0.4,0,1.5-0.1,2.8c-0.1,2.8-0.3,9.7-0.1,11.9c1.2,0,3.1-0.8,3.5-1.2c0.4-0.5,0.3-2.2,0.2-3.2
			c0-0.7-0.1-1.4,0-2c0.1-0.9,0.1-1.8,0.1-2.6c0-1.3,0-2.7,0.2-4.2c0-1.9,0-4-0.1-5.9c0,0,0-0.1,0-0.2c-0.1,0-0.2,0-0.3,0
			C84,41.4,83.1,41.6,82.7,41.8z M401.6,107.3c-4,0-5.6-2.2-7.6-5c-0.2-0.3-0.5-0.7-0.8-1c-2.2-3-4.3-6.3-5-10.7
			c-0.2-1-0.4-2.1-0.6-3.2c-0.6-3.1-1.2-6.4-1.2-9.4c-0.1-2.1,0.6-4,2-5.4c1.7-1.8,4.4-2.8,7.5-2.8c1.6,0,3.1,0.3,4.4,0.9
			c2.8,1,2.8,3.8,2.8,5.8c0,0.7,0,1.4,0.1,2c0,0.3,0.1,0.5,0.1,0.8c0.3,2.7,0.7,4.2,1.1,4.6c1-0.3,3.5-3.4,4.3-5.5
			c0.6-1.6,1.4-4.6-0.9-6c-3.2-2-5.8-3.2-8.6-4.2c-0.9-0.3-2.1-0.6-3.4-0.9c-2.3-0.5-4.6-1-6.3-2c-2.7-1.7-2.8-4.6-2.9-7.1
			c0-0.5,0-1-0.1-1.5c-0.2-3-0.1-6,0-8.9c0.1-1.7,0.1-3.4,0.1-5.2V42c0-4.8,0-11.4,2.5-15.8c2-3.9,5.5-5.5,8.8-7.1
			c0.5-0.2,0.9-0.5,1.4-0.7c3.6-1.8,7.2-2.2,10.5-2.5c0.6-0.1,1.2-0.1,1.8-0.2c1.1-0.1,2.2-0.3,3.2-0.3c2.5,0,4.2,0.9,5.1,2.8
			c0.6,1,0.9,2.7,0.9,4.5c0,0.9,0,1.7-0.1,2.6c-0.1,1.1-0.1,2.1,0,2.7c0.1,1.7,0,3.2-0.1,4.8c-0.1,2.2-0.2,4.3,0.2,6.6
			c0,0,0,0.1,0,0.1c0,0.4,0.1,0.8,0.2,1.3c0.2,1.1,0.4,2.5,0.4,3.9c0,2.7-0.6,4.7-1.8,6c-1.4,1.5-2.5,1.6-3.6,1.8
			c-0.4,0-0.8,0.1-1.3,0.2c-0.8,0.2-1.6,0.3-2.4,0.3c-1.3,0-3.7-0.2-5.3-1.8c-0.8-0.9-1.3-2-1.2-3.3c0.1-1.1,0.1-1.8,0.2-2.4
			c0.1-0.6,0.1-1,0.1-1.3c0,0,0-0.1,0-0.1c0-0.2,0-0.5-0.1-0.7c0,0,0,0,0,0c-0.1,0-0.2,0-0.4,0l-0.5,0c-0.7,0.1-2.7,0.3-3.1,0.6
			c-1.4,1.1-1.4,1.2-1.3,2c0,0.2,0,0.5,0,0.8c0,0.3,0,0.5,0,0.8c0,1.6-0.1,2.5,1.8,3.4c1,0.5,2,1,3,1.5c2,1,4,2,6.1,2.9
			c0.8,0.4,1.6,0.7,2.4,1c2.7,1.1,5.7,2.3,7.9,4.5c2,2,1.9,5.1,1.8,7.8c0,0.6,0,1.1,0,1.7c0.1,4.5-0.5,9.2-2,14.5
			c-0.3,1-0.6,2.2-1,3.5c-1.1,4-2.4,8.9-3.9,11.6l-0.2,0.3c-1.6,2.7-2.4,4.1-5.7,5.1C406.3,106.7,403.6,107.3,401.6,107.3z
			 M268.3,107.1c-1.7,0-3.3-0.4-4.9-1.2c0,0-0.1,0-0.1-0.1c-3-1.6-6.7-3.5-8.9-6.4c-2-2.6-2.2-5.7-2.3-8.3c0-0.6-0.1-1.3-0.1-1.9
			c-0.3-3.2-0.4-6.4-0.4-9.6c0-2,0-4.2-0.1-6.2c0-1.6-0.1-3.2-0.2-4.7c-0.1-3-0.2-6.1-0.2-9.2c0-2,0-4,0.1-6c0.1-3.1,0-6.4-0.2-9.6
			c-0.1-2.3-0.2-4.7-0.2-7c0-0.4,0-0.8,0-1.2c0-3-0.1-6.7,2.3-9.4c2.7-3,6.4-5.8,11-8.1c2.8-1.5,5.7-2.1,8.9-2.1c1,0,2,0.1,3,0.2
			l0.2,0c3,0.4,7.5,1,9.7,3.9c2,3,1.9,6,1.8,8.9l0,0.9c-0.1,1.8,0,3.7,0.2,5.9c0.3,3.6,0.4,6.5,0.3,10c0,0.9,0,1.9,0.1,2.9
			c0.1,1.7,0.2,3.5-0.1,5.2l-0.1,0.6c-0.5,1.9-1.1,4.2-3.2,5.5c-1.6,1.1-4.3,1.8-6.9,1.8c-0.7,0-1.3,0-1.9-0.1c-3.3-0.6-3-4-2.9-5.6
			c0-0.2,0-0.4,0-0.5c0-0.9,0-1.8-0.1-2.8c-0.1-1.3-0.2-2.6,0-4c0.2-2.6,0.1-5.6-0.3-6.3c0,0,0,0-0.1,0c-1,0-2.8,0.9-3.1,1.3
			c-0.9,1.4-0.9,4.5-0.9,6.5c0,0.3,0,0.7,0,1c0,9.1,0.3,18.9,0.9,31.7c0.1,1.1,0.3,1.1,0.6,1.1c0.4,0,0.8-0.1,1.4-0.3
			c2.4-0.8,2.5-1.2,2.5-2.9l0-0.5c0.1-0.9,0-1.9-0.1-3c-0.1-0.8-0.1-1.7-0.1-2.5c0-1.3,0-5.3,4.9-6.5c1.2-0.2,2.7-0.6,4.1-0.6
			c1.5,0,2.6,0.3,3.4,1c1.9,1.6,1.8,4.2,1.6,6.3c0,0.6-0.1,1.2,0,1.7v5.5c0,1.8,0,3.6,0.1,5.3c0,0,0,0.1,0,0.1c0,0.6,0,1.2,0.1,1.9
			c0,0.7,0.1,1.3,0.1,2c0,1.8-0.1,3.8-0.3,5.7c-0.4,3.1-2.2,4.2-4.5,5.2c-2.9,1.2-6.1,2.2-9.2,3.1l-1,0.3
			C271.3,106.7,269.9,107.1,268.3,107.1z M149.4,106.6c-0.5,0-1.1-0.1-1.6-0.3c-3.8-1.2-3.5-5.7-3.4-8.3l0-0.4c0.1-2,0.1-4,0.1-5.9
			c0-2-0.1-4.1,0.1-6.1c0.1-2.2,0.1-4.7,0-7c0-1.2,0-2.3,0-3.4c0-1.5,0.1-3.1,0.2-4.6c0.1-1.5,0.2-3.1,0.2-4.6c0-1.3-0.1-2.6-0.3-4
			c-0.1-1-0.2-2-0.2-3c-0.1-0.9-0.1-1.8-0.1-2.7c0-0.9,0-1.7-0.1-2.5c0-0.1,0-0.1,0-0.2c0.1-3.4,0.4-11,0.4-11
			c0.1-1.6,0.1-3.2,0.1-4.7c0-2.2,0-4.2-0.1-6.2c0-0.5-0.1-1.1-0.2-1.8c-0.3-2-0.6-4.3,0.1-6c1-2,3.5-4.2,6.5-4.9c0,0,0.1,0,0.1,0
			c0.2,0,1-0.2,1.9-0.4c2.5-0.5,3.2-0.7,3.6-0.7c1.3-0.3,2.4-0.6,3.4-0.9c4.4-1.2,7.1-1.9,11.1-1.9c1.1,0,2.2,0.1,3.4,0.2l0.9,0.1
			c4.4,0.4,6.7,3,6.7,7.7c0,1.4-0.1,3-0.3,4.3c0,0.4-0.1,0.9-0.1,1.2c-0.2,3.4-0.2,6.9-0.3,10.3c-0.1,4.3-0.2,8.7-0.5,13
			c-0.1,1.2-0.1,3.4-0.1,5.7c-0.1,3.8-0.1,8-0.3,10.1c0,2.4-0.3,4.1-1.8,6.3c-2.1,3-4.4,3.7-7.2,4.4c-2,0.4-3,0.7-4.5,1.2
			c-0.5,0.2-1,0.3-1.6,0.5c-1,0.4-2.4,0.4-3.7,0.5c-0.6,0-1.3,0.1-1.6,0.1c-0.1,0.2-0.1,0.8-0.1,1.1c0,0,0,0.1,0,0.1
			c-0.1,1.9-0.2,3.8-0.2,5.7c0,0.7,0,1.4,0.1,2.1c0,0.7,0.1,1.4,0.1,2c0.1,1.4,0.1,2.6,0.1,3.7c0,1.2,0.1,2.3,0.1,3.7
			c0.2,5.3-4.7,6-6.3,6.2c-0.6,0.1-1.2,0.3-1.8,0.5C151.3,106.3,150.4,106.6,149.4,106.6z M160.1,60.6c0.1,0,0.1,0,0.2,0
			c0.9,0,1.9-0.7,1.9-1c0.2-2.3,0.2-6.2,0.2-8.5c0-1.3,0.1-2.6,0.1-3.8c0.1-1.2,0.1-2.5,0.1-3.7c0-0.2,0-0.5,0-0.8
			c0-0.2,0.1-0.6,0.1-0.9c-0.4,0.1-1.1,0.2-1.7,0.4c-0.7,0.2-0.9,0.7-0.9,2.5c0,0.4,0,0.8,0,1.1c-0.1,1.7-0.1,3.5-0.1,5.3
			c0,1.8,0,3.8-0.1,5.6c0,0.2,0,0.5,0,0.7C159.9,58.7,159.9,59.8,160.1,60.6z M471.5,106.6c-3.9,0-4.9-2.5-5.2-3.9
			c-0.2-0.9,0-1.8,0.1-2.6c0.1-0.3,0.1-0.9,0.1-1.1c-0.1,0-0.2,0-0.3,0c-0.4,0.2-0.8,0.4-1.2,0.7c-1.5,0.9-3.2,1.9-5,1.9
			c-0.3,0-0.6,0-0.8-0.1c-1.2-0.3-2.7-1.2-4.2-2.1l-0.4-0.2c0,0-0.1-0.1-0.1-0.1l-0.5-0.3c-0.9-0.7-2-1.5-2.8-2.5
			c-1.9-2.4-2.1-5.1-2.3-7.7c0-0.4-0.1-0.9-0.1-1.3c-0.7-8.7-1-17-1-24.8c0-4.3,0.1-8.7,0.3-12.6c0.1-3.1,0.1-6.2,0.1-9.2
			c0-3.1,0-6.2,0.1-9.4l0.1-1c0.2-3.1,0.4-6.3,3.9-8.5c1.6-1,3.1-2.1,4.7-3.3c0,0,0.1-0.1,0.1-0.1c1.5-0.9,3-1.5,4.4-2.1
			c0.6-0.2,1.1-0.5,1.7-0.7c0.1-0.1,0.4-0.2,0.6-0.3c1.2-0.6,2.6-1.3,4-1.6c0,0,0.1,0,0.1,0c0.3,0,0.6,0,0.8,0
			c0.8,0,1.6,0.1,2.3,0.2c0.3,0,0.5,0.1,0.8,0.1c0,0,0.1,0,0.1,0c0.4,0.1,0.8,0.2,1.2,0.3c0.9,0.2,1.7,0.4,2.6,0.5
			c0.3,0,0.6,0.1,1,0.1c1.1,0.1,2.2,0.2,3.2,0.5c3.6,1.1,4.1,4.2,4.5,6.2c0.3,2.2,0.2,4.3,0.2,6.3c0,0.8,0,1.5,0,2.3v5
			c0,2.4,0,6.8-0.1,9.1c0,2.3,0,5.5-2.5,7.1c-2.1,1.2-5.1,2.3-7.2,2.5c-0.3,0-0.6,0.1-0.9,0.1c-1.3,0-2.3-0.4-3.2-1.3
			c-1.4-1.4-1.2-2.6-1-3.6c0-0.2,0.1-0.4,0.1-0.6c0.3-2.7,0.2-5.2-0.1-7.5c-0.1-0.4-0.1-0.6-0.2-0.7c-0.3,0-0.8,0.1-1.3,0.2
			c-0.3,0-0.6,0.1-1,0.2c-2.7,0.4-3.9,0.9-4.1,2.5c-0.1,1.2-0.3,2.4-0.4,3.5c-0.3,2.8-0.6,5.1-0.6,7.8c0,1.2,0.1,2.5,0.2,3.9l0,0.7
			c0.1,0.9,0.1,1.9,0.2,3c0.2,3,0.5,6,0.6,8.7c0,1.8,0.5,3.1,1,4.8c0.2,0.5,0.4,1.1,0.6,1.7c0.1,0.5,0.2,0.7,0.2,0.9
			c0.1,0,0.2,0,0.5,0c0.3,0,0.7,0,1.1,0.1c0.4,0,0.8,0.1,1.2,0.1c0.4,0,0.6,0,0.7-0.1c1.2-0.3,2.1-1.9,2.1-3.1c0-0.6-0.1-2-0.2-2.7
			c-0.2,0-0.5,0.2-0.8,0.3c-0.4,0.1-0.8,0.3-1.2,0.4c-0.5,0.1-1,0.2-1.4,0.2c-2.9,0-3.4-2.4-3.8-4.2l-0.1-0.5c0,0,0-0.1,0-0.1
			c-0.1-0.9-0.3-2.6-0.3-4.3c0-2.1,0.2-4.3,1.3-5.5c1.1-1.2,3.1-1.5,4.8-1.8c0.7-0.1,1.3-0.2,1.7-0.3c0,0,0.1,0,0.1,0
			c0.8-0.2,1.5-0.3,2.2-0.5c1.7-0.3,3.2-0.6,4.9-1.1c0.5-0.1,1.1-0.3,1.6-0.4c1.5-0.4,3.2-0.9,4.9-0.9c0.7,0,1.4,0.1,2,0.2
			c2.4,0.7,3.6,3.7,3.6,9.4c0.2,2.5-1.3,3.6-2.4,4.4c-0.5,0.4-1,0.7-1.4,1.2c-0.4,0.5-0.6,0.9-0.7,1.5c0.1,0.7,0.2,1.4,0.2,2.2
			c0.2,1.8,0.4,3.8,0.5,5.7c0.1,2.2,0.3,4.5,0.5,6.8c0.2,2.3,0.5,4.7,0.5,6.9c0,1.9,0.1,3.9,0.2,5.8c0.1,0.9,0.1,1.9,0.2,2.8
			c0.2,3.4-2.8,4-4.3,4.2c-1.2,0.5-2.7,0.6-4.1,0.7c-0.8,0.1-1.6,0.1-2.2,0.2c-0.3,0.1-0.6,0.1-1,0.2
			C474.7,106.2,473,106.6,471.5,106.6z M45.1,105.8c-1.7,0-2.9-0.7-3.7-2.1c-0.3-0.6-0.4-1.4-0.6-3.1c-0.1-0.7-0.2-1.8-0.3-2.6
			c-0.1,0.2-0.3,0.3-0.3,0.4c-0.4,0.4-0.7,0.8-1,1.1c-1.6,1.2-3.5,2.3-5.3,2.3c-0.1,0-0.2,0-0.4,0c-3.4-0.3-6.3-3.1-8.2-5.1
			c-2.4-2.7-3.6-6-3.6-9.8c0-9.1-0.6-18.4-1.1-27.4c-0.2-4-0.5-8.1-0.7-12.1c-0.1-2.5,0-4.9,0.1-7.2c0-0.8,0.1-1.6,0.1-2.4
			c0-2.2,0-4.7,1.6-6.8c1.9-2.5,4.8-4.5,7.7-6.6c1.4-1,2.8-2,3.9-2.9c2.5-2.2,6.4-3.6,10.4-3.6c3.4,0,6.5,1,8.7,2.8
			c3.2,2.7,4.5,5.5,4.5,9.2c0,1.5-0.1,3-0.2,4.4c-0.1,2.1-0.2,4.2-0.1,6.2c0,0,0,0.1,0,0.1c0,0.7,0.1,1.5,0.2,2.4
			c0.3,2.1,0.6,4.4-0.4,6.4c-1.1,2.4-4.4,3.5-6.8,4.3c-0.5,0.2-0.9,0.3-1.2,0.4c-0.5,0.2-1,0.4-1.4,0.6c-1,0.4-1.9,0.8-2.8,0.8
			c-2.7,0-3.1-3.2-3.2-4.4c0-0.5,0-1,0-1.6c0-0.8,0-2.7-0.2-3.4c-0.1,0-0.1,0.1-0.2,0.1c-2.7,1.7-3.1,4.6-3.1,6.2
			c0,2.8,0.1,5.6,0.2,8.4c0.2,4,0.3,8.2,0.2,12.3c-0.2,2.9,0.3,6.4,0.9,7.3c0.5-0.2,1.4-0.7,2-1.1c0,0,0.1-0.1,0.1-0.1
			c0.9-0.6,0.9-0.7,1-2.4l0-0.1v-1.6c-0.2-0.1-0.5-0.2-0.7-0.3c-0.9-0.3-2.3-0.8-2.7-2.4c-0.4-1.5-0.3-3.2-0.2-4.7
			c0-0.6,0.1-1.1,0.1-1.6c0-0.3,0-0.5,0-0.8c0-1.4-0.1-3.2,0.8-4.5c1.1-1.6,3-1.8,4.4-2c0.5-0.1,1.1-0.1,1.4-0.2
			c1.6-0.5,3.1-1,4.6-1.6c3.3-1.2,6.8-2.5,10.5-2.6h0.3c1.5,0,2.7,0.4,3.5,1.3c1.5,1.5,1.4,3.9,1.3,6.2l0,0.3c0,0.9,0,2,0.1,3
			c0.1,2.2,0.2,4.4-0.4,6.5c-0.6,2.3-2.2,2.9-3.3,3.3c-1,0.4-1.1,0.5-1.2,0.9c-0.2,0.7-0.1,1.6,0,2.5c0.1,0.6,0.1,1.2,0.1,1.8
			c0,0.5,0,0.9-0.1,1.4c0,0.4-0.1,0.9-0.1,1.4c0.1,2.8,0.5,8.7,0.8,11.9c0,0.4,0.2,1,0.3,1.7c0.5,2.4,1.3,6.4-2.2,7.6
			c-2.3,1-5.2,1.2-7.9,1.4c-1.5,0.1-2.8,0.2-4,0.4C46.3,105.7,45.7,105.8,45.1,105.8z M518.7,105.7c-3.6,0-5.2-2.9-6.2-5.8
			c-1.3-4.1-2.4-8.4-3.5-12.5c-1.3-5.2-2.7-10.7-4.5-15.5c-0.3-0.5-0.4-1-0.5-1.5c-0.7,0.1-0.7,0.4-0.7,1.4c0,0.5,0,1,0.1,1.6
			c0.1,0.8,0.1,1.7,0.1,2.7l0,0.3c0.1,3.8,0.2,7.8,0.5,11.6c0,1.1,0.1,2.2,0.2,3.4c0.2,3.1,0.4,6.3,0.1,8.9
			c-0.4,3.9-5.4,5.3-9.9,5.3c-0.3,0-0.5,0-0.8,0c-0.6,0-1.2-0.4-1.4-1.1c-0.8-2.7-1.2-6.1-1.2-10.2c0-1.7,0.1-3.5,0.1-5.2
			c0.1-2.3,0.2-4.4,0.1-6.4c0-5.1-0.2-10.1-0.4-15c-0.2-4.9-0.4-9.9-0.4-14.9c0-3.2-0.1-6.5-0.2-9.6c-0.1-3.1-0.2-6.3-0.2-9.5
			c0-7.2,3.9-9.2,8.2-10.7c0.9-0.3,1.9-0.6,2.8-0.8c0.9-0.2,1.8-0.4,2.6-0.7c1.2-0.4,2.4-0.9,3.6-0.9c1.7,0,3,0.9,3.7,2.6
			c1,2.6,1.3,5.5,1.7,8.3c0.3,2.1,0.6,4.1,1,5.9c1.1,3.9,1.9,8.1,2.7,12.2l0.5,2.4c0,0.3,0.1,0.6,0.2,1c0.1,0.8,0.4,3,0.8,3.9
			c0.2-0.7,0.4-1.9,0.5-2.5c0-0.2,0.1-0.5,0.1-0.7c0.4-3.5,0-7-0.3-10.7c-0.2-2.5-0.5-5.1-0.5-7.7c-0.1-1.3-0.2-3-0.3-4.7
			c-0.2-2.7-0.4-5.8-0.4-8.4c0-3.9,0.5-6,1.8-7.1c0.2-0.1,0.4-0.2,0.6-0.3c0.6-0.2,1.4-0.5,2.1-0.8c1.9-0.7,4-1.5,6-1.5
			c1,0,1.8,0.2,2.6,0.5c0.4,0.2,0.7,0.5,0.8,0.9c1,3.5,1.5,8.2,1.5,14.9c0,1.2,0,2.4-0.1,3.6c0,1-0.1,2-0.1,2.9
			c-0.1,2.8-0.1,5.5-0.1,8.1c0,2.8,0,5.5,0.1,8.2c0,2.7,0.1,5.4,0.1,8.2v11.7c0,6.9,0.1,15.1,0.8,23c0.4,6.9-5,8.6-9,9.7l-0.7,0.2
			C521.6,105.3,520.1,105.7,518.7,105.7z M362.1,104.8c-3-0.2-7.1-0.7-8.5-3.2c-0.7-1.2-0.7-2.6-0.8-3.8c0-0.3,0-0.7-0.1-1
			c-0.1-2.1-0.3-4.2-0.3-6.3c0-3.2-0.1-6.2-0.3-9.4c-0.1-2.2-0.2-4.4-0.2-6.7c-0.1-4.1-0.3-8.3-0.3-12.4c0-2.5,0-4.8,0.3-7.4
			c0.3-3.4,0.4-6.6,0.2-9.5c-0.2-5.7-0.6-11.2-1.2-16.8c0-0.5-0.1-1-0.1-1.5c-0.2-1.6-0.4-3.4,0.2-5.3c0.4-1.5,1.8-3.4,5.9-3.4
			c0.7-0.1,1.4-0.1,2-0.2c1.9-0.2,3.9-0.3,5.8-0.7c1.5-0.4,3.1-0.7,4.6-1c1.7-0.3,3.3-0.7,4.9-1.1c0.4-0.1,0.8-0.2,1.2-0.3
			c1.1-0.3,2.2-0.6,3.2-0.6c1.9,0,2.9,1,3.4,1.9c1.3,2.1,1.5,5,1.6,7.3l0,0.2c0,0.5,0,1.1,0,1.8c0,1.1,0.1,2.5,0.1,3.9
			c0,5.3-0.5,6.6-0.6,7c-1,2.5-3.2,3.2-5.1,3.9c-0.3,0.1-0.6,0.2-1,0.3c0,0-0.1,0-0.1,0c-2.3,0.7-6.2,1.2-9,1.5c0,0-0.1,0-0.1,0
			c-2.4,0-2.4,0.1-2.5,1.9c0,1.2,0,1.4,0.1,2.5c0,0.3,0.1,0.7,0.1,0.9c0,0.5,0,0.7,0.2,0.9c0,0,0.3,0.3,1.4,0.3
			c0.8,0,1.7-0.1,2.5-0.2c0.4,0,0.8-0.1,1-0.1c0.6-0.1,1.2-0.2,2-0.4c2-0.4,4.3-0.9,6-0.9c0.2,0,0.3,0,0.5,0c0,0,0.1,0,0.1,0
			c3.3,0.5,3.5,4.6,3.5,6.8c0,0.3,0,0.6,0,0.9c0.1,1.6,0.1,3.1,0.1,4.8c0,0.2,0,0.4,0.1,0.6c0.1,1.2,0.3,2.5,0,3.7c0,0,0,0.1,0,0.1
			c-1.4,4.7-7.8,5.6-12,6.2c-0.7,0.1-1.3,0.2-1.8,0.3c-1.9,0.3-1.9,0.3-2,3c-0.1,3.1-0.1,3.9,0.2,6.7c0.2,1.5,0.6,1.8,2.3,1.8
			c0.2,0,0.4,0,0.5,0c2.4,0,5.1-0.5,7.2-1c0.4-0.1,0.9-0.3,1.3-0.6c0.9-0.4,1.8-0.8,2.8-0.8c1.4,0,2.5,0.8,3.3,2.2
			c0.9,1.6,1.1,3.7,1.2,5.7c0,0.6,0.1,1.2,0.1,1.8l0,0.4c0.3,2.2,0.6,4.9-0.9,7.2c-1.9,3.1-6,4.5-9.2,5.8c-0.4,0.1-0.7,0.2-1,0.4
			c0,0-0.1,0-0.1,0c-4.3,1.2-8.5,1.9-12.7,1.9C362.2,104.8,362.2,104.8,362.1,104.8z M433.1,104c-2.6,0-5.4-0.2-6.7-2
			c-0.9-1.2-1.3-3.3-1.3-6.4c0-1,0-1.9,0.1-2.7c0-0.6,0-1.1,0-1.6c-0.1-2-0.1-4-0.1-5.9c0-2,0-4,0.1-6c0-2,0.1-4,0.1-6
			c0-4.4-0.2-8.9-0.4-13.3c-0.2-4.4-0.4-8.9-0.4-13.4c0-0.9,0-1.7,0.1-2.6c0-0.8,0.1-1.6,0.1-2.5c0.1-1.9,0.1-3.8,0.1-5.6
			c0-2.3,0-4.7,0.2-7.1c0.6-8.6,7.4-9.4,11.9-10c0.3,0,0.6-0.1,0.9-0.1c0.6-0.1,1.3-0.2,1.9-0.2c2,0,3.3,0.9,4.1,2.9
			c0.4,1.1,0.6,2.5,0.6,4.3c0,1.1-0.1,2.2-0.1,3.3c-0.1,0.9-0.1,1.8-0.1,2.5v31c0,5.1,0.1,10.3,0.2,15.3c0.1,4.9,0.2,10,0.2,15
			c-0.1,6.9-3.8,10.7-10.5,11.1L433.1,104z M236.5,104c-2.6,0-5.4-0.2-6.7-2c-0.9-1.2-1.3-3.3-1.3-6.4c0-1,0-1.9,0.1-2.7
			c0-0.6,0.1-1.1,0.1-1.6c-0.1-2-0.1-4-0.1-5.9c0-2,0-4,0.1-6c0-2,0.1-4,0.1-6c0-4.4-0.2-8.9-0.4-13.3c-0.2-4.4-0.4-8.9-0.4-13.4
			c0-0.9,0-1.7,0.1-2.6c0-0.8,0.1-1.6,0.1-2.5c0.1-1.9,0.1-3.8,0.1-5.6c0-2.3,0-4.7,0.2-7.1c0.6-8.6,7.4-9.4,11.9-10
			c0.3,0,0.6-0.1,0.9-0.1c0.6-0.1,1.3-0.2,1.9-0.2c2,0,3.3,0.9,4.1,2.9c0.4,1.1,0.6,2.5,0.6,4.3c0,1.1-0.1,2.2-0.1,3.3
			c-0.1,0.9-0.1,1.8-0.1,2.5v31c0,5.1,0.1,10.3,0.2,15.3c0.1,4.9,0.2,10,0.2,15c-0.1,6.9-3.8,10.7-10.5,11.1L236.5,104z
			 M210.4,103.1c-1.2,0-2.2-0.4-2.9-1.1c-1.4-1.4-1.3-3.7-1.3-5.8c0-0.4,0-0.8,0-1.2c0-3.7-0.1-7.6-0.3-10.7c0-0.5,0-1.1,0.1-1.8
			c0-0.9,0.1-1.9,0.1-2.9c0-3.6-0.7-3.9-0.7-3.9c0,0-0.1,0-0.2,0c-0.7,0-1.9,0.3-2.5,0.5l-0.2,0.1c-0.7,0.3-0.9,0.4-1,0.5
			c-0.1,0.1-0.1,0.7-0.2,1.2l0,0.1c-0.2,1.7-0.4,3.6-0.4,5.5c0,0.8,0,1.5,0.1,2.2c0,0.7,0.1,1.5,0.1,2.2c0.1,1.3,0.3,2.7,0.3,4.2
			c0,2.3-0.4,5.2-3.4,6.7c-2.1,1.2-5.6,2.2-10.2,3c-0.4,0.1-0.7,0.1-0.9,0.1c-1.4,0-2.4-0.4-3.2-1.2c-1.4-1.5-1.2-4-1.1-5.9
			c0-0.4,0.1-0.8,0.1-1.1c0.2-2.8,0.3-5.6,0.4-8.3c0.1-2.7,0.3-5.5,0.4-8.3c0.6-12.1,1-23.8,1.2-35.8c0-2.4-0.1-3.8-0.2-5.1
			c-0.2-1.8-0.3-3.4,0-6.9c0.4-4.9,6.4-5.4,9.2-5.6c0.3,0,0.5,0,0.8,0c3.7,0,6.2,1.5,7,4.2c0.6,2.3,0.2,5.4-0.2,8.1
			c-0.1,0.9-0.2,1.7-0.3,2.5c-0.1,2.2-0.1,3.1-0.1,3.7c0,0.7,0,1.2,0.2,3.6c0.1,0.4,0.1,0.9,0.1,1.4c0.1,1.5,0.2,1.8,0.4,1.9
			c0.7,0,2.9-0.7,4-1.2c0.8-0.3,1.2-1.5,1.2-3.5c0-0.7-0.1-1.4-0.1-2.1s-0.1-1.3-0.1-1.9c-0.1-1.7,0-3.3,0-5c0.1-2.1,0.1-4,0-6
			c0-0.4-0.1-0.8-0.1-1.3c-0.2-1.4-0.4-3.2-0.4-4.9c0-2.9,0.7-4.8,2.1-6c2-1.6,5.9-1.9,8.8-1.9c0.6,0,1.1,0,1.6,0
			c5.6,0.4,6.2,3.7,6.3,7.1c0,2.1,0.1,4.1,0.2,6c0.2,2.8,0.3,5.6,0.2,8.6c-0.1,2.7-0.1,5.2-0.1,7.9c0,2.6,0,5.3,0.1,8
			c0,2.7,0.1,5.4,0.1,8c0,4-0.1,8.1-0.2,12.1c-0.1,3.9-0.2,7.9-0.2,11.8c0,1.5-0.1,2.9-0.1,4.3c-0.1,1.4-0.1,2.7-0.1,4
			c0,0.3,0,0.7,0.1,1.1c0.1,1.6,0.2,3.6-1.3,5.1c-2.3,2.1-6.7,2.9-9.9,3.4c-0.4,0.1-0.8,0.1-1.2,0.2
			C211.6,103.1,211,103.1,210.4,103.1z M131.2,102.6c-2.7,0-4.4-1.7-4.5-4.3c-0.1-1.8-0.1-3.9-0.1-5.7c0-0.5,0-1.5,0-2.8
			c0-4.1,0.1-11.7,0-13.1c0-0.3,0-0.8,0-1.4c0-0.6,0-1.7-0.1-2.4c-0.7,0.1-1.7,0.6-2.2,0.8l-0.4,0.2c0,0-0.1,0-0.1,0
			c-0.7,0.2-0.8,0.7-0.8,2.8v3.7c0,5.2-6.2,7.1-12.1,7.1c-0.9,0-2.3-0.5-3-0.8c-0.1-0.1-0.2-0.1-0.3-0.2c-1.2-0.9-1.2-2.7-1.2-3.8
			c-0.1-2-0.1-3.6,0-5.3c0-1.3,0.1-2.7,0-4.3c0-2-0.1-4.1-0.1-6.1c-0.1-2-0.1-4.1-0.1-6.1c0-0.3,0-0.7-0.1-1.1
			c-0.1-0.8-0.1-1.8,0.1-2.8c0.2-1.3,0.6-2.4,1-3.5c1-3.3,1.5-6.1,2.1-9.1c0.4-2.4,0.9-4.9,1.6-7.8c0.4-1.6,0.6-3.8,0.8-5.8
			c0.2-1.8,0.3-3.7,0.6-5.3c0.1-0.3,0.1-0.8,0.2-1.3c0.2-1.6,0.4-3.4,1.2-4.7c1.2-2,5.2-3.2,9.2-4.2c0.4-0.1,0.7-0.2,0.9-0.2
			l0.6-0.1c2.2-0.6,4.3-1.2,6.5-1.4c0.3,0,0.5-0.1,0.8-0.1c0.5-0.1,1-0.1,1.6-0.1c1.4,0,2.6,0.5,3.5,1.5c1.5,1.5,1.9,4.1,2.2,5.4
			c0.9,6.3,1.2,12.8,1.4,17.7c0.1,1.9,0.5,3.8,0.9,5.8c0.5,2.4,0.9,4.8,0.9,7.4c0,4.1-0.1,8.4-0.1,12.5c-0.1,4.1-0.1,8.4-0.1,12.5
			c0.1,1.4,0.1,5.3,0.1,9.3c0,3.9,0,7.9,0.1,9.3c0,0.3,0.1,0.6,0.1,0.9c0.1,0.7,0.2,1.5,0,2.3c-0.4,1.5-1.5,2-2.2,2.3
			c-0.1,0.1-0.2,0.1-0.4,0.2c-2.7,1.5-5,1.9-8.1,2.2C131.3,102.6,131.2,102.6,131.2,102.6z M124,51.5c0.1,1.5,0.1,2.9,0.1,4.3
			c0.7-0.1,1.4-0.4,1.8-0.5c0.2-0.1,0.4-0.4,0.3-1.3c0,0,0-0.1,0-0.1l-0.4-7c0-0.5-0.1-1-0.1-1.4c-0.1-0.5-0.1-1.1-0.1-1.7
			c0-0.2,0-0.3,0-0.5c0-0.2,0-0.4,0-0.5c-0.4,0.1-1,0.5-1.4,0.8c-0.3,0.3-0.2,1.5-0.1,2.3l0,0.3c0,0,0,0.1,0,0.2
			C124,46.1,124,51.5,124,51.5z"/>
		<path d="M527.4,14.2c0.7,0,1.4,0.1,2,0.4c1.2,4,1.4,9.4,1.4,14.4c0,2.3-0.1,4.5-0.1,6.5c-0.1,2.7-0.1,5.4-0.1,8.1
			c0,5.5,0.1,10.8,0.1,16.4c0,3.7,0,7.7,0,11.7c0,7.7,0.1,15.6,0.8,23.1c0.4,6.1-4.4,7.1-8.6,8.4c-1.7,0.6-3,0.9-4.1,0.9
			c-2.1,0-3.5-1.2-4.8-4.8c-3-9-4.6-19.3-8-28.1c-0.4-0.8-0.5-1.6-0.8-2.4c-0.2,0-0.3,0-0.5,0c-2.4,0-2.9,1-2.9,3
			c0,1.2,0.3,2.6,0.3,4.3c0.1,4,0.3,8.1,0.5,12c0.1,3.7,0.6,8.6,0.3,12c-0.4,3.2-5.4,4-8.4,4c-0.2,0-0.5,0-0.7,0
			c-0.9-3-1.2-6.4-1.2-9.8c0-3.9,0.4-8,0.3-11.6c0-10.1-0.8-19.9-0.8-29.8c0-6.5-0.4-12.8-0.4-19.1c0-6.1,2.8-7.7,7.2-9.3
			c1.8-0.6,3.7-0.9,5.4-1.5c1.1-0.4,2.1-0.8,3.1-0.8c1,0,1.8,0.4,2.3,1.7c1.5,4.3,1.5,9.8,2.7,14.1c1.3,4.6,2.2,9.8,3.1,14.5
			c0.3,1.4,0.6,5.3,1.7,6.2c0.4,0.2,0.7,0.3,0.9,0.3c1.5,0,1.7-3.3,1.9-4.7c0.6-6.3-0.8-12.4-0.8-18.6c-0.1-3.5-0.8-8.9-0.8-13.2
			c0-2.7,0.3-5,1.3-5.9C522.1,15.7,524.9,14.2,527.4,14.2 M133.2,14.7c0.9,0,1.7,0.2,2.4,1c1.2,1.2,1.6,3.1,1.8,4.6
			c0.8,5.7,1.2,11.7,1.4,17.5c0.3,4.5,1.8,8.6,1.8,13.2c0,8.3-0.3,16.8-0.3,25c0.1,2.8,0,15.9,0.1,18.7c0,0.9,0.4,1.9,0.1,2.7
			c-0.3,1-1,1.2-1.8,1.6c-2.6,1.4-4.8,1.8-7.6,2.1c-1.7,0-3-0.9-3-2.8c-0.1-1.8-0.1-3.9-0.1-5.7c0-1.9,0.1-14.1,0-16
			c-0.1-1,0.3-4.4-0.6-5c-0.2-0.1-0.4-0.2-0.7-0.2c-1.1,0-2.7,0.8-3.4,1.1c-1.9,0.6-1.8,2.6-1.8,4.6c0,2.2,0,1.2,0,3.3
			c0,4.9-7.7,5.6-10.6,5.6c-0.7,0-1.8-0.4-2.3-0.7c-0.6-0.5-0.6-1.9-0.6-2.7c-0.3-3.6,0.1-5.9,0-9.7c0-4-0.3-8.1-0.3-12.1
			c0-1.2-0.3-2.5,0-3.6c0.1-1.2,0.5-2.2,0.9-3.2c1.9-6.3,2.1-10.6,3.7-17c0.8-3.2,0.8-7.9,1.4-11.2c0.3-1.5,0.3-4.1,1.2-5.4
			c1.2-1.9,7.5-3.4,9.3-3.9c2.3-0.6,4.5-1.3,6.8-1.6C131.7,14.8,132.5,14.7,133.2,14.7 M123.5,57.3c0.9,0,2.7-0.5,3.1-0.8
			c1-0.6,1.2-1.8,1-2.8c-0.1-2.3-0.3-4.6-0.4-7c0-1-0.3-2.1-0.3-3.1c0-0.8,0.1-1.5-0.3-2.2c-0.2-0.3-0.6-0.4-0.9-0.4
			c-0.9,0-2.1,0.7-2.7,1.2c-1,0.9-0.8,2.6-0.7,3.9c0,1.8,0,3.6,0,5.4c0.1,1.4,0.1,2.8,0.1,4.3c0,0.5,0,1.2,0.4,1.4
			C123.1,57.3,123.3,57.3,123.5,57.3 M468.7,15.1c1,0,2,0.2,2.9,0.3c1.3,0.3,2.6,0.6,4,0.8c1.3,0.1,2.7,0.1,3.9,0.5
			c2.6,0.8,3.1,2.7,3.5,5c0.4,2.8,0.1,5.7,0.1,8.4c0,1.7,0,3.3,0,5c0,2.3,0,6.7-0.1,9c0,2.2,0,4.8-1.8,5.9c-1.8,1-4.6,2.1-6.6,2.3
			c-0.2,0-0.5,0-0.7,0c-0.8,0-1.5-0.2-2.1-0.8c-1-1-0.6-1.7-0.5-3c0.3-2.6,0.3-5.3-0.1-7.9c-0.2-1.6-0.7-2-1.6-2
			c-0.6,0-1.4,0.2-2.5,0.3c-2.5,0.4-5,0.9-5.4,3.7c-0.5,4.8-1,7.6-1,11.5c0,1.4,0.1,3,0.3,4.8c0.3,3.6,0.6,8,0.8,11.6
			c0,2.6,0.9,4.4,1.7,6.8c0.4,1.6,0.6,1.9,2.2,1.9c0.6,0,1.5,0.1,2.3,0.1c0.4,0,0.8,0,1.1-0.1c2-0.5,3.2-2.7,3.2-4.5
			c0-0.5-0.1-3.7-0.5-3.7c-0.3-0.3-0.7-0.4-1.1-0.4c-0.8,0-1.6,0.5-2.4,0.7c-0.4,0.1-0.8,0.1-1.1,0.1c-1.8,0-2-1.5-2.4-3.5
			c-0.1-0.9-0.3-2.4-0.3-4.1c0-1.8,0.1-3.6,0.9-4.4c1.2-1.3,4.3-1.3,5.9-1.8c2.5-0.5,4.8-0.9,7.2-1.5c1.8-0.4,4.1-1.2,6.2-1.2
			c0.5,0,1.1,0.1,1.6,0.2c2.3,0.7,2.5,5.9,2.5,8c0.3,2.7-2.1,2.7-3.5,4.6c-0.6,0.8-0.9,1.6-1,2.3c0.3,2.6,0.6,5.3,0.8,8
			c0.1,4.4,0.9,9.3,1,13.7c0,2.8,0.3,5.8,0.4,8.6c0.1,2.1-1.4,2.4-3.2,2.7c-1.7,0.8-4.3,0.5-6.2,0.9c-1.3,0.3-3.5,0.9-5.3,0.9
			s-3.4-0.6-3.7-2.7c-0.4-1.8,1.3-4.1-0.9-4.9c-0.3,0-0.6,0-1.2,0.1c-1.6,0.8-3.7,2.5-5.6,2.5c-0.2,0-0.4,0-0.6-0.1
			c-1.2-0.3-3.1-1.6-4.1-2.2c-1-0.8-2.2-1.6-3-2.6c-1.9-2.4-1.8-5.3-2.1-8.3c-0.6-8.1-1-16.4-1-24.6c0-4.1,0.1-8.4,0.3-12.5
			c0.1-3.1,0.1-6.2,0.1-9.3c0-3.1,0-6.2,0.1-9.3c0.3-3.5,0.1-6.3,3.2-8.3c1.7-1,3.2-2.2,4.8-3.4c1.9-1.2,3.9-1.8,5.9-2.7
			c1.3-0.6,2.8-1.6,4.3-1.8C468.2,15.1,468.5,15.1,468.7,15.1 M378.7,15.8c0.9,0,1.6,0.3,2.1,1.2c1.2,1.8,1.3,4.6,1.4,6.8
			c0,1,0.1,3.2,0.1,5.5c0,2.7-0.1,5.4-0.5,6.5c-0.9,2.2-3.1,2.6-5.2,3.3c-2.3,0.6-6.2,1.2-8.8,1.4c-2.7,0-3.9,0.4-4,3.3
			c0,1.3,0,1.5,0.1,2.7c0.1,1,0,1.5,0.4,2.3c0.4,0.9,1.5,1.1,2.8,1.1c1.3,0,2.8-0.3,3.7-0.3c2.1-0.4,5.6-1.3,7.8-1.3
			c0.1,0,0.3,0,0.4,0c2.5,0.4,2.2,4.4,2.3,6.3c0.1,1.5,0.1,3.1,0.1,4.8c0.1,1.3,0.4,2.7,0.1,4c-1.3,4.4-9,4.8-12.6,5.4
			c-3,0.5-3.1,1.6-3.2,4.4c-0.1,3.1-0.1,4,0.3,7c0.4,2.4,1.5,3.1,3.8,3.1c0.2,0,0.4,0,0.6,0c2.5,0,5.2-0.5,7.5-1
			c1.4-0.4,2.6-1.3,3.7-1.3c0.7,0,1.4,0.4,2,1.5c1,1.8,0.9,4.5,1.2,6.8c0.3,2.2,0.6,4.6-0.6,6.6c-1.8,3-6.5,4.4-9.5,5.6
			c-4,1.2-8.1,1.8-12.3,1.8c-2.2-0.1-6.2-0.5-7.4-2.4c-0.6-1.2-0.5-2.8-0.6-4.1c-0.1-2.1-0.3-4.1-0.3-6.2c0-5.4-0.4-10.6-0.5-16.1
			c-0.1-4.1-0.3-8.3-0.3-12.4c0-2.5,0-4.8,0.3-7.2c0.3-3.1,0.4-6.5,0.3-9.7c-0.3-5.8-0.6-11.3-1.2-16.9c-0.1-2.1-0.6-4.1,0-6.2
			c0.5-1.9,2.7-2.3,4.5-2.3c2.6-0.3,5.3-0.4,8-0.9c3.2-0.8,6.5-1.3,9.5-2.1C375.9,16.4,377.4,15.8,378.7,15.8 M96.6,16.5
			c2.5,0,4.7,0.6,5.8,3c0.9,2.1,0.3,8.5,0.3,11c0,3.7,0.1,7.3,0,11.1c-0.3,6.8-0.6,13.7-1,20.5c-0.3,4.6-5,7.1-8.5,10.3
			c1.7,1,4.1,1.4,5.9,2.3c1.9,1,4.1,1.9,5.2,4c0.9,2.1,0.7,1.8,0.5,4.1c-0.1,1.9,0,4.1,0.4,6.1c0.4,1.9,4.7,2.3,7.7,2.3
			c1.2,0,2.3-0.1,2.7-0.1c3-0.3,3-0.5,5.8-0.6c0.5,0,0.9-0.1,1.2-0.1c1.1,0,1.7,0.3,2.1,1.6c0.4,1,0.4,5.8,0.4,6.8
			c0,3.3-0.8,4.9-3.9,5.2c-3,0.3-3.3,0-6.3,0.3c-3.1,0.3-10.2,1.8-15.5,1.8c-2.4,0-4.4-0.3-5.6-1.1c-1.9-1.3-4-3.1-5.2-5.2
			c-1.7-1-0.7-6.2-0.7-8.3c0-0.8,0.3-3.1,0.3-6.7c0-3-0.8-7-4.6-7c-0.2,0-0.5,0-0.7,0c-0.7,3.3-0.3,7-0.3,10.3c0,3.1,0,3.7,0,6.8
			c0,1.7,0.5,5.4-1.3,6.6c-0.8,0.4-2.4,0.3-3.5,0.4c-1.3,0.3-2.6,0.5-4,0.8c-0.6,0.2-1.4,0.2-2.2,0.2c-1.3,0-2.7-0.2-3.4-0.9
			c-1.3-0.9-0.8-3.7-0.8-5.4c0-9.2,0.3-16,0.3-25.2c0-6.6-0.4-13-0.4-19.5c0-6.7,0.5-13.5-0.1-20.1c-0.3-2.5-0.1-3.7-0.5-6.2
			c-0.3-3,1.7-4.1,4.6-4.4c2.6-0.3,5.3-1.8,7.9-2.2c2.8-0.4,6.3-1.9,9.3-1.9C91.1,17.1,94.1,16.5,96.6,16.5 M82,62
			c1.6,0,4.1-0.9,4.8-1.8c1-1.4,0.4-4.4,0.5-6.1c0.1-2.3,0-4.5,0.3-6.8c0-1.9,0-4.1-0.1-6.1c-0.1-1.1-0.2-1.6-1.4-1.6
			c-0.2,0-0.3,0-0.5,0c-0.9,0.1-2.6,0.4-3.5,0.8c-1.7,1-1.2,3.7-1.2,5.3c0,1.8-0.6,15,0,15.9C81.1,61.8,81.5,62,82,62 M171.2,16.7
			c1.3,0,2.6,0.1,4.3,0.3c4.4,0.4,5.3,3.1,5.3,6.2c0,1.8-0.3,3.9-0.4,5.4c-0.4,7.7-0.3,15.6-0.8,23.4c-0.1,3.3-0.1,12.5-0.4,15.9
			c0,2.2-0.3,3.6-1.6,5.6c-1.7,2.4-3.5,3.1-6.3,3.7c-2.7,0.5-3.6,0.9-6.2,1.7c-1.4,0.5-4.1,0.4-5.3,0.6c-1.2,0.3-1.2,1.3-1.2,2.6
			c-0.1,1.9-0.3,3.9-0.3,5.8c0,1.4,0.1,2.8,0.1,4.1c0.1,3,0.1,4.6,0.3,7.5c0.1,3.2-2.1,4.3-5,4.6c-1.7,0.2-2.9,1.1-4.3,1.1
			c-0.4,0-0.7-0.1-1.1-0.2c-2.8-0.9-2.4-4.8-2.3-7.2c0.3-4-0.1-8,0.1-12c0.1-3.3,0-7.2,0-10.6c0-3,0.4-6.1,0.4-9.2
			c0-2.3-0.4-4.6-0.5-7.1c-0.1-1.7,0-3.5-0.1-5.2c0.1-3.7,0.3-7.3,0.4-11c0.1-1.5,0.1-3.2,0.1-4.8c0-2.2,0-4.3-0.1-6.3
			c-0.1-1.9-1-5.3-0.3-7.1c0.8-1.5,3-3.5,5.4-4c0.1,0,5.3-1.2,5.6-1.2C163.7,17.7,166.5,16.7,171.2,16.7 M160.3,62.1
			c1.4,0,3.3-1,3.4-2.4c0.3-2.3,0.3-6.2,0.3-8.6s0.3-5,0.3-7.5c0-0.8,0.4-2.7-0.4-3.1c-0.2-0.1-0.4-0.1-0.7-0.1
			c-0.8,0-2,0.3-2.5,0.5c-2.3,0.8-1.8,3.2-1.9,4.9c-0.1,1.8-0.1,3.6-0.1,5.4s0,3.7-0.1,5.5c0,1.5-0.1,3.2,0.4,4.6
			C159.1,61.9,159.6,62.1,160.3,62.1 M414.7,16.8c1.5,0,3,0.4,3.7,1.9c0.5,0.9,0.8,2.3,0.8,3.9c0,1.9-0.3,4.1-0.1,5.4
			c0.3,3.7-0.6,7.4,0.1,11.5c0.1,1.3,0.5,3.1,0.5,5c0,2.1-0.4,3.9-1.4,5c-1.4,1.5-2.3,1-4.1,1.5c-0.6,0.1-1.3,0.2-2,0.2
			c-2.5,0-5.1-1-5-3.6c0.1-2.3,0.4-3.2,0.3-4c-0.1-1.5-0.2-2.1-1.6-2.1c-0.1,0-0.3,0-0.5,0c-1.2,0.1-3.6,0.3-4.5,1
			c-2.3,1.8-1.8,2.3-1.8,4c0,1.9-0.5,4,2.6,5.5c3,1.4,6.1,3.1,9.2,4.4c3.1,1.4,7.2,2.6,9.8,5.2c1.9,1.9,1.3,5.5,1.3,8.4
			c0.1,4.8-0.6,9.4-1.9,14.1c-1.2,3.9-2.8,11.3-4.8,14.8c-1.7,2.8-2.2,3.9-5,4.8c-4,1.3-6.7,1.9-8.6,1.9c-3.6,0-4.6-2.1-7.1-5.4
			c-2.2-3-4.1-6.1-4.8-10.1c-0.6-3.9-1.8-8.4-1.8-12.4c-0.1-4.8,4.1-6.7,8-6.7c1.4,0,2.7,0.3,3.9,0.8c2.6,0.9,1.5,4.1,1.9,6.7
			c0.3,1.9,0.5,6.6,2.6,6.7c2.1,0,5-4.5,5.8-6.4c1.2-3,1.2-6.2-1.5-7.9c-3-1.8-5.7-3.2-8.9-4.4c-2.5-0.9-7.1-1.3-9.4-2.7
			c-2.5-1.5-2.1-4.6-2.3-7.5c-0.4-4.5,0.1-9.2,0.1-13.9c0-4.6-0.1-11.5,2.3-15.7c2.1-4,5.9-5.4,9.5-7.2c3.4-1.7,6.6-2.1,9.9-2.3
			C411.4,17.2,413.2,16.8,414.7,16.8 M216.9,16.9c0.6,0,1.1,0,1.5,0c4.1,0.3,4.8,2.1,4.9,5.7c0,4.9,0.6,9.5,0.4,14.5
			c-0.1,2.7-0.1,5.3-0.1,8c0,5.3,0.1,10.7,0.1,16c0,8-0.4,16-0.4,23.9c0,2.8-0.3,5.6-0.3,8.3c0,1.7,0.5,3.7-0.8,5
			c-2.2,2.1-7.5,2.7-10.3,3.2c-0.6,0.1-1.1,0.2-1.5,0.2c-3.3,0-2.6-3.7-2.6-6.7c0-3.6-0.1-7.2-0.3-10.7c0-1,0.1-2.8,0.1-4.6
			c0-2.3-0.3-4.6-1.6-5.3c-0.2-0.1-0.5-0.2-0.9-0.2c-1.1,0-2.6,0.5-3.3,0.7c-1.9,0.8-1.9,1-2.2,3c-0.3,1.8-0.4,3.7-0.4,5.7
			c0,1.6,0.1,3,0.1,4.5c0.1,1.3,0.3,2.7,0.3,4.1c0,2.2-0.4,4.3-2.6,5.4c-2.6,1.4-6.8,2.3-9.8,2.8c-0.2,0-0.5,0-0.7,0
			c-3.7,0-2.8-4.1-2.7-6.8c0.4-5.6,0.5-11,0.9-16.5c0.6-12,1-23.9,1.2-35.9c0-5.9-0.8-6.1-0.3-11.9c0.3-3.5,4.5-4,7.9-4.3
			c0.2,0,0.4,0,0.7,0c2.3,0,4.8,0.6,5.5,3.1c0.6,2.7-0.3,7.1-0.5,10.1c-0.1,2.3-0.1,3.2-0.1,3.9c0,0.8,0,1.3,0.3,3.7
			c0.3,1.7-0.3,4.3,1.8,4.6c0.1,0,0.1,0,0.2,0c1.1,0,3.8-0.9,4.6-1.3c1.7-0.8,2.1-2.8,2.1-4.9c0-1.4-0.3-2.8-0.3-4
			c-0.1-3.7,0.3-7.3,0-11.1c-0.1-1.4-0.5-3.9-0.5-6.1c0-2.1,0.4-3.9,1.6-4.8C210.6,17.2,214.2,16.9,216.9,16.9 M333.3,17
			c1.2,0,2.3,0.1,3.7,0.4c3.1,0.6,7.4,0.6,9.3,3.2c0.8,1,1,2.6,1,4.3c0,3.1-0.9,6.7-0.9,9c0,5.7,0.4,11.3,0.4,17
			c0,1.7,0,3.5-0.1,5.2c-0.3,5.3-0.9,10.8-0.9,16.1c0.1,2.1,0.3,4.4,0.3,6.7c0,1.6-0.1,3.2-0.4,4.6c-0.9,3.2-4.3,6.8-6.6,9.3
			c-3.1,3.2-7,6.2-10.7,8.8c-3.5,2.4-6.5,4.8-9.9,4.8c-1.7,0-3.4-0.5-5.4-1.7c-3.5-2.1-3-4.3-2.6-7.9c0.3-2.8,0.4-5.8,0.4-8.6
			c0-1.6,0-3,0-4.5c0-2.6,0-5.2,0.3-7.7c0.4-4.1,0.6-8.1,0.4-12.1c-0.1-2.1-0.1-4.3-0.1-6.3c0-3.5,0.1-6.8,0.1-10.3
			c0-2.6-0.1-5.2-0.3-7.7c-0.3-3.9-1.3-9.3-0.4-13c1.3-4.5,8.5-5.4,12.5-7C327.1,18,330,17,333.3,17 M327.2,82.3
			c0.2,0,0.5-0.1,0.8-0.4c4.3-3.3,3.9-5,4.1-8c0.3-3.5,0-5.2,0-8.8c0.1-4.4,0.4-8.9,0.4-13.4c0-2.3-0.1-4.6-0.1-7
			c0-1.2,0.5-3.7-0.4-4.5c-0.2-0.2-0.6-0.3-1-0.3c-1,0-2.1,0.6-2.8,1c-1.4,0.9-1.5,1.5-1.8,3.3c-0.4,3.1,0,6.8-0.1,10.2
			c-0.1,2.2,0.1,4.3,0.3,6.3c0.3,2.2-0.4,4.3-0.6,6.3c-0.3,2.4,0,4.9,0,7.2c0,1.6,0.1,3.1,0.1,4.6C326.2,80.6,326.4,82.3,327.2,82.3
			 M273.1,17.5c0.9,0,1.9,0.1,2.9,0.2c2.8,0.4,7.1,0.9,8.9,3.4c1.9,2.8,1.5,5.8,1.4,8.9c-0.1,2.1,0,4.1,0.3,6.2
			c0.3,3.5,0.4,6.3,0.3,9.8c-0.1,2.5,0.5,5.4,0,7.9c-0.5,1.9-0.9,4-2.7,5.2c-1.5,1-3.9,1.5-6,1.5c-0.6,0-1.2,0-1.7-0.1
			c-2.2-0.4-1.7-2.8-1.5-4.5c0.1-2.3-0.4-4.4-0.1-6.8c0.1-1.4,0.4-6.5-0.8-7.6c-0.2-0.3-0.6-0.4-1.1-0.4c-1.5,0-3.7,1.2-4.3,1.9
			c-1.4,2.1-1.2,6.1-1.2,8.4c0,10.6,0.4,21.2,0.9,31.7c0.1,1.8,0.8,2.6,2.1,2.6c0.5,0,1.2-0.1,1.9-0.4c3.7-1.2,3.5-2.6,3.6-4.8
			c0.1-1.8-0.3-3.7-0.3-5.6c0-2.3,0.6-4.3,3.7-5c1-0.2,2.5-0.5,3.8-0.5c1,0,1.8,0.2,2.4,0.7c1.8,1.6,0.9,4.9,1,7c0,1.8,0,3.6,0,5.4
			s0,3.6,0.1,5.4c0,1.3,0.1,2.6,0.1,3.9c0,1.8-0.1,3.7-0.3,5.6c-0.3,2.2-1.4,3-3.6,4c-3.1,1.3-6.6,2.3-9.9,3.3
			c-1.8,0.5-3.2,0.9-4.6,0.9c-1.3,0-2.7-0.3-4.3-1c-3-1.6-6.4-3.3-8.5-6.1c-2.2-2.8-1.8-6.2-2.1-9.4c-0.5-5.3-0.3-10.6-0.5-15.7
			c-0.1-4.6-0.4-9.3-0.4-13.8c0-1.9,0-4,0.1-5.9c0.3-5.5-0.4-11.2-0.4-16.8c0-3.1-0.4-7,1.9-9.5c2.8-3.2,6.7-5.8,10.6-7.7
			C267.5,18.2,270.2,17.5,273.1,17.5 M43.6,19.3c2.8,0,5.7,0.8,7.7,2.5c2.6,2.2,4,4.5,4,8c0,3.6-0.5,7.1-0.3,10.7
			c0,2.5,1.2,5.8,0,8.1c-1,2.3-5.2,3.2-7.2,4c-1.6,0.6-2.8,1.3-3.7,1.3c-0.9,0-1.5-0.7-1.7-3.1c-0.1-1.9,0.5-6.5-1.5-6.5
			c-0.3,0-0.7,0.1-1.2,0.4c-2.7,1.7-3.9,4.5-3.9,7.5c0,6.7,0.7,13.8,0.4,20.6c-0.1,2.1,0,8.1,1.9,8.9c0.1,0,0.2,0,0.3,0
			c0.9,0,2.5-1,3.1-1.5c1.5-1,1.5-1.8,1.7-3.7c0-0.5,0-1.2,0-1.7c0-2.1-3.1-1.3-3.5-3.1c-0.5-1.8-0.1-4.1-0.1-5.9
			c0-1.4-0.3-3.3,0.5-4.5c1-1.5,3.5-1.2,5-1.7c4.9-1.4,9.5-4,14.7-4.1c0.1,0,0.2,0,0.2,0c3.6,0,3.4,3,3.2,6.2
			c-0.1,2.8,0.5,6.3-0.3,9.2c-0.8,3-3.9,1.7-4.5,4.3c-0.4,1.6,0.1,3.2,0.1,4.6c0,0.9-0.1,1.8-0.1,2.8c0.1,3,0.5,8.9,0.8,12
			c0.3,2.4,2.1,6.7-0.9,7.7c-3.3,1.4-8.1,1.2-11.7,1.8c-0.6,0.1-1.1,0.2-1.6,0.2c-1,0-1.8-0.3-2.4-1.3c-0.5-0.9-0.4-6.8-1.7-7.1
			c0,0-0.1,0-0.1,0c-0.8,0-2.1,2-2.7,2.5c-1.2,0.9-2.9,1.9-4.4,1.9c-0.1,0-0.2,0-0.2,0c-2.7-0.3-5.3-2.6-7.2-4.6
			c-2.2-2.4-3.2-5.4-3.2-8.8c0-13.2-1.2-26.5-1.8-39.6c-0.1-3.2,0.1-6.3,0.3-9.5c0-2.1,0-4.3,1.3-5.9c2.7-3.5,8-6.5,11.3-9.3
			C36.5,20.4,40.1,19.3,43.6,19.3 M439.6,20.2c1.2,0,2.1,0.4,2.7,1.9c0.4,1,0.5,2.3,0.5,3.7c0,2.1-0.3,4.1-0.3,5.8
			c0,10.3,0,20.6,0,31c0,10.2,0.4,20.4,0.4,30.3c-0.1,6.4-3.5,9.3-9,9.6c-0.2,0-0.5,0-0.8,0c-1.8,0-4.5-0.1-5.5-1.4
			c-0.8-1-1-3.2-1-5.6c0-1.7,0.1-3.2,0.1-4.3c-0.1-2.1-0.1-4-0.1-5.9c0-4,0.1-8,0.1-12c0-8.9-0.8-17.8-0.8-26.7c0-1.7,0.1-3.3,0.1-5
			c0.3-4.1,0-8.4,0.4-12.5c0.5-7,5.4-8,10.6-8.6C438,20.3,438.9,20.2,439.6,20.2 M243,20.2c1.2,0,2.1,0.4,2.7,1.9
			c0.4,1,0.5,2.3,0.5,3.7c0,2.1-0.3,4.1-0.3,5.8c0,10.3,0,20.6,0,31c0,10.2,0.4,20.4,0.4,30.3c-0.1,6.4-3.5,9.3-9,9.6
			c-0.2,0-0.5,0-0.8,0c-1.8,0-4.5-0.1-5.5-1.4c-0.8-1-1-3.2-1-5.6c0-1.7,0.1-3.2,0.1-4.3c-0.1-2.1-0.1-4-0.1-5.9c0-4,0.1-8,0.1-12
			c0-8.9-0.8-17.8-0.8-26.7c0-1.7,0.1-3.3,0.1-5c0.3-4.1,0-8.4,0.4-12.5c0.5-7,5.4-8,10.6-8.6C241.4,20.3,242.3,20.2,243,20.2
			 M527.4,11.2c-2.3,0-4.6,0.9-6.5,1.6c-0.7,0.3-1.4,0.5-2,0.7c-0.4,0.1-0.8,0.3-1.1,0.6c-2,1.8-2.3,5-2.3,8.2
			c0,2.7,0.2,5.8,0.5,8.5c0.1,1.7,0.3,3.4,0.3,4.7c0,2.4,0.2,4.8,0.4,7.1c-0.4-1.9-0.9-3.8-1.4-5.7c-0.5-1.7-0.7-3.6-1-5.7
			c-0.4-2.9-0.8-5.9-1.8-8.6c0,0,0-0.1,0-0.1c-0.9-2.2-2.8-3.5-5.1-3.5c-1.5,0-2.9,0.5-4.1,0.9c0,0,0,0-0.1,0
			c-0.7,0.3-1.5,0.5-2.4,0.7c-1,0.2-1.9,0.5-3,0.8c-4.5,1.6-9.2,3.9-9.2,12.1c0,3.2,0.1,6.4,0.2,9.5c0.1,3.1,0.2,6.4,0.2,9.5
			c0,0.3,0,0.5,0,0.8c-0.6-0.6-1.3-1-2.1-1.2c-0.8-0.2-1.6-0.3-2.4-0.3c-0.3,0-0.7,0-1,0c2.5-2.1,2.5-5.5,2.5-7.9
			c0.1-2.4,0.1-6.8,0.1-9.1v-5c0-0.7,0-1.5,0-2.2c0.1-2.1,0.1-4.3-0.2-6.5c0,0,0-0.1,0-0.1c-0.4-2.1-1-6-5.5-7.4
			c-1.2-0.4-2.5-0.5-3.5-0.6c-0.3,0-0.6,0-0.9-0.1c-0.8-0.1-1.6-0.2-2.4-0.4c-0.4-0.1-0.9-0.2-1.3-0.3c-0.1,0-0.2,0-0.3,0
			c-0.2,0-0.5-0.1-0.8-0.1c-0.8-0.1-1.6-0.2-2.5-0.2c-0.4,0-0.7,0-1,0.1c-0.1,0-0.1,0-0.2,0c-1.6,0.3-3.1,1.1-4.4,1.7
			c-0.2,0.1-0.4,0.2-0.6,0.3c-0.5,0.2-1.1,0.4-1.6,0.7c-1.5,0.6-3,1.2-4.6,2.2c-0.1,0-0.2,0.1-0.3,0.2c-1.5,1.1-3,2.2-4.5,3.2
			c-4.1,2.6-4.4,6.3-4.6,9.6c0,0.3,0,0.6-0.1,1c0,0,0,0.1,0,0.1c-0.1,3.2-0.1,6.3-0.1,9.4c0,3,0,6.1-0.1,9.2
			c-0.1,3.9-0.3,8.4-0.3,12.6c0,7.8,0.4,16.2,1,24.9c0,0.5,0.1,0.9,0.1,1.3c0.2,2.7,0.4,5.7,2.6,8.5c0.9,1.2,2.1,2.1,3.1,2.8
			c0.1,0.1,0.3,0.2,0.5,0.3c0.1,0.1,0.1,0.1,0.2,0.1l0.4,0.2c1.7,1.1,3.2,2,4.7,2.3c0,0,0.1,0,0.1,0c0.4,0.1,0.7,0.1,1.1,0.1
			c1.7,0,3.3-0.7,4.6-1.5c0,0.4,0,0.9,0.1,1.3c0.6,3.2,3.1,5.1,6.7,5.1c1.7,0,3.6-0.4,4.9-0.7c0.4-0.1,0.7-0.2,1-0.2
			c0.5-0.1,1.3-0.2,2-0.2c1.4-0.1,3-0.2,4.4-0.7c3.8-0.7,5.6-2.6,5.4-5.8c0-0.9-0.1-1.9-0.2-2.8c-0.1-1.9-0.2-3.8-0.2-5.7
			c0,0,0-0.1,0-0.1c-0.1-2.3-0.3-4.7-0.5-7c-0.2-2.2-0.4-4.5-0.5-6.6c0,0,0,0,0-0.1c-0.1-2-0.3-3.9-0.5-5.8
			c-0.1-0.6-0.1-1.3-0.2-1.9c0.1-0.2,0.2-0.4,0.3-0.6c0-0.1,0.1-0.1,0.1-0.2c0.2-0.3,0.6-0.6,1-0.9c0.3-0.2,0.6-0.4,0.9-0.7
			c0.2,4.7,0.4,9.6,0.4,14.5c0,0,0,0.1,0,0.1c0.1,1.9,0,4-0.1,6.3c-0.1,1.7-0.1,3.5-0.1,5.2c0,4.3,0.4,7.8,1.3,10.7
			c0.4,1.2,1.5,2.1,2.7,2.1c0.3,0,0.5,0,0.9,0c6.6,0,11-2.6,11.4-6.7c0.3-2.7,0.1-5.9-0.1-9.1c-0.1-1.2-0.1-2.3-0.2-3.3
			c0,0,0-0.1,0-0.1c-0.2-3-0.3-6.3-0.4-9.4c0.9,3.1,1.7,6.2,2.5,9.3c1,4.2,2.1,8.5,3.5,12.6c0,0,0,0.1,0,0.1c1,2.9,2.9,6.8,7.6,6.8
			c1.6,0,3.2-0.3,5.1-1.1l0.7-0.2c3.9-1.2,10.5-3.1,10-11.2c0,0,0,0,0-0.1c-0.7-7.8-0.8-15.9-0.8-22.8V60c0-2.8,0-5.6-0.1-8.2
			c0-2.7-0.1-5.4-0.1-8.2c0-2.6,0-5.3,0.1-8c0,0,0-0.1,0-0.1c0-0.9,0-1.8,0.1-2.8c0-1.1,0.1-2.4,0.1-3.6c0-6.8-0.5-11.7-1.5-15.3
			c-0.2-0.8-0.8-1.5-1.6-1.9C529.7,11.4,528.6,11.2,527.4,11.2L527.4,11.2z M467.4,42.1c0.3,0,0.6-0.1,0.8-0.1c0.2,2,0.2,4.1,0,6.4
			c0,0.2,0,0.4-0.1,0.5c-0.2,1-0.5,3,1.5,4.9c0.4,0.4,0.9,0.8,1.4,1c-0.2,0-0.4,0.1-0.5,0.1c-0.1,0-0.2,0-0.3,0.1
			c-0.3,0.1-0.9,0.2-1.5,0.3c-1.6,0.3-3.6,0.6-5,1.7c-0.1-1-0.1-1.8-0.1-2.6c0-2.7,0.3-4.8,0.6-7.6c0.1-1.1,0.3-2.2,0.4-3.5
			C464.6,42.9,464.7,42.5,467.4,42.1L467.4,42.1z M466.9,74.7c0.5,0,1.1-0.1,1.8-0.2c0.1,0,0.2-0.1,0.3-0.1c0,0.3,0,0.5,0,0.6
			c0,0.6-0.5,1.5-1,1.6c0,0,0,0,0,0c0,0-0.1,0-0.3,0c-0.3,0-0.7,0-1.1-0.1c-0.2,0-0.4,0-0.6,0c-0.2-0.6-0.4-1.1-0.5-1.6
			c-0.1-0.2-0.1-0.4-0.2-0.5C465.8,74.6,466.3,74.7,466.9,74.7L466.9,74.7z M133.2,11.7L133.2,11.7c-0.6,0-1.2,0.1-1.7,0.1
			c-0.2,0-0.4,0.1-0.7,0.1c0,0-0.1,0-0.1,0c-2.4,0.3-4.6,0.9-6.8,1.5l-0.5,0.1c-0.2,0.1-0.6,0.1-0.9,0.2c-5.3,1.4-8.7,2.7-10.1,4.9
			c-1.1,1.6-1.3,3.7-1.5,5.4c-0.1,0.4-0.1,0.9-0.1,1.2c-0.3,1.7-0.5,3.6-0.7,5.4c-0.2,2-0.4,4.1-0.7,5.6c-0.8,3-1.2,5.5-1.7,7.9
			c-0.5,2.9-1,5.6-2,8.9c-0.3,0.7-0.5,1.4-0.7,2.3c0.2-4.5,0.5-9.1,0.7-13.7c0.1-2.6,0.1-5.1,0-7.5c0-1.2,0-2.5,0-3.7
			c0-0.5,0-1.4,0.1-2.4c0.2-4.5,0.3-7.8-0.6-9.8c0,0,0,0,0,0c-1.4-3.1-4.3-4.7-8.5-4.7c-1.5,0-3,0.2-4.4,0.3
			c-1.3,0.1-2.5,0.3-3.5,0.3c-2.2,0-4.3,0.6-6.3,1.2C81.2,15.6,80,15.9,79,16c-1.5,0.2-2.9,0.7-4.3,1.2c-1.3,0.5-2.5,0.9-3.5,1
			c-2.2,0.2-3.9,0.8-5.2,1.9c-1.1,1-2.4,2.7-2.2,5.8c0,0.1,0,0.1,0,0.2c0.2,1.3,0.2,2.2,0.3,3.2c0,0.8,0.1,1.7,0.2,2.8
			c0.4,4.3,0.3,9,0.2,13.5c0,2.1-0.1,4.2-0.1,6.3c0,0.8,0,1.5,0,2.3c-1.1-1.1-2.6-1.7-4.5-1.7c-0.1,0-0.2,0-0.3,0
			c-2,0-3.9,0.4-5.8,0.9c1.6-0.8,3-1.9,3.8-3.6c1.2-2.4,0.8-5.1,0.5-7.2c-0.1-0.8-0.2-1.6-0.2-2.2c0-0.1,0-0.1,0-0.2
			c-0.1-2,0-3.9,0.1-6c0.1-1.4,0.2-2.9,0.2-4.5c0-4.1-1.6-7.3-5.1-10.3c0,0,0,0,0,0c-2.5-2-5.9-3.1-9.6-3.1c-4.3,0-8.6,1.5-11.4,4
			c-1.1,0.9-2.4,1.9-3.8,2.9c-2.9,2.1-5.9,4.2-8,6.9c-1.9,2.5-1.9,5.4-1.9,7.7c0,0.8-0.1,1.6-0.1,2.4c-0.1,2.4-0.2,4.8-0.1,7.4
			c0.2,4.1,0.5,8.2,0.7,12.2c0.6,9,1.1,18.3,1.1,27.3c0,4.2,1.3,7.8,4,10.8c0,0,0,0,0.1,0.1c2.1,2.2,5.3,5.2,9.1,5.6
			c0.2,0,0.4,0,0.5,0c2,0,3.9-1,5.6-2.1c0.2,1.5,0.3,2.5,0.8,3.3c0.8,1.3,2.2,2.8,5,2.8c0.7,0,1.4-0.1,2-0.2c0,0,0,0,0.1,0
			c1.2-0.2,2.5-0.3,3.9-0.4c2.8-0.2,5.8-0.5,8.4-1.5c4.7-1.7,3.6-6.8,3.1-9.3c-0.1-0.6-0.2-1.1-0.3-1.5c-0.3-3.2-0.6-8.9-0.8-11.8
			c0-0.4,0-0.8,0.1-1.2c0-0.5,0.1-1,0.1-1.5c0-0.7-0.1-1.3-0.2-1.9s-0.2-1.3-0.1-1.7c0.1,0,0.2-0.1,0.3-0.1c0.8-0.3,2.2-0.8,3.2-2.2
			c0,3.6-0.1,6.9-0.1,10.2c-0.1,3.9-0.1,8-0.1,12.6c0,0.3,0,0.7,0,1c-0.1,2-0.3,5.1,2,6.8c1.5,1.3,3.7,1.5,5.2,1.5
			c1,0,2-0.1,2.8-0.3c1.4-0.3,2.7-0.5,3.8-0.7c0.2,0,0.5,0,0.8,0c1.1,0,2.4-0.1,3.5-0.6c0.1-0.1,0.2-0.1,0.3-0.2
			c1.3-0.9,2.1-2.2,2.4-3.6c0.2,0.4,0.5,0.9,0.9,1.2c1.6,2.5,4,4.4,5.8,5.7c1.6,1.1,3.9,1.7,7.2,1.7c3.7,0,8.1-0.7,11.6-1.2
			c1.7-0.3,3.1-0.5,4.1-0.6c1.4-0.1,2.1-0.1,2.9-0.1c0.9,0,1.8,0,3.4-0.1c3.6-0.3,5.2-2.1,6-3.9c1,0.7,2.3,1.1,3.7,1.1
			c0.1,0,0.2,0,0.3,0c3.3-0.3,5.8-0.8,8.7-2.4c0.1,0,0.2-0.1,0.2-0.1c0.6-0.3,1.8-0.8,2.5-2c0,2.9,0.4,6.9,4.5,8.2
			c0.6,0.2,1.3,0.3,2,0.3c1.3,0,2.4-0.4,3.2-0.7c0.6-0.2,1-0.4,1.5-0.4c6.6-0.8,7.8-4.7,7.7-7.7c-0.1-1.4-0.1-2.6-0.1-3.7
			c0-1.1-0.1-2.3-0.1-3.7c0-0.7,0-1.4-0.1-2c0-0.7-0.1-1.4-0.1-2c0-1.8,0.1-3.6,0.2-5.6c0.1,0,0.2,0,0.3,0c1.3-0.1,2.9-0.2,4.1-0.6
			c0.6-0.2,1.1-0.3,1.6-0.5c1.5-0.5,2.4-0.7,4.2-1.1c0,0,0.1,0,0.1,0c3.1-0.7,5.8-1.6,8.1-5c1.7-2.6,2.1-4.6,2.1-7.1
			c0.2-2.2,0.2-6.4,0.3-10.2c0-2.3,0.1-4.4,0.1-5.7c0.3-4.3,0.4-8.8,0.5-13.1c0-0.3,0-0.6,0-0.9c0.1,0.9,0.1,1.9,0.1,3.2
			C183,53.3,182.7,65,182,77.1c-0.2,2.8-0.3,5.6-0.4,8.3c-0.1,2.7-0.3,5.4-0.4,8.2c0,0,0,0.1,0,0.1c0,0.3-0.1,0.7-0.1,1.1
			c-0.2,2.1-0.4,5.1,1.4,7.1c0.7,0.8,2.1,1.7,4.3,1.7c0.3,0,0.7,0,1-0.1c0.1,0,0.1,0,0.2,0c4.9-0.8,8.4-1.9,10.7-3.2
			c4.1-2.2,4.1-6.6,4.1-8.1c0-1.5-0.1-3-0.3-4.3c0-0.8,0-1.5-0.1-2.2c0-0.7-0.1-1.4-0.1-2.1c0-1.8,0.1-3.6,0.4-5.2l0-0.1
			c0-0.1,0-0.2,0.1-0.4c0,0,0.1,0,0.1-0.1l0.2-0.1c0.3-0.1,0.9-0.2,1.4-0.4c0.1,0.4,0.2,1.2,0.2,2.3c0,1,0,1.9-0.1,2.8
			c0,0.7-0.1,1.3-0.1,1.8c0,0,0,0.1,0,0.1c0.1,3.1,0.3,6.9,0.3,10.6c0,0.4,0,0.8,0,1.2c-0.1,2.2-0.1,5.1,1.7,6.9
			c0.7,0.7,1.9,1.6,4,1.6c0.6,0,1.3-0.1,2.1-0.3c0.3-0.1,0.7-0.1,1.1-0.2c3.4-0.6,8.1-1.4,10.7-3.8c0,0,0,0,0.1-0.1
			c2-2,1.8-4.5,1.7-6.2c0-0.3,0-0.7,0-0.9c0-1.3,0.1-2.5,0.1-3.9c0.1-1.4,0.1-2.9,0.1-4.4c0-3.9,0.1-7.9,0.2-11.8
			c0.1-4,0.2-8.1,0.2-12.1c0-0.9,0-1.8,0-2.7c0,0.6,0.1,1.2,0.1,1.7c0.2,4.3,0.4,8.8,0.4,13.2c0,2,0,4-0.1,5.9c0,2-0.1,4-0.1,6.1
			c0,1.9,0,3.9,0.1,6c0,0.4,0,0.9-0.1,1.4c0,0.8-0.1,1.8-0.1,2.8c0,3.5,0.5,5.9,1.6,7.3c1.7,2.3,5,2.6,7.9,2.6h0.5h0.4
			c0.1,0,0.1,0,0.1,0c7.5-0.3,11.7-4.8,11.9-12.5c0,0,0,0,0-0.1c0-5-0.1-10.1-0.2-15c-0.1-5-0.2-10.2-0.2-15.3v-31
			c0-0.7,0.1-1.5,0.1-2.4c0.1-1,0.1-2.2,0.1-3.4c0-2-0.2-3.5-0.7-4.8c0,0,0,0,0-0.1c-1-2.5-2.9-3.8-5.5-3.8l0,0
			c-0.7,0-1.4,0.1-2.1,0.2c-0.3,0-0.6,0.1-0.9,0.1c0,0,0,0-0.1,0c-4.4,0.5-12.4,1.6-13.2,11.4c-0.1,1.1-0.2,2.1-0.2,3.2
			c0-1.2-0.1-2.4-0.2-3.5c-0.1-1.9-0.2-3.9-0.2-5.9c0,0,0-0.1,0-0.1c-0.1-2.6-0.3-8.1-7.7-8.6c-0.6,0-1.1,0-1.7,0
			c-4.6,0-7.9,0.8-9.8,2.2c-1.8,1.4-2.7,3.7-2.7,7.1c0,1.8,0.2,3.6,0.4,5c0.1,0.5,0.1,0.9,0.1,1.3c0.1,1.9,0.1,3.8,0,5.8
			c0,1.6-0.1,3.3,0,5.1c0,0.7,0.1,1.4,0.1,2c0.1,0.6,0.1,1.3,0.1,1.9c0,1.6-0.3,2.1-0.4,2.2c-0.6,0.2-1.4,0.5-2.2,0.8
			c0-0.1,0-0.2,0-0.2c0-0.5,0-1-0.1-1.5c-0.2-2.2-0.2-2.7-0.2-3.4c0-0.6,0-1.5,0.1-3.7c0.1-0.7,0.2-1.5,0.3-2.4
			c0.4-2.8,0.8-6.1,0.2-8.6c0,0,0-0.1,0-0.1c-1-3.4-4-5.3-8.4-5.3c-0.3,0-0.6,0-0.8,0c0,0-0.1,0-0.1,0c-2.6,0.2-8.1,0.6-10,4.6
			c0.1-1.2,0.2-2.4,0.2-3.6c0-7-4.4-8.9-8-9.2l-0.9-0.1c-1.3-0.1-2.4-0.2-3.6-0.2c-4.1,0-7,0.8-11.4,1.9c-1,0.3-2.1,0.6-3.3,0.8
			c-0.4,0.1-1.3,0.3-3.6,0.8c-0.9,0.2-1.6,0.4-1.9,0.4c-0.1,0-0.1,0-0.2,0c-3.6,0.8-6.4,3.4-7.5,5.6c0,0-0.1,0.1-0.1,0.2
			c-0.9,2.1-0.5,4.6-0.2,6.8c0.1,0.6,0.2,1.2,0.2,1.7c0.1,2,0.1,4,0.1,6.1c0,1.5,0,3.1-0.1,4.5c0,0,0,0.1,0,0.1l0,0.9
			c0,0.9-0.1,1.7-0.1,2.6c-0.2-1-0.3-1.9-0.5-2.8c-0.4-1.9-0.7-3.8-0.8-5.6c-0.2-5-0.6-11.5-1.4-17.8c0,0,0-0.1,0-0.1
			c-0.2-1.5-0.7-4.3-2.6-6.2C136.6,12.3,135,11.7,133.2,11.7L133.2,11.7z M83.8,43c0.2,0,0.4-0.1,0.7-0.2c0.1,1.4,0.1,2.9,0.1,4.2
			c-0.2,1.5-0.2,2.9-0.2,4.2c0,0.9,0,1.7-0.1,2.6c-0.1,0.7,0,1.5,0,2.2c0,0.6,0.1,1.7,0,2.2c-0.2,0.1-0.5,0.2-0.8,0.3
			c0-2.9,0.1-7.8,0.2-10c0.1-1.4,0.1-2.4,0.1-2.9c0-0.3,0-0.7,0-1.1C83.8,44.2,83.8,43.5,83.8,43L83.8,43z M39,58.2
			c-0.1-2.1-0.1-4.1-0.1-6.1c0-0.8,0.1-1.9,0.6-2.8c0,0.6,0,1.1,0,1.6c0,0,0,0.1,0,0.2c0.4,3.8,2,5.7,4.7,5.8
			c-0.2,0.1-0.7,0.1-1,0.2C41.9,57.1,40.3,57.3,39,58.2L39,58.2z M99,71.3c2.8-2.3,5.4-5,5.7-9.2V62c0-0.4,0-0.8,0.1-1.1
			c0,2,0.1,4.1,0.1,6c0.1,2,0.1,4,0.1,6c0,0,0,0.1,0,0.1c0,0.6,0,1.2,0,1.7c-1.2-1.1-2.6-1.8-3.8-2.4c-0.2-0.1-0.5-0.2-0.7-0.4
			c0,0-0.1,0-0.1,0C99.9,71.7,99.4,71.5,99,71.3L99,71.3z M143.4,69.8c0-1.9,0.1-3.8,0.1-5.6c0,0.6,0.1,1.2,0.1,1.8
			C143.5,67.2,143.4,68.5,143.4,69.8L143.4,69.8z M124.5,75.2c0.1,0,0.2-0.1,0.3-0.1c0.1,0,0.1-0.1,0.2-0.1c0,0.1,0,0.2,0,0.3
			c0,0.6,0,1.1,0,1.6c0.1,1.3,0.1,7,0,11c-0.7-0.3-1.5-0.5-2.5-0.5c-0.4,0-0.9,0-1.3,0.1l-0.1,0c-0.8,0-1.5,0.1-2,0.2
			c3.1-1.3,5.3-3.6,5.3-7.1v-3.3v-0.4C124.5,76.2,124.5,75.6,124.5,75.2L124.5,75.2z M39.5,78.1c-0.1-0.7-0.2-1.6-0.3-2.6
			c0.4,0.2,0.7,0.3,1,0.4v0.5l0,0.1c0,0.4-0.1,0.8-0.1,1.1c0,0-0.1,0.1-0.2,0.2c-0.1,0.1-0.1,0.1-0.2,0.2C39.6,78,39.5,78,39.5,78.1
			L39.5,78.1z M378.7,12.8L378.7,12.8c-1.3,0-2.6,0.4-3.7,0.7c-0.4,0.1-0.8,0.2-1.1,0.3c-1.6,0.4-3.2,0.7-4.9,1.1
			c-1.5,0.3-3.1,0.6-4.6,1c-1.8,0.3-3.7,0.5-5.5,0.7c-0.7,0.1-1.3,0.1-2,0.2c-4.8,0-6.5,2.4-7.1,4.1c-0.3-0.7-0.6-1.4-1-2
			c-2.2-3-6-3.6-9.1-4c-0.7-0.1-1.4-0.2-2-0.3c0,0,0,0-0.1,0c-1.7-0.3-3-0.4-4.3-0.4c-4,0-7.4,1.3-11,2.6c-0.8,0.3-1.9,0.6-2.9,0.9
			c-4.2,1.2-10,2.9-11.4,8c0,0,0,0.1,0,0.1c-0.8,3.3-0.4,7.3,0,10.8c0.1,1.1,0.2,2.2,0.3,3.1c0.1,2.5,0.2,5,0.2,7.5
			c0,1.7,0,3.4-0.1,5.1c0,1.7-0.1,3.5-0.1,5.2c0,2.1,0,4.3,0.1,6.5c0.3,4,0,7.9-0.4,11.7c-0.3,2.7-0.3,5.4-0.3,8v4.5
			c0,2.8-0.1,5.7-0.4,8.4l-0.1,0.7c-0.4,3.4-0.8,7.2,4.1,10.1c0,0,0,0,0.1,0c2.5,1.4,4.7,2.1,6.9,2.1c4.2,0,7.4-2.3,10.8-4.7
			l0.8-0.6c4.7-3.2,8.4-6.2,11.1-9.2c3-3.2,6.3-6.8,7.3-10.6c0-0.1,0-0.2,0.1-0.3c0.3-1.5,0.4-3.4,0.4-5.2c0-2.3-0.1-4.6-0.3-6.8
			c0-3.2,0.3-6.6,0.5-9.9c0.1-2,0.3-4,0.4-6c0.1-1.8,0.1-3.7,0.1-5.3c0-2.9-0.1-5.8-0.2-8.6c-0.1-2.8-0.2-5.6-0.2-8.4
			c0-0.8,0.1-1.8,0.3-2.9c0.4,4.8,0.7,9.5,0.9,14.3c0.1,2.8,0,5.9-0.2,9.3c-0.3,2.6-0.3,5-0.3,7.5c0,4.2,0.1,8.4,0.3,12.5
			c0,2.3,0.1,4.5,0.2,6.7c0.1,3.2,0.3,6.2,0.3,9.3c0,2.2,0.1,4.3,0.3,6.4c0,0,0,0.1,0,0.1c0,0.3,0,0.6,0,0.9c0.1,1.3,0.1,2.9,1,4.4
			c0,0,0,0.1,0,0.1c1.8,3.1,6.2,3.7,9.8,3.9c0.1,0,0.1,0,0.2,0c4.3,0,8.7-0.7,13.1-1.9c0.1,0,0.1-0.1,0.2-0.1c0.3-0.1,0.7-0.2,1-0.4
			c3.3-1.2,7.8-2.9,10-6.4c0.6-0.9,1-1.9,1.2-2.9c1.1,2.9,2.7,5.4,4.3,7.6c0.2,0.3,0.5,0.7,0.7,1c2.1,2.9,4,5.6,8.8,5.6
			c2.2,0,5-0.6,9.6-2.1c3.8-1.2,4.9-3,6.5-5.8l0.2-0.3c0,0,0-0.1,0-0.1c1.6-2.9,3-7.9,4.1-12c0.4-1.3,0.7-2.5,1-3.5c0,0,0,0,0-0.1
			c0.3-0.9,0.5-1.9,0.7-2.8c0,1,0,2,0,3c0,1.9,0,3.9,0.1,6c0,0.4,0,0.9,0,1.4c0,0.8-0.1,1.8-0.1,2.8c0,3.5,0.5,5.9,1.6,7.3
			c1.7,2.3,5,2.6,7.9,2.6h0.5h0.4c0,0,0.1,0,0.1,0c7.5-0.3,11.7-4.8,11.9-12.5c0,0,0,0,0-0.1c0-5-0.1-10.1-0.2-15
			c-0.1-5-0.2-10.2-0.2-15.3v-31c0-0.7,0-1.5,0.1-2.4c0.1-1,0.1-2.2,0.1-3.4c0-2-0.2-3.5-0.7-4.8c0,0,0,0,0-0.1
			c-1-2.5-2.9-3.8-5.5-3.8l0,0c-0.7,0-1.4,0.1-2,0.2c-0.3,0-0.6,0.1-0.9,0.1c0,0,0,0-0.1,0c-4.4,0.5-12.5,1.6-13.2,11.4
			c-0.2,2.4-0.2,4.8-0.3,7.2c0,1.9,0,3.6-0.1,5.4c0,0.1,0,0.1,0,0.2c0,0.8,0,1.6-0.1,2.4c0,0.8-0.1,1.7-0.1,2.6
			c0,4.5,0.2,9.1,0.4,13.5c0,0.1,0,0.2,0,0.3c-0.2-0.2-0.4-0.4-0.6-0.6c-2.4-2.4-5.5-3.7-8.4-4.8c-0.5-0.2-1-0.4-1.5-0.6
			c0.7,0,1.3-0.1,1.9-0.3c0,0,0.1,0,0.1,0c0.4-0.1,0.7-0.1,1-0.2c1.2-0.2,2.8-0.3,4.5-2.2c1.5-1.7,2.2-4,2.2-7.1
			c0-1.5-0.2-3-0.4-4.1c-0.1-0.4-0.1-0.8-0.2-1.2c0-0.1,0-0.2,0-0.2c-0.4-2.1-0.3-4.1-0.1-6.2c0.1-1.6,0.2-3.2,0.1-4.9
			c0,0,0-0.1,0-0.1c0-0.5,0-1.5,0-2.5c0-0.9,0.1-1.8,0.1-2.6c0-1.5-0.2-3.6-1.1-5.3c-0.8-1.6-2.6-3.5-6.4-3.5
			c-1.2,0-2.3,0.2-3.4,0.3c-0.6,0.1-1.2,0.2-1.7,0.2c-3.4,0.3-7.1,0.7-11,2.6c-0.5,0.2-0.9,0.5-1.4,0.7c-3.4,1.6-7.2,3.5-9.5,7.8
			C385,30.2,385,37,385,42v0.7c0,1.7-0.1,3.4-0.1,5.1c-0.1,3-0.2,6.1,0,9.1c0,0.5,0.1,1,0.1,1.5c0.1,2.6,0.3,6.2,3.6,8.3
			c1.5,0.9,3.3,1.4,5.2,1.8c-2.6,0.4-4.9,1.4-6.4,3.1c-1.7,1.7-2.5,4-2.5,6.5c0,0.5,0,0.9,0,1.4c-1.1-1.1-2.4-1.4-3.4-1.4
			c-1.3,0-2.5,0.5-3.4,1c-0.4,0.2-0.8,0.3-1.1,0.4c-2,0.4-4.5,0.9-6.7,0.9c0,0-0.1,0-0.1,0c-0.2,0-0.3,0-0.5,0c-0.4,0-0.6,0-0.7-0.1
			c0-0.1-0.1-0.3-0.1-0.5c-0.4-2.7-0.4-3.4-0.2-6.4c0-0.4,0-1,0.1-1.4c0.1,0,0.4-0.1,0.6-0.1c0.5-0.1,1.1-0.2,1.8-0.3
			c4.6-0.7,11.6-1.7,13.3-7.3c0-0.1,0-0.2,0.1-0.3c0.3-1.5,0.1-3,0-4.2c0-0.2,0-0.4-0.1-0.5c0-1.7,0-3.2-0.1-4.8c0-0.2,0-0.5,0-0.8
			c-0.1-2.3-0.3-7.5-4.8-8.3c-0.1,0-0.2,0-0.3,0c-0.2,0-0.4,0-0.6,0c-1.8,0-4.2,0.5-6.3,1c-0.7,0.2-1.3,0.3-1.9,0.4
			c-0.3,0-0.6,0.1-1,0.1c-0.7,0.1-1.6,0.2-2.3,0.2c0,0-0.1,0-0.1,0c0-0.2,0-0.5-0.1-0.8c-0.1-0.9-0.1-1.1-0.1-2.3c0-0.2,0-0.3,0-0.4
			c0.2,0,0.5,0,1,0c0.1,0,0.2,0,0.3,0c1.4-0.1,6.2-0.7,9.3-1.5c0.1,0,0.2,0,0.2-0.1c0.3-0.1,0.6-0.2,0.9-0.3c2-0.7,4.7-1.6,6-4.7
			c0,0,0-0.1,0-0.1c0.2-0.5,0.7-1.9,0.7-7.5c0-1.4,0-2.8-0.1-3.9c0-0.7,0-1.2,0-1.6c0-0.1,0-0.1,0-0.2l0-0.2c-0.1-2.5-0.3-5.6-1.8-8
			C382.4,13.7,380.8,12.8,378.7,12.8L378.7,12.8z M402.7,45.2c0.4-0.1,1.1-0.2,1.8-0.3c0,0.1,0,0.2,0,0.3c-0.1,0.6-0.1,1.4-0.2,2.5
			c0,0,0,0,0,0c0,1,0.1,2,0.5,2.8c-0.6-0.3-1.2-0.6-1.8-0.9c-1-0.5-1-0.5-0.9-2c0-0.3,0-0.5,0-0.8c0-0.3,0-0.7,0-0.9
			c0,0,0-0.1,0-0.1C402.2,45.6,402.4,45.4,402.7,45.2L402.7,45.2z M329.4,58c-0.1-1.2-0.1-2.3-0.1-3.4c0,0,0,0,0-0.1
			c0.1-1.4,0-2.9,0-4.3c0-1.9-0.1-3.7,0.1-5.2c0,1.1,0,2.2,0.1,3.3c0,1.1,0.1,2.3,0.1,3.4C329.5,53.9,329.5,56,329.4,58L329.4,58z
			 M329,67.5c0.1-0.4,0.1-0.9,0.2-1.4c0,0.9,0,1.8,0.1,2.5c0,1.7,0.1,3.1-0.1,5.2c0,0.3,0,0.6-0.1,1c0,0.4,0,0.8-0.1,1.1
			c0-0.5,0-1,0-1.5c0-0.8,0-1.6-0.1-2.4C328.9,70.4,328.8,68.9,329,67.5L329,67.5z M405.1,81.4c-0.1-0.8-0.2-1.7-0.3-2.2
			c0-0.3-0.1-0.6-0.1-0.8c-0.1-0.6-0.1-1.2-0.1-1.9c0-1.2,0-3-0.7-4.6c1,0.5,2,1.1,3.1,1.8c0.6,0.4,1.4,1.4,0.3,4.2
			C406.9,78.9,405.9,80.4,405.1,81.4L405.1,81.4z M273.1,14.5L273.1,14.5c-3.5,0-6.6,0.8-9.6,2.3c-4.8,2.4-8.6,5.2-11.4,8.4
			c-2.8,3.1-2.7,7.3-2.7,10.4c0,0.4,0,0.8,0,1.1c0,2.4,0.1,4.8,0.2,7.1c0.1,3.2,0.3,6.4,0.2,9.5c-0.1,2-0.1,4.1-0.1,6.1
			c0,3,0.1,6.2,0.2,9.2c0.1,1.6,0.1,3.1,0.2,4.7c0,0,0,0,0,0.1c0.1,2,0.1,4,0.1,6.1c0,3.2,0.1,6.4,0.4,9.7c0.1,0.6,0.1,1.2,0.1,1.8
			c0.1,2.9,0.2,6.2,2.6,9.2c2.4,3.2,6.3,5.2,9.4,6.8l0.1,0c0,0,0,0,0.1,0c1.8,0.9,3.7,1.3,5.6,1.3c1.9,0,3.7-0.5,5.5-1
			c0,0,0,0,0.1,0l1-0.3c3.1-0.9,6.3-1.9,9.2-3.2c0,0,0.1,0,0.1-0.1c1.9-0.9,4.8-2.3,5.3-6.4c0-0.1,0-0.1,0-0.1
			c0.1-1.9,0.3-3.9,0.3-5.8c0-0.7,0-1.4-0.1-2.1c0-0.6-0.1-1.2-0.1-1.8c0-0.1,0-0.1,0-0.2c-0.1-1.7-0.1-3.4-0.1-5.2V77
			c0-0.1,0-0.1,0-0.2c0-0.4,0-0.9,0-1.5c0.1-2.2,0.3-5.4-2.1-7.6c0,0,0,0,0,0c-1.1-0.9-2.5-1.3-4.3-1.3c-1.6,0-3.2,0.3-4.4,0.6
			c0,0-0.1,0-0.1,0c-4,1-6,3.7-6,7.9c0,0.9,0.1,1.8,0.1,2.6c0.1,1,0.2,1.9,0.1,2.7c0,0.2,0,0.4,0,0.6c0,0.3,0,0.7-0.1,0.9
			c-0.1,0.1-0.5,0.3-1.4,0.6c0,0-0.1,0-0.1,0c-0.6-12.5-0.9-22.1-0.9-31.1c0-0.3,0-0.6,0-1c0-1.6-0.1-4.4,0.5-5.5
			c0.2-0.2,0.5-0.3,0.9-0.5c0.1,1.2,0.1,2.9,0,4.4c-0.2,1.6-0.1,3,0,4.3c0.1,0.9,0.1,1.8,0.1,2.6c0,0.2,0,0.3,0,0.5
			c-0.1,1-0.2,2.2,0.1,3.4c0.5,2,1.9,3.4,4,3.8c0,0,0,0,0,0c0.7,0.1,1.4,0.2,2.2,0.2c2.9,0,5.8-0.8,7.7-2c2.6-1.7,3.3-4.4,3.8-6.4
			l0.1-0.5c0,0,0-0.1,0-0.2c0.4-1.9,0.3-3.9,0.1-5.6c-0.1-1-0.1-1.9-0.1-2.7c0.1-3.7,0-6.6-0.3-10.2c0,0,0-0.1,0-0.2
			c-0.3-2.1-0.3-4-0.2-5.6c0,0,0,0,0-0.1c0-0.3,0-0.6,0-0.9c0.1-3,0.3-6.4-2-9.8c0,0,0-0.1-0.1-0.1c-2.5-3.4-7.4-4.1-10.7-4.5
			l-0.2,0C275.2,14.6,274.1,14.5,273.1,14.5L273.1,14.5z"/>
	</g>
	<g>
		<path class="st0" d="M312.5,101.8c-2,0-3.9-0.6-6.1-1.9c-4.1-2.4-3.8-5.3-3.4-8.6l0.1-0.7c0.2-2.7,0.4-5.7,0.4-8.5v-4.5
			c0-2.6,0-5.2,0.3-7.9c0.4-3.8,0.6-7.8,0.4-11.9c-0.1-2.1-0.1-4.3-0.1-6.4c0-1.8,0-3.5,0.1-5.2c0-1.7,0.1-3.4,0.1-5.1
			c0-2.5-0.1-5.1-0.2-7.6c-0.1-1-0.2-2.1-0.3-3.2c-0.4-3.4-0.8-7.3,0-10.3c1.2-4.3,6.3-5.8,10.4-7c1.1-0.3,2.2-0.6,3-1
			c3.6-1.4,6.7-2.6,10.5-2.6c1.2,0,2.5,0.1,4,0.4c0.7,0.1,1.4,0.2,2.1,0.4c2.9,0.4,6.2,0.9,8.1,3.4c0.9,1.2,1.3,2.9,1.3,5.2
			c0,1.8-0.3,3.7-0.5,5.4c-0.2,1.4-0.4,2.7-0.4,3.7c0,2.8,0.1,5.7,0.2,8.5c0.1,2.8,0.2,5.7,0.2,8.6c0,1.7,0,3.5-0.1,5.3
			c-0.1,1.9-0.2,4-0.4,6c-0.2,3.3-0.5,6.8-0.5,10.1c0.1,2.1,0.3,4.4,0.3,6.7c0,1.7-0.1,3.4-0.4,4.9c0,0.1,0,0.1,0,0.1
			c-1,3.4-4.1,6.9-6.9,9.9c-2.7,2.8-6.3,5.8-11,9l-0.8,0.6C319.2,99.7,316.2,101.8,312.5,101.8z M321.6,72.9c0,0.6,0.1,1,0.1,1.3
			c2.6-2.2,2.7-3.4,2.9-5.5c0-0.3,0-0.6,0.1-1c0.2-2.1,0.1-3.6,0.1-5.3c0-1-0.1-2-0.1-3.3c0-1.5,0.1-2.9,0.1-4.4c0.1-3,0.2-6,0.2-9
			c0-1.2,0-2.3-0.1-3.4c0-1.2-0.1-2.3-0.1-3.5c0-0.3,0-0.7,0.1-1.2c0-0.5,0.1-1.7,0-2.2c-0.5,0-1.2,0.3-2,0.8
			c-0.8,0.5-0.8,0.6-1.1,2.3c-0.2,1.7-0.2,3.7-0.1,5.8c0,1.4,0.1,2.8,0,4.2c-0.1,1.6,0,3.1,0.1,4.6c0,0.5,0.1,1,0.1,1.5
			c0.2,1.7-0.1,3.3-0.4,4.8c-0.1,0.6-0.2,1.2-0.3,1.8c-0.2,1.5-0.1,3.1,0,4.6c0,0.8,0.1,1.6,0.1,2.4c0,0.8,0,1.5,0.1,2.3
			C321.6,71.4,321.6,72.2,321.6,72.9z M93.4,101.4c-3,0-5.1-0.5-6.4-1.4c-1.7-1.1-4-3-5.4-5.4c-1.7-1.4-1.4-4.6-1.1-7.4
			c0.1-0.7,0.1-1.4,0.1-1.8c0-0.3,0-0.7,0.1-1.3c0.1-1.2,0.2-3,0.2-5.4c0-2.3-0.4-5-2.5-5.4c-0.2,1.9-0.2,4-0.1,6
			c0,0.9,0.1,1.9,0.1,2.8v6.8c0,0.2,0,0.6,0,0.9c0.1,2.2,0.2,5.5-2,6.9c-0.1,0-0.1,0.1-0.1,0.1c-0.8,0.4-1.9,0.4-2.9,0.5
			c-0.4,0-0.7,0-1,0.1c-1.3,0.3-2.6,0.5-4,0.8c-0.6,0.2-1.5,0.3-2.4,0.3c-1.3,0-3.1-0.2-4.3-1.2c-1.6-1.2-1.5-3.6-1.4-5.5
			c0-0.4,0-0.8,0-1.1c0-4.6,0.1-8.7,0.1-12.6s0.1-8,0.1-12.6c0-3.3-0.1-6.6-0.2-9.8c-0.1-3.2-0.2-6.5-0.2-9.7c0-2.1,0-4.2,0.1-6.2
			c0.1-4.5,0.2-9.3-0.2-13.7c-0.1-1.1-0.2-1.9-0.2-2.7c0-1.1-0.1-2-0.3-3.4c0,0,0-0.1,0-0.1c-0.2-2.4,0.8-3.8,1.6-4.5
			c1-0.9,2.5-1.4,4.4-1.5c1.2-0.1,2.4-0.6,3.8-1c1.3-0.5,2.6-0.9,4-1.1c1.1-0.1,2.3-0.5,3.6-0.8c2-0.6,4-1.1,5.9-1.1
			c1.1,0,2.3-0.1,3.7-0.3C87.8,9.1,89.3,9,90.7,9c1.3,0,5.4,0,7.1,3.8c0.8,1.8,0.7,5,0.5,9.2c-0.1,1-0.1,1.8-0.1,2.4
			c0,1.2,0,2.5,0,3.7c0,2.4,0.1,4.9,0,7.4c-0.3,6.8-0.7,13.8-1,20.5c-0.2,4.3-3.4,6.8-6.5,9.3c-0.3,0.2-0.5,0.4-0.8,0.6
			c0.3,0.1,0.6,0.2,0.9,0.3c1,0.3,2,0.6,2.9,1.1c0.3,0.2,0.5,0.3,0.8,0.4c1.8,0.9,3.9,2,5.1,4.3c0.8,1.9,0.9,2.3,0.8,3.8
			c0,0.3-0.1,0.6-0.1,1.1c-0.1,1.9,0,3.9,0.4,5.7c0.2,0.3,1.7,1.1,6.2,1.1c1.3,0,2.3-0.1,2.6-0.1c1.3-0.1,1.9-0.2,2.6-0.3
			c0.8-0.1,1.6-0.2,3.2-0.3l0.1,0c0.4,0,0.8-0.1,1.2-0.1c1.2,0,2.8,0.3,3.5,2.6c0.2,0.4,0.5,1.5,0.5,7.3c0,3.1-0.6,6.3-5.2,6.7
			c-1.5,0.1-2.4,0.1-3.3,0.1c-0.8,0-1.6,0-3,0.1c-1,0.1-2.5,0.3-4.2,0.6C101.4,100.8,97.1,101.4,93.4,101.4z M76.7,35.8
			c-0.5,0.5-0.5,1.9-0.4,3c0,0.4,0,0.7,0,1c0,0.4,0,1.5-0.1,2.8c-0.1,2.8-0.3,9.7-0.1,11.9c1.2,0,3.1-0.8,3.5-1.2
			c0.4-0.5,0.3-2.2,0.2-3.2c0-0.7-0.1-1.4,0-2c0.1-0.9,0.1-1.8,0.1-2.6c0-1.3,0-2.7,0.2-4.2c0-1.9,0-4-0.1-5.9c0,0,0-0.1,0-0.2
			c-0.1,0-0.2,0-0.3,0C78,35.4,77.1,35.6,76.7,35.8z M395.6,101.3c-4,0-5.6-2.2-7.6-5c-0.2-0.3-0.5-0.7-0.8-1c-2.2-3-4.3-6.3-5-10.7
			c-0.2-1-0.4-2.1-0.6-3.2c-0.6-3.1-1.2-6.4-1.2-9.4c-0.1-2.1,0.6-4,2-5.4c1.7-1.8,4.4-2.8,7.5-2.8c1.6,0,3.1,0.3,4.4,0.9
			c2.8,1,2.8,3.8,2.8,5.8c0,0.7,0,1.4,0.1,2c0,0.3,0.1,0.5,0.1,0.8c0.3,2.7,0.7,4.2,1.1,4.6c1-0.3,3.5-3.4,4.3-5.5
			c0.6-1.6,1.4-4.6-0.9-6c-3.2-2-5.8-3.2-8.6-4.2c-0.9-0.3-2.1-0.6-3.4-0.9c-2.3-0.5-4.6-1-6.3-2c-2.7-1.7-2.8-4.6-2.9-7.1
			c0-0.5,0-1-0.1-1.5c-0.2-3-0.1-6,0-8.9c0.1-1.7,0.1-3.4,0.1-5.2V36c0-4.8,0-11.4,2.5-15.8c2-3.9,5.5-5.5,8.8-7.1
			c0.5-0.2,0.9-0.4,1.4-0.7c3.6-1.8,7.2-2.2,10.5-2.5c0.6-0.1,1.2-0.1,1.8-0.2c1.1-0.1,2.2-0.3,3.2-0.3c2.5,0,4.2,0.9,5.1,2.8
			c0.6,1,0.9,2.7,0.9,4.5c0,0.9,0,1.7-0.1,2.6c-0.1,1.1-0.1,2.1,0,2.7c0.1,1.7,0,3.2-0.1,4.8c-0.1,2.2-0.2,4.3,0.2,6.6
			c0,0,0,0.1,0,0.1c0,0.4,0.1,0.8,0.2,1.3c0.2,1.1,0.4,2.5,0.4,3.9c0,2.7-0.6,4.7-1.8,6c-1.4,1.5-2.5,1.6-3.6,1.8
			c-0.4,0-0.8,0.1-1.3,0.2c-0.8,0.2-1.6,0.3-2.4,0.3c-1.3,0-3.7-0.2-5.3-1.8c-0.8-0.9-1.3-2-1.2-3.3c0.1-1.1,0.1-1.8,0.2-2.4
			c0.1-0.6,0.1-1,0.1-1.3c0,0,0-0.1,0-0.1c0-0.2,0-0.5-0.1-0.7c0,0,0,0,0,0c-0.1,0-0.2,0-0.4,0l-0.5,0c-0.7,0.1-2.7,0.3-3.1,0.6
			c-1.4,1.1-1.4,1.2-1.3,2c0,0.2,0,0.5,0,0.8c0,0.3,0,0.5,0,0.8c0,1.6-0.1,2.5,1.8,3.4c1,0.5,2,1,3,1.5c2,1,4,2,6.1,2.9
			c0.8,0.4,1.6,0.7,2.4,1c2.7,1.1,5.7,2.3,7.9,4.5c2,2,1.9,5.1,1.8,7.8c0,0.6,0,1.1,0,1.7c0.1,4.5-0.5,9.2-2,14.5
			c-0.3,1-0.6,2.2-1,3.5c-1.1,4-2.4,8.9-3.9,11.6l-0.2,0.3c-1.6,2.7-2.4,4.1-5.7,5.1C400.3,100.7,397.6,101.3,395.6,101.3z
			 M262.3,101.1c-1.7,0-3.3-0.4-4.9-1.2c0,0-0.1,0-0.1-0.1c-3-1.6-6.7-3.5-9-6.4c-2-2.6-2.2-5.7-2.3-8.3c0-0.6-0.1-1.3-0.1-1.9
			c-0.3-3.2-0.4-6.4-0.4-9.6c0-2,0-4.2-0.1-6.2c0-1.6-0.1-3.2-0.2-4.7c-0.1-3-0.2-6.1-0.2-9.2c0-2,0-4,0.1-6c0.1-3.1,0-6.4-0.2-9.6
			c-0.1-2.3-0.2-4.7-0.2-7c0-0.4,0-0.8,0-1.1c0-3-0.1-6.7,2.3-9.4c2.7-3,6.4-5.8,11-8.1c2.8-1.4,5.7-2.1,8.9-2.1c1,0,2,0.1,3,0.2
			l0.2,0c3,0.4,7.5,1,9.7,3.9c2,3,1.9,6,1.8,8.9l0,0.9c-0.1,1.8,0,3.7,0.2,5.9c0.3,3.6,0.4,6.5,0.3,10.1c0,0.9,0,1.9,0.1,2.9
			c0.1,1.7,0.2,3.5-0.1,5.2l-0.1,0.6c-0.5,1.9-1.1,4.2-3.2,5.5c-1.6,1.1-4.3,1.8-6.9,1.8c-0.7,0-1.3,0-1.9-0.1c-3.3-0.6-3-4-2.9-5.6
			c0-0.2,0-0.4,0-0.5c0-0.9,0-1.8-0.1-2.8c-0.1-1.3-0.2-2.6,0-4c0.2-2.6,0.1-5.6-0.3-6.3c0,0,0,0-0.1,0c-1,0-2.8,0.9-3.1,1.3
			c-0.9,1.4-0.9,4.5-0.9,6.5c0,0.3,0,0.7,0,1c0,9.1,0.3,18.9,0.9,31.7c0.1,1.1,0.3,1.1,0.6,1.1c0.4,0,0.8-0.1,1.4-0.3
			c2.4-0.8,2.5-1.2,2.5-2.9l0-0.5c0.1-0.9,0-1.9-0.1-3c-0.1-0.8-0.1-1.7-0.1-2.5c0-1.3,0-5.3,4.9-6.5c1.2-0.2,2.7-0.6,4.1-0.6
			c1.5,0,2.6,0.3,3.4,1c1.9,1.6,1.8,4.2,1.6,6.3c0,0.6-0.1,1.2,0,1.7v5.5c0,1.8,0,3.6,0.1,5.3c0,0,0,0.1,0,0.1c0,0.6,0,1.2,0.1,1.9
			c0,0.7,0.1,1.3,0.1,2c0,1.8-0.1,3.8-0.3,5.7c-0.4,3.1-2.2,4.2-4.5,5.2c-2.9,1.2-6.1,2.2-9.2,3.1l-1,0.3
			C265.3,100.7,263.9,101.1,262.3,101.1z M143.4,100.6c-0.5,0-1.1-0.1-1.6-0.3c-3.8-1.2-3.5-5.7-3.4-8.3l0-0.4c0.1-2,0.1-4,0.1-5.9
			c0-2-0.1-4.1,0.1-6.1c0.1-2.2,0.1-4.7,0-7c0-1.2,0-2.3,0-3.4c0-1.5,0.1-3.1,0.2-4.6c0.1-1.5,0.2-3.1,0.2-4.6c0-1.3-0.1-2.6-0.3-4
			c-0.1-1-0.2-2-0.2-3c-0.1-0.9-0.1-1.8-0.1-2.7c0-0.9,0-1.7-0.1-2.5c0-0.1,0-0.1,0-0.2c0.1-3.4,0.4-11,0.4-11
			c0.1-1.6,0.1-3.2,0.1-4.7c0-2.2,0-4.2-0.1-6.2c0-0.5-0.1-1.1-0.2-1.8c-0.3-2-0.6-4.3,0.1-6c1-2,3.5-4.2,6.5-4.9c0,0,0.1,0,0.1,0
			c0.2,0,1-0.2,1.9-0.4c2.5-0.5,3.2-0.7,3.6-0.7c1.3-0.3,2.4-0.6,3.4-0.9c4.4-1.2,7.1-1.9,11.1-1.9c1.1,0,2.2,0.1,3.4,0.2l0.9,0.1
			c4.4,0.4,6.7,3,6.7,7.7c0,1.4-0.1,3-0.3,4.3c0,0.4-0.1,0.9-0.1,1.2c-0.2,3.4-0.2,6.9-0.3,10.3c-0.1,4.3-0.2,8.7-0.5,13
			c-0.1,1.2-0.1,3.4-0.1,5.7c-0.1,3.8-0.1,8-0.3,10.1c0,2.4-0.3,4.1-1.8,6.3c-2.1,3-4.4,3.7-7.2,4.4c-2,0.4-3,0.7-4.5,1.2
			c-0.5,0.2-1,0.3-1.6,0.5c-1,0.4-2.4,0.4-3.7,0.5c-0.6,0-1.3,0.1-1.6,0.1c-0.1,0.2-0.1,0.8-0.1,1.1c0,0,0,0.1,0,0.1
			c-0.1,1.9-0.2,3.8-0.2,5.7c0,0.7,0,1.4,0.1,2.1c0,0.7,0.1,1.4,0.1,2c0.1,1.4,0.1,2.6,0.1,3.7c0,1.2,0.1,2.3,0.1,3.7
			c0.2,5.3-4.7,6-6.3,6.2c-0.6,0.1-1.2,0.3-1.8,0.5C145.3,100.3,144.4,100.6,143.4,100.6z M154.1,54.6c0.1,0,0.1,0,0.2,0
			c0.9,0,1.9-0.7,1.9-1c0.2-2.3,0.2-6.2,0.2-8.5c0-1.3,0.1-2.6,0.1-3.8c0.1-1.2,0.1-2.5,0.1-3.7c0-0.2,0-0.5,0-0.8
			c0-0.2,0.1-0.6,0.1-0.9c-0.4,0.1-1.1,0.2-1.7,0.4c-0.7,0.2-0.9,0.7-0.9,2.5c0,0.4,0,0.8,0,1.1c-0.1,1.7-0.1,3.5-0.1,5.3
			c0,1.8,0,3.8-0.1,5.6c0,0.2,0,0.5,0,0.7C153.9,52.7,153.9,53.8,154.1,54.6z M465.5,100.6c-3.9,0-4.9-2.5-5.2-3.9
			c-0.2-0.9,0-1.8,0.1-2.6c0.1-0.3,0.1-0.9,0.1-1.1c-0.1,0-0.2,0-0.3,0c-0.4,0.2-0.8,0.4-1.2,0.7c-1.5,0.9-3.2,1.9-5,1.9
			c-0.3,0-0.6,0-0.8-0.1c-1.2-0.3-2.7-1.2-4.2-2.1l-0.4-0.2c0,0-0.1-0.1-0.1-0.1l-0.5-0.3c-0.9-0.7-2-1.5-2.8-2.5
			c-1.9-2.4-2.1-5.1-2.3-7.7c0-0.4-0.1-0.9-0.1-1.3c-0.7-8.7-1-17-1-24.8c0-4.3,0.1-8.7,0.3-12.6c0.1-3.1,0.1-6.2,0.1-9.2
			c0-3.1,0-6.2,0.1-9.4l0.1-1c0.2-3.1,0.4-6.3,3.9-8.5c1.6-1,3.1-2.1,4.7-3.3c0,0,0.1-0.1,0.1-0.1c1.5-0.9,3-1.5,4.4-2.1
			c0.6-0.2,1.1-0.5,1.7-0.7c0.1-0.1,0.4-0.2,0.6-0.3c1.2-0.6,2.6-1.3,4-1.6c0,0,0.1,0,0.1,0c0.3,0,0.6,0,0.8,0
			c0.8,0,1.6,0.1,2.3,0.2c0.3,0,0.5,0.1,0.8,0.1c0,0,0.1,0,0.1,0c0.4,0.1,0.8,0.2,1.2,0.3c0.9,0.2,1.7,0.4,2.6,0.5
			c0.3,0,0.6,0.1,1,0.1c1.1,0.1,2.2,0.2,3.2,0.5c3.6,1.1,4.1,4.2,4.5,6.2c0.3,2.2,0.2,4.3,0.2,6.3c0,0.8,0,1.5,0,2.3v5
			c0,2.4,0,6.8-0.1,9.1c0,2.3,0,5.5-2.5,7.1c-2.1,1.2-5.1,2.3-7.2,2.5c-0.3,0-0.6,0.1-0.9,0.1c-1.3,0-2.3-0.4-3.2-1.3
			c-1.4-1.4-1.2-2.6-1-3.6c0-0.2,0.1-0.4,0.1-0.6c0.3-2.7,0.2-5.2-0.1-7.5c-0.1-0.4-0.1-0.6-0.2-0.7c-0.3,0-0.8,0.1-1.3,0.2
			c-0.3,0-0.6,0.1-1,0.2c-2.7,0.4-3.9,0.9-4.1,2.5c-0.1,1.2-0.3,2.4-0.4,3.5c-0.3,2.8-0.6,5.1-0.6,7.8c0,1.2,0.1,2.5,0.2,3.9l0,0.7
			c0.1,0.9,0.1,1.9,0.2,3c0.2,3,0.5,6,0.6,8.7c0,1.8,0.5,3.1,1,4.8c0.2,0.5,0.4,1.1,0.6,1.7c0.1,0.5,0.2,0.7,0.2,0.9
			c0.1,0,0.2,0,0.5,0c0.3,0,0.7,0,1.1,0.1c0.4,0,0.8,0.1,1.2,0.1c0.4,0,0.6,0,0.7-0.1c1.2-0.3,2.1-1.9,2.1-3.1c0-0.6-0.1-2-0.2-2.7
			c-0.2,0-0.5,0.2-0.8,0.3c-0.4,0.1-0.8,0.3-1.2,0.4c-0.5,0.1-1,0.2-1.4,0.2c-2.9,0-3.4-2.4-3.8-4.2l-0.1-0.5c0,0,0-0.1,0-0.1
			c-0.1-0.9-0.3-2.5-0.3-4.3c0-2.1,0.2-4.3,1.3-5.5c1.1-1.2,3.1-1.5,4.8-1.8c0.7-0.1,1.3-0.2,1.7-0.3c0,0,0.1,0,0.1,0
			c0.8-0.2,1.5-0.3,2.2-0.5c1.7-0.3,3.2-0.6,4.9-1.1c0.5-0.1,1.1-0.3,1.6-0.4c1.5-0.4,3.2-0.9,4.9-0.9c0.7,0,1.4,0.1,2,0.2
			c2.4,0.7,3.6,3.7,3.6,9.4c0.2,2.5-1.3,3.6-2.4,4.4c-0.5,0.4-1,0.7-1.4,1.2c-0.4,0.5-0.6,0.9-0.7,1.5c0.1,0.7,0.2,1.4,0.2,2.2
			c0.2,1.8,0.4,3.8,0.5,5.7c0.1,2.2,0.3,4.5,0.5,6.8c0.2,2.3,0.5,4.7,0.5,6.9c0,1.9,0.1,3.9,0.2,5.8c0.1,0.9,0.1,1.9,0.2,2.8
			c0.2,3.4-2.8,4-4.3,4.2c-1.2,0.5-2.7,0.6-4.1,0.7c-0.8,0.1-1.6,0.1-2.2,0.2c-0.3,0.1-0.6,0.1-1,0.2
			C468.7,100.2,467,100.6,465.5,100.6z M39.1,99.8c-1.7,0-2.9-0.7-3.7-2.1c-0.3-0.6-0.4-1.4-0.6-3.1c-0.1-0.7-0.2-1.8-0.3-2.6
			c-0.1,0.2-0.3,0.3-0.4,0.4c-0.4,0.4-0.7,0.8-1,1.1c-1.6,1.2-3.5,2.3-5.3,2.3c-0.1,0-0.2,0-0.4,0c-3.4-0.3-6.3-3.1-8.2-5.1
			c-2.4-2.7-3.6-6-3.6-9.8c0-9.1-0.6-18.4-1.1-27.4c-0.2-4-0.5-8.1-0.7-12.1c-0.1-2.5,0-4.9,0.1-7.2c0-0.8,0.1-1.6,0.1-2.4
			c0-2.2,0-4.7,1.6-6.8c1.9-2.5,4.8-4.5,7.7-6.6c1.4-1,2.8-2,3.9-2.9c2.5-2.2,6.4-3.6,10.4-3.6c3.4,0,6.5,1,8.7,2.8
			c3.2,2.7,4.5,5.5,4.5,9.2c0,1.5-0.1,3-0.2,4.4c-0.1,2.1-0.2,4.2-0.1,6.2c0,0,0,0.1,0,0.1c0,0.7,0.1,1.5,0.2,2.4
			c0.3,2.1,0.6,4.4-0.4,6.4c-1.1,2.4-4.4,3.5-6.8,4.3c-0.5,0.2-0.9,0.3-1.2,0.4c-0.5,0.2-1,0.4-1.4,0.6c-1,0.4-1.9,0.8-2.8,0.8
			c-2.7,0-3.1-3.2-3.2-4.4c0-0.5,0-1,0-1.6c0-0.8,0-2.7-0.2-3.4c-0.1,0-0.1,0.1-0.2,0.1c-2.7,1.7-3.1,4.6-3.1,6.2
			c0,2.8,0.1,5.6,0.2,8.4c0.2,4,0.3,8.2,0.2,12.3c-0.2,2.9,0.3,6.4,0.9,7.3c0.5-0.2,1.4-0.7,2-1.1c0,0,0.1-0.1,0.1-0.1
			c0.9-0.6,0.9-0.7,1-2.4l0-0.1v-1.6c-0.2-0.1-0.5-0.2-0.7-0.3c-0.9-0.3-2.3-0.8-2.7-2.4c-0.4-1.5-0.3-3.2-0.2-4.7
			c0-0.6,0.1-1.1,0.1-1.6c0-0.3,0-0.5,0-0.8c0-1.4-0.1-3.2,0.8-4.5c1.1-1.6,3-1.8,4.4-2c0.5-0.1,1.1-0.1,1.4-0.2
			c1.6-0.5,3.1-1,4.6-1.6c3.3-1.2,6.8-2.5,10.5-2.6h0.3c1.5,0,2.7,0.4,3.5,1.3c1.5,1.5,1.4,3.9,1.3,6.2l0,0.3c0,0.9,0,2,0,3
			c0.1,2.2,0.2,4.4-0.4,6.5c-0.6,2.3-2.2,2.9-3.3,3.3c-1,0.4-1.1,0.5-1.2,0.9c-0.2,0.7-0.1,1.6,0,2.5c0.1,0.6,0.1,1.2,0.1,1.8
			c0,0.5,0,0.9-0.1,1.4c0,0.4-0.1,0.9-0.1,1.4c0.1,2.8,0.5,8.7,0.8,11.9c0,0.4,0.2,1,0.3,1.7c0.5,2.4,1.3,6.4-2.2,7.6
			c-2.3,1-5.2,1.2-7.9,1.4c-1.5,0.1-2.8,0.2-4,0.4C40.3,99.7,39.7,99.8,39.1,99.8z M512.7,99.7c-3.6,0-5.2-2.9-6.2-5.8
			c-1.3-4.1-2.4-8.4-3.5-12.5c-1.3-5.2-2.7-10.7-4.5-15.5c-0.3-0.5-0.4-1-0.5-1.5c-0.7,0.1-0.7,0.4-0.7,1.4c0,0.5,0,1,0.1,1.6
			c0.1,0.8,0.1,1.7,0.1,2.7l0,0.3c0.1,3.8,0.2,7.8,0.5,11.6c0,1.1,0.1,2.2,0.2,3.4c0.2,3.1,0.4,6.3,0.1,8.9
			c-0.4,3.9-5.4,5.3-9.9,5.3c-0.3,0-0.5,0-0.8,0c-0.6,0-1.2-0.4-1.4-1.1c-0.8-2.7-1.2-6.1-1.2-10.2c0-1.7,0.1-3.5,0.1-5.2
			c0.1-2.3,0.2-4.4,0.1-6.4c0-5.1-0.2-10.1-0.4-15c-0.2-4.9-0.4-9.9-0.4-14.9c0-3.2-0.1-6.5-0.2-9.6c-0.1-3.1-0.2-6.3-0.2-9.5
			c0-7.2,3.9-9.2,8.2-10.7c0.9-0.3,1.9-0.6,2.8-0.8c0.9-0.2,1.8-0.4,2.6-0.7c1.2-0.4,2.4-0.9,3.6-0.9c1.7,0,3,0.9,3.7,2.6
			c1,2.6,1.4,5.5,1.7,8.3c0.3,2.1,0.6,4.1,1,5.9c1.1,3.9,1.9,8.1,2.7,12.2l0.5,2.4c0,0.3,0.1,0.6,0.2,1c0.1,0.8,0.5,3,0.8,3.9
			c0.2-0.7,0.4-1.9,0.5-2.5c0-0.2,0.1-0.5,0.1-0.7c0.4-3.5,0-7-0.3-10.7c-0.2-2.5-0.5-5.1-0.5-7.7c0-1.3-0.2-3-0.3-4.7
			c-0.2-2.7-0.5-5.8-0.5-8.4c0-3.9,0.5-6,1.8-7.1c0.2-0.1,0.4-0.2,0.6-0.3c0.6-0.2,1.4-0.5,2.1-0.8c1.9-0.7,4-1.5,6-1.5
			c1,0,1.8,0.2,2.6,0.5c0.4,0.2,0.7,0.5,0.8,0.9c1,3.5,1.5,8.2,1.5,14.9c0,1.2,0,2.4-0.1,3.6c0,1-0.1,2-0.1,2.9
			c-0.1,2.8-0.1,5.5-0.1,8.1c0,2.8,0,5.5,0.1,8.2c0,2.7,0.1,5.4,0.1,8.2v11.7c0,6.9,0.1,15.1,0.8,23c0.4,6.9-5,8.6-9,9.7l-0.7,0.2
			C515.6,99.3,514.1,99.7,512.7,99.7z M356.1,98.8c-3-0.2-7.1-0.7-8.5-3.2c-0.7-1.2-0.7-2.6-0.8-3.8c0-0.3,0-0.7-0.1-1
			c-0.1-2.1-0.3-4.2-0.3-6.3c0-3.2-0.1-6.2-0.3-9.4c-0.1-2.2-0.2-4.4-0.2-6.7c-0.1-4.1-0.3-8.3-0.3-12.4c0-2.5,0-4.8,0.3-7.4
			c0.3-3.4,0.4-6.6,0.2-9.5c-0.2-5.7-0.6-11.2-1.2-16.8c0-0.5-0.1-1-0.1-1.5c-0.2-1.6-0.4-3.4,0.2-5.3c0.4-1.5,1.8-3.4,5.9-3.4
			c0.7-0.1,1.4-0.1,2-0.2c1.9-0.2,3.9-0.3,5.8-0.7c1.5-0.4,3.1-0.7,4.6-1c1.7-0.3,3.3-0.7,4.9-1.1c0.4-0.1,0.8-0.2,1.2-0.3
			c1.1-0.3,2.2-0.6,3.2-0.6c1.9,0,2.9,1,3.4,1.9c1.3,2.1,1.5,5,1.6,7.3l0,0.2c0,0.5,0,1.1,0,1.8c0,1.1,0.1,2.5,0.1,3.9
			c0,5.4-0.5,6.6-0.6,7c-1,2.5-3.2,3.2-5.1,3.9c-0.3,0.1-0.6,0.2-1,0.3c0,0-0.1,0-0.1,0c-2.3,0.7-6.2,1.2-9,1.5c0,0-0.1,0-0.1,0
			c-2.4,0-2.4,0.1-2.5,1.9c0,1.2,0,1.4,0.1,2.5c0,0.3,0.1,0.7,0.1,0.9c0,0.5,0,0.7,0.2,0.9c0,0,0.3,0.3,1.4,0.3
			c0.8,0,1.7-0.1,2.5-0.2c0.4,0,0.8-0.1,1-0.1c0.6-0.1,1.2-0.2,2-0.4c2-0.4,4.3-0.9,6-0.9c0.2,0,0.3,0,0.5,0c0,0,0.1,0,0.1,0
			c3.3,0.5,3.5,4.6,3.5,6.8c0,0.3,0,0.6,0,0.9c0.1,1.6,0.1,3.1,0.1,4.8c0,0.2,0,0.4,0.1,0.6c0.1,1.2,0.3,2.5,0,3.7c0,0,0,0.1,0,0.1
			c-1.4,4.7-7.8,5.6-12,6.2c-0.7,0.1-1.3,0.2-1.8,0.3c-1.9,0.3-1.9,0.3-2,3c-0.1,3.1-0.1,3.9,0.2,6.7c0.2,1.5,0.6,1.8,2.3,1.8
			c0.2,0,0.4,0,0.5,0c2.4,0,5.1-0.5,7.2-1c0.4-0.1,0.9-0.3,1.3-0.6c0.9-0.4,1.8-0.8,2.8-0.8c1.4,0,2.5,0.8,3.3,2.2
			c0.9,1.6,1.1,3.7,1.2,5.7c0,0.6,0.1,1.2,0.1,1.8l0,0.4c0.3,2.2,0.6,4.9-0.9,7.2c-1.9,3.1-6,4.5-9.2,5.8c-0.4,0.1-0.7,0.2-1,0.4
			c0,0-0.1,0-0.1,0c-4.3,1.2-8.5,1.9-12.7,1.9C356.2,98.8,356.2,98.8,356.1,98.8z M427.1,98c-2.6,0-5.4-0.2-6.7-2
			c-0.9-1.2-1.3-3.3-1.3-6.4c0-1,0-1.9,0.1-2.7c0-0.6,0-1.1,0-1.6c-0.1-2-0.1-4-0.1-5.9c0-2,0-4,0.1-6c0-2,0.1-4,0.1-6
			c0-4.4-0.2-8.9-0.4-13.3c-0.2-4.4-0.4-8.9-0.4-13.4c0-0.9,0-1.7,0.1-2.6c0-0.8,0.1-1.6,0.1-2.5c0.1-1.9,0.1-3.8,0.1-5.6
			c0-2.3,0-4.7,0.2-7.1c0.6-8.6,7.4-9.4,11.9-10c0.3,0,0.6-0.1,0.9-0.1c0.6-0.1,1.3-0.2,1.9-0.2c2,0,3.3,0.9,4.1,2.9
			c0.4,1.1,0.6,2.5,0.6,4.3c0,1.1-0.1,2.2-0.1,3.3c-0.1,0.9-0.1,1.8-0.1,2.5v31c0,5.1,0.1,10.3,0.2,15.3c0.1,4.9,0.2,10,0.2,15
			c-0.1,6.9-3.8,10.7-10.5,11.1L427.1,98z M230.5,98c-2.6,0-5.4-0.2-6.7-2c-0.9-1.2-1.3-3.3-1.3-6.4c0-1,0-1.9,0.1-2.7
			c0-0.6,0.1-1.1,0.1-1.6c-0.1-2-0.1-4-0.1-5.9c0-2,0-4,0.1-6c0-2,0.1-4,0.1-6c0-4.4-0.2-8.9-0.4-13.3c-0.2-4.4-0.4-8.9-0.4-13.4
			c0-0.9,0-1.7,0.1-2.6c0-0.8,0.1-1.6,0.1-2.5c0.1-1.9,0.1-3.8,0.1-5.6c0-2.3,0-4.7,0.2-7.1c0.6-8.6,7.4-9.4,11.9-10
			c0.3,0,0.6-0.1,0.9-0.1c0.6-0.1,1.3-0.2,1.9-0.2c2,0,3.3,0.9,4.1,2.9c0.4,1.1,0.6,2.5,0.6,4.3c0,1.1-0.1,2.2-0.1,3.3
			c-0.1,0.9-0.1,1.8-0.1,2.5v31c0,5.1,0.1,10.3,0.2,15.3c0.1,4.9,0.2,10,0.2,15c-0.1,6.9-3.8,10.7-10.5,11.1L230.5,98z M204.4,97.1
			c-1.2,0-2.2-0.4-2.9-1.1c-1.4-1.4-1.3-3.7-1.3-5.8c0-0.4,0-0.8,0-1.2c0-3.7-0.1-7.6-0.3-10.7c0-0.5,0-1.1,0.1-1.8
			c0-0.9,0.1-1.9,0.1-2.9c0-3.6-0.7-3.9-0.7-3.9c0,0-0.1,0-0.2,0c-0.7,0-1.9,0.3-2.5,0.5l-0.2,0.1c-0.7,0.3-0.9,0.4-1,0.5
			c-0.1,0.1-0.1,0.7-0.2,1.2l0,0.1c-0.2,1.7-0.4,3.6-0.4,5.5c0,0.8,0,1.5,0.1,2.2c0,0.7,0.1,1.5,0.1,2.2c0.1,1.3,0.3,2.7,0.3,4.2
			c0,2.3-0.4,5.2-3.4,6.7c-2.1,1.2-5.6,2.2-10.2,3c-0.4,0.1-0.7,0.1-0.9,0.1c-1.4,0-2.4-0.4-3.2-1.2c-1.4-1.5-1.2-4-1.1-5.9
			c0-0.4,0.1-0.8,0.1-1.1c0.2-2.8,0.3-5.6,0.4-8.3c0.1-2.7,0.3-5.5,0.4-8.3c0.6-12.1,1-23.8,1.2-35.8c0-2.4-0.1-3.8-0.2-5.1
			c-0.2-1.8-0.3-3.4,0-6.9c0.4-4.9,6.4-5.4,9.2-5.6c0.3,0,0.5,0,0.8,0c3.7,0,6.2,1.5,7,4.2c0.6,2.3,0.2,5.4-0.2,8.1
			c-0.1,0.9-0.2,1.7-0.3,2.5c-0.1,2.2-0.1,3.1-0.1,3.7c0,0.7,0,1.2,0.2,3.6c0.1,0.4,0.1,0.9,0.1,1.4c0.1,1.5,0.2,1.8,0.4,1.9
			c0.7,0,2.9-0.7,4-1.2c0.8-0.3,1.2-1.5,1.2-3.5c0-0.7-0.1-1.4-0.1-2.1s-0.1-1.3-0.1-1.9c-0.1-1.7,0-3.4,0-5c0.1-2.1,0.1-4,0-6
			c0-0.4-0.1-0.8-0.1-1.3c-0.2-1.4-0.4-3.2-0.4-4.9c0-2.9,0.7-4.8,2.1-6c2-1.6,5.9-1.9,8.8-1.9c0.6,0,1.1,0,1.6,0
			c5.6,0.4,6.2,3.7,6.3,7.1c0,2.1,0.1,4.1,0.2,6c0.2,2.8,0.3,5.6,0.2,8.6c-0.1,2.7-0.1,5.2-0.1,7.9c0,2.6,0,5.3,0.1,8
			c0,2.7,0.1,5.4,0.1,8c0,4-0.1,8.1-0.2,12.1c-0.1,3.9-0.2,7.9-0.2,11.8c0,1.5-0.1,2.9-0.1,4.3c-0.1,1.4-0.1,2.7-0.1,4
			c0,0.3,0,0.7,0.1,1.1c0.1,1.6,0.2,3.6-1.3,5.1c-2.3,2.1-6.7,2.9-9.9,3.4c-0.4,0.1-0.8,0.1-1.2,0.2C205.6,97.1,205,97.1,204.4,97.1
			z M125.2,96.6c-2.7,0-4.4-1.7-4.5-4.3c-0.1-1.8-0.1-3.9-0.1-5.7c0-0.5,0-1.5,0-2.8c0-4.1,0.1-11.7,0-13.1c0-0.3,0-0.8,0-1.4
			c0-0.6,0-1.7-0.1-2.4c-0.7,0.1-1.7,0.6-2.2,0.8l-0.4,0.2c0,0-0.1,0-0.1,0c-0.7,0.2-0.8,0.7-0.8,2.8v3.7c0,5.2-6.2,7.1-12.1,7.1
			c-0.9,0-2.3-0.5-3-0.8c-0.1-0.1-0.2-0.1-0.3-0.2c-1.2-0.9-1.2-2.7-1.2-3.8c-0.1-2-0.1-3.6,0-5.3c0-1.3,0.1-2.7,0-4.3
			c0-2-0.1-4.1-0.1-6.1c-0.1-2-0.1-4.1-0.1-6.1c0-0.3,0-0.7-0.1-1.1c-0.1-0.8-0.1-1.8,0.1-2.8c0.2-1.3,0.6-2.4,1-3.5
			c1-3.3,1.5-6.1,2.1-9.1c0.4-2.4,0.9-4.9,1.6-7.8c0.4-1.6,0.6-3.8,0.8-5.8c0.2-1.8,0.3-3.7,0.6-5.3c0.1-0.3,0.1-0.8,0.2-1.3
			c0.2-1.6,0.4-3.4,1.2-4.7c1.2-2,5.2-3.2,9.2-4.2c0.4-0.1,0.7-0.2,0.9-0.2l0.6-0.1c2.2-0.6,4.3-1.2,6.5-1.4c0.3,0,0.5-0.1,0.8-0.1
			c0.5-0.1,1-0.1,1.6-0.1c1.4,0,2.6,0.5,3.5,1.5c1.5,1.5,1.9,4.1,2.2,5.4c0.9,6.3,1.2,12.8,1.4,17.7c0.1,1.9,0.5,3.8,0.9,5.8
			c0.5,2.4,0.9,4.8,0.9,7.4c0,4.1-0.1,8.4-0.1,12.5c-0.1,4.1-0.1,8.4-0.1,12.5c0.1,1.4,0.1,5.3,0.1,9.3c0,3.9,0,7.9,0.1,9.3
			c0,0.3,0,0.6,0.1,0.9c0.1,0.7,0.2,1.5,0,2.3c-0.4,1.5-1.5,2-2.2,2.3c-0.1,0.1-0.2,0.1-0.4,0.2c-2.7,1.5-5,1.9-8.2,2.2
			C125.3,96.6,125.2,96.6,125.2,96.6z M118,45.5c0.1,1.5,0.1,2.9,0.1,4.3c0.7-0.1,1.4-0.4,1.8-0.5c0.2-0.1,0.4-0.4,0.3-1.3
			c0,0,0-0.1,0-0.1l-0.4-7c0-0.5-0.1-1-0.1-1.4c-0.1-0.5-0.1-1.1-0.1-1.7c0-0.2,0-0.3,0-0.5c0-0.2,0-0.4,0-0.5
			c-0.4,0.1-1,0.5-1.4,0.8c-0.3,0.3-0.2,1.5-0.1,2.3l0,0.3c0,0,0,0.1,0,0.2C118,40.1,118,45.5,118,45.5z"/>
		<path d="M521.4,8.2c0.7,0,1.4,0.1,2,0.4c1.2,4,1.4,9.4,1.4,14.4c0,2.3-0.1,4.5-0.1,6.5c-0.1,2.7-0.1,5.4-0.1,8.1
			c0,5.5,0.1,10.8,0.1,16.4c0,3.7,0,7.7,0,11.7c0,7.7,0.1,15.6,0.8,23.1c0.4,6.1-4.4,7.1-8.6,8.4c-1.7,0.6-3,0.9-4.1,0.9
			c-2.1,0-3.5-1.2-4.8-4.8c-3-9-4.6-19.3-8-28.1c-0.4-0.8-0.5-1.5-0.8-2.5c-0.2,0-0.3,0-0.5,0c-2.4,0-2.9,1-2.9,3
			c0,1.2,0.3,2.6,0.3,4.3c0.1,4,0.3,8.1,0.5,12c0.1,3.7,0.6,8.6,0.3,12c-0.4,3.2-5.4,4-8.4,4c-0.2,0-0.5,0-0.7,0
			c-0.9-3-1.2-6.4-1.2-9.8c0-3.9,0.4-8,0.3-11.6c0-10.1-0.8-19.9-0.8-29.8c0-6.5-0.4-12.8-0.4-19.1c0-6.1,2.8-7.7,7.2-9.3
			c1.8-0.6,3.7-0.9,5.4-1.5c1.1-0.4,2.1-0.8,3.1-0.8c1,0,1.8,0.4,2.3,1.7c1.5,4.3,1.5,9.8,2.7,14.1c1.3,4.6,2.2,9.8,3.1,14.5
			c0.3,1.4,0.6,5.3,1.7,6.2c0.4,0.2,0.6,0.3,0.9,0.3c1.5,0,1.7-3.3,1.9-4.7c0.6-6.3-0.8-12.4-0.8-18.6c-0.1-3.5-0.8-8.9-0.8-13.2
			c0-2.7,0.3-5,1.3-5.9C516.1,9.7,518.9,8.2,521.4,8.2 M127.2,8.7c0.8,0,1.7,0.2,2.4,1c1.2,1.2,1.6,3.1,1.8,4.6
			c0.8,5.7,1.2,11.7,1.4,17.5c0.3,4.5,1.8,8.6,1.8,13.2c0,8.3-0.3,16.8-0.3,25c0.1,2.8,0,15.9,0.1,18.7c0,0.9,0.4,1.9,0.1,2.7
			c-0.3,1-1,1.2-1.8,1.6c-2.6,1.4-4.8,1.8-7.6,2.1c-1.7,0-3-0.9-3-2.8c-0.1-1.8-0.1-3.9-0.1-5.7c0-1.9,0.1-14.1,0-16
			c-0.1-1,0.3-4.4-0.6-5c-0.2-0.1-0.4-0.2-0.7-0.2c-1.1,0-2.7,0.8-3.4,1.1c-1.9,0.6-1.8,2.6-1.8,4.6c0,2.2,0,1.2,0,3.3
			c0,4.9-7.7,5.6-10.6,5.6c-0.7,0-1.8-0.4-2.3-0.7c-0.6-0.5-0.6-1.9-0.6-2.7c-0.3-3.6,0.1-5.9,0-9.7c0-4-0.3-8.1-0.3-12.1
			c0-1.2-0.3-2.5,0-3.6c0.1-1.2,0.5-2.2,0.9-3.2c1.9-6.3,2.1-10.6,3.7-17c0.8-3.2,0.8-7.9,1.4-11.2c0.3-1.5,0.3-4.1,1.2-5.4
			c1.2-1.9,7.5-3.4,9.3-3.9c2.3-0.6,4.5-1.3,6.8-1.6C125.7,8.8,126.5,8.7,127.2,8.7 M117.5,51.3c0.9,0,2.7-0.5,3.1-0.8
			c1-0.6,1.2-1.8,1-2.8c-0.1-2.3-0.3-4.6-0.4-7c0-1-0.3-2.1-0.3-3.1c0-0.8,0.1-1.5-0.3-2.2c-0.2-0.3-0.6-0.4-0.9-0.4
			c-0.9,0-2.1,0.7-2.7,1.2c-1,0.9-0.8,2.6-0.7,3.9c0,1.8,0,3.6,0,5.4c0.1,1.4,0.1,2.8,0.1,4.3c0,0.5,0,1.2,0.4,1.4
			C117.1,51.3,117.3,51.3,117.5,51.3 M462.7,9.1c1,0,2,0.2,2.9,0.3c1.3,0.3,2.6,0.6,4,0.8c1.3,0.1,2.7,0.1,3.9,0.5
			c2.6,0.8,3.1,2.7,3.5,5c0.4,2.8,0.1,5.7,0.1,8.4c0,1.7,0,3.4,0,5c0,2.3,0,6.7-0.1,9c0,2.2,0,4.8-1.8,5.9c-1.8,1-4.6,2.1-6.6,2.3
			c-0.2,0-0.5,0-0.7,0c-0.8,0-1.5-0.2-2.1-0.8c-1-1-0.6-1.7-0.5-3c0.3-2.6,0.3-5.3-0.1-7.9c-0.2-1.6-0.7-2-1.6-2
			c-0.6,0-1.4,0.2-2.5,0.3c-2.5,0.4-5,0.9-5.4,3.7c-0.5,4.8-1,7.6-1,11.5c0,1.4,0.1,3,0.3,4.8c0.3,3.6,0.6,8,0.8,11.6
			c0,2.6,0.9,4.4,1.7,6.8c0.4,1.6,0.6,1.9,2.2,1.9c0.6,0,1.5,0.1,2.3,0.1c0.4,0,0.8,0,1.1-0.1c2-0.5,3.2-2.7,3.2-4.5
			c0-0.5-0.1-3.7-0.5-3.7c-0.3-0.3-0.7-0.4-1.1-0.4c-0.8,0-1.6,0.5-2.4,0.7c-0.4,0.1-0.8,0.1-1.1,0.1c-1.8,0-2-1.5-2.4-3.5
			c-0.1-0.9-0.3-2.5-0.3-4.1c0-1.8,0.1-3.6,0.9-4.4c1.2-1.3,4.3-1.3,5.9-1.8c2.5-0.5,4.8-0.9,7.2-1.5c1.8-0.4,4.1-1.2,6.2-1.2
			c0.5,0,1.1,0.1,1.6,0.2c2.3,0.7,2.5,5.9,2.5,8c0.3,2.7-2.1,2.7-3.5,4.6c-0.6,0.8-0.9,1.5-1,2.3c0.3,2.6,0.6,5.3,0.8,8
			c0.1,4.4,0.9,9.3,1,13.7c0,2.8,0.3,5.8,0.4,8.6c0.1,2.1-1.4,2.4-3.2,2.7c-1.7,0.8-4.3,0.5-6.2,0.9c-1.3,0.3-3.5,0.9-5.3,0.9
			s-3.4-0.6-3.7-2.7c-0.4-1.8,1.3-4.1-0.9-4.9c-0.3,0-0.6,0-1.2,0.1c-1.6,0.8-3.7,2.5-5.6,2.5c-0.2,0-0.4,0-0.6-0.1
			c-1.2-0.3-3.1-1.6-4.1-2.2c-1-0.8-2.2-1.6-3-2.6c-1.9-2.4-1.8-5.3-2.1-8.3c-0.6-8.1-1-16.4-1-24.6c0-4.1,0.1-8.4,0.3-12.5
			c0.1-3.1,0.1-6.2,0.1-9.3s0-6.2,0.1-9.3c0.3-3.5,0.1-6.3,3.2-8.3c1.7-1,3.2-2.2,4.8-3.4c1.9-1.2,3.9-1.8,5.9-2.7
			c1.3-0.6,2.8-1.6,4.3-1.8C462.2,9.1,462.5,9.1,462.7,9.1 M372.7,9.8c0.9,0,1.6,0.3,2.1,1.2c1.2,1.8,1.3,4.6,1.4,6.8
			c0,1,0.1,3.2,0.1,5.5c0,2.7-0.1,5.4-0.5,6.5c-0.9,2.2-3.1,2.6-5.2,3.3c-2.3,0.6-6.2,1.2-8.8,1.4c-2.7,0-3.9,0.4-4,3.3
			c0,1.3,0,1.5,0.1,2.7c0.1,1,0,1.5,0.4,2.3c0.4,0.9,1.5,1.1,2.8,1.1c1.3,0,2.8-0.3,3.7-0.3c2.1-0.4,5.6-1.3,7.8-1.3
			c0.1,0,0.3,0,0.4,0c2.5,0.4,2.2,4.4,2.3,6.3c0.1,1.5,0.1,3.1,0.1,4.8c0.1,1.3,0.4,2.7,0.1,4c-1.3,4.4-9,4.8-12.6,5.4
			c-3,0.5-3.1,1.6-3.2,4.4c-0.1,3.1-0.1,4,0.3,7c0.4,2.4,1.5,3.1,3.8,3.1c0.2,0,0.4,0,0.6,0c2.5,0,5.2-0.5,7.5-1
			c1.4-0.4,2.6-1.3,3.7-1.3c0.7,0,1.4,0.4,2,1.5c1,1.8,0.9,4.5,1.2,6.8c0.3,2.2,0.6,4.6-0.6,6.6c-1.8,3-6.5,4.4-9.5,5.6
			c-4,1.2-8.1,1.8-12.3,1.8c-2.2-0.1-6.2-0.5-7.4-2.4c-0.6-1.2-0.5-2.8-0.6-4.1c-0.1-2.1-0.3-4.1-0.3-6.2c0-5.4-0.4-10.6-0.5-16.1
			c-0.1-4.1-0.3-8.3-0.3-12.4c0-2.5,0-4.8,0.3-7.2c0.3-3.1,0.4-6.5,0.3-9.7c-0.3-5.8-0.6-11.4-1.2-16.9c-0.1-2.1-0.6-4.1,0-6.2
			c0.5-1.9,2.7-2.3,4.5-2.3c2.6-0.3,5.3-0.4,8-0.9c3.2-0.8,6.5-1.3,9.5-2.1C369.9,10.4,371.4,9.8,372.7,9.8 M90.6,10.4
			c2.5,0,4.7,0.6,5.8,2.9c0.9,2.1,0.3,8.5,0.3,11c0,3.7,0.1,7.4,0,11.1c-0.3,6.8-0.6,13.7-1,20.5c-0.3,4.6-5,7.1-8.5,10.3
			c1.7,1,4.1,1.4,5.9,2.3c1.9,1,4.1,1.9,5.2,4c0.9,2.1,0.7,1.8,0.5,4.1c-0.1,1.9,0,4.1,0.4,6.1c0.4,1.9,4.7,2.3,7.7,2.3
			c1.2,0,2.3-0.1,2.7-0.1c3-0.3,3-0.5,5.8-0.6c0.5,0,0.9-0.1,1.2-0.1c1.1,0,1.7,0.3,2.1,1.6c0.4,1,0.4,5.8,0.4,6.8
			c0,3.3-0.8,4.9-3.9,5.2c-3,0.3-3.3,0-6.3,0.3c-3.1,0.3-10.2,1.8-15.5,1.8c-2.4,0-4.4-0.3-5.6-1.1c-1.9-1.3-4-3.1-5.2-5.2
			c-1.7-1-0.7-6.2-0.7-8.3c0-0.8,0.3-3.1,0.3-6.7c0-3-0.8-7-4.6-7c-0.2,0-0.5,0-0.7,0c-0.7,3.3-0.3,7-0.3,10.3c0,3.1,0,3.7,0,6.8
			c0,1.7,0.5,5.4-1.3,6.6c-0.8,0.4-2.4,0.3-3.5,0.4c-1.3,0.3-2.6,0.5-4,0.8c-0.6,0.2-1.4,0.2-2.2,0.2c-1.3,0-2.7-0.2-3.4-0.9
			c-1.3-0.9-0.8-3.7-0.8-5.4c0-9.2,0.3-16,0.3-25.2c0-6.6-0.4-13-0.4-19.5c0-6.7,0.5-13.5-0.1-20.1c-0.3-2.5-0.1-3.7-0.5-6.2
			c-0.3-3,1.7-4.1,4.6-4.4c2.6-0.3,5.3-1.8,7.9-2.2c2.8-0.4,6.3-1.9,9.3-1.9C85.1,11.1,88.1,10.4,90.6,10.4 M76,56
			c1.6,0,4.1-0.9,4.8-1.8c1-1.4,0.4-4.4,0.5-6.1c0.1-2.3,0-4.5,0.3-6.8c0-1.9,0-4.1-0.1-6.1c-0.1-1.1-0.2-1.6-1.4-1.6
			c-0.2,0-0.3,0-0.5,0c-0.9,0.1-2.6,0.4-3.5,0.8c-1.7,1-1.2,3.7-1.2,5.3c0,1.8-0.6,15,0,15.9C75.1,55.8,75.5,56,76,56 M165.2,10.7
			c1.3,0,2.6,0.1,4.3,0.3c4.4,0.4,5.3,3.1,5.3,6.2c0,1.8-0.3,3.9-0.4,5.4c-0.4,7.7-0.3,15.6-0.8,23.4c-0.1,3.3-0.1,12.5-0.4,15.9
			c0,2.2-0.3,3.6-1.6,5.6c-1.7,2.4-3.5,3.1-6.3,3.7c-2.7,0.5-3.6,0.9-6.2,1.7c-1.4,0.5-4.1,0.4-5.3,0.6c-1.2,0.3-1.2,1.3-1.2,2.6
			c-0.1,1.9-0.3,3.9-0.3,5.8c0,1.4,0.1,2.8,0.1,4.1c0.1,3,0.1,4.6,0.3,7.5c0.1,3.2-2.1,4.3-5,4.6c-1.7,0.2-2.9,1.1-4.3,1.1
			c-0.4,0-0.7-0.1-1.1-0.2c-2.8-0.9-2.4-4.8-2.3-7.2c0.3-4-0.1-8,0.1-12c0.1-3.3,0-7.2,0-10.6c0-3,0.4-6.1,0.4-9.2
			c0-2.3-0.4-4.6-0.5-7.1c-0.1-1.7,0-3.5-0.1-5.2c0.1-3.7,0.3-7.3,0.4-11c0.1-1.5,0.1-3.2,0.1-4.8c0-2.2,0-4.3-0.1-6.3
			c-0.1-1.9-1-5.3-0.3-7.1c0.8-1.5,3-3.5,5.4-4c0.1,0,5.3-1.2,5.6-1.2C157.7,11.7,160.5,10.7,165.2,10.7 M154.3,56.1
			c1.4,0,3.3-1,3.4-2.4c0.3-2.3,0.3-6.2,0.3-8.6s0.3-5,0.3-7.5c0-0.8,0.4-2.7-0.4-3.1c-0.2-0.1-0.4-0.1-0.7-0.1
			c-0.8,0-2,0.3-2.5,0.5c-2.3,0.8-1.8,3.2-1.9,4.9c-0.1,1.8-0.1,3.6-0.1,5.4s0,3.7-0.1,5.5c0,1.5-0.1,3.2,0.4,4.6
			C153.1,55.9,153.6,56.1,154.3,56.1 M408.7,10.8c1.5,0,3,0.4,3.7,1.9c0.5,0.9,0.8,2.3,0.8,3.9c0,1.9-0.3,4.1-0.1,5.4
			c0.3,3.7-0.6,7.4,0.1,11.5c0.1,1.3,0.5,3.1,0.5,5c0,2.1-0.4,3.9-1.4,5c-1.4,1.5-2.3,1-4.1,1.5c-0.6,0.1-1.3,0.2-2,0.2
			c-2.5,0-5.1-1-5-3.6c0.1-2.3,0.4-3.2,0.3-4c-0.1-1.5-0.2-2.1-1.6-2.1c-0.1,0-0.3,0-0.5,0c-1.2,0.1-3.6,0.3-4.5,1
			c-2.3,1.8-1.8,2.3-1.8,4c0,1.9-0.5,4,2.6,5.5c3,1.4,6.1,3.1,9.2,4.4c3.1,1.4,7.2,2.6,9.8,5.2c1.9,1.9,1.3,5.5,1.3,8.4
			c0.1,4.8-0.6,9.4-1.9,14.1c-1.2,3.9-2.8,11.3-4.8,14.8c-1.7,2.8-2.2,3.9-5,4.8c-4,1.3-6.7,1.9-8.6,1.9c-3.6,0-4.6-2.1-7.1-5.4
			c-2.2-3-4.1-6.1-4.8-10.1c-0.6-3.9-1.8-8.4-1.8-12.4c-0.1-4.8,4.1-6.7,8-6.7c1.4,0,2.7,0.3,3.9,0.8c2.6,0.9,1.5,4.1,1.9,6.7
			c0.3,1.9,0.5,6.6,2.6,6.7c2.1,0,5-4.5,5.8-6.4c1.2-3,1.2-6.2-1.5-7.9c-3-1.8-5.7-3.2-8.9-4.4c-2.5-0.9-7.1-1.3-9.4-2.7
			c-2.5-1.5-2.1-4.6-2.3-7.5c-0.4-4.5,0.1-9.2,0.1-13.9c0-4.6-0.1-11.5,2.3-15.7c2.1-4,5.9-5.4,9.5-7.2c3.4-1.7,6.6-2.1,9.9-2.3
			C405.4,11.2,407.2,10.8,408.7,10.8 M210.9,10.9c0.6,0,1.1,0,1.5,0c4.1,0.3,4.8,2.1,4.9,5.7c0,4.9,0.6,9.6,0.4,14.4
			c-0.1,2.7-0.1,5.3-0.1,8c0,5.3,0.1,10.7,0.1,16c0,8-0.4,16-0.4,23.9c0,2.8-0.3,5.6-0.3,8.3c0,1.7,0.5,3.7-0.8,5
			c-2.2,2.1-7.5,2.7-10.3,3.2c-0.6,0.1-1.1,0.2-1.5,0.2c-3.3,0-2.6-3.7-2.6-6.7c0-3.6-0.1-7.2-0.3-10.7c0-1,0.1-2.8,0.1-4.6
			c0-2.3-0.3-4.6-1.6-5.3c-0.2-0.1-0.5-0.2-0.9-0.2c-1.1,0-2.6,0.5-3.3,0.7c-1.9,0.8-1.9,1-2.2,3c-0.3,1.8-0.4,3.7-0.4,5.7
			c0,1.6,0.1,3,0.1,4.5c0.1,1.3,0.3,2.7,0.3,4.1c0,2.2-0.4,4.3-2.6,5.4c-2.6,1.4-6.8,2.3-9.8,2.8c-0.2,0-0.5,0-0.7,0
			c-3.7,0-2.8-4.1-2.7-6.8c0.4-5.6,0.5-11,0.9-16.5c0.6-12,1-23.9,1.2-35.9c0-5.9-0.8-6.1-0.3-11.9c0.3-3.5,4.5-4,7.9-4.3
			c0.2,0,0.4,0,0.7,0c2.3,0,4.8,0.6,5.5,3.1c0.6,2.7-0.3,7.1-0.5,10.1c-0.1,2.3-0.1,3.2-0.1,3.9c0,0.8,0,1.3,0.3,3.7
			c0.3,1.7-0.3,4.3,1.8,4.6c0.1,0,0.1,0,0.2,0c1.1,0,3.8-0.9,4.6-1.3c1.7-0.8,2.1-2.8,2.1-4.9c0-1.4-0.3-2.8-0.3-4
			c-0.1-3.7,0.3-7.4,0-11.1c-0.1-1.4-0.5-3.9-0.5-6.1c0-2.1,0.4-3.9,1.6-4.8C204.6,11.2,208.2,10.9,210.9,10.9 M327.3,10.9
			c1.2,0,2.3,0.1,3.7,0.4c3.1,0.6,7.4,0.6,9.3,3.2c0.8,1,1,2.6,1,4.3c0,3.1-0.9,6.7-0.9,9c0,5.7,0.4,11.3,0.4,17
			c0,1.7,0,3.5-0.1,5.2c-0.3,5.3-0.9,10.8-0.9,16.1c0.1,2.1,0.3,4.4,0.3,6.7c0,1.6-0.1,3.2-0.4,4.6c-0.9,3.2-4.3,6.8-6.6,9.3
			c-3.1,3.2-7,6.2-10.7,8.8c-3.5,2.4-6.5,4.8-9.9,4.8c-1.7,0-3.4-0.5-5.4-1.7c-3.5-2.1-3-4.3-2.6-7.9c0.3-2.8,0.4-5.8,0.4-8.6
			c0-1.6,0-3,0-4.5c0-2.6,0-5.2,0.3-7.7c0.4-4.1,0.6-8.1,0.4-12.1c-0.1-2.1-0.1-4.3-0.1-6.3c0-3.5,0.1-6.8,0.1-10.3
			c0-2.6-0.1-5.2-0.3-7.7c-0.3-3.9-1.3-9.3-0.4-13c1.3-4.5,8.5-5.4,12.5-7C321.1,12,324,10.9,327.3,10.9 M321.2,76.3
			c0.2,0,0.5-0.1,0.8-0.4c4.3-3.3,3.9-5,4.1-8c0.3-3.5,0-5.2,0-8.8c0.1-4.4,0.4-8.9,0.4-13.4c0-2.3-0.1-4.6-0.1-7
			c0-1.2,0.5-3.7-0.4-4.5c-0.2-0.2-0.6-0.3-1-0.3c-1,0-2.1,0.6-2.8,1c-1.4,0.9-1.5,1.5-1.8,3.3c-0.4,3.1,0,6.8-0.1,10.2
			c-0.1,2.2,0.1,4.3,0.3,6.3c0.3,2.2-0.4,4.3-0.6,6.3c-0.3,2.5,0,4.9,0,7.2c0,1.6,0.1,3.1,0.1,4.6C320.2,74.6,320.4,76.3,321.2,76.3
			 M267.1,11.5c0.9,0,1.9,0.1,2.9,0.2c2.8,0.4,7.1,0.9,8.9,3.4c1.9,2.8,1.5,5.8,1.4,8.9c-0.1,2.1,0,4.1,0.3,6.2
			c0.3,3.5,0.4,6.3,0.3,9.8c-0.1,2.5,0.5,5.4,0,7.9c-0.5,1.9-0.9,4-2.7,5.2c-1.5,1-3.9,1.5-6,1.5c-0.6,0-1.2,0-1.7-0.1
			c-2.2-0.4-1.7-2.8-1.5-4.5c0.1-2.3-0.4-4.4-0.1-6.8c0.1-1.4,0.4-6.5-0.8-7.6c-0.2-0.3-0.6-0.4-1.1-0.4c-1.5,0-3.7,1.2-4.3,1.9
			c-1.4,2.1-1.2,6.1-1.2,8.4c0,10.6,0.4,21.2,0.9,31.7c0.1,1.8,0.8,2.6,2.1,2.6c0.5,0,1.2-0.1,1.9-0.4c3.7-1.2,3.5-2.6,3.6-4.8
			c0.1-1.8-0.3-3.7-0.3-5.6c0-2.3,0.6-4.3,3.7-5c1-0.2,2.5-0.5,3.8-0.5c1,0,1.8,0.2,2.4,0.7c1.8,1.6,0.9,4.9,1,7c0,1.8,0,3.6,0,5.4
			s0,3.6,0.1,5.4c0,1.3,0.1,2.6,0.1,3.9c0,1.8-0.1,3.7-0.3,5.6c-0.3,2.2-1.4,3-3.6,4c-3.1,1.3-6.6,2.3-9.9,3.3
			c-1.8,0.5-3.2,0.9-4.6,0.9c-1.3,0-2.7-0.3-4.3-1c-3-1.6-6.4-3.3-8.5-6.1c-2.2-2.8-1.8-6.2-2.1-9.4c-0.5-5.3-0.3-10.6-0.5-15.7
			c-0.1-4.6-0.4-9.3-0.4-13.8c0-1.9,0-4,0.1-5.9c0.3-5.5-0.4-11.2-0.4-16.8c0-3.1-0.4-7,1.9-9.5c2.8-3.2,6.7-5.8,10.6-7.7
			C261.5,12.2,264.2,11.5,267.1,11.5 M37.6,13.3c2.8,0,5.7,0.8,7.7,2.4c2.6,2.2,4,4.5,4,8c0,3.6-0.5,7.1-0.3,10.7
			c0,2.5,1.2,5.8,0,8.1c-1,2.3-5.2,3.2-7.2,4c-1.6,0.6-2.8,1.3-3.7,1.3c-0.9,0-1.5-0.7-1.7-3.1c-0.1-1.9,0.5-6.5-1.5-6.5
			c-0.3,0-0.7,0.1-1.2,0.4c-2.7,1.7-3.9,4.5-3.9,7.5c0,6.7,0.6,13.8,0.4,20.6c-0.1,2.1,0,8.1,1.9,8.9c0.1,0,0.2,0,0.3,0
			c0.9,0,2.5-1,3.1-1.5c1.6-1,1.6-1.8,1.7-3.7c0-0.5,0-1.2,0-1.7c0-2.1-3.1-1.3-3.5-3.1c-0.5-1.8-0.1-4.1-0.1-5.9
			c0-1.4-0.3-3.3,0.5-4.5c1-1.5,3.5-1.2,5-1.7c4.9-1.4,9.6-4,14.7-4.1c0.1,0,0.2,0,0.2,0c3.6,0,3.4,3,3.2,6.2
			c-0.1,2.8,0.5,6.3-0.3,9.2c-0.8,3-3.9,1.7-4.5,4.3c-0.4,1.6,0.1,3.2,0.1,4.6c0,0.9-0.1,1.8-0.1,2.8c0.1,3,0.5,8.9,0.8,12
			c0.3,2.4,2.1,6.7-0.9,7.7c-3.3,1.4-8.1,1.2-11.7,1.8c-0.6,0.1-1.1,0.2-1.6,0.2c-1,0-1.8-0.3-2.4-1.3c-0.5-0.9-0.4-6.8-1.7-7.1
			c0,0-0.1,0-0.1,0c-0.8,0-2.1,2-2.7,2.5c-1.2,0.9-2.9,1.9-4.4,1.9c-0.1,0-0.2,0-0.2,0c-2.7-0.3-5.3-2.6-7.2-4.6
			c-2.2-2.4-3.2-5.4-3.2-8.8c0-13.2-1.2-26.5-1.8-39.6c-0.1-3.2,0.1-6.3,0.3-9.5c0-2.1,0-4.3,1.3-5.9c2.7-3.5,8-6.5,11.4-9.3
			C30.5,14.4,34.1,13.3,37.6,13.3 M433.6,14.2c1.2,0,2.1,0.4,2.7,1.9c0.4,1,0.5,2.3,0.5,3.7c0,2.1-0.3,4.1-0.3,5.8
			c0,10.3,0,20.6,0,31c0,10.2,0.4,20.4,0.4,30.3c-0.1,6.4-3.5,9.3-9,9.6c-0.2,0-0.5,0-0.8,0c-1.8,0-4.5-0.1-5.5-1.4
			c-0.8-1-1-3.2-1-5.6c0-1.7,0.1-3.2,0.1-4.3c-0.1-2.1-0.1-4-0.1-5.9c0-4,0.1-8,0.1-12c0-8.9-0.8-17.8-0.8-26.7c0-1.7,0.1-3.3,0.1-5
			c0.3-4.1,0-8.4,0.4-12.5c0.5-7,5.4-8,10.6-8.6C432,14.3,432.9,14.2,433.6,14.2 M237,14.2c1.2,0,2.1,0.4,2.7,1.9
			c0.4,1,0.5,2.3,0.5,3.7c0,2.1-0.3,4.1-0.3,5.8c0,10.3,0,20.6,0,31c0,10.2,0.4,20.4,0.4,30.3c-0.1,6.4-3.5,9.3-9,9.6
			c-0.2,0-0.5,0-0.8,0c-1.8,0-4.5-0.1-5.5-1.4c-0.8-1-1-3.2-1-5.6c0-1.7,0.1-3.2,0.1-4.3c-0.1-2.1-0.1-4-0.1-5.9c0-4,0.1-8,0.1-12
			c0-8.9-0.8-17.8-0.8-26.7c0-1.7,0.1-3.3,0.1-5c0.3-4.1,0-8.4,0.4-12.5c0.5-7,5.4-8,10.6-8.6C235.4,14.3,236.3,14.2,237,14.2
			 M521.4,5.2c-2.3,0-4.6,0.9-6.5,1.6c-0.7,0.3-1.4,0.5-2,0.7c-0.4,0.1-0.8,0.3-1.1,0.6c-2,1.8-2.3,5-2.3,8.2c0,2.7,0.2,5.8,0.5,8.5
			c0.1,1.7,0.3,3.4,0.3,4.7c0,2.4,0.2,4.8,0.4,7.1c-0.4-1.9-0.9-3.8-1.4-5.6c-0.5-1.7-0.7-3.6-1-5.7c-0.4-2.9-0.8-5.9-1.8-8.6
			c0,0,0-0.1,0-0.1c-0.9-2.2-2.8-3.5-5.1-3.5c-1.5,0-2.9,0.5-4.1,0.9c0,0,0,0-0.1,0c-0.7,0.3-1.5,0.5-2.4,0.7c-1,0.2-1.9,0.5-3,0.8
			c-4.5,1.6-9.2,3.9-9.2,12.1c0,3.2,0.1,6.4,0.2,9.5c0.1,3.1,0.2,6.4,0.2,9.5c0,0.3,0,0.5,0,0.8c-0.6-0.6-1.3-1-2.1-1.2
			c-0.8-0.2-1.6-0.3-2.4-0.3c-0.3,0-0.7,0-1,0c2.5-2.1,2.5-5.5,2.5-7.9c0.1-2.4,0.1-6.8,0.1-9.1v-5c0-0.7,0-1.5,0-2.2
			c0.1-2.1,0.1-4.3-0.2-6.5c0,0,0-0.1,0-0.1c-0.4-2.1-1-6-5.5-7.4c-1.2-0.4-2.5-0.5-3.5-0.6c-0.3,0-0.6,0-0.9-0.1
			c-0.8-0.1-1.6-0.2-2.4-0.4c-0.4-0.1-0.9-0.2-1.3-0.3c-0.1,0-0.2,0-0.3,0c-0.2,0-0.5-0.1-0.8-0.1c-0.8-0.1-1.6-0.2-2.5-0.2
			c-0.4,0-0.7,0-1,0.1c-0.1,0-0.1,0-0.2,0c-1.6,0.3-3.1,1.1-4.4,1.7c-0.2,0.1-0.4,0.2-0.6,0.3c-0.5,0.2-1.1,0.4-1.6,0.7
			c-1.5,0.6-3,1.2-4.6,2.2c-0.1,0.1-0.2,0.1-0.3,0.2c-1.5,1.1-3,2.2-4.5,3.2c-4.1,2.6-4.4,6.3-4.6,9.6c0,0.3,0,0.6-0.1,1
			c0,0,0,0.1,0,0.1c-0.1,3.2-0.1,6.3-0.1,9.4c0,3,0,6.1-0.1,9.2c-0.1,3.9-0.3,8.3-0.3,12.6c0,7.8,0.4,16.2,1,24.9
			c0,0.5,0.1,0.9,0.1,1.3c0.2,2.7,0.4,5.7,2.6,8.5c0.9,1.2,2.1,2.1,3.1,2.8c0.1,0.1,0.3,0.2,0.5,0.3c0.1,0.1,0.1,0.1,0.2,0.1
			l0.4,0.2c1.7,1.1,3.2,2,4.7,2.3c0,0,0.1,0,0.1,0c0.4,0.1,0.7,0.1,1.1,0.1c1.7,0,3.3-0.7,4.6-1.5c0,0.4,0,0.9,0.1,1.3
			c0.6,3.2,3.1,5.1,6.7,5.1c1.7,0,3.6-0.4,4.9-0.7c0.4-0.1,0.7-0.2,1-0.2c0.5-0.1,1.3-0.2,2-0.2c1.4-0.1,3-0.2,4.4-0.7
			c3.8-0.7,5.6-2.6,5.4-5.8c0-0.9-0.1-1.9-0.2-2.8c-0.1-1.9-0.2-3.8-0.2-5.7c0,0,0-0.1,0-0.1c-0.1-2.3-0.3-4.7-0.5-7
			c-0.2-2.2-0.4-4.5-0.5-6.6c0,0,0,0,0-0.1c-0.1-2-0.3-3.9-0.5-5.8c-0.1-0.6-0.1-1.3-0.2-1.9c0.1-0.2,0.2-0.4,0.3-0.6
			c0,0,0.1-0.1,0.1-0.2c0.2-0.3,0.6-0.6,1-0.9c0.3-0.2,0.6-0.4,0.9-0.7c0.2,4.7,0.4,9.6,0.4,14.5c0,0,0,0.1,0,0.1
			c0.1,1.9,0,4-0.1,6.3c-0.1,1.7-0.1,3.5-0.1,5.2c0,4.3,0.4,7.8,1.3,10.7c0.4,1.2,1.5,2.1,2.7,2.1c0.3,0,0.5,0,0.9,0
			c6.6,0,11-2.6,11.4-6.7c0.3-2.7,0.1-5.9-0.1-9.1c-0.1-1.2-0.1-2.3-0.2-3.3c0,0,0-0.1,0-0.1c-0.2-3-0.3-6.3-0.4-9.4
			c0.9,3.1,1.7,6.2,2.5,9.3c1,4.2,2.1,8.5,3.5,12.6c0,0,0,0.1,0,0.1c1,2.9,3,6.8,7.6,6.8c1.6,0,3.2-0.3,5.1-1.1l0.7-0.2
			c3.9-1.2,10.5-3.1,10-11.2c0,0,0,0,0-0.1c-0.7-7.8-0.8-15.9-0.8-22.8V54c0-2.8,0-5.6-0.1-8.2c0-2.7-0.1-5.4-0.1-8.2
			c0-2.6,0-5.3,0.1-8c0,0,0-0.1,0-0.1c0-0.9,0-1.8,0.1-2.8c0-1.1,0.1-2.4,0.1-3.6c0-6.8-0.5-11.7-1.5-15.3c-0.2-0.8-0.8-1.5-1.6-1.9
			C523.7,5.4,522.6,5.2,521.4,5.2L521.4,5.2z M461.4,36.1c0.3,0,0.6-0.1,0.8-0.1c0.2,2,0.2,4.1,0,6.4c0,0.2,0,0.4-0.1,0.5
			c-0.2,1-0.5,3,1.5,4.9c0.4,0.4,0.9,0.8,1.4,1c-0.2,0-0.4,0.1-0.5,0.1c-0.1,0-0.2,0-0.3,0.1c-0.3,0.1-0.9,0.2-1.5,0.3
			c-1.6,0.3-3.6,0.6-5,1.7c-0.1-1-0.1-1.8-0.1-2.6c0-2.7,0.3-4.8,0.6-7.6c0.1-1.1,0.3-2.2,0.4-3.5C458.6,36.9,458.7,36.5,461.4,36.1
			L461.4,36.1z M460.9,68.7c0.5,0,1.1-0.1,1.8-0.2c0.1,0,0.2-0.1,0.3-0.1c0,0.3,0,0.5,0,0.6c0,0.6-0.5,1.5-1,1.6c0,0,0,0,0,0
			c0,0-0.1,0-0.3,0c-0.3,0-0.7,0-1.1-0.1c-0.2,0-0.4,0-0.6,0c-0.2-0.6-0.4-1.1-0.5-1.6c-0.1-0.2-0.1-0.4-0.2-0.5
			C459.8,68.6,460.3,68.7,460.9,68.7L460.9,68.7z M127.2,5.7L127.2,5.7c-0.6,0-1.2,0.1-1.7,0.1c-0.2,0-0.4,0.1-0.7,0.1
			c0,0-0.1,0-0.1,0c-2.4,0.3-4.6,0.9-6.8,1.5l-0.5,0.2c-0.2,0.1-0.6,0.2-0.9,0.2c-5.3,1.4-8.7,2.7-10.1,4.9
			c-1.1,1.6-1.3,3.7-1.5,5.4c-0.1,0.4-0.1,0.9-0.1,1.2c-0.3,1.7-0.5,3.6-0.7,5.4c-0.2,2-0.4,4.1-0.7,5.6c-0.8,3-1.2,5.5-1.7,7.9
			c-0.5,2.9-1,5.6-2,8.9c-0.3,0.7-0.5,1.4-0.7,2.3c0.2-4.5,0.5-9.1,0.7-13.7c0.1-2.6,0.1-5.1,0-7.5c0-1.2,0-2.5,0-3.7
			c0-0.5,0-1.4,0.1-2.4c0.2-4.5,0.3-7.8-0.6-9.8c0,0,0,0,0-0.1c-1.4-3.1-4.3-4.7-8.5-4.7c-1.5,0-3,0.2-4.4,0.3
			c-1.3,0.2-2.5,0.3-3.5,0.3c-2.2,0-4.3,0.6-6.3,1.2C75.2,9.6,74,9.9,73,10c-1.5,0.2-3,0.7-4.3,1.2c-1.3,0.4-2.4,0.9-3.4,1
			c-2.2,0.2-3.9,0.8-5.2,1.9c-1.1,1-2.4,2.7-2.2,5.8c0,0.1,0,0.1,0,0.2c0.2,1.3,0.2,2.2,0.3,3.2c0,0.8,0.1,1.7,0.2,2.8
			c0.4,4.4,0.3,9,0.2,13.5c0,2.1-0.1,4.2-0.1,6.3c0,0.8,0,1.5,0,2.3c-1.1-1.1-2.6-1.7-4.5-1.7c-0.1,0-0.2,0-0.3,0
			c-2,0-3.9,0.4-5.8,0.9c1.6-0.8,3-1.9,3.8-3.6c1.2-2.4,0.8-5.1,0.5-7.2c-0.1-0.8-0.2-1.6-0.2-2.2c0-0.1,0-0.1,0-0.2
			c-0.1-2,0-3.9,0.1-6c0.1-1.4,0.2-2.9,0.2-4.5c0-4.1-1.6-7.3-5.1-10.3c0,0,0,0,0,0c-2.5-2-5.9-3.1-9.6-3.1c-4.3,0-8.6,1.5-11.4,3.9
			c-1.1,0.9-2.4,1.9-3.8,2.9c-2.9,2.1-5.9,4.2-8,6.9c-1.9,2.5-1.9,5.4-1.9,7.7c0,0.8-0.1,1.6-0.1,2.4c-0.1,2.4-0.2,4.8-0.1,7.4
			c0.2,4.1,0.5,8.2,0.7,12.2c0.6,9,1.1,18.3,1.1,27.3c0,4.2,1.3,7.8,4,10.8c0,0,0,0,0,0.1c2.1,2.2,5.3,5.2,9.1,5.6
			c0.2,0,0.4,0,0.5,0c2,0,3.9-1,5.6-2.1c0.2,1.5,0.3,2.5,0.8,3.3c0.8,1.3,2.2,2.8,5,2.8c0.7,0,1.4-0.1,2-0.2c0,0,0,0,0.1,0
			c1.2-0.2,2.5-0.3,3.9-0.4c2.8-0.2,5.8-0.5,8.4-1.5c4.7-1.7,3.6-6.8,3.1-9.3c-0.1-0.6-0.2-1.1-0.3-1.5c-0.3-3.2-0.6-8.9-0.8-11.8
			c0-0.4,0-0.8,0.1-1.2c0-0.5,0.1-1,0.1-1.5c0-0.7-0.1-1.3-0.2-1.9s-0.2-1.3-0.1-1.7c0.1,0,0.2-0.1,0.3-0.1c0.8-0.3,2.2-0.8,3.2-2.2
			c0,3.6-0.1,6.9-0.1,10.2c-0.1,3.9-0.1,8-0.1,12.6c0,0.3,0,0.7,0,1c-0.1,2-0.3,5.1,2,6.8c1.5,1.3,3.7,1.5,5.2,1.5
			c1,0,2-0.1,2.8-0.3c1.4-0.3,2.7-0.5,3.8-0.7c0.2,0,0.5,0,0.9,0c1.1,0,2.4-0.1,3.5-0.6c0.1-0.1,0.2-0.1,0.3-0.2
			c1.3-0.9,2.1-2.2,2.4-3.6c0.2,0.4,0.5,0.9,0.9,1.2c1.6,2.5,4,4.4,5.8,5.7c1.6,1.1,3.9,1.7,7.2,1.7c3.7,0,8.1-0.7,11.6-1.2
			c1.7-0.3,3.1-0.5,4.1-0.6c1.4-0.1,2.1-0.1,2.9-0.1c0.9,0,1.8,0,3.4-0.1c3.6-0.3,5.2-2.1,6-3.9c1,0.7,2.2,1.1,3.7,1.1
			c0.1,0,0.2,0,0.3,0c3.3-0.3,5.8-0.8,8.7-2.4c0.1,0,0.2-0.1,0.2-0.1c0.6-0.3,1.8-0.8,2.5-2c0,2.9,0.4,6.9,4.5,8.2
			c0.6,0.2,1.3,0.3,2,0.3c1.3,0,2.4-0.4,3.2-0.7c0.6-0.2,1-0.4,1.5-0.4c6.6-0.8,7.8-4.7,7.7-7.7c-0.1-1.4-0.1-2.6-0.1-3.7
			c0-1.1-0.1-2.3-0.1-3.7c0-0.7,0-1.4-0.1-2c0-0.7-0.1-1.4-0.1-2c0-1.8,0.1-3.6,0.2-5.6c0.1,0,0.2,0,0.3,0c1.3-0.1,2.9-0.2,4.1-0.6
			c0.6-0.2,1.1-0.3,1.6-0.5c1.5-0.5,2.4-0.7,4.2-1.1c0,0,0.1,0,0.1,0c3.1-0.7,5.8-1.6,8.1-5c1.7-2.6,2.1-4.6,2.1-7.1
			c0.2-2.2,0.2-6.4,0.3-10.2c0-2.3,0.1-4.4,0.1-5.7c0.3-4.3,0.4-8.8,0.5-13.1c0-0.3,0-0.6,0-0.9c0.1,0.9,0.1,1.9,0.1,3.2
			C177,47.3,176.7,59,176,71.1c-0.2,2.8-0.3,5.6-0.4,8.3c-0.1,2.7-0.3,5.4-0.4,8.2c0,0,0,0.1,0,0.1c0,0.3-0.1,0.7-0.1,1.1
			c-0.2,2.1-0.4,5.1,1.4,7.1c0.7,0.8,2.1,1.7,4.3,1.7c0.3,0,0.7,0,1-0.1c0.1,0,0.1,0,0.2,0c4.9-0.8,8.4-1.9,10.7-3.2
			c4.1-2.2,4.1-6.6,4.1-8.1c0-1.5-0.1-3-0.3-4.3c0-0.8,0-1.5-0.1-2.2c0-0.7-0.1-1.4-0.1-2.1c0-1.8,0.1-3.6,0.4-5.2l0-0.1
			c0-0.1,0-0.2,0.1-0.4c0,0,0.1,0,0.1-0.1l0.2-0.1c0.3-0.1,0.9-0.2,1.4-0.4c0.1,0.4,0.2,1.2,0.2,2.3c0,1,0,1.9-0.1,2.8
			c0,0.7-0.1,1.3-0.1,1.8c0,0,0,0.1,0,0.1c0.1,3.1,0.3,6.9,0.3,10.6c0,0.4,0,0.8,0,1.2c-0.1,2.2-0.1,5.1,1.7,6.9
			c0.7,0.7,1.9,1.6,4,1.6c0.6,0,1.3-0.1,2.1-0.3c0.3-0.1,0.7-0.1,1.1-0.2c3.4-0.6,8.1-1.4,10.7-3.8c0,0,0,0,0.1-0.1
			c2-2,1.8-4.5,1.7-6.2c0-0.3,0-0.7,0-0.9c0-1.3,0.1-2.5,0.1-3.9c0.1-1.4,0.1-2.9,0.1-4.4c0-3.9,0.1-7.9,0.2-11.8
			c0.1-4,0.2-8,0.2-12.1c0-0.9,0-1.8,0-2.7c0,0.6,0.1,1.2,0.1,1.7c0.2,4.3,0.4,8.8,0.4,13.2c0,2,0,4-0.1,5.9c0,2-0.1,4-0.1,6.1
			c0,1.9,0,3.9,0.1,6c0,0.4,0,0.9-0.1,1.4c0,0.8-0.1,1.8-0.1,2.8c0,3.5,0.5,5.9,1.6,7.3c1.7,2.3,5,2.6,7.9,2.6h0.5h0.4
			c0.1,0,0.1,0,0.1,0c7.5-0.3,11.7-4.8,11.9-12.5c0,0,0,0,0-0.1c0-5-0.1-10.1-0.2-15c-0.1-5-0.2-10.2-0.2-15.3v-31
			c0-0.7,0.1-1.5,0.1-2.4c0.1-1,0.1-2.2,0.1-3.4c0-2-0.2-3.5-0.7-4.8c0,0,0,0,0-0.1c-1-2.5-2.9-3.8-5.5-3.8l0,0
			c-0.7,0-1.4,0.1-2.1,0.2c-0.3,0-0.6,0.1-0.9,0.1c0,0,0,0-0.1,0c-4.4,0.5-12.4,1.6-13.2,11.4c-0.1,1.1-0.2,2.1-0.2,3.2
			c0-1.2-0.1-2.4-0.2-3.5c-0.1-1.9-0.2-3.9-0.2-5.9c0,0,0-0.1,0-0.1c-0.1-2.6-0.3-8.1-7.7-8.6c-0.6,0-1.1,0-1.7,0
			c-4.6,0-7.9,0.8-9.8,2.2c-1.8,1.4-2.7,3.7-2.7,7.1c0,1.8,0.2,3.6,0.4,5c0.1,0.5,0.1,0.9,0.1,1.3c0.1,1.9,0.1,3.8,0,5.8
			c0,1.6-0.1,3.3,0,5.1c0,0.7,0.1,1.4,0.1,2c0.1,0.6,0.1,1.3,0.1,1.9c0,1.6-0.3,2.1-0.4,2.2c-0.6,0.2-1.4,0.5-2.2,0.8
			c0-0.1,0-0.2,0-0.2c0-0.5,0-1-0.1-1.5c-0.2-2.2-0.2-2.7-0.2-3.4c0-0.6,0-1.5,0.1-3.7c0.1-0.7,0.2-1.5,0.3-2.4
			c0.4-2.8,0.8-6.1,0.2-8.6c0,0,0-0.1,0-0.1c-1-3.4-4-5.3-8.4-5.3c-0.3,0-0.6,0-0.8,0c0,0-0.1,0-0.1,0c-2.6,0.2-8.1,0.6-10,4.6
			c0.1-1.2,0.2-2.4,0.2-3.6c0-7-4.4-8.9-8-9.2l-0.9-0.1c-1.3-0.1-2.4-0.2-3.6-0.2c-4.1,0-7,0.8-11.4,1.9c-1,0.3-2.1,0.6-3.3,0.9
			c-0.4,0.1-1.3,0.3-3.6,0.8c-0.9,0.2-1.6,0.4-1.9,0.4c-0.1,0-0.1,0-0.2,0c-3.6,0.8-6.4,3.4-7.5,5.6c0,0,0,0.1-0.1,0.2
			c-0.9,2.1-0.5,4.6-0.2,6.8c0.1,0.6,0.2,1.2,0.2,1.7c0.1,2,0.1,4,0.1,6.1c0,1.5,0,3.1-0.1,4.5c0,0,0,0.1,0,0.1l0,0.9
			c0,0.9-0.1,1.7-0.1,2.6c-0.2-1-0.3-1.9-0.5-2.8c-0.4-1.9-0.7-3.8-0.8-5.6c-0.2-5-0.6-11.5-1.4-17.8c0,0,0-0.1,0-0.1
			c-0.2-1.5-0.7-4.3-2.6-6.2C130.6,6.3,129,5.7,127.2,5.7L127.2,5.7z M77.8,37c0.2,0,0.4-0.1,0.7-0.2c0.1,1.4,0.1,2.9,0.1,4.2
			c-0.2,1.5-0.2,2.9-0.2,4.2c0,0.9,0,1.7-0.1,2.6c-0.1,0.7,0,1.5,0,2.2c0,0.6,0.1,1.7,0,2.2c-0.2,0.1-0.5,0.2-0.8,0.3
			c0-2.9,0.1-7.8,0.2-10c0.1-1.4,0.1-2.4,0.1-2.9c0-0.3,0-0.7,0-1.1C77.8,38.2,77.8,37.5,77.8,37L77.8,37z M33,52.2
			c-0.1-2.1-0.1-4.1-0.1-6.1c0-0.8,0.1-1.9,0.6-2.8c0,0.6,0,1.1,0,1.6c0,0,0,0.1,0,0.2c0.4,3.8,2,5.7,4.7,5.8
			c-0.2,0.1-0.7,0.1-1,0.2C35.9,51.1,34.3,51.3,33,52.2L33,52.2z M93,65.3c2.8-2.3,5.4-5,5.7-9.2V56c0-0.4,0-0.8,0.1-1.1
			c0,2,0.1,4,0.1,6c0.1,2,0.1,4,0.1,6c0,0,0,0.1,0,0.1c0,0.6,0,1.2,0,1.7c-1.2-1.1-2.6-1.8-3.8-2.4c-0.2-0.1-0.5-0.2-0.7-0.4
			c0,0-0.1,0-0.1,0C93.9,65.7,93.4,65.5,93,65.3L93,65.3z M137.4,63.8c0-1.9,0.1-3.8,0.1-5.6c0,0.6,0.1,1.2,0.1,1.8
			C137.5,61.2,137.4,62.5,137.4,63.8L137.4,63.8z M118.5,69.2c0.1,0,0.2-0.1,0.3-0.1c0.1,0,0.1-0.1,0.2-0.1c0,0.1,0,0.2,0,0.3
			c0,0.6,0,1.1,0,1.6c0.1,1.3,0.1,7,0,11c-0.7-0.3-1.5-0.5-2.5-0.5c-0.4,0-0.9,0-1.3,0.1l-0.1,0c-0.8,0-1.5,0.1-2,0.2
			c3.1-1.3,5.3-3.6,5.3-7.1v-3.3v-0.4C118.5,70.2,118.5,69.6,118.5,69.2L118.5,69.2z M33.5,72.1c-0.1-0.7-0.2-1.6-0.3-2.6
			c0.4,0.2,0.7,0.3,1,0.4v0.5l0,0.1c0,0.4-0.1,0.8-0.1,1.1c0,0-0.1,0.1-0.2,0.2c-0.1,0.1-0.1,0.1-0.2,0.2C33.6,72,33.5,72,33.5,72.1
			L33.5,72.1z M372.7,6.8L372.7,6.8c-1.3,0-2.6,0.4-3.7,0.7c-0.4,0.1-0.8,0.2-1.1,0.3c-1.6,0.4-3.2,0.7-4.9,1.1
			c-1.5,0.3-3.1,0.6-4.6,1c-1.8,0.3-3.7,0.5-5.5,0.7c-0.7,0.1-1.3,0.1-2,0.2c-4.8,0.1-6.5,2.4-7.1,4.1c-0.3-0.7-0.6-1.4-1-2
			c-2.2-3-6-3.6-9.1-4c-0.7-0.1-1.4-0.2-2-0.3c0,0,0,0-0.1,0c-1.7-0.3-3-0.4-4.3-0.4c-4,0-7.4,1.3-11,2.7c-0.8,0.3-1.9,0.6-2.9,0.9
			c-4.2,1.2-10,2.9-11.4,8c0,0,0,0.1,0,0.1c-0.8,3.3-0.4,7.3,0,10.8c0.1,1.1,0.2,2.2,0.3,3.1c0.1,2.5,0.2,5,0.2,7.5
			c0,1.7,0,3.4-0.1,5.1c0,1.7-0.1,3.5-0.1,5.2c0,2.1,0,4.3,0.1,6.5c0.3,4,0,7.9-0.4,11.7c-0.3,2.7-0.3,5.4-0.3,8v4.5
			c0,2.8-0.1,5.7-0.4,8.4l-0.1,0.7c-0.4,3.4-0.8,7.2,4.1,10.1c0,0,0,0,0.1,0c2.5,1.4,4.7,2.1,6.9,2.1c4.2,0,7.4-2.3,10.8-4.7
			l0.8-0.6c4.7-3.2,8.4-6.2,11.1-9.2c3-3.2,6.3-6.8,7.3-10.6c0-0.1,0-0.2,0.1-0.3c0.3-1.5,0.4-3.4,0.4-5.2c0-2.3-0.1-4.6-0.3-6.8
			c0-3.2,0.3-6.6,0.5-9.9c0.1-2,0.3-4,0.4-6c0.1-1.8,0.1-3.7,0.1-5.3c0-2.9-0.1-5.8-0.2-8.6c-0.1-2.8-0.2-5.6-0.2-8.4
			c0-0.8,0.1-1.8,0.3-2.9c0.4,4.8,0.7,9.5,0.9,14.3c0.1,2.8,0,5.9-0.2,9.3c-0.3,2.6-0.3,5-0.3,7.5c0,4.2,0.1,8.4,0.3,12.5
			c0,2.3,0.1,4.5,0.2,6.7c0.1,3.2,0.3,6.2,0.3,9.3c0,2.2,0.1,4.3,0.3,6.4c0,0,0,0.1,0,0.1c0,0.3,0,0.6,0,0.9c0.1,1.3,0.1,2.9,1,4.4
			c0,0,0,0.1,0,0.1c1.8,3.1,6.2,3.7,9.8,3.9c0.1,0,0.1,0,0.2,0c4.3,0,8.7-0.7,13.1-1.9c0.1,0,0.1-0.1,0.2-0.1c0.3-0.1,0.7-0.2,1-0.4
			c3.3-1.2,7.8-2.9,10-6.4c0.6-0.9,1-1.9,1.2-2.9c1.1,2.9,2.7,5.4,4.3,7.6c0.2,0.3,0.5,0.7,0.7,1c2.1,2.9,4,5.6,8.8,5.6
			c2.2,0,5-0.6,9.6-2.1c3.8-1.2,4.9-3,6.5-5.8l0.2-0.3c0,0,0-0.1,0-0.1c1.6-2.9,3-7.9,4.1-12c0.4-1.3,0.7-2.5,1-3.5c0,0,0,0,0-0.1
			c0.3-0.9,0.5-1.9,0.7-2.8c0,1,0,2,0,3c0,1.9,0,3.9,0.1,6c0,0.4,0,0.9,0,1.4c0,0.8-0.1,1.8-0.1,2.8c0,3.5,0.5,5.9,1.6,7.3
			c1.7,2.3,5,2.6,7.9,2.6h0.5h0.4c0,0,0.1,0,0.1,0c7.5-0.3,11.7-4.8,11.9-12.5c0,0,0,0,0-0.1c0-5-0.1-10.1-0.2-15
			c-0.1-5-0.2-10.2-0.2-15.3v-31c0-0.7,0-1.5,0.1-2.4c0.1-1,0.1-2.2,0.1-3.4c0-2-0.2-3.5-0.7-4.8c0,0,0,0,0-0.1
			c-1-2.5-2.9-3.8-5.5-3.8l0,0c-0.7,0-1.4,0.1-2,0.2c-0.3,0-0.6,0.1-0.9,0.1c0,0,0,0-0.1,0c-4.4,0.5-12.5,1.6-13.2,11.4
			c-0.2,2.4-0.2,4.8-0.3,7.2c0,1.9,0,3.6-0.1,5.4c0,0.1,0,0.1,0,0.2c0,0.8,0,1.6-0.1,2.4c0,0.8-0.1,1.7-0.1,2.6
			c0,4.5,0.2,9.1,0.4,13.5c0,0.1,0,0.2,0,0.3c-0.2-0.2-0.4-0.4-0.6-0.6c-2.4-2.4-5.5-3.7-8.4-4.8c-0.5-0.2-1-0.4-1.5-0.6
			c0.7,0,1.3-0.1,1.9-0.3c0,0,0.1,0,0.1,0c0.4-0.1,0.7-0.1,1-0.2c1.2-0.2,2.8-0.3,4.5-2.2c1.5-1.7,2.2-4,2.2-7.1
			c0-1.5-0.2-3-0.4-4.1c-0.1-0.4-0.1-0.8-0.2-1.2c0-0.1,0-0.2,0-0.2c-0.4-2.1-0.3-4.1-0.1-6.2c0.1-1.6,0.2-3.2,0.1-4.9
			c0,0,0-0.1,0-0.1c0-0.5,0-1.5,0-2.5c0-0.9,0.1-1.8,0.1-2.6c0-1.5-0.2-3.6-1.1-5.3c-0.8-1.6-2.6-3.5-6.4-3.5
			c-1.2,0-2.3,0.2-3.4,0.3c-0.6,0.1-1.2,0.2-1.7,0.2c-3.4,0.3-7.1,0.7-11,2.6c-0.5,0.2-0.9,0.4-1.4,0.7c-3.4,1.6-7.2,3.5-9.5,7.8
			C379,24.2,379,31,379,36v0.7c0,1.7-0.1,3.4-0.1,5.1c-0.1,3-0.2,6.1,0,9.1c0,0.5,0.1,1,0.1,1.5c0.1,2.6,0.3,6.2,3.6,8.3
			c1.5,0.9,3.3,1.4,5.2,1.8c-2.6,0.4-4.9,1.5-6.4,3.1c-1.7,1.7-2.5,4-2.5,6.5c0,0.5,0,0.9,0,1.4c-1.1-1.1-2.4-1.4-3.4-1.4
			c-1.3,0-2.5,0.5-3.4,1c-0.4,0.2-0.8,0.3-1.1,0.4c-2,0.4-4.5,0.9-6.7,0.9c0,0-0.1,0-0.1,0c-0.2,0-0.3,0-0.5,0c-0.4,0-0.6,0-0.7-0.1
			c0-0.1-0.1-0.3-0.1-0.5c-0.4-2.7-0.4-3.4-0.2-6.4c0-0.4,0-1,0.1-1.4c0.1,0,0.4-0.1,0.6-0.1c0.5-0.1,1.1-0.2,1.8-0.3
			c4.6-0.7,11.6-1.7,13.3-7.3c0-0.1,0-0.2,0.1-0.3c0.3-1.5,0.1-3,0-4.2c0-0.2,0-0.4-0.1-0.5c0-1.7,0-3.2-0.1-4.8c0-0.2,0-0.5,0-0.8
			c-0.1-2.3-0.3-7.5-4.8-8.3c-0.1,0-0.2,0-0.3,0c-0.2,0-0.4,0-0.6,0c-1.8,0-4.2,0.5-6.3,1c-0.7,0.2-1.3,0.3-1.9,0.4
			c-0.3,0-0.6,0.1-1,0.1c-0.7,0.1-1.6,0.2-2.3,0.2c0,0-0.1,0-0.1,0c0-0.2,0-0.5-0.1-0.8c-0.1-0.9-0.1-1.1-0.1-2.3c0-0.2,0-0.3,0-0.4
			c0.2,0,0.5,0,1,0c0.1,0,0.2,0,0.3,0c1.4-0.1,6.2-0.7,9.3-1.5c0.1,0,0.2,0,0.2-0.1c0.3-0.1,0.6-0.2,0.9-0.3c2-0.7,4.7-1.6,6-4.7
			c0,0,0-0.1,0-0.1c0.2-0.5,0.7-1.9,0.7-7.5c0-1.4,0-2.8-0.1-3.9c0-0.7,0-1.2,0-1.6c0-0.1,0-0.1,0-0.2l0-0.2c-0.1-2.5-0.3-5.6-1.8-8
			C376.4,7.7,374.8,6.8,372.7,6.8L372.7,6.8z M396.7,39.2c0.4-0.1,1.1-0.2,1.8-0.3c0,0.1,0,0.2,0,0.3c-0.1,0.6-0.1,1.4-0.2,2.5
			c0,0,0,0,0,0c0,1,0.1,2,0.5,2.8c-0.6-0.3-1.2-0.6-1.8-0.9c-1-0.5-1-0.5-0.9-2c0-0.3,0-0.5,0-0.8c0-0.3,0-0.7,0-0.9
			c0,0,0-0.1,0-0.1C396.2,39.6,396.4,39.4,396.7,39.2L396.7,39.2z M323.4,52c-0.1-1.2-0.1-2.3-0.1-3.4c0,0,0,0,0-0.1
			c0.1-1.4,0-2.9,0-4.3c0-1.9-0.1-3.7,0.1-5.2c0,1.1,0,2.2,0.1,3.3c0,1.1,0.1,2.3,0.1,3.4C323.5,47.9,323.5,50,323.4,52L323.4,52z
			 M323,61.5c0.1-0.4,0.1-0.9,0.2-1.4c0,0.9,0,1.8,0.1,2.5c0,1.7,0.1,3.1-0.1,5.1c0,0.3,0,0.6-0.1,1c0,0.4,0,0.8-0.1,1.1
			c0-0.5,0-1,0-1.5c0-0.8,0-1.6-0.1-2.4C322.9,64.4,322.8,62.9,323,61.5L323,61.5z M399.1,75.4c-0.1-0.8-0.2-1.7-0.3-2.2
			c0-0.3-0.1-0.6-0.1-0.8c-0.1-0.6-0.1-1.2-0.1-1.9c0-1.2,0-3-0.7-4.6c1,0.5,2,1.1,3.1,1.8c0.6,0.4,1.4,1.4,0.3,4.2
			C400.9,72.9,399.9,74.4,399.1,75.4L399.1,75.4z M267.1,8.5L267.1,8.5c-3.5,0-6.6,0.8-9.6,2.3c-4.8,2.4-8.6,5.2-11.4,8.4
			c-2.8,3.1-2.7,7.3-2.7,10.4c0,0.4,0,0.8,0,1.1c0,2.4,0.1,4.8,0.2,7.1c0.1,3.2,0.3,6.4,0.2,9.5c-0.1,2-0.1,4.1-0.1,6.1
			c0,3,0.1,6.2,0.2,9.2c0.1,1.6,0.1,3.1,0.2,4.7c0,0,0,0,0,0.1c0.1,2,0.1,4,0.1,6.1c0,3.2,0.1,6.4,0.4,9.7c0.1,0.6,0.1,1.2,0.1,1.8
			c0.1,2.9,0.2,6.2,2.6,9.2c2.4,3.2,6.3,5.2,9.4,6.8l0.1,0c0,0,0,0,0.1,0c1.8,0.9,3.7,1.3,5.6,1.3c1.9,0,3.7-0.5,5.5-1
			c0,0,0,0,0.1,0l1-0.3c3.1-0.9,6.3-1.9,9.2-3.2c0,0,0.1,0,0.1-0.1c1.9-0.9,4.8-2.3,5.3-6.4c0-0.1,0-0.1,0-0.1
			c0.1-1.9,0.3-3.9,0.3-5.8c0-0.7,0-1.4-0.1-2.1c0-0.6-0.1-1.2-0.1-1.8c0-0.1,0-0.1,0-0.2c-0.1-1.7-0.1-3.4-0.1-5.2V71
			c0-0.1,0-0.1,0-0.2c0-0.4,0-0.9,0-1.5c0.1-2.2,0.3-5.4-2.1-7.5c0,0,0,0,0,0c-1.1-0.9-2.5-1.3-4.3-1.3c-1.6,0-3.2,0.3-4.4,0.6
			c0,0-0.1,0-0.1,0c-4,1-6,3.7-6,7.9c0,0.9,0.1,1.8,0.1,2.6c0.1,1,0.2,1.9,0.1,2.7c0,0.2,0,0.4,0,0.6c0,0.3,0,0.7-0.1,0.9
			c-0.1,0.1-0.5,0.3-1.4,0.6c-0.1,0-0.1,0-0.1,0c-0.6-12.5-0.9-22.1-0.9-31.1c0-0.3,0-0.6,0-1c0-1.6-0.1-4.4,0.5-5.5
			c0.2-0.2,0.5-0.3,0.9-0.5c0.1,1.2,0.1,2.9,0,4.4c-0.2,1.6-0.1,3,0,4.3c0.1,0.9,0.1,1.8,0.1,2.6c0,0.2,0,0.3,0,0.5
			c-0.1,1-0.2,2.2,0.1,3.4c0.5,2,1.9,3.4,4,3.8c0,0,0,0,0,0c0.7,0.1,1.4,0.2,2.2,0.2c2.9,0,5.8-0.8,7.7-2c2.6-1.7,3.3-4.4,3.8-6.4
			l0.1-0.5c0,0,0-0.1,0-0.2c0.4-1.9,0.3-3.9,0.1-5.6c-0.1-1-0.1-1.9-0.1-2.7c0.1-3.7,0-6.6-0.3-10.2c0,0,0-0.1,0-0.1
			c-0.3-2.1-0.3-4-0.2-5.6c0,0,0,0,0-0.1c0-0.3,0-0.6,0-0.9c0.1-3,0.3-6.4-2-9.8c0,0,0-0.1-0.1-0.1c-2.5-3.4-7.4-4.1-10.7-4.5
			l-0.2,0C269.2,8.6,268.1,8.5,267.1,8.5L267.1,8.5z"/>
	</g>
</g>
</svg>
